<svg xmlns="http://www.w3.org/2000/svg" width="23.276" height="12.496" viewBox="0 0 23.276 12.496">
  <path id="ar_search_txt" d="M-14.13-5.353v2.563A6.455,6.455,0,0,0-14.089-2a1.312,1.312,0,0,0,.174.54.8.8,0,0,0,.383.314,1.81,1.81,0,0,0,.673.1V.1h-.15a2.3,2.3,0,0,1-1.046-.2,1.384,1.384,0,0,1-.6-.636h-.027a2.092,2.092,0,0,1-.738.5A4.314,4.314,0,0,1-16.4.031a8.909,8.909,0,0,1-1.152.1q-.615.017-1.271.017-.93,0-1.7-.014T-21.906.051a5.661,5.661,0,0,1-1.083-.222A2.29,2.29,0,0,1-23.782-.6a1.933,1.933,0,0,1-.6-.9,3.7,3.7,0,0,1-.164-1.121,5.036,5.036,0,0,1,.062-.8q.062-.383.137-.731H-23.3q-.062.294-.12.639a4.3,4.3,0,0,0-.058.714,2.5,2.5,0,0,0,.106.749,1.14,1.14,0,0,0,.427.578,1.676,1.676,0,0,0,.513.236,4.665,4.665,0,0,0,.813.144q.5.051,1.213.068T-18.683-1q.875,0,1.531-.034a4.345,4.345,0,0,0,1.09-.174,1.279,1.279,0,0,0,.649-.424,1.255,1.255,0,0,0,.215-.776V-5.353Zm-5.619-1.627h-1.265V-8.217h1.265Zm2.2,0h-1.265V-8.217h1.265Zm-1.1-1.914h-1.265v-1.237h1.265ZM-12.858.1a.4.4,0,0,1-.359-.178.694.694,0,0,1-.12-.4.678.678,0,0,1,.12-.393.406.406,0,0,1,.359-.174h.4a6.715,6.715,0,0,0,1.606-.188,9.393,9.393,0,0,0,1.473-.492,12.258,12.258,0,0,0,1.36-.687q.653-.383,1.268-.772V-3.22q-.39-.185-.718-.366a6.746,6.746,0,0,0-.684-.328,4.6,4.6,0,0,0-.779-.239,4.856,4.856,0,0,0-1.019-.092,6.182,6.182,0,0,0-.964.068A5.483,5.483,0,0,0-11.689-4V-5.072a5.943,5.943,0,0,1,.827-.2,5.746,5.746,0,0,1,.984-.079,4.284,4.284,0,0,1,.971.1,5.3,5.3,0,0,1,.786.246q.362.147.694.318t.69.321a5.248,5.248,0,0,0,.776.253,4.222,4.222,0,0,0,.95.109l-.219,1.367a2.355,2.355,0,0,0-.492.195Q-6-2.3-6.33-2.105a1.681,1.681,0,0,0,.075.5.645.645,0,0,0,.25.328,1.242,1.242,0,0,0,.5.181,5.1,5.1,0,0,0,.827.055V.1h-.137a3.589,3.589,0,0,1-1.1-.14,1.782,1.782,0,0,1-.68-.379,1.313,1.313,0,0,1-.355-.557,2.515,2.515,0,0,1-.116-.68q-.492.294-1.077.6a10.679,10.679,0,0,1-1.268.567,10.108,10.108,0,0,1-1.459.42A7.969,7.969,0,0,1-12.517.1ZM-3.63-1.046A2.713,2.713,0,0,0-3.073-1.1a.881.881,0,0,0,.407-.195.869.869,0,0,0,.246-.39,2.051,2.051,0,0,0,.082-.636V-5.353h1.066V-2.27a3.634,3.634,0,0,1-.1.889,2.144,2.144,0,0,1-.263.636,1.587,1.587,0,0,1-.4.427,1.786,1.786,0,0,1-.5.256,2.852,2.852,0,0,1-.567.123A5.294,5.294,0,0,1-3.7.1h-.978a.4.4,0,0,1-.359-.178.694.694,0,0,1-.12-.4.678.678,0,0,1,.12-.393.406.406,0,0,1,.359-.174Zm2.235,3.411H-2.659V1.128h1.265Z" transform="translate(24.548 10.131)" fill="#1f2f43"/>
</svg>
