<svg xmlns="http://www.w3.org/2000/svg" xmlns:xlink="http://www.w3.org/1999/xlink" width="144.38" height="79.299" viewBox="0 0 144.38 79.299">
  <defs>
    <clipPath id="clip-path">
      <path id="Path_91754" data-name="Path 91754" d="M14.71,37.4l6.5-3.818V23.554h-6.5Z" transform="translate(-14.71 -23.554)" fill="#fff"/>
    </clipPath>
    <clipPath id="clip-path-2">
      <path id="Path_91755" data-name="Path 91755" d="M25.106,31.432l4.4-2.6,2.094,2.6V17.737h-6.5Z" transform="translate(-25.106 -17.737)" fill="#fff"/>
    </clipPath>
    <clipPath id="clip-path-3">
      <path id="Path_91756" data-name="Path 91756" d="M35.861,33.131l1.089,1.341,5.407-3.4V13.436h-6.5Z" transform="translate(-35.861 -13.436)" fill="#fff"/>
    </clipPath>
    <clipPath id="clip-path-4">
      <path id="Path_91757" data-name="Path 91757" d="M6.986,14.517A10.046,10.046,0,0,1,16.752,4.232H38.631a2.3,2.3,0,0,1,2.232,2.352V23.835l-2.07.239,1.83,2.457L29.092,33.877,24.116,27.4,6.986,37.461ZM16.752,0C9.15,0,2.966,6.512,2.966,14.517v25.3L0,41.564v2.842L22.585,33.7l5.82,7.831L43.89,31.274l1.579,2.249,5.921-10.9-6.507.752V6.584A6.432,6.432,0,0,0,38.631,0Z" fill="#fff"/>
    </clipPath>
  </defs>
  <g id="Footer_LOGO_AR" transform="translate(-1635.62 -4870)">
    <path id="Path_95284" data-name="Path 95284" d="M63.863,5.28a7.04,7.04,0,0,1-.793.932,9.4,9.4,0,0,1-.794.724l-.3.23a9.126,9.126,0,0,1-1.564-1.518,8.411,8.411,0,0,1-.724.77q-.4.38-.632.564l-.253.184a7.574,7.574,0,0,1-.966-.839,6.5,6.5,0,0,1-.667-.771l-.207-.276A16.938,16.938,0,0,1,58.8,3.371a11.254,11.254,0,0,1,1.61,1.564,18.817,18.817,0,0,1,1.564-1.564A9.387,9.387,0,0,1,63.863,5.28Zm2.369,14.651L65.864,20h-.69a2.9,2.9,0,0,1-2.3-.943,5.847,5.847,0,0,1-1.2-2.691l-1.564,2.6a3.838,3.838,0,0,1-1.472.207,3.475,3.475,0,0,1-1.863-.483,2.742,2.742,0,0,1-1.081-1.1,4.383,4.383,0,0,1,.012-1.759,4.552,4.552,0,0,1,.425-1.736A13.25,13.25,0,0,1,60.85,10.57L60.735,9.4l2.3-1.656h.828v6.44a5.158,5.158,0,0,0,.207,2q.207.3,1.518.3h.276l.368.069Zm-6.808-4.278a15.006,15.006,0,0,0,1.863-.115q-.069-.667-.253-2.737a14.983,14.983,0,0,0-4.025,2.254A4.3,4.3,0,0,0,59.424,15.653ZM65.864,20l-.368-.069V16.55l.368-.069a25.08,25.08,0,0,0,3.151-.138Q68.831,15.4,68.5,14.2T67.934,12.3l-.23-.713L69.8,9.42H70.6l1.15,3.335-.023.552-.69.69a9.323,9.323,0,0,1,.138,1.357,6.6,6.6,0,0,1-1.15,2.323,6.342,6.342,0,0,1-1.587,1.955A6.943,6.943,0,0,1,65.864,20Zm6.118,3.036a6.553,6.553,0,0,1-1.426,1.472l-.276.23a11.76,11.76,0,0,1-1.426-1.357,6.624,6.624,0,0,1-.644.69,5.863,5.863,0,0,1-.6.506l-.207.161a8.273,8.273,0,0,1-.885-.771,6.307,6.307,0,0,1-.61-.679l-.184-.253A12.882,12.882,0,0,1,67.4,21.311a10.387,10.387,0,0,1,1.472,1.4,12.072,12.072,0,0,1,1.4-1.4A9.231,9.231,0,0,1,71.982,23.036ZM76.168,20q-3.128,0-3.128-2.714a6.637,6.637,0,0,1,.322-1.943,8.723,8.723,0,0,1,.575-1.506l1.012.253a9.361,9.361,0,0,0-.115,1.127,1.245,1.245,0,0,0,.069.437,1.152,1.152,0,0,0,.276.391,1.473,1.473,0,0,0,.713.322,5.966,5.966,0,0,0,1.288.115q1.288,0,3.588-.115-.138-.276-.334-.609t-.356-.587q-.161-.253-.46-.679l-.46-.655q-.161-.23-.563-.748t-.552-.725q-.149-.207-.632-.828l-.644-.828L78.4,7.948H79.2a25.29,25.29,0,0,1,2.185,3.841,9.51,9.51,0,0,1,1.127,3.772,6.857,6.857,0,0,1-.863,2.082,6.266,6.266,0,0,1-1.392,2.013,4.153,4.153,0,0,1-1.38.241Q77.686,20,76.168,20Zm13.363,0A3.875,3.875,0,0,1,85.8,18.056a14.713,14.713,0,0,1-1.173-6.29L84.448,5.28,86.7,3.417h.782V15.722q0,.529.356.644a7.308,7.308,0,0,0,1.69.115l.368.069v3.381Zm10.1-3.519h.437a17.942,17.942,0,0,0,5.589-.8,5.586,5.586,0,0,0-1.61-1.759,3.521,3.521,0,0,0-2.07-.725,5.387,5.387,0,0,0-2.7.863,12.032,12.032,0,0,0-2.818,2.38q.552.046,2.392.046Zm5.681,2.139a5.106,5.106,0,0,1-2.22.92,15.269,15.269,0,0,1-3.783.46h-.782q-4.646,0-6.141-2.116a6.6,6.6,0,0,1-1.311,1.633A2.772,2.772,0,0,1,89.3,20l-.368-.069V16.55l.368-.069q1.288,0,1.932-.069l.92-2.507,1.587-1.012.6.3q-.161,1.656-.276,2.6a4.124,4.124,0,0,0,1.173.437,17.979,17.979,0,0,1,3.473-4.715,5.99,5.99,0,0,1,4.071-2,3.852,3.852,0,0,1,3.048,1.806,5.592,5.592,0,0,1,1.368,3.232,4.914,4.914,0,0,1-.6,1.932h1.955l.368.069v3.381l-.368.069h-.9a2.154,2.154,0,0,1-1.15-.31,5.222,5.222,0,0,1-1.173-1.116ZM116.142,7.925a7.04,7.04,0,0,1-.794.932,8.534,8.534,0,0,1-.771.7l-.322.253a7.321,7.321,0,0,1-1.564-1.518,8.412,8.412,0,0,1-.725.77,7.22,7.22,0,0,1-.655.563l-.23.184a7.574,7.574,0,0,1-.966-.84q-.46-.471-.69-.748l-.207-.3a14.488,14.488,0,0,1,1.863-1.886,13.142,13.142,0,0,1,1.61,1.564,12.548,12.548,0,0,1,1.564-1.564A10.781,10.781,0,0,1,116.142,7.925ZM115.82,20h-.276a4.823,4.823,0,0,1-3.818-2,14.469,14.469,0,0,1-1.7,1.817,3.936,3.936,0,0,1-1.472.184l-.368-.069V16.55l.368-.069a14.937,14.937,0,0,0,2.047-.115l.966-3.427,2-1.219.6.161a31.771,31.771,0,0,1-.483,4.37,7.732,7.732,0,0,0,2.139.23l.368.069v3.381Zm8.165-16.468a6.522,6.522,0,0,1-.794.92,7.221,7.221,0,0,1-.793.69l-.3.253A7.506,7.506,0,0,1,120.535,3.9a7.435,7.435,0,0,1-.724.759q-.4.368-.632.552l-.253.184a7.574,7.574,0,0,1-.966-.839,8.359,8.359,0,0,1-.667-.748l-.207-.276a12.91,12.91,0,0,1,1.84-1.909,13.142,13.142,0,0,1,1.61,1.564A14.827,14.827,0,0,1,122.1,1.623,9.387,9.387,0,0,1,123.985,3.532Zm-1.472,15.916a5.006,5.006,0,0,1-1.357.368,14.264,14.264,0,0,1-2.461.184H115.82l-.368-.069V16.55l.368-.069h3.68q1.84,0,3.381-.115a6.131,6.131,0,0,0,.023-.621,9.175,9.175,0,0,0-.253-2.093l-.575,1.38a2.656,2.656,0,0,1-.862.264,6.591,6.591,0,0,1-1.323.149,3.108,3.108,0,0,1-2.139-.713,4.356,4.356,0,0,1-.609-1.495,6.691,6.691,0,0,1-.356-1.61,5.806,5.806,0,0,1,.356-1.334,10.231,10.231,0,0,1,.771-1.576,4.457,4.457,0,0,1,1.253-1.368,2.773,2.773,0,0,1,1.645-.552q1.633,0,2.749,2.357a12.412,12.412,0,0,1,1.116,5.371,4.819,4.819,0,0,1-.161,1.4,11.539,11.539,0,0,1-1.035,2.116A4.961,4.961,0,0,1,122.513,19.448ZM120.121,12.5a8.658,8.658,0,0,0,2.093-.23q-.874-2.116-2.139-2.116a1.793,1.793,0,0,0-1.23.587,3.8,3.8,0,0,0-.931,1.484A7.046,7.046,0,0,0,120.121,12.5ZM132.1,20a33.337,33.337,0,0,1-4.163-.161l-.115-.207.667-3.473a23.347,23.347,0,0,0,3.864-2.668q-2.185-1.518-3.519-2.323l-1.035.483-1.886-1.426.759-3.887.621-.23q.207.161.954.713l1.058.782q.311.23.966.748t1.058.839q.4.322.943.759t.978.828q.437.391.828.782l.046-.345v-2.9l-.8-2.116,2.829-2.783.92.506V5.349l1.219,2.576L136.934,9.3a5.671,5.671,0,0,1-1.472,3.7q1.748,1.955,1.748,3.013a5.24,5.24,0,0,1-.8,1.99,5.025,5.025,0,0,1-1.127,1.6A9.1,9.1,0,0,1,132.1,20Zm-2.047-3.266H132.7a14.634,14.634,0,0,0,2.944-.161,6.7,6.7,0,0,0-1.886-2.07A22.839,22.839,0,0,1,130.057,16.734ZM142.2,3.417v12.19q-1.334,4.324-1.357,4.393H139.6q-.437-14.513-.46-14.72L141.4,3.417ZM156.438,5.28a7.041,7.041,0,0,1-.794.932,9.4,9.4,0,0,1-.794.724l-.3.23a9.125,9.125,0,0,1-1.564-1.518,8.414,8.414,0,0,1-.725.77q-.4.38-.633.564l-.253.184a7.575,7.575,0,0,1-.966-.839,6.493,6.493,0,0,1-.667-.771l-.207-.276a16.938,16.938,0,0,1,1.84-1.909,11.254,11.254,0,0,1,1.61,1.564,18.816,18.816,0,0,1,1.564-1.564A9.387,9.387,0,0,1,156.438,5.28Zm2.369,14.651-.368.069h-.69a2.9,2.9,0,0,1-2.3-.943,5.847,5.847,0,0,1-1.2-2.691l-1.564,2.6a3.838,3.838,0,0,1-1.472.207,3.475,3.475,0,0,1-1.863-.483,2.742,2.742,0,0,1-1.081-1.1,4.382,4.382,0,0,1,.011-1.759,4.552,4.552,0,0,1,.426-1.736,13.25,13.25,0,0,1,4.715-3.519L153.31,9.4l2.3-1.656h.828v6.44a5.158,5.158,0,0,0,.207,2q.207.3,1.518.3h.276l.368.069ZM152,15.653a15.006,15.006,0,0,0,1.863-.115q-.069-.667-.253-2.737a14.983,14.983,0,0,0-4.025,2.254A4.3,4.3,0,0,0,152,15.653ZM158.439,20l-.368-.069V16.55l.368-.069a25.08,25.08,0,0,0,3.151-.138q-.184-.943-.518-2.139t-.563-1.909l-.23-.713,2.093-2.162h.805l1.15,3.335-.023.552-.69.69a9.324,9.324,0,0,1,.138,1.357,6.6,6.6,0,0,1-1.15,2.323,6.342,6.342,0,0,1-1.587,1.955A6.943,6.943,0,0,1,158.439,20Zm2.737,4.784a7.689,7.689,0,0,1-.977-.851q-.472-.483-.7-.759l-.207-.3a16.2,16.2,0,0,1,1.886-1.932,11.623,11.623,0,0,1,1.909,1.932,7.621,7.621,0,0,1-.816.955,9.4,9.4,0,0,1-.794.725Zm8.1-21.367v12.19q-1.334,4.324-1.357,4.393h-1.242q-.437-14.513-.46-14.72l2.254-1.863Zm8.97,13.064-.023-.046a6.294,6.294,0,0,0-1.1-1.748,2.144,2.144,0,0,0-1.564-.92,1.956,1.956,0,0,0-1.391.656,4.863,4.863,0,0,0-1.047,1.6,6.809,6.809,0,0,0,2.829.46ZM175.275,24.9a6.464,6.464,0,0,1-2.254-1.2,15.006,15.006,0,0,1-2.116-1.587l.46-1.012a16.64,16.64,0,0,0,2.852.368,8.05,8.05,0,0,0,2.5-.391A5.085,5.085,0,0,0,178.656,20h-2.415a8.356,8.356,0,0,1-1.725-.161,4.4,4.4,0,0,1-1.058-.322,1.1,1.1,0,0,1-.391-.3,6.144,6.144,0,0,1-.655-1.736,8.154,8.154,0,0,1-.4-1.829,6.954,6.954,0,0,1,.6-2.116,6.669,6.669,0,0,1,1.472-2.093,2.977,2.977,0,0,1,2.116-.943,2.886,2.886,0,0,1,2.4,1.725,11.831,11.831,0,0,1,1.415,4.255h1.173l.368.069v3.381l-.368.069h-1.357a7.963,7.963,0,0,1-1.61,3.427A3.658,3.658,0,0,1,175.275,24.9ZM187.649,20h-.276a4.823,4.823,0,0,1-3.818-2,14.468,14.468,0,0,1-1.7,1.817,3.936,3.936,0,0,1-1.472.184l-.368-.069V16.55l.368-.069a14.936,14.936,0,0,0,2.047-.115l.966-3.427,2-1.219.6.161a31.771,31.771,0,0,1-.483,4.37,7.732,7.732,0,0,0,2.139.23l.368.069v3.381Zm-3.7,4.784a7.69,7.69,0,0,1-.978-.851q-.471-.483-.7-.759l-.207-.3a16.2,16.2,0,0,1,1.886-1.932,11.623,11.623,0,0,1,1.909,1.932,7.621,7.621,0,0,1-.816.955,9.4,9.4,0,0,1-.794.725Zm3.7-4.784-.368-.069V16.55l.368-.069a17.41,17.41,0,0,0,2.737-.138l-.23-8.05-.782-2.162,2.9-2.714.828.414V5.165l1.334,2.668L193.1,9.213v5.175q0,.828-1.61,2.875a14.489,14.489,0,0,1-2.277,2.507A3.418,3.418,0,0,1,187.649,20Zm11.5-16.583v12.19q-1.334,4.324-1.357,4.393H196.55q-.437-14.513-.46-14.72l2.254-1.863Z" transform="translate(1580 4924.4)" fill="#e9f1f9"/>
    <g id="Group_113783" data-name="Group 113783" transform="translate(1728.61 4870)">
      <g id="Group_113613" data-name="Group 113613" transform="translate(11.624 19.601)">
        <g id="Group_113612" data-name="Group 113612" clip-path="url(#clip-path)">
          <path id="Path_91759" data-name="Path 91759" d="M.281.214,11.516,0l-.281,15.3L0,15.514Z" transform="matrix(0.919, -0.393, 0.393, 0.919, -5.097, 2.056)" fill="#fff"/>
        </g>
      </g>
      <g id="Group_113615" data-name="Group 113615" transform="translate(19.839 14.761)">
        <g id="Group_113614" data-name="Group 113614" clip-path="url(#clip-path-2)">
          <path id="Path_91760" data-name="Path 91760" d="M.279.213,11.458,0l-.279,15.162L0,15.375Z" transform="matrix(0.919, -0.393, 0.393, 0.919, -5.043, 2.033)" fill="#fff"/>
        </g>
      </g>
      <g id="Group_113617" data-name="Group 113617" transform="translate(28.338 11.181)">
        <g id="Group_113616" data-name="Group 113616" clip-path="url(#clip-path-3)">
          <path id="Path_91761" data-name="Path 91761" d="M.4.266,14.346,0l-.4,21.86L0,22.126Z" transform="matrix(0.919, -0.393, 0.393, 0.919, -7.698, 3.169)" fill="#fff"/>
        </g>
      </g>
      <g id="Group_113619" data-name="Group 113619">
        <g id="Group_113618" data-name="Group 113618" clip-path="url(#clip-path-4)">
          <path id="Path_91758" data-name="Path 91758" d="M1.133,1.226,65.491,0,64.358,61.629,0,62.855Z" transform="matrix(0.919, -0.393, 0.393, 0.919, -16.773, 6.189)" fill="#F38020"/>
        </g>
      </g>
    </g>
  </g>
</svg>
