<svg xmlns="http://www.w3.org/2000/svg" xmlns:xlink="http://www.w3.org/1999/xlink" width="90.064" height="86.135" viewBox="0 0 90.064 86.135">
  <defs>
    <clipPath id="clip-path">
      <rect id="Rectangle_5586" data-name="Rectangle 5586" width="90.064" height="86.135" fill="none"/>
    </clipPath>
  </defs>
  <g id="ICON-General-budget" clip-path="url(#clip-path)">
    <path id="Path_5387" data-name="Path 5387" d="M45.946,0c1.84.493,3.49,1.3,4.248,3.076a12.163,12.163,0,0,1,.666,3.085,16.066,16.066,0,0,1,.018,2.163H90.064V19.461H76.317c1.381,3,.743,5.446-1.867,7.426q2.227,5.332,4.437,10.623c2.035,4.862,4.08,9.721,6.1,14.589a1.863,1.863,0,0,0,1.121,1.151A4.01,4.01,0,0,1,88.575,57.8a4.166,4.166,0,0,1-3.991,3.316,1.254,1.254,0,0,0-1.239.817c-.68,1.4-1.45,2.753-2.137,4.146a1.009,1.009,0,0,1-1.057.653q-9.637-.028-19.274,0a1.012,1.012,0,0,1-1.066-.641c-.725-1.469-1.481-2.926-2.286-4.356a2.131,2.131,0,0,0-.968-.847,4.171,4.171,0,0,1-2.739-3.872,4.114,4.114,0,0,1,2.637-3.851,1.955,1.955,0,0,0,.911-.878Q62.582,39.941,67.74,27.57c.169-.4.289-.7-.167-1.091A5.172,5.172,0,0,1,66,19.888a3.413,3.413,0,0,0,.1-.352c-.207-.021-.376-.052-.545-.053-1.287,0-2.574,0-3.992,0,.085.339.134.595.212.843A16.4,16.4,0,0,1,51.738,40.386a1.147,1.147,0,0,0-.875,1.285q.032,14.562-.011,29.125a1.841,1.841,0,0,0,1.206,1.912,13.73,13.73,0,0,1,7.5,13.428H30.485a28.524,28.524,0,0,1,.238-3.456,13.754,13.754,0,0,1,7.846-10.246,1.047,1.047,0,0,0,.7-1.092q-.029-14.941,0-29.882a.9.9,0,0,0-.671-.991c-7.125-2.834-11.3-9.1-10.912-16.471a38.168,38.168,0,0,1,.753-4.44H24.107a17.126,17.126,0,0,1,.54,2.227A4.957,4.957,0,0,1,22.661,26.4a.815.815,0,0,0-.294,1.133c3.476,8.263,6.926,16.536,10.41,24.8a1.761,1.761,0,0,0,.857.822,4.109,4.109,0,0,1-1.394,7.967,1.206,1.206,0,0,0-1.193.752c-.712,1.444-1.454,2.876-2.249,4.28a1.268,1.268,0,0,1-.912.547c-6.483.031-12.967.018-19.45.034a.894.894,0,0,1-.925-.579c-.765-1.513-1.548-3.019-2.374-4.5a1.823,1.823,0,0,0-.847-.735,4.222,4.222,0,0,1-2.831-3.911,4.154,4.154,0,0,1,2.756-3.87,1.642,1.642,0,0,0,.8-.775q5.239-12.43,10.431-24.877c.143-.341.289-.623-.14-.94a5.235,5.235,0,0,1-1.645-6.649,1.558,1.558,0,0,0,.081-.354c-.237-.023-.435-.058-.632-.058q-6.337,0-12.674,0A3.861,3.861,0,0,0,0,19.531V8.418c.378-.022.757-.062,1.135-.063q18.468,0,36.937,0h1.183a16.461,16.461,0,0,1,.018-2.2,12.148,12.148,0,0,1,.667-3.082C40.7,1.3,42.347.493,44.185,0ZM30.524,25.044c.031,7.684,6.582,13.906,14.6,13.868,8-.037,14.512-6.292,14.481-13.9-.031-7.669-6.621-13.937-14.6-13.89s-14.511,6.327-14.48,13.923m-.767,27.763c-.083-.262-.132-.476-.216-.677q-4.953-11.854-9.929-23.7a1.12,1.12,0,0,0-.751-.59c-.2-.023-.568.318-.673.569q-4.983,11.842-9.919,23.7c-.089.213-.137.442-.213.694Zm52.355.011c-.124-.357-.194-.6-.289-.824q-4.908-11.735-9.838-23.462c-.124-.295-.507-.687-.761-.681s-.633.4-.758.694Q65.53,40.269,60.642,52.011c-.1.249-.19.5-.3.806Zm-34.2-11.2H42.221V71.024h5.691ZM56.5,83.373c-.248-4.256-4.766-10.19-12.532-9.638-5.2.37-10.74,5.5-10.272,9.638ZM35.294,11.161H8.794v5.448a1.849,1.849,0,0,0,.306.062c6.8,0,13.6.01,20.4-.015a1.322,1.322,0,0,0,.807-.473c.991-1.1,1.909-2.262,2.93-3.335a21.591,21.591,0,0,1,2.056-1.688m46.076,0H54.82c.272.223.431.371.607.5A15.609,15.609,0,0,1,59.7,16.067a1.3,1.3,0,0,0,1.286.621q9.717-.026,19.433-.011h.951ZM18.915,58.408q6.159,0,12.319,0a5.4,5.4,0,0,0,.962-.053,1.319,1.319,0,0,0,1.213-1.342,1.3,1.3,0,0,0-1.2-1.343,5.307,5.307,0,0,0-.873-.066q-12.451-.005-24.9,0c-.348,0-.8-.046-1.021.132-.41.326-.935.8-.951,1.223s.456.961.859,1.282a2.156,2.156,0,0,0,1.188.161q6.2.014,12.407.006m52.294,0h3.256c3.168,0,6.335.007,9.5,0,1.1,0,1.747-.52,1.771-1.356.025-.872-.631-1.409-1.771-1.447-.146-.005-.293,0-.44,0H58.891a6.408,6.408,0,0,0-.7.015,1.4,1.4,0,1,0,.087,2.788c.233.017.469,0,.7,0H71.209M60.529,61.2c.424.821.755,1.565,1.189,2.25a1.207,1.207,0,0,0,.85.495q7.955.044,15.911.008a.963.963,0,0,0,.713-.307c.458-.765.842-1.571,1.3-2.446Zm-32.386.024H8.2c.454.868.829,1.653,1.278,2.4a.945.945,0,0,0,.7.331q8.008.028,16.017,0a.875.875,0,0,0,.65-.267c.454-.774.844-1.582,1.3-2.464M42.218,8.46H47.91c0-1.12.087-2.243-.022-3.349a2.88,2.88,0,0,0-5.649.022c-.108,1.105-.022,2.228-.022,3.327M16.011,22.182a2.844,2.844,0,0,0,2.842,2.843,2.9,2.9,0,0,0,2.954-2.756,2.9,2.9,0,0,0-5.8-.087m55.225-2.691a2.838,2.838,0,0,0-2.913,2.773,2.9,2.9,0,0,0,2.949,2.762,2.85,2.85,0,0,0,2.849-2.754,2.8,2.8,0,0,0-2.884-2.781M5.768,11.181h-2.8v5.434h2.8ZM84.38,16.628h2.764v-5.48H84.38Z" fill="#023074"/>
    <path id="Path_5388" data-name="Path 5388" d="M180.541,72.232h-2.789c-.021-.268-.031-.513-.062-.755a2.142,2.142,0,0,0-2.156-1.942q-2.2-.053-4.4,0a2.059,2.059,0,1,0,0,4.112c1.668.055,3.347-.017,5.006.122a4.8,4.8,0,0,1,4.419,4.916,4.924,4.924,0,0,1-4.625,4.683c-.348.024-.7.038-1.149.062v2.72H171.9V83.409a5.418,5.418,0,0,1-4.951-2.16,4.467,4.467,0,0,1-.807-3.373H168.9c.021.23.038.421.055.611a2.227,2.227,0,0,0,2.343,2.146q2.022.048,4.046,0a2.1,2.1,0,1,0-.081-4.169c-1.378-.01-2.758.033-4.134-.016a5.065,5.065,0,0,1-4.965-3.9,4.736,4.736,0,0,1,2.864-5.331,18.6,18.6,0,0,1,2.845-.68V64h2.884V66.7a5.541,5.541,0,0,1,4.94,2.161,4.7,4.7,0,0,1,.843,3.374" transform="translate(-128.232 -50.059)" fill="#8ec4ec"/>
    <path id="Path_5389" data-name="Path 5389" d="M40.638,254.026H12.481a2.835,2.835,0,1,1,0-5.664H40.638a2.835,2.835,0,1,1,0,5.664" transform="translate(-7.35 -194.257)" fill="#8ec4ec" stroke="#8ec4ec" stroke-width="1"/>
    <path id="Path_5390" data-name="Path 5390" d="M268.491,252.283H240.333a2.835,2.835,0,1,1,0-5.664h28.158a2.835,2.835,0,1,1,0,5.664" transform="translate(-183.296 -192.893)" fill="#8ec4ec" stroke="#8ec4ec" stroke-width="1"/>
  </g>
</svg>
