<svg xmlns="http://www.w3.org/2000/svg" xmlns:xlink="http://www.w3.org/1999/xlink" width="69.5" height="78.379" viewBox="0 0 69.5 78.379">
  <defs>
    <clipPath id="clip-path">
      <rect id="Rectangle_22603" data-name="Rectangle 22603" width="69.5" height="78.379" fill="none"/>
    </clipPath>
  </defs>
  <g id="ICON-Health" clip-path="url(#clip-path)">
    <path id="Path_7789" data-name="Path 7789" d="M2.756,78.379c-.3-.133-.607-.25-.9-.4A3.4,3.4,0,0,1,.042,74.4c.338-2.165.73-4.321,1.1-6.481.009-.05.024-.1.037-.149.2-.764.714-1.149,1.364-1.018a1.122,1.122,0,0,1,.868,1.4c-.272,1.762-.583,3.519-.879,5.278-.072.427-.172.851-.216,1.281a1.145,1.145,0,0,0,1.109,1.36,6.588,6.588,0,0,0,.688.01h61.3c1.567,0,1.92-.413,1.662-1.929q-1.633-9.608-3.26-19.217a3.882,3.882,0,0,0-2.974-3.388c-2.5-.714-4.974-1.5-7.46-2.249-.215-.065-.436-.109-.744-.186,0,1.967-.012,3.873.023,5.778,0,.146.31.351.512.419a5.929,5.929,0,1,1-7.606,5.315,5.852,5.852,0,0,1,4.233-5.34c.219-.077.51-.373.513-.572.038-2.09.023-4.181.023-6.327l-3.955-1.2c-.328.756-.664,1.464-.948,2.192Q40.774,61.34,36.124,73.3c-.265.681-.416,1.515-1.371,1.519s-1.111-.829-1.378-1.51Q28.417,60.65,23.457,47.99c-.092-.235-.207-.462-.354-.789l-3.947,1.181a7.089,7.089,0,0,1,0,.735c-.152,1.357-.014,2.305,1.647,2.859a4.772,4.772,0,0,1,3.055,4.417c.33,3.606.6,7.218.844,10.83a2.852,2.852,0,0,1-2.742,3.151,9.044,9.044,0,0,1-1.529.008,1.138,1.138,0,1,1,.044-2.273c1.981-.116,2-.118,1.858-2.1q-.346-4.692-.751-9.38a3.369,3.369,0,0,0-3.414-3.077,3.273,3.273,0,0,0-3.6,2.732c-.3,2.3-.43,4.618-.627,6.929-.1,1.22-.2,2.44-.291,3.66-.08,1.059.071,1.221,1.111,1.229.332,0,.665-.012.994.018a1.059,1.059,0,0,1,1.037,1.039.992.992,0,0,1-.814,1.138c-2.59.491-4.894-.472-4.628-3.551.3-3.48.522-6.968.874-10.443a5.393,5.393,0,0,1,4.093-4.813c.43-.137.575-.3.55-.73-.032-.527-.008-1.058-.008-1.688L13.311,50.15l-2.093.634c-.877.266-1.751.546-2.634.79a3.763,3.763,0,0,0-2.89,3.284c-.41,2.463-.834,4.924-1.254,7.385a4.254,4.254,0,0,1-.115.521,1.065,1.065,0,0,1-1.266.847,1.019,1.019,0,0,1-.928-1.2c.117-.985.3-1.964.463-2.943.3-1.759.595-3.517.907-5.273a5.706,5.706,0,0,1,4.216-4.755c2.847-.877,5.706-1.716,8.55-2.605.277-.087.653-.378.694-.623a10.412,10.412,0,0,1,6.855-8.482,3,3,0,0,0,.283-.161L23.635,37a18.451,18.451,0,0,1-3.869-7.8c-.11-.511-.328-.625-.813-.656a3.416,3.416,0,0,1-3.472-3.735,7.2,7.2,0,0,1,.126-1.973,3.916,3.916,0,0,1,.982-1.827,1.973,1.973,0,0,0,.685-1.715c-.021-3.469-.051-6.94.009-10.408a8.887,8.887,0,0,1,7-8.635A10.171,10.171,0,0,1,26.557.015Q34.746-.014,42.935.007a9,9,0,0,1,9.3,9.254c0,.535.014,1.072-.016,1.606a1.037,1.037,0,0,1-1.054,1.085A1.018,1.018,0,0,1,50,10.988a13.421,13.421,0,0,1-.056-1.6A6.768,6.768,0,0,0,42.8,2.3q-8.036-.011-16.072,0a6.76,6.76,0,0,0-7.172,7.128c-.015,3.6,0,7.194,0,10.791,0,.226.02.452.03.682l1.968.653c.013-.281.036-.545.036-.809,0-2.628,0-5.255,0-7.883.006-3.187,1.9-5.077,5.1-5.092.587,0,1.175.03,1.76-.006a6.056,6.056,0,0,1,4.4,1.384,2.938,2.938,0,0,0,3.821-.014A5.981,5.981,0,0,1,41,7.764c.686.042,1.377,0,2.066.01A4.644,4.644,0,0,1,47.9,12.662c.019,2.679,0,5.357,0,8.036v.865l2.038-.664c0-1.306,0-2.651,0-4,0-1.248.36-1.787,1.176-1.776.787.011,1.113.517,1.114,1.735,0,.995-.032,1.992.02,2.984a1.383,1.383,0,0,0,.42.878,3.289,3.289,0,0,1,1.268,2.271,14.084,14.084,0,0,1,.014,2.591A3.281,3.281,0,0,1,50.6,28.533c-.568.033-.767.2-.89.757A18.537,18.537,0,0,1,45.9,36.951c-.157.195-.312.391-.462.58a28.658,28.658,0,0,1,2.626,1.434,10.043,10.043,0,0,1,4.4,7.044.908.908,0,0,0,.77.857c2.808.83,5.607,1.692,8.412,2.533a5.789,5.789,0,0,1,4.364,4.888q1.717,10.02,3.433,20.041a3.422,3.422,0,0,1-2.3,3.864c-.139.052-.271.124-.406.187ZM21.7,24.61a35.027,35.027,0,0,0,.469,4.724,15.059,15.059,0,0,0,4.042,7.092A11.312,11.312,0,0,0,36.57,40.119a12.052,12.052,0,0,0,7.522-4.6c2.575-3.161,4.061-6.685,3.5-10.864-1.662-.253-1.978-.625-1.979-2.343,0-3.24.007-6.48,0-9.72,0-1.262-.7-2.369-1.785-2.422-2.092-.1-4.193-.5-6.146,1a4.736,4.736,0,0,1-5.866.011,5.536,5.536,0,0,0-3.844-1.12c-.4.038-.816,0-1.224.006-1.991.006-2.85.856-2.852,2.83q0,4.822,0,9.644c0,1.466-.5,1.989-2.185,2.069M41.115,41a13.784,13.784,0,0,1-12.729.012c.041,1.842.058,3.585-1.134,5.01a1.787,1.787,0,0,0,.2.222c2.305,1.729,4.618,3.447,6.913,5.191.358.272.576.146.864-.072C37,50.026,38.776,48.7,40.552,47.373c.565-.423,1.126-.853,1.732-1.313-1.228-1.477-1.215-3.2-1.169-5.061M51.434,57.364a3.624,3.624,0,1,0,3.669,3.61,3.634,3.634,0,0,0-3.669-3.61M34.656,70.188l.18.013c.439-1.157.823-2.34,1.333-3.465a4.45,4.45,0,0,0,.3-3.167c-.242-.88-.344-1.8-.5-2.7-.295-1.727-.292-1.728-2.151-1.5-.345,1.876-.7,3.775-1.039,5.676a.747.747,0,0,0,.067.368q.9,2.391,1.812,4.778M50.092,45.9c-.511-3.235-3.62-6.143-6.649-6.291,0,1.167-.026,2.334.015,3.5a3.607,3.607,0,0,0,.316,1.086.758.758,0,0,0,.947.513,4.842,4.842,0,0,1,1.72.127c1.2.3,2.382.69,3.651,1.067M19.46,45.883c1.206-.358,2.384-.732,3.578-1.048a3.205,3.205,0,0,1,1.486-.152c.8.194,1.246-.143,1.331-.81.181-1.419.23-2.855.336-4.321-3.449.466-6.53,3.413-6.731,6.332m13,6.987-6.2-4.631-.123.089,2.488,6.163,3.836-1.621m8.419,1.608,2.469-6.142-.144-.079-6.165,4.61c1.2.511,2.272.971,3.349,1.429.137.058.279.1.491.182m-3.559,1.014c-.767-.331-1.5-.662-2.254-.96a.863.863,0,0,0-.579-.02c-.772.3-1.529.643-2.289.969a2.843,2.843,0,0,0,5.122.011m-17.815-32.2-1.734-.254c0,.7-.022,1.328,0,1.95.044,1.028.674,1.442,1.729,1.145Zm30.484,2.9c1.665.3,2.037-.77,1.56-3.134l-1.56.238ZM31.165,61.024c.158-.872.287-1.51.381-2.153a.818.818,0,0,0-.09-.563c-.437-.56-.908-1.095-1.385-1.622-.081-.089-.253-.094-.383-.138-.039.13-.144.286-.105.387.488,1.3,1,2.586,1.583,4.089m7.167,0c.58-1.486,1.082-2.752,1.559-4.026.046-.123-.056-.3-.09-.454a1.317,1.317,0,0,0-.433.2c-.429.467-.849.946-1.237,1.448a.914.914,0,0,0-.187.607c.084.666.225,1.324.387,2.22" transform="translate(0 0)" fill="#023074"/>
    <path id="Path_7790" data-name="Path 7790" d="M253.086,299.211a3.625,3.625,0,1,1-3.6,3.671,3.636,3.636,0,0,1,3.6-3.671" transform="translate(-201.651 -241.847)" fill="#fff"/>
    <path id="Path_7791" data-name="Path 7791" d="M172.825,320.028q-.907-2.388-1.812-4.778a.749.749,0,0,1-.067-.368c.342-1.9.694-3.8,1.039-5.676,1.859-.229,1.856-.228,2.151,1.5.154.9.256,1.824.5,2.7a4.45,4.45,0,0,1-.3,3.167c-.51,1.125-.894,2.308-1.333,3.465l-.18-.013" transform="translate(-138.168 -249.84)" fill="#fff"/>
    <path id="Path_7792" data-name="Path 7792" d="M233.214,212.888c-1.269-.377-2.449-.765-3.651-1.067a4.845,4.845,0,0,0-1.72-.127.758.758,0,0,1-.947-.513,3.607,3.607,0,0,1-.316-1.086c-.04-1.165-.015-2.331-.015-3.5,3.029.148,6.138,3.056,6.649,6.291" transform="translate(-183.122 -166.989)" fill="#fff"/>
    <path id="Path_7793" data-name="Path 7793" d="M101.506,212.63c.2-2.919,3.282-5.866,6.731-6.332-.106,1.466-.155,2.9-.336,4.322-.085.668-.531,1-1.331.81a3.209,3.209,0,0,0-1.486.152c-1.194.316-2.372.691-3.578,1.049" transform="translate(-82.045 -166.747)" fill="#fff"/>
    <path id="Path_7794" data-name="Path 7794" d="M142.664,256.243l-3.836,1.621-2.488-6.163.122-.089,6.2,4.631" transform="translate(-110.202 -203.373)" fill="#fff"/>
    <path id="Path_7795" data-name="Path 7795" d="M197.049,257.928c-.212-.078-.354-.124-.49-.182-1.076-.458-2.151-.918-3.349-1.429l6.165-4.609.143.079-2.469,6.142" transform="translate(-156.168 -203.45)" fill="#fff"/>
    <path id="Path_7796" data-name="Path 7796" d="M173.077,285.138a2.843,2.843,0,0,1-5.122-.011c.76-.326,1.517-.666,2.289-.969a.863.863,0,0,1,.579.02c.75.3,1.486.63,2.254.96" transform="translate(-135.755 -229.646)" fill="#fff"/>
    <path id="Path_7799" data-name="Path 7799" d="M155.851,299.428c-.586-1.5-1.095-2.792-1.583-4.089-.038-.1.067-.257.105-.387.13.044.3.05.383.139.477.527.948,1.062,1.385,1.622a.816.816,0,0,1,.09.563c-.094.643-.223,1.281-.381,2.153" transform="translate(-124.686 -238.404)" fill="#fff"/>
    <path id="Path_7800" data-name="Path 7800" d="M198.293,299.413c-.162-.9-.3-1.555-.387-2.22a.914.914,0,0,1,.187-.607c.388-.5.808-.98,1.237-1.448a1.317,1.317,0,0,1,.433-.2c.033.153.136.331.09.454-.478,1.275-.979,2.54-1.559,4.026" transform="translate(-159.961 -238.389)" fill="#fff"/>
  </g>
</svg>
