<svg xmlns="http://www.w3.org/2000/svg" width="24.976" height="24.976" viewBox="0 0 24.976 24.976">
  <path id="Icon-metro-earth" d="M15.059,1.928A12.488,12.488,0,1,0,27.547,14.416,12.488,12.488,0,0,0,15.059,1.928Zm0,23.415a10.89,10.89,0,0,1-4.323-.889l5.687-6.4a.781.781,0,0,0,.2-.519V15.2a.78.78,0,0,0-.78-.78c-2.756,0-5.664-2.865-5.692-2.893a.78.78,0,0,0-.552-.229H6.473a.781.781,0,0,0-.78.78v4.683a.78.78,0,0,0,.431.7L8.815,18.8v4.583A10.934,10.934,0,0,1,5.184,9.733h2.85A.781.781,0,0,0,8.586,9.5l3.122-3.122a.781.781,0,0,0,.229-.552V3.942a10.958,10.958,0,0,1,7.909.649c-.1.085-.2.175-.294.269a4.684,4.684,0,0,0,3.308,7.995q.116,0,.232-.006a18.329,18.329,0,0,1-.2,9.081.779.779,0,0,0-.021.127,10.893,10.893,0,0,1-7.808,3.284Z" transform="translate(-2.571 -1.928)" fill="#383330"/>
</svg>
