<svg xmlns="http://www.w3.org/2000/svg" xmlns:xlink="http://www.w3.org/1999/xlink" width="88" height="88" viewBox="0 0 88 88">
  <defs>
    <clipPath id="clip-path">
      <rect id="Rectangle_10479" data-name="Rectangle 10479" width="88" height="88" fill="#023074"/>
    </clipPath>
  </defs>
  <g id="ICON-ExportsImports" clip-path="url(#clip-path)">
    <path id="Path_7478" data-name="Path 7478" d="M15.643,211.489H3.539c-.622,0-1.244-.009-1.865,0-1.151.02-1.663.532-1.668,1.7-.01,2.516,0,5.032,0,7.549q0,5.817,0,11.634c0,1.384.478,1.855,1.876,1.855q19.453,0,38.905,0c1.4,0,1.869-.47,1.87-1.859q0-9.5,0-19.005c0-1.4-.467-1.871-1.85-1.878-.765,0-1.531,0-2.414,0V210.5q0-8.481,0-16.963c0-1.507-.442-1.945-1.961-1.945q-9.415,0-18.831,0c-1.511,0-1.955.443-1.955,1.953q0,8.437,0,16.874Zm2.895-.042V194.429h4.214c0,1.4-.007,2.665,0,3.935.009,1.226.51,1.741,1.715,1.748q2.532.016,5.064,0c1.257-.007,1.741-.511,1.748-1.8.006-1.265,0-2.53,0-3.827h4.2v16.964Zm21.234,19.88H22.793V214.385h4.224c0,1.35-.01,2.647,0,3.944.012,1.159.527,1.677,1.687,1.685,1.658.012,3.317.007,4.975,0,1.391,0,1.859-.473,1.864-1.867,0-1.26,0-2.52,0-3.774h4.224Zm-19.9.014H2.9V214.4H7.112c0,1.342-.008,2.614,0,3.886.01,1.215.516,1.72,1.735,1.728,1.658.01,3.317.007,4.975,0,1.332-.005,1.81-.487,1.816-1.825.006-1.263,0-2.526,0-3.8h4.226Zm5.768-36.862h2.745v2.728H25.637Zm4.242,19.927h2.766v2.7H29.879ZM10.014,214.4h2.741v2.734H10.014Z" transform="translate(45.343 -146.112)" fill="#023074"/>
    <path id="Path_7479" data-name="Path 7479" d="M6.181,64.593l2.385-1.274c-6.39-13.329-6.493-26.569.7-39.521a39.782,39.782,0,0,1,25.1-19.516,40,40,0,0,1,23.864.7,40.489,40.489,0,0,1,19.527,13.9A41.012,41.012,0,0,1,86.27,41.2c.259.015.459.044.658.036.675-.028,1.35-.069,2.021-.1-.183-11.355-7.29-28.183-24.285-36.54a44.012,44.012,0,0,0-58.483,60" transform="translate(-1.201 0)" fill="#023074"/>
    <path id="Path_7480" data-name="Path 7480" d="M225.61,263.158h2.308q5.771,0,11.542,0c1.284,0,1.782-.495,1.789-1.76q.012-2.485,0-4.971c-.005-1.315-.5-1.793-1.843-1.794q-6.348-.005-12.7,0h-1.1a4.455,4.455,0,0,0-.026-1.32,2.4,2.4,0,0,0-.818-1.318,1.622,1.622,0,0,0-1.448.143c-2.4,1.831-4.749,3.725-7.085,5.634a1.369,1.369,0,0,0,.036,2.284c2.293,1.869,4.594,3.73,6.946,5.523a1.738,1.738,0,0,0,1.516.228c.418-.217.663-.869.855-1.38a4.113,4.113,0,0,0,.024-1.266m12.754-2.843h-1.026c-4.176,0-8.351.021-12.527-.015-.993-.009-1.75.212-2.1,1.27l-3.347-2.679,3.372-2.7c.306,1.112,1.072,1.3,2.021,1.292,4.2-.023,8.41-.01,12.616-.01h.995Z" transform="translate(-204.437 -192.095)" fill="#a9cce1"/>
    <path id="Path_7481" data-name="Path 7481" d="M231.189,322.71c0,.544-.02.958,0,1.37a1.386,1.386,0,0,0,2.263,1.165c2.411-1.862,4.782-3.776,7.14-5.706a1.344,1.344,0,0,0-.036-2.22c-2.338-1.907-4.687-3.8-7.071-5.651a1.388,1.388,0,0,0-2.295,1.1c-.029.436,0,.875,0,1.411H230.17q-6.348,0-12.7,0c-1.462,0-1.924.454-1.928,1.89q-.006,2.4,0,4.793c0,1.374.483,1.843,1.886,1.844q6.348,0,12.7,0h1.06m2.9-1.583c-.346-1.083-1.121-1.281-2.108-1.273-4.2.033-8.405.014-12.608.014h-.911v-2.844c4.511,0,8.95-.02,13.389.015,1.021.008,1.874-.126,2.248-1.275l3.333,2.685-3.343,2.677" transform="translate(-204.325 -237.432)" fill="#a9cce1"/>
    <path id="Path_7482" data-name="Path 7482" d="M169.107,87.238l1.92-1.857L148.984,63.34l-1.752,2.024,21.875,21.874" transform="translate(-117.973 -48.306)" fill="#a9cce1"/>
    <path id="Path_7483" data-name="Path 7483" d="M209.325,119.72a5.685,5.685,0,1,0,5.722,5.669,5.695,5.695,0,0,0-5.722-5.669m.007,8.525a2.839,2.839,0,1,1,2.869-2.787,2.854,2.854,0,0,1-2.869,2.787" transform="translate(-175.39 -91.303)" fill="#a9cce1"/>
    <path id="Path_7484" data-name="Path 7484" d="M149.452,59.829a5.685,5.685,0,1,0,5.692,5.7,5.7,5.7,0,0,0-5.692-5.7m-.008,8.524a2.839,2.839,0,1,1,2.853-2.8,2.859,2.859,0,0,1-2.853,2.8" transform="translate(-101.269 -45.628)" fill="#a9cce1"/>
    <path id="Path_7485" data-name="Path 7485" d="M30.221,220.581H47.168V203.618h-4.2c0,1.3,0,2.562,0,3.827-.006,1.292-.491,1.8-1.748,1.8q-2.532.014-5.064,0c-1.205-.008-1.706-.522-1.715-1.748-.009-1.27,0-2.54,0-3.935H30.221Z" transform="translate(33.659 -155.247)" fill="#fff"/>
    <path id="Path_7486" data-name="Path 7486" d="M29.136,304.553V287.6H24.912c0,1.254,0,2.514,0,3.774,0,1.393-.472,1.863-1.864,1.867-1.658,0-3.317.01-4.975,0-1.16-.009-1.676-.526-1.687-1.686-.013-1.3,0-2.594,0-3.944H12.158v16.942Z" transform="translate(55.978 -219.338)" fill="#fff"/>
    <path id="Path_7487" data-name="Path 7487" d="M112.975,304.621V287.672h-4.226c0,1.272,0,2.535,0,3.8-.006,1.338-.484,1.82-1.816,1.825q-2.488.009-4.975,0c-1.22-.007-1.725-.512-1.735-1.728-.01-1.272,0-2.544,0-3.886H96.012v16.94Z" transform="translate(-47.764 -219.391)" fill="#fff"/>
    <rect id="Rectangle_10476" data-name="Rectangle 10476" width="2.745" height="2.728" transform="translate(70.979 48.367)" fill="#fff"/>
    <rect id="Rectangle_10477" data-name="Rectangle 10477" width="2.766" height="2.702" transform="translate(75.222 68.294)" fill="#fff"/>
    <rect id="Rectangle_10478" data-name="Rectangle 10478" width="2.741" height="2.734" transform="translate(55.357 68.287)" fill="#fff"/>
    <path id="Path_7488" data-name="Path 7488" d="M246.816,274.161v-2.843h-.995c-4.205,0-8.411-.013-12.616.01-.949,0-1.715-.18-2.021-1.292l-3.372,2.7,3.347,2.679c.355-1.058,1.112-1.279,2.1-1.27,4.175.036,8.351.015,12.527.015Z" transform="translate(-212.888 -205.941)" fill="#fff"/>
    <path id="Path_7489" data-name="Path 7489" d="M246.9,335.384l3.343-2.677-3.333-2.685c-.374,1.148-1.227,1.282-2.248,1.275-4.439-.035-8.878-.015-13.389-.015v2.844h.912c4.2,0,8.405.018,12.608-.014.987-.008,1.762.19,2.108,1.273" transform="translate(-217.132 -251.688)" fill="#fff"/>
    <path id="Path_7490" data-name="Path 7490" d="M218.473,137.392a2.839,2.839,0,1,0-2.81-2.848,2.862,2.862,0,0,0,2.81,2.848" transform="translate(-184.532 -100.451)" fill="#fff"/>
    <path id="Path_7491" data-name="Path 7491" d="M158.59,77.5a2.839,2.839,0,1,0-2.826-2.831A2.853,2.853,0,0,0,158.59,77.5" transform="translate(-110.415 -54.774)" fill="#fff"/>
  </g>
</svg>
