<svg id="ICON-Education" xmlns="http://www.w3.org/2000/svg" xmlns:xlink="http://www.w3.org/1999/xlink" width="91.97" height="95.631" viewBox="0 0 91.97 95.631">
  <defs>
    <clipPath id="clip-path">
      <rect id="Rectangle_5414" data-name="Rectangle 5414" width="91.97" height="95.631" fill="none"/>
    </clipPath>
  </defs>
  <g id="Group_919" data-name="Group 919" clip-path="url(#clip-path)">
    <path id="Path_5142" data-name="Path 5142" d="M141.766,348.685a5.248,5.248,0,0,0,1.081-1.13,1.736,1.736,0,0,0-1.7-2.452c-1.733-.032-3.468-.008-5.207-.008.324-3.221,3.48-6.379,6.966-7.005a8.34,8.34,0,0,1,1.423-.166c3.323-.014,6.646-.054,9.967,0a8.878,8.878,0,0,1,8.44,7.165h-4.09c-.449,0-.9-.022-1.346.014a1.719,1.719,0,0,0-1.625,1.323,1.7,1.7,0,0,0,.68,1.9c.161.127.336.236.5.353h-7c.142-.1.286-.2.426-.3a1.7,1.7,0,0,0,.733-2.019,1.776,1.776,0,0,0-3.4,0,1.7,1.7,0,0,0,.733,2.018c.141.1.285.2.427.3Z" transform="translate(-103.329 -253.054)" fill="#fff"/>
    <path id="Path_5143" data-name="Path 5143" d="M185.456,371.534c-.143-.1-.287-.2-.427-.3a1.7,1.7,0,0,1-.733-2.018,1.776,1.776,0,0,1,3.4,0,1.7,1.7,0,0,1-.733,2.019c-.14.1-.284.2-.426.3Z" transform="translate(-140.013 -275.903)" fill="#023074"/>
    <path id="Path_5144" data-name="Path 5144" d="M40.375,345.938H15.463v-6.949a2.887,2.887,0,0,1,2.879-2.878H37.5a2.887,2.887,0,0,1,2.879,2.878Z" transform="translate(-11.754 -251.696)" fill="#8ec4ec"/>
    <path id="Path_5145" data-name="Path 5145" d="M288.532,345.938H263.62v-6.949a2.887,2.887,0,0,1,2.879-2.878h19.155a2.887,2.887,0,0,1,2.879,2.878Z" transform="translate(-200.383 -251.696)" fill="#8ec4ec"/>
    <path id="Path_5146" data-name="Path 5146" d="M91.958,277.826a12.557,12.557,0,0,0-9.652-11.366,40.875,40.875,0,0,0-4.765-.507c4.839-1.4,7.718-5.218,7.2-9.74a8.984,8.984,0,0,0-17.7-1.1,8.73,8.73,0,0,0,1.286,6.947,9.455,9.455,0,0,0,5.938,3.985c-5.412-.366-9.764,1.468-12.821,6.041a3.318,3.318,0,0,1-.247-.269,12.571,12.571,0,0,0-11.135-5.738c-.835.011-1.671,0-2.506,0,4.814-1.284,7.843-5.274,7.372-9.817a8.975,8.975,0,0,0-17.767-.761c-.837,4.949,1.814,8.786,7.288,10.578-5.7-.494-10.576.93-13.905,6.061-3.1-4.656-7.462-6.455-12.845-6.073,5.133-1.621,7.985-5.44,7.4-9.932a8.984,8.984,0,0,0-17.725-.864,8.815,8.815,0,0,0,1.365,6.848,9.352,9.352,0,0,0,5.888,3.9c-.738.057-1.455.051-2.171.059A12.553,12.553,0,0,0,.516,275.137c-.2.685-.346,1.386-.516,2.079v3.233H38.438a5.242,5.242,0,0,0,1.081-1.13,1.736,1.736,0,0,0-1.7-2.452c-1.733-.032-3.468-.008-5.207-.008.324-3.221,3.48-6.378,6.966-7.005A8.329,8.329,0,0,1,41,269.688c3.323-.014,6.646-.054,9.967,0a8.878,8.878,0,0,1,8.44,7.165h-4.09c-.449,0-.9-.022-1.346.014a1.719,1.719,0,0,0-1.625,1.324,1.7,1.7,0,0,0,.68,1.9c.161.127.336.236.5.353h37.18a2.431,2.431,0,0,0,1.252-2.623m-88.081-1c.269-2.891,2.969-5.858,6.169-6.786a4.532,4.532,0,0,1,1.226-.251c3.405,0,6.833-.2,10.209.122a8.34,8.34,0,0,1,6.987,6.915Zm59.56-.006a8.4,8.4,0,0,1,2.049-4.11,7.645,7.645,0,0,1,5.317-2.871,75.57,75.57,0,0,1,10.295.069,8.359,8.359,0,0,1,7.011,6.911Z" transform="translate(0 -184.818)" fill="#023074"/>
    <path id="Path_5147" data-name="Path 5147" d="M116.085,100.93v9.747l18.134,8.31,18.613-8.31V100.93l-18.613,6.128Z" transform="translate(-88.239 -62.709)" fill="#8ec4ec"/>
    <path id="Path_5148" data-name="Path 5148" d="M121.293,35.874a5,5,0,0,0-2.814-4.575,1.277,1.277,0,0,1-.773-1.379c.018-6.135-.018-7.065.033-13.2a2.5,2.5,0,0,0-1.706-2.607Q100.493,7.256,84.986.323A3.137,3.137,0,0,0,82.179.34q-15.584,6.978-31.2,13.878c-.827.366-1.481.824-1.5,1.8-.018,1.022.652,1.5,1.513,1.882,4.05,1.776,8.081,3.594,12.132,5.367a1.034,1.034,0,0,1,.727,1.133c-.035,3.052.031,6.106-.038,9.157a2.457,2.457,0,0,0,1.7,2.608q8.465,3.687,16.881,7.487a2.72,2.72,0,0,0,2.4.01q8.548-3.833,17.118-7.617a2.147,2.147,0,0,0,1.452-2.213c-.035-2.453-.014-4.908-.009-7.362,0-.927-.308-2.073.123-2.72.453-.68,1.615-.9,2.482-1.291,2.666-1.2,5.339-2.376,8.123-3.613.025.259.046.376.046.493,0,5.387.011,5.568-.021,10.955a1.175,1.175,0,0,1-.543.835,5.422,5.422,0,0,0-3.024,5.028q-.012,3.367,0,6.734a1.825,1.825,0,0,0,2.025,2.074q3.368.021,6.735,0a1.806,1.806,0,0,0,2.008-2c.015-2.364.046-4.729-.011-7.092m-21.558-3.25a.883.883,0,0,1-.447.637q-7.6,3.413-15.227,6.761a1.517,1.517,0,0,1-1.082-.072q-7.5-3.3-14.98-6.652c-.229-.1-.545-.369-.548-.563-.037-2.469-.024-4.938-.024-7.529,2.323,1.031,4.527,2.007,6.73,2.986,2.728,1.212,5.467,2.4,8.177,3.654a2.846,2.846,0,0,0,2.563-.013c4.625-2.088,9.268-4.138,13.905-6.2.269-.119.544-.224.954-.392,0,2.544.012,4.964-.02,7.384m1.824-12.141q-8.64,3.837-17.288,7.653a1.611,1.611,0,0,1-1.149.087Q69.676,22.3,56.256,16.308c-.108-.048-.208-.112-.51-.276,2.315-1.03,4.46-1.986,6.606-2.939Q72.629,8.529,82.915,3.985a1.715,1.715,0,0,1,1.23-.069q11.277,4.962,22.524,9.989a.786.786,0,0,1,.4.355H84.352a8.874,8.874,0,0,0-.9.014,1.786,1.786,0,0,0-.049,3.557,7.443,7.443,0,0,0,.9.019H107.05l.031.162q-2.761,1.235-5.523,2.47" transform="translate(-37.607 14.011)" fill="#023074"/>
  </g>
</svg>
