<svg xmlns="http://www.w3.org/2000/svg" width="28" height="14" viewBox="0 0 28 14">
  <g id="arrow_menu_top" fill="#fff">
    <path d="M 25.58578872680664 13.50000095367432 L 2.414218187332153 13.50000095367432 C 2.104218006134033 13.50000095367432 1.982268095016479 13.26375102996826 1.952268123626709 13.19134140014648 C 1.922278046607971 13.11893177032471 1.841458082199097 12.86565113067627 2.060657978057861 12.64644145965576 L 13.6464376449585 1.060661315917969 C 13.74087810516357 0.9662213325500488 13.86644840240479 0.9142113327980042 13.99999809265137 0.9142113327980042 C 14.13354778289795 0.9142113327980042 14.25911808013916 0.9662213325500488 14.35355854034424 1.060661315917969 L 25.9393482208252 12.64644145965576 C 26.15853881835938 12.86565113067627 26.07771873474121 13.11893177032471 26.04772758483887 13.19134140014648 C 26.01773834228516 13.26375102996826 25.89577865600586 13.50000095367432 25.58578872680664 13.50000095367432 Z" stroke="none"/>
    <path d="M 13.99999904632568 1.414211273193359 L 2.414218902587891 13.00000095367432 C 2.414218902587891 13.00000095367432 2.414218902587891 13.00000095367432 2.414209365844727 13.00000095367432 L 25.58577919006348 13.00000095367432 L 14.0009593963623 1.414291381835938 C 14.00085926055908 1.414271354675293 14.00049877166748 1.414211273193359 13.99999904632568 1.414211273193359 M 13.99999904632568 0.4142112731933594 C 14.25592136383057 0.4142112731933594 14.51184368133545 0.5118417739868164 14.70710945129395 0.7071008682250977 L 26.29288864135742 12.29289150238037 C 26.92285919189453 12.92286109924316 26.47668838500977 14.00000095367432 25.58578872680664 14.00000095367432 L 2.414209365844727 14.00000095367432 C 1.523309707641602 14.00000095367432 1.077138900756836 12.92286109924316 1.707109451293945 12.29289150238037 L 13.29288864135742 0.7071008682250977 C 13.48815441131592 0.5118417739868164 13.7440767288208 0.4142112731933594 13.99999904632568 0.4142112731933594 Z" stroke="none" fill="#a5aebf"/>
  </g>
</svg>
