<svg xmlns="http://www.w3.org/2000/svg" width="26.662" height="26.056" viewBox="0 0 26.662 26.056">
  <path id="Downloading_img" d="M11.248,0h4.166a1.27,1.27,0,0,1,1.25,1.3V10.36h4.567a1.082,1.082,0,0,1,.734,1.84l-7.921,8.213a.984.984,0,0,1-1.422,0L4.692,12.2a1.082,1.082,0,0,1,.734-1.84H10V1.3A1.27,1.27,0,0,1,11.248,0ZM26.662,20.289v4.473a1.27,1.27,0,0,1-1.25,1.3H1.25A1.27,1.27,0,0,1,0,24.761V20.289a1.27,1.27,0,0,1,1.25-1.3H8.889l2.552,2.644a2.6,2.6,0,0,0,3.781,0l2.552-2.644h7.639A1.27,1.27,0,0,1,26.662,20.289Zm-6.457,3.178a1.042,1.042,0,1,0-1.042,1.079A1.064,1.064,0,0,0,20.205,23.466Zm3.333,0A1.042,1.042,0,1,0,22.5,24.545,1.064,1.064,0,0,0,23.538,23.466Z" fill="#2d435e"/>
</svg>
