<svg xmlns="http://www.w3.org/2000/svg" width="27.433" height="28.215" viewBox="0 0 27.433 28.215">
  <g id="Downloading_img" transform="translate(0)">
    <path id="Path_64685" data-name="Path 64685" d="M26.491,21.146V11.069a4.06,4.06,0,0,0-4-4.111H8.936a4.06,4.06,0,0,0-4,4.111V21.146a4.06,4.06,0,0,0,4,4.111H22.494a4.06,4.06,0,0,0,4-4.111Zm-14.91-9.3h.009a.985.985,0,1,1-.009,0ZM23.072,20.23a.968.968,0,0,1-1.352-.323l-3.3-5.412-3.9,6.413a.978.978,0,0,1-1.655.02l-1.842-2.9L9.781,19.986a.974.974,0,0,1-.843.493.988.988,0,0,1-.98-1,1.107,1.107,0,0,1,.157-.565l1.459-2.288a1.71,1.71,0,0,1,2.91.01L13.67,18.5l3.282-5.4a1.709,1.709,0,0,1,2.939,0l3.5,5.734a1.034,1.034,0,0,1-.319,1.4ZM26.491,2H23.552a1.008,1.008,0,1,0,0,2.016h2.939a1,1,0,0,1,.98,1.007V8.047a.981.981,0,1,0,1.959,0V5.023A2.985,2.985,0,0,0,26.491,2ZM2.98,9.054a.994.994,0,0,0,.98-1.007V5.023a1,1,0,0,1,.98-1.007H7.88A1.008,1.008,0,1,0,7.878,2H4.939A2.985,2.985,0,0,0,2,5.023V8.047a.994.994,0,0,0,.98,1.007ZM4.939,30.215h2.94a1.008,1.008,0,0,0,0-2.016H4.939a1,1,0,0,1-.98-1.007V24.17A.981.981,0,1,0,2,24.17v3.023a2.985,2.985,0,0,0,2.939,3.022ZM28.45,23.161a.994.994,0,0,0-.98,1.007v3.023a1,1,0,0,1-.98,1.007H23.552a1.008,1.008,0,1,0,0,2.016h2.939a2.985,2.985,0,0,0,2.939-3.023V24.17a.994.994,0,0,0-.98-1.008Z" transform="translate(-1.999 -2)" fill="#2d435e"/>
  </g>
</svg>
