<svg id="svgexport-10_9_" data-name="svgexport-10 (9)" xmlns="http://www.w3.org/2000/svg" width="90.245" height="98.57" viewBox="0 0 90.245 98.57">
  <path id="Path_65084" data-name="Path 65084" d="M5.879,9.2,62.6,1.1a2.256,2.256,0,0,1,2.576,2.233V97.392A2.256,2.256,0,0,1,62.6,99.625l-56.726-8.1A4.512,4.512,0,0,1,2,87.059V13.666A4.512,4.512,0,0,1,5.875,9.2Zm63.8.555H87.733a4.512,4.512,0,0,1,4.512,4.512V86.459a4.512,4.512,0,0,1-4.512,4.512H69.684ZM39,50.362,51.636,32.314H40.807L33.588,42.629,26.369,32.314H15.54L28.173,50.362,15.54,68.411H26.369L33.588,58.1l7.219,10.315H51.636Z" transform="translate(-1.999 -1.077)" fill="#2d435e"/>
</svg>
