<svg id="Icon_ionic-ios-expand" data-name="Icon ionic-ios-expand" xmlns="http://www.w3.org/2000/svg" width="19.458" height="19.458" viewBox="0 0 19.458 19.458">
  <path id="Path_43" data-name="Path 43" d="M6.953,5.919H10.89a.7.7,0,0,0,.7-.7V5.2a.7.7,0,0,0-.7-.7H5.2a.7.7,0,0,0-.7.7V10.89a.7.7,0,0,0,.7.7h.01a.7.7,0,0,0,.7-.7V6.953l5.934,5.893a.7.7,0,0,0,.5.2.682.682,0,0,0,.5-.208.7.7,0,0,0,0-.993Z" transform="translate(-4.5 -4.5)" fill="#fff"/>
  <path id="Path_44" data-name="Path 44" d="M27.481,4.5H21.8a.7.7,0,0,0-.7.7v.01a.7.7,0,0,0,.7.7h3.937L19.84,11.853a.7.7,0,0,0,.993,1l5.934-5.9V10.89a.7.7,0,0,0,.7.7h.01a.7.7,0,0,0,.7-.7V5.2A.7.7,0,0,0,27.481,4.5Z" transform="translate(-8.727 -4.5)" fill="#fff"/>
  <path id="Path_45" data-name="Path 45" d="M12.349,19.631a.7.7,0,0,0-.5.2l-5.934,5.9V21.795a.7.7,0,0,0-.7-.7H5.2a.7.7,0,0,0-.7.7V27.48a.7.7,0,0,0,.7.7H10.89a.7.7,0,0,0,.7-.7v-.01a.7.7,0,0,0-.7-.7H6.953l5.893-5.934a.7.7,0,0,0-.5-1.2Z" transform="translate(-4.5 -8.727)" fill="#fff"/>
  <path id="Path_46" data-name="Path 46" d="M27.481,21.093h-.01a.7.7,0,0,0-.7.7v3.937l-5.934-5.893a.7.7,0,0,0-.5-.2.682.682,0,0,0-.5.208.7.7,0,0,0,0,.993l5.893,5.929H21.8a.7.7,0,0,0-.7.7v.01a.7.7,0,0,0,.7.7h5.685a.7.7,0,0,0,.7-.7V21.8A.7.7,0,0,0,27.481,21.093Z" transform="translate(-8.727 -8.728)" fill="#fff"/>
</svg>
