<svg xmlns="http://www.w3.org/2000/svg" width="299.184" height="31.685"><defs><clipPath id="a"><path data-name="Rectangle 43655" fill="none" stroke="#152e66" stroke-width=".5" d="M0 0h26.674v31.685H0z"/></clipPath></defs><path data-name="Path 64744" d="M38.179 5.376s-3.264.038-3.7.038c-2.907 0-3.8 3.849-3.787 4.444v.117c0 6.681.014 17.9.014 17.9h-6.237V9.66a7.743 7.743 0 0 1 1.143-4.589 7.953 7.953 0 0 1 2.9-2.616 11.059 11.059 0 0 1 5.336-1.247h6.481Zm19.951-1.8h-1.629a24.492 24.492 0 0 0-2.512.148 7.771 7.771 0 0 0-2.7.79 5.446 5.446 0 0 0-2.119 1.922 6.175 6.175 0 0 0-.8 3.554 6.3 6.3 0 0 0 1.05 3.653 6.331 6.331 0 0 0 2.649 2.1 11.808 11.808 0 0 0 3.768.888c.431.036.871.057 1.314.073.324-.012.649-.027.978-.048Zm5.084 20.433a7.951 7.951 0 0 1-2.9 2.616 11.044 11.044 0 0 1-5.336 1.248h-6.483l-2.16-4.171s7.576-.037 8.007-.037a4.072 4.072 0 0 0 2.989-2 3.016 3.016 0 0 0 .8-2.445v-.118c-.3 0-.606 0-.909-.006-.348.006-.694.008-1.041 0a34.856 34.856 0 0 1-3.758-.152 15.722 15.722 0 0 1-5.092-1.308 9.641 9.641 0 0 1-3.7-2.912 8.012 8.012 0 0 1-1.485-4.886 7.713 7.713 0 0 1 1.143-4.615 8.009 8.009 0 0 1 2.9-2.59 11.246 11.246 0 0 1 3.631-1.157 24.1 24.1 0 0 1 3.334-.272h11.2v18.211a7.752 7.752 0 0 1-1.142 4.591m43.313-11.571a32.812 32.812 0 0 0-.976-.047c-.443.015-.882.037-1.312.072a11.727 11.727 0 0 0-3.759.889 6.311 6.311 0 0 0-2.644 2.1 6.305 6.305 0 0 0-1.047 3.655 6.191 6.191 0 0 0 .8 3.557 5.438 5.438 0 0 0 2.119 1.927 7.743 7.743 0 0 0 2.69.791 24.619 24.619 0 0 0 2.5.148h1.628Zm4.918 15.466h-9.885a23.9 23.9 0 0 1-3.327-.273 11.156 11.156 0 0 1-3.623-1.16 8.012 8.012 0 0 1-2.894-2.594 7.744 7.744 0 0 1-1.139-4.619 8.043 8.043 0 0 1 1.482-4.892 9.606 9.606 0 0 1 3.691-2.914 15.671 15.671 0 0 1 5.082-1.31 34.485 34.485 0 0 1 3.75-.152h1.04c.3-.006.605-.006.908-.006v-.115c.012-.594-.879-4.448-3.779-4.448-.432 0-7.992-.038-7.992-.038l2.157-4.174h6.468a11.006 11.006 0 0 1 5.324 1.249 7.935 7.935 0 0 1 2.894 2.619 7.758 7.758 0 0 1 1.14 4.6v18.227ZM82.164 12.436a33.24 33.24 0 0 0-.975-.047c-.444.015-.882.037-1.313.072a11.743 11.743 0 0 0-3.759.889 6.313 6.313 0 0 0-2.643 2.1 6.311 6.311 0 0 0-1.054 3.656 6.2 6.2 0 0 0 .8 3.557 5.45 5.45 0 0 0 2.119 1.927 7.734 7.734 0 0 0 2.689.791 24.621 24.621 0 0 0 2.507.148h1.627Zm4.918 15.466h-9.887a23.89 23.89 0 0 1-3.326-.273 11.158 11.158 0 0 1-3.623-1.16 8.008 8.008 0 0 1-2.894-2.594 7.739 7.739 0 0 1-1.14-4.619 8.038 8.038 0 0 1 1.481-4.892 9.6 9.6 0 0 1 3.692-2.914 15.661 15.661 0 0 1 5.081-1.31 34.5 34.5 0 0 1 3.75-.152h1.04c.3-.006.6-.006.907-.006v-.116c.011-.594-.88-4.448-3.78-4.448-.43 0-7.991-.038-7.991-.038l2.156-4.174h6.472a11 11 0 0 1 5.325 1.249 7.937 7.937 0 0 1 2.891 2.62 7.77 7.77 0 0 1 1.139 4.595v18.231ZM15.973 12.436a32.812 32.812 0 0 0-.976-.047c-.442.015-.881.037-1.312.072a11.742 11.742 0 0 0-3.759.889 6.316 6.316 0 0 0-2.644 2.1 6.305 6.305 0 0 0-1.047 3.655 6.191 6.191 0 0 0 .8 3.557 5.437 5.437 0 0 0 2.115 1.929 7.743 7.743 0 0 0 2.69.791 24.62 24.62 0 0 0 2.507.148h1.626Zm4.056 15.466h-9.024a23.9 23.9 0 0 1-3.327-.273 11.157 11.157 0 0 1-3.623-1.16 8.012 8.012 0 0 1-2.894-2.594 7.75 7.75 0 0 1-1.141-4.62 8.033 8.033 0 0 1 1.482-4.892 9.6 9.6 0 0 1 3.691-2.914 15.671 15.671 0 0 1 5.082-1.31 34.486 34.486 0 0 1 3.75-.152h1.039c.3-.006.6-.006.908-.006v-.115c.012-.594-.879-4.448-3.779-4.448-.432 0-7.992-.038-7.992-.038l2.157-4.173h6.469a11 11 0 0 1 5.324 1.249 7.945 7.945 0 0 1 2.9 2.619A7.776 7.776 0 0 1 22.19 9.67v18.231h-2.161Zm131.777 0h-4.919V9.076a6.974 6.974 0 0 0-1.5-4.619 3.88 3.88 0 0 0-6.457 0 6.974 6.974 0 0 0-1.5 4.619v18.825h-6.22V9.076a6.967 6.967 0 0 0-1.5-4.619 5.267 5.267 0 0 0-4.283-1.8h-3.677v25.244h-6.213V.331h12.046a11.784 11.784 0 0 1 4.352.816 9.229 9.229 0 0 1 2.4 1.38 9.278 9.278 0 0 1 2.389-1.38 11.729 11.729 0 0 1 4.375-.816q.235 0 .467.01c.132 0 .263-.01.4-.01.214 0 .426.008.638.018.217-.01.435-.018.656-.018a12.075 12.075 0 0 1 3.692.569 9.507 9.507 0 0 1 3.145 1.679 8.374 8.374 0 0 1 2.188 2.717 7.881 7.881 0 0 1 .82 3.632v18.973Z" fill="#ed7c00"/><g stroke-width=".5"><path data-name="Path 184269" d="M187.912 2.549a2.2 2.2 0 0 1 .641 1.654v21.063a2.048 2.048 0 0 1-.6 1.566 2.216 2.216 0 0 1-1.584.57 2.083 2.083 0 0 1-1.547-.57 2.124 2.124 0 0 1-.565-1.566V10.609l-6.413 11.457a3.59 3.59 0 0 1-.981 1.157 2.106 2.106 0 0 1-1.245.373 2.171 2.171 0 0 1-1.245-.356 3.3 3.3 0 0 1-.981-1.174l-6.447-11.279v14.479a2.1 2.1 0 0 1-.584 1.548 2.113 2.113 0 0 1-1.566.588 2.083 2.083 0 0 1-1.546-.57 2.124 2.124 0 0 1-.565-1.566V4.202a2.234 2.234 0 0 1 .622-1.653 2.267 2.267 0 0 1 1.678-.623 2.539 2.539 0 0 1 2.3 1.53l8.372 15.054 8.334-15.054a2.492 2.492 0 0 1 2.225-1.53 2.333 2.333 0 0 1 1.7.623" fill="#fff" stroke="#fff"/><path data-name="Path 184270" d="M227.346 25.948a10.675 10.675 0 0 1-4.431-4.484 14.378 14.378 0 0 1-1.547-6.833 14.272 14.272 0 0 1 1.547-6.815 10.706 10.706 0 0 1 4.431-4.467 13.9 13.9 0 0 1 6.727-1.566 15.384 15.384 0 0 1 4.673.694 12.408 12.408 0 0 1 3.886 2.006 2.082 2.082 0 0 1 .679.747 2.2 2.2 0 0 1 .189.961 1.971 1.971 0 0 1-.454 1.322 1.388 1.388 0 0 1-1.1.533 2.894 2.894 0 0 1-1.545-.5 11.4 11.4 0 0 0-3.013-1.583 10.111 10.111 0 0 0-3.091-.445 7.457 7.457 0 0 0-5.94 2.313q-2.011 2.317-2.011 6.8 0 4.519 2.018 6.833a7.454 7.454 0 0 0 5.94 2.313 9.344 9.344 0 0 0 3-.462 14.7 14.7 0 0 0 3.111-1.567 5.432 5.432 0 0 1 .754-.355 2.223 2.223 0 0 1 .791-.142 1.387 1.387 0 0 1 1.086.532 1.975 1.975 0 0 1 .452 1.317 2.218 2.218 0 0 1-.189.943 2.017 2.017 0 0 1-.679.765 12.389 12.389 0 0 1-3.884 2.012 15.384 15.384 0 0 1-4.675.694 13.888 13.888 0 0 1-6.725-1.566" fill="#fff" stroke="#fff"/><path data-name="Path 184271" d="M269.807 25.556a1.635 1.635 0 0 1-.7 1.353 2.719 2.719 0 0 1-2.79.267 2.42 2.42 0 0 1-.924-.8l-5.016-7.189a4.762 4.762 0 0 0-1.6-1.6 4.6 4.6 0 0 0-2.2-.462h-3.7v7.969a2.248 2.248 0 0 1-.642 1.689 2.384 2.384 0 0 1-1.735.624 2.451 2.451 0 0 1-1.753-.624 2.207 2.207 0 0 1-.66-1.689V4.274a2.06 2.06 0 0 1 .622-1.6 2.445 2.445 0 0 1 1.711-.57h9.428q4.526 0 6.882 1.9a6.659 6.659 0 0 1 2.357 5.5 6.718 6.718 0 0 1-1.753 4.787 8.475 8.475 0 0 1-4.959 2.4 4.883 4.883 0 0 1 1.923.89 7.989 7.989 0 0 1 1.621 1.779l3.432 4.947a2.168 2.168 0 0 1 .452 1.245m-6.6-12.936a3.544 3.544 0 0 0 1.283-3.008 3.488 3.488 0 0 0-1.283-3.008 6.872 6.872 0 0 0-4.034-.942h-6.331v7.936h6.335a6.674 6.674 0 0 0 4.034-.979" fill="#fff" stroke="#fff"/><path data-name="Path 184272" d="M279.569 25.948a10.741 10.741 0 0 1-4.393-4.484 14.378 14.378 0 0 1-1.545-6.833 14.425 14.425 0 0 1 1.527-6.815 10.623 10.623 0 0 1 4.389-4.467 15.29 15.29 0 0 1 13.48 0 10.641 10.641 0 0 1 4.375 4.467 14.414 14.414 0 0 1 1.527 6.815 14.378 14.378 0 0 1-1.546 6.833 10.736 10.736 0 0 1-4.393 4.484 15.173 15.173 0 0 1-13.425 0m12.446-4.484q2.053-2.383 2.055-6.833t-2.055-6.815a8.126 8.126 0 0 0-11.464 0q-2.057 2.366-2.055 6.815t2.055 6.832a8.081 8.081 0 0 0 11.464 0" fill="#fff" stroke="#fff"/><g data-name="Group 141172" transform="translate(191.551)" clip-path="url(#a)"><path data-name="Path 184273" d="m23.671 22.589-1.639-3.814-3.984 3.749.728 1.794c.165.387.371.827.6 1.331a5.168 5.168 0 0 0 .657 1.117 2.2 2.2 0 0 0 .755.575 2.553 2.553 0 0 0 1.081.21 2.593 2.593 0 0 0 1.845-.719 2.146 2.146 0 0 0 .763-1.582 7.706 7.706 0 0 0-.808-2.659" fill="#fff" stroke="#fff"/><path data-name="Path 184274" d="m19.94 13.926-3.828 3.6-.041-.1-3.975-10.237-3.908 10.24-.3.81-.371 1-.728 1.961-1.259 3.185a16.282 16.282 0 0 1-.858 1.88l-2.756 1.206a.792.792 0 0 1-.079-.02 2.7 2.7 0 0 1-1.059-.6 2.148 2.148 0 0 1-.76-1.353 2.036 2.036 0 0 1-.016-.227 3.013 3.013 0 0 1 .1-.778c.023-.083.044-.168.076-.256q.18-.541.594-1.5L7.525 6.611c.192-.462.425-1.017.692-1.668a8.3 8.3 0 0 1 .866-1.613 3.413 3.413 0 0 1 1.2-1.041 3.894 3.894 0 0 1 1.845-.4 3.948 3.948 0 0 1 1.864.4 3.494 3.494 0 0 1 1.21 1.024 6.922 6.922 0 0 1 .774 1.344c.209.479.478 1.122.8 1.92l2.064 4.794.944 2.193Z" fill="#fff" stroke="#fff"/><path data-name="Path 184275" d="M26.671 12.46v4.114a1.029 1.029 0 0 1-2.054.008V15.16L7.05 31.686v-7.652l-2.038 1.918-.78.731-.367.346a2.483 2.483 0 0 1-3.344-.35 2.151 2.151 0 0 1-.521-1.4 2.1 2.1 0 0 1 .126-.714.618.618 0 0 0 .573.668.673.673 0 0 0 .52-.17l2-1.881L7.07 19.56a2.043 2.043 0 0 1 2.762 0 1.785 1.785 0 0 1 .572 1.3v3.214l6.95-6.534.819-.771 4.077-3.834h-1.577a1 1 0 0 1-1.028-.966v-.074a1 1 0 0 1 1.028-.965h4.375a1.58 1.58 0 0 1 1.626 1.53" fill="#f38020" stroke="#f38020"/></g></g></svg>