<svg xmlns="http://www.w3.org/2000/svg" width="34.934" height="33.1" viewBox="0 0 34.934 33.1">
  <g id="general_data_icon" transform="translate(0.05 0.05)">
    <rect id="Rectangle_16" data-name="Rectangle 16" width="34.834" height="33" rx="3" fill="#f6f7fa" stroke="#6d7f9b" stroke-width="0.1"/>
    <g id="Group_140604" data-name="Group 140604" transform="translate(5.5 4.5)">
      <g id="svgexport-18_8_" data-name="svgexport-18 (8)">
        <path id="Path_184206" data-name="Path 184206" d="M3.992,14.265a.761.761,0,0,1,0-1.078l5.77-5.77a2.3,2.3,0,0,1,2.6-.451l4.555,2.14a.761.761,0,0,0,.864-.153L23.5,3.237a.77.77,0,0,1,1.085,0,.761.761,0,0,1,0,1.078l-5.724,5.724a2.3,2.3,0,0,1-2.6.451L11.711,8.35a.782.782,0,0,0-.871.145l-5.762,5.77a.775.775,0,0,1-1.085,0Zm9.339.941v9.476A1.528,1.528,0,0,1,11.8,26.211H10.275a1.528,1.528,0,0,1-1.528-1.528V15.206a1.533,1.533,0,0,1,1.528-1.528H11.8A1.533,1.533,0,0,1,13.332,15.206ZM26.324,9.841V24.683A1.528,1.528,0,0,1,24.8,26.211H23.267a1.528,1.528,0,0,1-1.528-1.528V9.841a1.533,1.533,0,0,1,1.528-1.528H24.8A1.533,1.533,0,0,1,26.324,9.841ZM6.835,22.038v2.644a1.528,1.528,0,0,1-1.528,1.528H3.778A1.528,1.528,0,0,1,2.25,24.683V22.038A1.533,1.533,0,0,1,3.778,20.51H5.307a1.533,1.533,0,0,1,1.528,1.528Zm12.992-4.173v6.817A1.528,1.528,0,0,1,18.3,26.211H16.771a1.528,1.528,0,0,1-1.528-1.528V17.866a1.533,1.533,0,0,1,1.528-1.528H18.3A1.533,1.533,0,0,1,19.828,17.866Z" transform="translate(-2.25 -3.014)" fill="#ee7421"/>
      </g>
      <path id="Path_184207" data-name="Path 184207" d="M3.9,14.265a.761.761,0,0,1,0-1.078l5.77-5.77a2.3,2.3,0,0,1,2.6-.451l4.555,2.14a.761.761,0,0,0,.864-.153l5.717-5.716a.77.77,0,0,1,1.085,0,.761.761,0,0,1,0,1.078l-5.724,5.724a2.3,2.3,0,0,1-2.6.451L11.622,8.35a.782.782,0,0,0-.871.145l-5.762,5.77a.775.775,0,0,1-1.085,0Z" transform="translate(-2.16 -3.013)" fill="#152e65"/>
    </g>
  </g>
</svg>
