<svg xmlns="http://www.w3.org/2000/svg" width="18.921" height="18.979" viewBox="0 0 18.921 18.979">
  <path id="search" d="M18.586,17.505l-3.234-3.162h0l-.076-.115a.762.762,0,0,0-1.07,0h0a7.632,7.632,0,0,1-9.9.32A7.225,7.225,0,0,1,2.706,5,7.6,7.6,0,0,1,12.186,2.2a7.283,7.283,0,0,1,4.059,8.83.733.733,0,0,0,.171.726.773.773,0,0,0,.728.218.755.755,0,0,0,.558-.508h0A8.782,8.782,0,0,0,13,.885,9.177,9.177,0,0,0,1.589,3.844,8.708,8.708,0,0,0,2.868,15.316a9.21,9.21,0,0,0,11.793.485l2.863,2.8a.77.77,0,0,0,1.07,0,.737.737,0,0,0,0-1.054h0Z" transform="translate(0.055 0.065)" fill="#cdcdcd" stroke="#cdcdcd" stroke-width="0.1"/>
</svg>
