<svg id="agricultural" xmlns="http://www.w3.org/2000/svg" xmlns:xlink="http://www.w3.org/1999/xlink" width="79.883" height="77.076" viewBox="0 0 79.883 77.076">
  <defs>
    <clipPath id="clip-path">
      <rect id="Rectangle_22618" data-name="Rectangle 22618" width="79.883" height="77.076" fill="none"/>
    </clipPath>
  </defs>
  <g id="Group_7909" data-name="Group 7909" clip-path="url(#clip-path)">
    <path id="Path_7947" data-name="Path 7947" d="M14.353,59.257v2.591a15.618,15.618,0,0,1,9.094,2.16,19.419,19.419,0,0,1,15.235-9.556V51.884c-.943-.159-1.875-.247-2.771-.477a12.13,12.13,0,0,1-9.074-12.5,1.3,1.3,0,0,1,1.49-1.434c.872-.015,1.744,0,2.629,0-.1-.1-.256-.279-.422-.443a12.237,12.237,0,0,1-3.694-9.506c.03-.994.478-1.415,1.488-1.433.872-.015,1.744,0,2.608,0a3.89,3.89,0,0,0-.293-.338A12.231,12.231,0,0,1,26.839,16.2c.027-1.052.461-1.479,1.516-1.5A12.172,12.172,0,0,1,38.3,18.983c.091.1.186.2.28.307l.235-.123a4.139,4.139,0,0,0-.543-1.092A11.832,11.832,0,0,1,38.989.437a1.275,1.275,0,0,1,1.937.019c5.461,4.893,5.733,12.3.667,17.641a4.27,4.27,0,0,0-.547,1.065l.223.136c.171-.18.346-.356.513-.54A12.2,12.2,0,0,1,51.658,14.7c.958.03,1.374.5,1.4,1.532a12.2,12.2,0,0,1-3.837,9.532c-.121.115-.316.154-.3.321.835,0,1.67-.006,2.5,0,1.207.01,1.613.423,1.633,1.648a12.22,12.22,0,0,1-3.917,9.5c-.1.093-.185.2-.217.234.827,0,1.665-.006,2.5,0,1.2.01,1.609.429,1.63,1.652A12.069,12.069,0,0,1,42.045,51.739c-.261.031-.52.069-.825.109v2.623a19.551,19.551,0,0,1,8.77,2.892,19.347,19.347,0,0,1,6.425,6.656,15.521,15.521,0,0,1,9.1-2.153V59.3c-.69-.125-1.407-.219-2.106-.388a12.038,12.038,0,0,1-9.259-12.159c.033-.945.46-1.4,1.411-1.39.93.009,1.859.092,2.788.142l.206-.2a3.1,3.1,0,0,1-.669-.386,11.935,11.935,0,0,1-3.73-9.13c.019-.986.458-1.445,1.471-1.432.931.012,1.862.118,2.792.182l.242-.2a2.649,2.649,0,0,1-.686-.346,11.876,11.876,0,0,1-3.821-9c.006-1.227.406-1.63,1.627-1.629a11.984,11.984,0,0,1,9.363,4.209c.093.105.189.208.284.311l.242-.118a3.645,3.645,0,0,0-.477-1.079c-4.868-5.2-4.619-12.219.628-17.045a1.294,1.294,0,0,1,2-.025c5.253,4.788,5.528,11.911.68,17.046a4.433,4.433,0,0,0-.567,1.119l.334.24a6.3,6.3,0,0,1,.492-.7,11.919,11.919,0,0,1,9.207-3.963c1.149.006,1.571.436,1.566,1.618a12.068,12.068,0,0,1-3.881,9.075c-.147.139-.288.285-.428.431-.018.018-.016.055-.019.067.891-.07,1.787-.18,2.685-.2,1.2-.029,1.649.428,1.643,1.633a12.027,12.027,0,0,1-3.7,8.888c-.183.179-.369.353-.676.646,1.014-.059,1.863-.138,2.714-.152,1.269-.02,1.663.4,1.664,1.683A12.108,12.108,0,0,1,68.668,59.2l-.623.074c0,.876-.047,1.749.032,2.61.021.225.4.515.671.605A15.811,15.811,0,0,1,79.281,73.03a18.126,18.126,0,0,1,.572,2.469,1.238,1.238,0,0,1-1.216,1.563,6.789,6.789,0,0,1-.7.011q-37.977,0-75.955,0a3.718,3.718,0,0,1-1.206-.136,1.14,1.14,0,0,1-.746-1.409A15.769,15.769,0,0,1,10.965,62.577c.725-.255.957-.566.9-1.281-.055-.661-.012-1.33-.012-2.033a12.2,12.2,0,0,1-6.986-2.7A11.945,11.945,0,0,1,.368,46.9c0-1.121.435-1.554,1.541-1.538a18.937,18.937,0,0,0,2.816-.037,4.538,4.538,0,0,1-.632-.436A11.971,11.971,0,0,1,.366,36.016c-.008-1.258.424-1.7,1.7-1.665a25.633,25.633,0,0,0,2.785.054,3.69,3.69,0,0,1-.64-.4A11.982,11.982,0,0,1,.368,24.918c0-1.157.436-1.556,1.626-1.556a11.932,11.932,0,0,1,9.189,4.006c.173.189.313.407.469.611l.3-.186a4.027,4.027,0,0,0-.522-1.106c-4.888-5.21-4.608-12.363.692-17.1a1.268,1.268,0,0,1,1.872-.03,11.526,11.526,0,0,1,.8,17.041,4.589,4.589,0,0,0-.6,1.168l.239.135c.4-.415.774-.853,1.195-1.243a12,12,0,0,1,8.616-3.292c1.069.014,1.484.434,1.5,1.49a11.918,11.918,0,0,1-3.779,9.109c-.185.179-.427.3-.5.577.946-.066,1.892-.175,2.839-.184.995-.01,1.424.465,1.442,1.462A11.98,11.98,0,0,1,22,44.943c-.162.159-.329.312-.611.579,1.011-.06,1.863-.141,2.716-.155,1.238-.021,1.635.386,1.643,1.6A12.062,12.062,0,0,1,14.9,59.2c-.169.019-.338.036-.546.058M2.731,74.56H77.085a1.593,1.593,0,0,0,0-.313,13.131,13.131,0,0,0-19.961-7.753c-1.211.807-1.774.666-2.449-.566-3.176-5.8-8.073-8.959-14.685-8.97-6.648-.011-11.574,3.147-14.766,8.981-.658,1.2-1.231,1.344-2.382.605a12.534,12.534,0,0,0-14.125-.257A12.956,12.956,0,0,0,2.731,74.56M39.979,3.039a9.082,9.082,0,0,0-.747,12.395.992.992,0,0,0,1.556-.142,9.219,9.219,0,0,0-.808-12.252M38.654,26.518c.209-4.8-5.006-9.95-9.27-9.221-.156,4.774,4.439,9.375,9.27,9.221m2.584,0c4.868.151,9.941-5,9.207-9.285-4.812-.106-9.423,4.513-9.207,9.285M38.616,49.272c.233-4.962-4.634-9.525-9.231-9.214-.176,4.786,4.531,9.485,9.231,9.214m2.612-11.379c4.824.2,9.833-4.86,9.229-9.263-4.668-.25-9.372,4.439-9.229,9.263m.031,11.419c6.305-.173,9.571-5.87,9.207-9.3-4.6-.332-9.584,4.665-9.207,9.3M29.418,28.647c-.464,4.515,4.571,9.567,9.2,9.232.207-4.931-4.518-9.433-9.2-9.232M66.846,12.211c-3.207,2.507-3.583,9.139-.649,11.876a.874.874,0,0,0,1.36-.1c2.808-3.122,2.46-8.985-.711-11.778m-53.854-.072c-.365.456-.718.847-1.015,1.276A8.98,8.98,0,0,0,12.2,23.823c.461.587,1.134.715,1.531.232a8.789,8.789,0,0,0-.741-11.917M23.213,47.877c-5.231.248-8.881,4.977-8.8,8.816,4.18.245,8.752-4.3,8.8-8.816m33.44.028c.359,5.67,5.471,8.94,8.845,8.764.119-4.286-4.425-8.823-8.845-8.764m.041-22c-.049,4.426,4.306,8.767,8.78,8.815.086-3.982-3.734-8.644-8.78-8.815M2.973,47.862c-.151,4.4,4.46,9.068,8.784,8.759a9.483,9.483,0,0,0-8.784-8.759m73.945,0c-4.755.35-8.868,4.527-8.736,8.819,4.114.326,9.035-4.6,8.736-8.819M14.393,45.71c4.845-.087,8.918-4.733,8.755-8.8-4.51.109-8.833,4.424-8.755,8.8M56.684,36.9c.025,4.52,4.829,9.252,8.814,8.746.093-4.3-4.228-8.621-8.814-8.746M23.234,25.937c-4.625-.032-8.98,4.543-8.791,8.816a9.5,9.5,0,0,0,8.791-8.816m44.96,8.8c4.724-.274,9.449-5.118,8.67-8.832-4.366.01-8.879,4.572-8.67,8.832M2.948,25.927c-.115,4.353,4.826,9.237,8.77,8.729.06-4.325-4.466-8.863-8.77-8.729m.007,10.978c.032,5.117,5.093,8.995,8.756,8.747.081-4.329-4.184-8.62-8.756-8.747m73.954.037c-4.276-.164-9,4.574-8.7,8.735,4.16.269,9.095-4.683,8.7-8.735M11.8,37.27l-1.827-.236L11.8,38.924Zm56.319.006v1.6l-.108-.2,1.849-1.644-1.741.242M9.981,48.035l1.81,1.839c.161-1.568.161-1.568-1.81-1.839M68.066,49.7l1.794-1.646c-1.876.194-1.876.194-1.794,1.646M16.128,48.028l-1.743.227v1.5l1.743-1.732m49.4,1.651V48.255l-1.867-.244,1.867,1.668M14.351,38.995l1.85-1.953-1.85.22Zm49.33-1.962,1.851,1.948V37.268l-1.851-.235m-25,3.413-1.791-.192,1.791,1.881ZM41.2,42.162,43,40.244l-1.8.209Zm.006-11.385,1.787-1.922-1.787.228Zm-2.513-1.721-1.8-.17,1.8,1.575Z" transform="translate(0 0)" fill="#383330"/>
    <path id="Path_7948" data-name="Path 7948" d="M161.379,12.972a9.219,9.219,0,0,1,.809,12.252.992.992,0,0,1-1.556.142,9.082,9.082,0,0,1,.747-12.395" transform="translate(-121.4 -9.933)" fill="#cf8e56"/>
    <path id="Path_7949" data-name="Path 7949" d="M134.686,82.828c-4.831.154-9.426-4.447-9.27-9.221,4.264-.729,9.479,4.423,9.27,9.221" transform="translate(-96.032 -56.31)" fill="#cf8e56"/>
    <path id="Path_7950" data-name="Path 7950" d="M176,82.84c-.216-4.772,4.4-9.392,9.207-9.285.734,4.285-4.339,9.436-9.207,9.285" transform="translate(-134.764 -56.321)" fill="#f6c092"/>
    <path id="Path_7951" data-name="Path 7951" d="M134.648,180.153c-4.7.271-9.408-4.428-9.231-9.214,4.6-.312,9.464,4.251,9.231,9.214" transform="translate(-96.031 -130.881)" fill="#cf8e56"/>
    <path id="Path_7952" data-name="Path 7952" d="M175.976,131.437c-.143-4.823,4.561-9.513,9.229-9.262.6,4.4-4.405,9.464-9.229,9.262" transform="translate(-134.747 -93.545)" fill="#cf8e56"/>
    <path id="Path_7953" data-name="Path 7953" d="M176.054,180.053c-.378-4.63,4.611-9.628,9.206-9.3.365,3.426-2.9,9.122-9.206,9.3" transform="translate(-134.793 -130.741)" fill="#f6c092"/>
    <path id="Path_7954" data-name="Path 7954" d="M125.474,122.258c4.684-.2,9.408,4.3,9.2,9.233-4.63.335-9.665-4.717-9.2-9.233" transform="translate(-96.056 -93.611)" fill="#f6c092"/>
    <path id="Path_7955" data-name="Path 7955" d="M276.693,52.122c3.171,2.793,3.519,8.656.711,11.778a.874.874,0,0,1-1.36.1c-2.934-2.737-2.558-9.369.649-11.876" transform="translate(-209.847 -39.911)" fill="#cf8e56"/>
    <path id="Path_7956" data-name="Path 7956" d="M47.073,51.816a8.789,8.789,0,0,1,.741,11.916c-.4.483-1.069.355-1.531-.232a8.979,8.979,0,0,1-.225-10.408c.3-.429.649-.819,1.015-1.276" transform="translate(-34.08 -39.677)" fill="#cf8e56"/>
    <path id="Path_7957" data-name="Path 7957" d="M70.332,204.363c-.044,4.511-4.616,9.06-8.8,8.816-.085-3.839,3.565-8.568,8.8-8.816" transform="translate(-47.119 -156.486)" fill="#f6c092"/>
    <path id="Path_7958" data-name="Path 7958" d="M241.824,204.48c4.42-.059,8.965,4.479,8.845,8.765-3.374.176-8.486-3.094-8.845-8.765" transform="translate(-185.171 -156.575)" fill="#cf8e56"/>
    <path id="Path_7959" data-name="Path 7959" d="M242,110.573c5.046.171,8.866,4.833,8.78,8.815-4.474-.048-8.829-4.389-8.78-8.815" transform="translate(-185.305 -84.669)" fill="#cf8e56"/>
    <path id="Path_7960" data-name="Path 7960" d="M12.683,204.3a9.483,9.483,0,0,1,8.784,8.759c-4.324.309-8.935-4.354-8.784-8.759" transform="translate(-9.709 -156.438)" fill="#cf8e56"/>
    <path id="Path_7961" data-name="Path 7961" d="M299.767,204.3c.3,4.22-4.622,9.146-8.736,8.819-.132-4.293,3.982-8.469,8.736-8.819" transform="translate(-222.847 -156.441)" fill="#f6c092"/>
    <path id="Path_7962" data-name="Path 7962" d="M61.435,166.334c-.078-4.38,4.246-8.7,8.755-8.8.163,4.072-3.911,8.718-8.755,8.8" transform="translate(-47.041 -120.624)" fill="#cf8e56"/>
    <path id="Path_7963" data-name="Path 7963" d="M241.956,157.514c4.586.125,8.907,4.443,8.814,8.746-3.985.506-8.789-4.226-8.814-8.746" transform="translate(-185.272 -120.612)" fill="#f6c092"/>
    <path id="Path_7964" data-name="Path 7964" d="M70.425,110.711a9.5,9.5,0,0,1-8.791,8.816c-.189-4.273,4.167-8.848,8.791-8.816" transform="translate(-47.19 -84.774)" fill="#f6c092"/>
    <path id="Path_7965" data-name="Path 7965" d="M291.067,119.418c-.21-4.26,4.3-8.822,8.67-8.832.779,3.714-3.945,8.558-8.67,8.832" transform="translate(-222.872 -84.679)" fill="#f6c092"/>
    <path id="Path_7966" data-name="Path 7966" d="M12.581,110.662c4.3-.133,8.83,4.4,8.77,8.729-3.944.508-8.885-4.376-8.77-8.729" transform="translate(-9.632 -84.734)" fill="#cf8e56"/>
    <path id="Path_7967" data-name="Path 7967" d="M12.619,157.53c4.572.127,8.837,4.417,8.756,8.747-3.663.248-8.724-3.629-8.756-8.747" transform="translate(-9.663 -120.625)" fill="#f6c092"/>
    <path id="Path_7968" data-name="Path 7968" d="M299.8,157.674c.391,4.052-4.544,9-8.7,8.735-.293-4.161,4.428-8.9,8.7-8.735" transform="translate(-222.889 -120.732)" fill="#cf8e56"/>
    <path id="Path_7969" data-name="Path 7969" d="M44.416,158.315v1.654l-1.827-1.89,1.827.236" transform="translate(-32.611 -121.045)" fill="#fff"/>
    <path id="Path_7970" data-name="Path 7970" d="M290.433,158.317l1.741-.242-1.849,1.644.108.2Z" transform="translate(-222.309 -121.042)" fill="#fff"/>
    <path id="Path_7971" data-name="Path 7971" d="M42.6,205.037c1.97.271,1.97.271,1.81,1.839l-1.81-1.839" transform="translate(-32.623 -157.002)" fill="#fff"/>
    <path id="Path_7972" data-name="Path 7972" d="M290.459,206.765c-.082-1.453-.082-1.453,1.794-1.646l-1.794,1.646" transform="translate(-222.392 -157.065)" fill="#fff"/>
    <path id="Path_7973" data-name="Path 7973" d="M63.146,205.005,61.4,206.737v-1.5l1.743-.227" transform="translate(-47.018 -156.978)" fill="#fff"/>
    <path id="Path_7974" data-name="Path 7974" d="M273.592,206.6l-1.867-1.668,1.867.244Z" transform="translate(-208.067 -156.924)" fill="#fff"/>
    <path id="Path_7975" data-name="Path 7975" d="M61.26,160.067v-1.733l1.85-.22-1.85,1.953" transform="translate(-46.908 -121.072)" fill="#fff"/>
    <path id="Path_7976" data-name="Path 7976" d="M271.826,158.073l1.851.235v1.713l-1.851-1.948" transform="translate(-208.144 -121.041)" fill="#fff"/>
    <path id="Path_7977" data-name="Path 7977" d="M159.247,172.015v1.69l-1.791-1.881,1.791.192" transform="translate(-120.568 -131.569)" fill="#fff"/>
    <path id="Path_7978" data-name="Path 7978" d="M175.865,173.7v-1.709l1.8-.209-1.8,1.918" transform="translate(-134.664 -131.538)" fill="#fff"/>
    <path id="Path_7979" data-name="Path 7979" d="M175.889,125.087v-1.693l1.787-.229-1.787,1.922" transform="translate(-134.683 -94.311)" fill="#fff"/>
    <path id="Path_7980" data-name="Path 7980" d="M159.265,123.467v1.4l-1.8-1.575,1.8.17" transform="translate(-120.572 -94.412)" fill="#fff"/>
    <path id="Path_7981" data-name="Path 7981" d="M128.553,285.018A1.555,1.555,0,1,1,127,283.463a1.555,1.555,0,0,1,1.555,1.555" transform="translate(-96.055 -217.055)" fill="#f6c092"/>
    <path id="Path_7982" data-name="Path 7982" d="M189.656,293.055A2.954,2.954,0,1,1,186.7,290.1a2.954,2.954,0,0,1,2.954,2.954" transform="translate(-140.701 -222.138)" fill="#cf8e56"/>
    <path id="Path_7983" data-name="Path 7983" d="M149.146,257.6a2.954,2.954,0,1,1-2.954-2.954,2.954,2.954,0,0,1,2.954,2.954" transform="translate(-109.681 -194.992)" fill="#383330"/>
    <path id="Path_7984" data-name="Path 7984" d="M57.865,304.188a1.477,1.477,0,1,1-1.477-1.477,1.477,1.477,0,0,1,1.477,1.477" transform="translate(-42.047 -231.794)" fill="#cf8e56"/>
    <path id="Path_7985" data-name="Path 7985" d="M57.1,284.776a.891.891,0,1,1-.891-.891.891.891,0,0,1,.891.891" transform="translate(-42.362 -217.378)" fill="#f6c092"/>
    <path id="Path_7986" data-name="Path 7986" d="M97.157,298.944a.891.891,0,1,1-.891-.891.891.891,0,0,1,.891.891" transform="translate(-73.031 -228.227)" fill="#383330"/>
    <path id="Path_7987" data-name="Path 7987" d="M301.327,303.411a1.555,1.555,0,1,1-1.555-1.555,1.555,1.555,0,0,1,1.555,1.555" transform="translate(-228.352 -231.139)" fill="#cf8e56"/>
    <path id="Path_7988" data-name="Path 7988" d="M228.852,304.188a1.477,1.477,0,1,1-1.477-1.477,1.477,1.477,0,0,1,1.477,1.477" transform="translate(-172.976 -231.794)" fill="#383330"/>
    <path id="Path_7989" data-name="Path 7989" d="M268.144,298.944a.891.891,0,1,1-.891-.891.891.891,0,0,1,.891.891" transform="translate(-203.96 -228.227)" fill="#f6c092"/>
    <path id="Path_7990" data-name="Path 7990" d="M153.827,305.582a.891.891,0,1,1-.891-.891.891.891,0,0,1,.891.891" transform="translate(-116.425 -233.31)" fill="#383330"/>
    <path id="Path_7991" data-name="Path 7991" d="M204.392,264.348a.891.891,0,1,1-.891-.891.891.891,0,0,1,.891.891" transform="translate(-155.144 -201.736)" fill="#383330"/>
  </g>
</svg>
