<svg xmlns="http://www.w3.org/2000/svg" width="94.682" height="88.18" viewBox="0 0 94.682 88.18">
  <g id="building-and-constructions-hover" transform="translate(0 0)">
    <g id="Group_7906" data-name="Group 7906">
      <path id="Path_7876" data-name="Path 7876" d="M0,80.187a3.173,3.173,0,0,1,2.887-2.241V76.865c0-12.434.04-24.868-.03-37.3A4.675,4.675,0,0,1,7.79,34.627q11,.162,21.994,0a4.571,4.571,0,0,1,4.89,4.963c-.044.726-.007,1.456-.007,2.287h1.069q5.753,0,11.505,0c2.992,0,4.724,1.734,4.725,4.725q.006,12.349,0,24.7v.937h4.3V38.982c-2.468-.389-3.68-1.917-4.091-4.294-.446-2.579-1.026-5.135-1.525-7.705a4.342,4.342,0,0,1,4.371-5.328c.393,0,.786,0,1.243,0V18.823H24.6v4.471a4.361,4.361,0,0,1,2.823,4.2,4.3,4.3,0,0,1-3.033,4.048,4.351,4.351,0,0,1-4.806-1.6,1.494,1.494,0,0,1,.185-2.176c.663-.492,1.391-.3,2.1.367a2.517,2.517,0,0,0,1.424.681,1.213,1.213,0,0,0,1.214-1.1,1.278,1.278,0,0,0-.748-1.547,3.281,3.281,0,0,1-2.107-3.643c.063-1.207.012-2.419.012-3.752-1.294,0-2.55,0-3.807,0C14.968,18.767,13.7,16.7,15,14.1c.364-.731.733-1.459,1.09-2.194a2.95,2.95,0,0,1,2.9-1.793c3.13.021,6.262-.054,9.39.027A20.489,20.489,0,0,0,34.612,9.3c7.036-2.01,14.093-3.95,21.146-5.9a1.293,1.293,0,0,0,.954-.8,4.129,4.129,0,0,1,4-2.595,4.352,4.352,0,0,1,3.956,2.7,2.044,2.044,0,0,0,.915.959c4.317,2,8.659,3.944,12.981,5.933a4.864,4.864,0,0,0,2.517.535,10.236,10.236,0,0,1,1.353,0,2.766,2.766,0,0,1,2.712,2.616c.062,1.01.012,2.026.012,3.029a7.01,7.01,0,0,1,.677.281,1.352,1.352,0,0,1,.772,1.466,1.389,1.389,0,0,1-1.226,1.223,4.927,4.927,0,0,1-.844.025H64.983c0,1-.019,1.944.019,2.889.006.155.234.351.405.442a4.391,4.391,0,0,1,2.457,4.2c-.016,2.706-.008,5.413,0,8.12a4.435,4.435,0,0,1-2.379,4.091,1.051,1.051,0,0,0-.484.732q-.034,16.282-.015,32.565a3.579,3.579,0,0,0,.055.38h.878c2.425,0,4.85,0,7.276,0,3.039.008,4.777,1.741,4.791,4.766,0,.3,0,.606,0,1.006,1.74,0,3.4.084,5.05-.02a3.118,3.118,0,0,1,3.608,3.659,6.806,6.806,0,0,0,0,1.268,3.323,3.323,0,0,1-2.2,3.743H2.2a3.826,3.826,0,0,1-2.2-2.2Zm31.739-2.251c.018-.324.043-.571.043-.819q0-18.819,0-37.639c0-1.463-.471-1.933-1.917-1.933q-11.04,0-22.079,0c-1.576,0-2.015.434-2.015,2q0,18.735,0,37.47V77.9H20.219c0-.4,0-.734,0-1.069,0-3.383-.012-6.766.006-10.15a2.9,2.9,0,0,1,3.152-3.167c.733-.015,1.466-.009,2.2,0,2.2.022,3.314,1.145,3.318,3.358.006,3.383,0,6.766,0,10.15,0,.3.029.594.046.915Zm17.3-.016c.017-.261.045-.48.045-.7q0-15.349,0-30.7c0-1.255-.483-1.748-1.732-1.75q-6.006-.013-12.011,0a4.65,4.65,0,0,0-.6.071V77.92ZM2.907,83.666H83.7V80.92H2.907Zm53.375-70.66H35.375q-7.907,0-15.814.011c-.306,0-.77.059-.888.254-.485.8-.864,1.673-1.3,2.558H56.282Zm3,59.134h2.763V39.022H59.281ZM54.853,33.187c.128.671.2,1.226.343,1.763a1.361,1.361,0,0,0,1.4,1.12c2.309.011,4.619.025,6.928-.006a1.345,1.345,0,0,0,1.443-1.436c.024-2.872.017-5.745,0-8.618a1.28,1.28,0,0,0-1.109-1.4,31.658,31.658,0,0,0-3.233-.028c0,1.485.028,2.889-.006,4.292a4.246,4.246,0,0,1-4.276,4.306c-.468.016-.937,0-1.492,0M75.013,77.927c.256-1.792.119-2.93-2.337-2.875-4.479.1-8.962.028-13.443.029-1.888,0-3.777-.012-5.665.007a1.448,1.448,0,0,0-1.593,1.565c-.018.412,0,.824,0,1.274ZM62.068,21.619c.012-.248.026-.414.026-.579q0-8.189,0-16.379c0-.25.039-.578-.1-.735-.328-.381-.71-.871-1.144-.962a1.69,1.69,0,0,0-1.3.52,1.951,1.951,0,0,0-.329,1.247c-.02,5.375-.014,10.75-.012,16.126,0,.244.028.488.045.763Zm14.48-9.789-11.5-5.224v3.516c.512,0,.963.037,1.406-.007a3.469,3.469,0,0,1,3.428,1.691c.841,1.229,1.77,2.4,2.68,3.58.158.2.407.468.624.478,1.086.049,2.175.022,3.367.022Zm-50.6,54.646H23.177V77.92h2.775ZM42.907,9.966l.029.108H56.263V6.251L42.907,9.966m14.811,14.61c-.236-.02-.346-.036-.457-.037-.733,0-1.467-.016-2.2,0a1.471,1.471,0,0,0-1.575,1.879c.107.695.268,1.382.414,2.07.426,2.015.428,2.015,2.495,1.805a1.592,1.592,0,0,0,.168-.017A1.258,1.258,0,0,0,57.7,29.095c.051-1.485.016-2.974.016-4.519M69.272,15.85c-.48-.649-.876-1.188-1.277-1.723-.919-1.229-1.445-1.4-2.971-.99V15.85Zm12.955-2.774H79.449v2.768h2.779Z" transform="translate(0 0)" fill="#cf8e56"/>
      <path id="Path_7878" data-name="Path 7878" d="M93.7,187.512c-.395,0-.789,0-1.184,0a2.86,2.86,0,0,1-3.1-3.034c-.022-.873-.026-1.748,0-2.62a2.863,2.863,0,0,1,3.064-2.985c.874-.006,1.747-.01,2.621,0a2.844,2.844,0,0,1,2.96,2.745,24.567,24.567,0,0,1,0,3.125,2.839,2.839,0,0,1-2.935,2.767c-.479.008-.958,0-1.437,0m1.455-5.706h-2.78V184.6h2.78Z" transform="translate(-69.202 -138.444)" fill="#f6c092"/>
      <path id="Path_7879" data-name="Path 7879" d="M93.675,238.493c-.451,0-.9.012-1.352,0a2.809,2.809,0,0,1-2.906-2.785,29.876,29.876,0,0,1,0-3.041,2.842,2.842,0,0,1,2.889-2.821c.956-.037,1.917-.04,2.873,0a2.87,2.87,0,0,1,2.88,2.844,29.2,29.2,0,0,1,0,2.957,2.851,2.851,0,0,1-2.948,2.845c-.479.013-.958,0-1.437,0m-1.319-2.933h2.766v-2.794H92.356Z" transform="translate(-69.179 -177.879)" fill="#f6c092"/>
      <path id="Path_7880" data-name="Path 7880" d="M46.907,285.358c0,.451.014.9,0,1.352a2.859,2.859,0,0,1-2.862,2.935c-.984.044-1.974.048-2.958,0a2.871,2.871,0,0,1-2.831-2.891c-.035-.957-.035-1.917,0-2.874A2.822,2.822,0,0,1,41,281.011,25.706,25.706,0,0,1,44.129,281a2.806,2.806,0,0,1,2.776,2.917c.017.478,0,.958,0,1.437m-2.962-1.419H41.179v2.773h2.767Z" transform="translate(-29.589 -217.465)" fill="#f6c092"/>
      <path id="Path_7881" data-name="Path 7881" d="M46.86,234.206c0,.591.044,1.186-.009,1.773a2.721,2.721,0,0,1-2.548,2.495,31.731,31.731,0,0,1-3.463,0,2.78,2.78,0,0,1-2.6-2.739c-.052-1.012-.049-2.03,0-3.042a2.876,2.876,0,0,1,2.887-2.837c.9-.04,1.8-.026,2.7-.007a2.9,2.9,0,0,1,3.058,3.09c.009.422,0,.845,0,1.268h-.03m-5.7,1.334h2.774v-2.762H41.162Z" transform="translate(-29.57 -177.891)" fill="#f6c092"/>
      <path id="Path_7882" data-name="Path 7882" d="M42.566,187.5c-.451,0-.9.005-1.352,0a2.861,2.861,0,0,1-2.974-2.817c-.046-1.012-.051-2.03,0-3.042a2.854,2.854,0,0,1,2.932-2.777c.958-.015,1.917-.021,2.874,0a2.8,2.8,0,0,1,2.816,2.694c.054,1.04.05,2.085.01,3.126a2.809,2.809,0,0,1-2.957,2.814c-.451.006-.9,0-1.353,0m-1.406-2.933h2.772v-2.781H41.16Z" transform="translate(-29.57 -138.427)" fill="#f6c092"/>
      <path id="Path_7883" data-name="Path 7883" d="M290.114,252.214h17.368l.215,5.193s-2.7,7.616-8.063,7.213c0,0-9.118-.2-9.521-9Z" transform="translate(-224.55 -195.216)" fill="#fff"/>
      <path id="Path_7884" data-name="Path 7884" d="M290.114,252.214h17.368l.215,5.193s-2.7,7.616-8.063,7.213c0,0-9.118-.2-9.521-9Z" transform="translate(-224.55 -195.216)" fill="none" stroke="#fff" stroke-miterlimit="10" stroke-width="4"/>
      <path id="Path_7885" data-name="Path 7885" d="M249.687,229.46a1.227,1.227,0,0,1-.614-1.227c.023-1.588,0-3.176.01-4.763a9.8,9.8,0,0,1,5.344-9.09,8.8,8.8,0,0,1,4.327-1.029c.8,0,1.608,0,2.452,0,0-.746.008-1.45-.008-2.153a.53.53,0,0,0-.186-.315,9.975,9.975,0,0,1-2.8-4.4c-.068-.217-.149-.325-.41-.332a3.463,3.463,0,0,1-2.714-5.661c.026-.033.044-.073,0,0a10.56,10.56,0,0,1-.743-1.739,2.425,2.425,0,0,1,1.37-2.681.623.623,0,0,0,.384-.553,9.383,9.383,0,0,1,6.355-7.882.943.943,0,0,0,.689-.647,2.614,2.614,0,0,1,2.658-1.873q1.472,0,2.945,0a2.65,2.65,0,0,1,2.689,1.954.7.7,0,0,0,.493.512,9.417,9.417,0,0,1,6.537,7.977.655.655,0,0,0,.262.434,2.588,2.588,0,0,1,.775,4.209l-.056.066a10.254,10.254,0,0,1,.729,1.776,3.413,3.413,0,0,1-3.3,4.1.514.514,0,0,0-.568.421,9.767,9.767,0,0,1-2.7,4.264.937.937,0,0,0-.256.583c-.032.63-.012,1.262-.012,1.936.816,0,1.591.013,2.367,0a8.822,8.822,0,0,1,4.038.822,9.984,9.984,0,0,1,5.723,9.084c0,1.66-.015,3.32.007,4.98a1.227,1.227,0,0,1-.614,1.227Zm25.376-28.467H259.474c0,.762.011,1.5,0,2.229a8.155,8.155,0,0,0,1.454,4.933,7.5,7.5,0,0,0,6,3.445,7.87,7.87,0,0,0,7.637-5.232,15.845,15.845,0,0,0,.5-5.375M256.039,215.52v12.173h1.7c0-.337,0-.639,0-.942s-.012-.635,0-.952a.861.861,0,0,1,1.295-.8.938.938,0,0,1,.434.886c0,.6,0,1.2,0,1.811h6.893a.518.518,0,0,0,.03-.107c0-2.452.007-4.9,0-7.357a.668.668,0,0,0-.182-.409q-2.154-2.281-4.326-4.545a.547.547,0,0,0-.314-.191c-.687-.017-1.375-.009-2.1-.009v.511q0,2.315,0,4.631c0,.746-.307,1.165-.856,1.172s-.875-.416-.876-1.152q0-1.536,0-3.073v-2.062l-1.7.409m19.027,12.188c0-.67-.016-1.29,0-1.909a.858.858,0,0,1,1.293-.8.938.938,0,0,1,.434.886c0,.6,0,1.2,0,1.809h1.713V215.522l-1.713-.41v.55q0,2.272,0,4.544a3.1,3.1,0,0,1-.011.389.856.856,0,0,1-1.708.016,2.819,2.819,0,0,1-.012-.389q0-2.337,0-4.674v-.466c-.647,0-1.224.016-1.8-.007a.846.846,0,0,0-.713.3c-1.374,1.46-2.768,2.9-4.135,4.368a1.09,1.09,0,0,0-.269.673c-.02,2.293-.012,4.587-.011,6.881,0,.138.012.276.019.415Zm-17.229-31.961H276.7a7.539,7.539,0,0,0-5.1-6.381v.609c0,1.01,0,2.021,0,3.031,0,.624-.36,1.031-.875,1.022a.905.905,0,0,1-.854-1c0-.115,0-.231,0-.346,0-1.516.006-3.031,0-4.547a1.137,1.137,0,0,0-1.3-1.287c-.938,0-1.877.014-2.815-.006a.876.876,0,0,0-.893.55,2.185,2.185,0,0,0-.182.83c-.017,1.53-.008,3.06-.008,4.59,0,.788-.3,1.209-.855,1.218s-.877-.422-.877-1.239q0-1.537,0-3.074c0-.123-.013-.246-.021-.374a7.692,7.692,0,0,0-5.081,6.407m9.386,3.485h4.547q2.858,0,5.716,0a.908.908,0,0,0,1-.649c.17-.6-.283-1.081-1.038-1.081q-10.176,0-20.351,0c-.665,0-1.08.337-1.08.862s.411.862,1.074.869h10.132m-12.97,28.479V216.559a.645.645,0,0,0-.139.054,7.844,7.844,0,0,0-3.211,5.609c-.148,1.573-.068,3.168-.089,4.753,0,.24,0,.48,0,.735Zm26.019-.013h3.455c0-1.426-.012-2.822,0-4.219a8.265,8.265,0,0,0-1.956-5.583,19.78,19.78,0,0,0-1.412-1.387l-.089.089ZM271.6,212.263a9.268,9.268,0,0,1-8.661,0c0,.412.022.757-.006,1.1a1.039,1.039,0,0,0,.344.876c1.04,1.061,2.057,2.146,3.082,3.222l.876.921a.523.523,0,0,0,.117-.057q2.048-2.144,4.089-4.3a.633.633,0,0,0,.152-.378c.018-.432.007-.864.007-1.388m-13.871-7.856v-3.422a1.711,1.711,0,1,0,0,3.422m19.072-.01a1.694,1.694,0,0,0,1.725-1.723,1.674,1.674,0,0,0-1.725-1.666Z" transform="translate(-192.784 -143.279)" fill="#fff"/>
      <path id="Path_7886" data-name="Path 7886" d="M249.687,229.46a1.227,1.227,0,0,1-.614-1.227c.023-1.588,0-3.176.01-4.763a9.8,9.8,0,0,1,5.344-9.09,8.8,8.8,0,0,1,4.327-1.029c.8,0,1.608,0,2.452,0,0-.746.008-1.45-.008-2.153a.53.53,0,0,0-.186-.315,9.975,9.975,0,0,1-2.8-4.4c-.068-.217-.149-.325-.41-.332a3.463,3.463,0,0,1-2.714-5.661c.026-.033.044-.073,0,0a10.56,10.56,0,0,1-.743-1.739,2.425,2.425,0,0,1,1.37-2.681.623.623,0,0,0,.384-.553,9.383,9.383,0,0,1,6.355-7.882.943.943,0,0,0,.689-.647,2.614,2.614,0,0,1,2.658-1.873q1.472,0,2.945,0a2.65,2.65,0,0,1,2.689,1.954.7.7,0,0,0,.493.512,9.417,9.417,0,0,1,6.537,7.977.655.655,0,0,0,.262.434,2.588,2.588,0,0,1,.775,4.209l-.056.066a10.254,10.254,0,0,1,.729,1.776,3.413,3.413,0,0,1-3.3,4.1.514.514,0,0,0-.568.421,9.767,9.767,0,0,1-2.7,4.264.937.937,0,0,0-.256.583c-.032.63-.012,1.262-.012,1.936.816,0,1.591.013,2.367,0a8.822,8.822,0,0,1,4.038.822,9.984,9.984,0,0,1,5.723,9.084c0,1.66-.015,3.32.007,4.98a1.227,1.227,0,0,1-.614,1.227Zm25.376-28.467H259.474c0,.762.011,1.5,0,2.229a8.155,8.155,0,0,0,1.454,4.933,7.5,7.5,0,0,0,6,3.445,7.87,7.87,0,0,0,7.637-5.232A15.845,15.845,0,0,0,275.064,200.993ZM256.039,215.52v12.173h1.7c0-.337,0-.639,0-.942s-.012-.635,0-.952a.861.861,0,0,1,1.295-.8.938.938,0,0,1,.434.886c0,.6,0,1.2,0,1.811h6.893a.518.518,0,0,0,.03-.107c0-2.452.007-4.9,0-7.357a.668.668,0,0,0-.182-.409q-2.154-2.281-4.326-4.545a.547.547,0,0,0-.314-.191c-.687-.017-1.375-.009-2.1-.009v.511q0,2.315,0,4.631c0,.746-.307,1.165-.856,1.172s-.875-.416-.876-1.152q0-1.536,0-3.073v-2.062Zm19.027,12.188c0-.67-.016-1.29,0-1.909a.858.858,0,0,1,1.293-.8.938.938,0,0,1,.434.886c0,.6,0,1.2,0,1.809h1.713V215.522l-1.713-.41v.55q0,2.272,0,4.544a3.1,3.1,0,0,1-.011.389.856.856,0,0,1-1.708.016,2.819,2.819,0,0,1-.012-.389q0-2.337,0-4.674v-.466c-.647,0-1.224.016-1.8-.007a.846.846,0,0,0-.713.3c-1.374,1.46-2.768,2.9-4.135,4.368a1.09,1.09,0,0,0-.269.673c-.02,2.293-.012,4.587-.011,6.881,0,.138.012.276.019.415Zm-17.229-31.961H276.7a7.539,7.539,0,0,0-5.1-6.381v.609c0,1.01,0,2.021,0,3.031,0,.624-.36,1.031-.875,1.022a.905.905,0,0,1-.854-1c0-.115,0-.231,0-.346,0-1.516.006-3.031,0-4.547a1.137,1.137,0,0,0-1.3-1.287c-.938,0-1.877.014-2.815-.006a.876.876,0,0,0-.893.55,2.185,2.185,0,0,0-.182.83c-.017,1.53-.008,3.06-.008,4.59,0,.788-.3,1.209-.855,1.218s-.877-.422-.877-1.239q0-1.537,0-3.074c0-.123-.013-.246-.021-.374A7.692,7.692,0,0,0,257.837,195.747Zm9.386,3.485h4.547q2.858,0,5.716,0a.908.908,0,0,0,1-.649c.17-.6-.283-1.081-1.038-1.081q-10.176,0-20.351,0c-.665,0-1.08.337-1.08.862s.411.862,1.074.869h10.132Zm-12.97,28.479V216.559a.645.645,0,0,0-.139.054,7.844,7.844,0,0,0-3.211,5.609c-.148,1.573-.068,3.168-.089,4.753,0,.24,0,.48,0,.735Zm26.019-.013h3.455c0-1.426-.012-2.822,0-4.219a8.265,8.265,0,0,0-1.956-5.583,19.78,19.78,0,0,0-1.412-1.387l-.089.089ZM271.6,212.263a9.268,9.268,0,0,1-8.661,0c0,.412.022.757-.006,1.1a1.039,1.039,0,0,0,.344.876c1.04,1.061,2.057,2.146,3.082,3.222l.876.921a.523.523,0,0,0,.117-.057q2.048-2.144,4.089-4.3a.633.633,0,0,0,.152-.378C271.612,213.219,271.6,212.786,271.6,212.263Zm-13.871-7.856v-3.422a1.711,1.711,0,1,0,0,3.422Zm19.072-.01a1.694,1.694,0,0,0,1.725-1.723,1.674,1.674,0,0,0-1.725-1.666Z" transform="translate(-192.784 -143.279)" fill="none" stroke="#f8f7f6" stroke-miterlimit="10" stroke-width="4"/>
      <path id="Path_7887" data-name="Path 7887" d="M279.9,318.158l1.7-.409v2.062q0,1.536,0,3.073c0,.736.325,1.16.876,1.152s.855-.426.856-1.172q0-2.315,0-4.63v-.511c.724,0,1.412-.008,2.1.009a.548.548,0,0,1,.314.19q2.17,2.266,4.326,4.545a.667.667,0,0,1,.182.409c.009,2.452.005,4.9,0,7.357a.513.513,0,0,1-.03.107h-6.893c0-.609,0-1.21,0-1.811a.938.938,0,0,0-.434-.886.861.861,0,0,0-1.295.8c-.015.317,0,.635,0,.952,0,.3,0,.6,0,.942h-1.7Zm22.673,12.173h-1.7c0-.337,0-.639,0-.942,0-.318.012-.635,0-.952a.861.861,0,0,0-1.295-.8.938.938,0,0,0-.434.886c0,.6,0,1.2,0,1.811h-6.893a.527.527,0,0,1-.03-.107c0-2.452-.007-4.9,0-7.357a.667.667,0,0,1,.182-.409q2.154-2.281,4.326-4.545a.547.547,0,0,1,.314-.19c.687-.017,1.375-.009,2.1-.009v.511q0,2.315,0,4.63c0,.746.307,1.165.856,1.172s.875-.416.876-1.152q0-1.536,0-3.073v-2.062l1.7.409Zm-20.094-5.415a.859.859,0,1,0,.849.869.887.887,0,0,0-.849-.869" transform="translate(-216.644 -245.917)" fill="#fff"/>
      <path id="Path_7888" data-name="Path 7888" d="M279.9,318.158l1.7-.409v2.062q0,1.536,0,3.073c0,.736.325,1.16.876,1.152s.855-.426.856-1.172q0-2.315,0-4.63v-.511c.724,0,1.412-.008,2.1.009a.548.548,0,0,1,.314.19q2.17,2.266,4.326,4.545a.667.667,0,0,1,.182.409c.009,2.452.005,4.9,0,7.357a.513.513,0,0,1-.03.107h-6.893c0-.609,0-1.21,0-1.811a.938.938,0,0,0-.434-.886.861.861,0,0,0-1.295.8c-.015.317,0,.635,0,.952,0,.3,0,.6,0,.942h-1.7Zm22.673,12.173h-1.7c0-.337,0-.639,0-.942,0-.318.012-.635,0-.952a.861.861,0,0,0-1.295-.8.938.938,0,0,0-.434.886c0,.6,0,1.2,0,1.811h-6.893a.527.527,0,0,1-.03-.107c0-2.452-.007-4.9,0-7.357a.667.667,0,0,1,.182-.409q2.154-2.281,4.326-4.545a.547.547,0,0,1,.314-.19c.687-.017,1.375-.009,2.1-.009v.511q0,2.315,0,4.63c0,.746.307,1.165.856,1.172s.875-.416.876-1.152q0-1.536,0-3.073v-2.062l1.7.409Zm-20.094-5.415a.859.859,0,1,0,.849.869A.887.887,0,0,0,282.478,324.916Z" transform="translate(-216.644 -245.917)" fill="none" stroke="#fff" stroke-miterlimit="10" stroke-width="4"/>
      <path id="Path_7889" data-name="Path 7889" d="M287.854,201.66a7.692,7.692,0,0,1,5.081-6.407c.007.129.02.252.021.374q0,1.537,0,3.075c0,.817.305,1.247.877,1.239s.855-.43.855-1.218c0-1.53-.009-3.06.008-4.59a2.181,2.181,0,0,1,.182-.83.876.876,0,0,1,.893-.551c.938.02,1.876.006,2.815.006a1.137,1.137,0,0,1,1.3,1.287c.009,1.516,0,3.031,0,4.547,0,.115,0,.231,0,.346a.905.905,0,0,0,.854,1c.515.008.871-.4.875-1.023.007-1.01,0-2.021,0-3.031v-.609a7.539,7.539,0,0,1,5.1,6.381Z" transform="translate(-222.801 -149.192)" fill="#fff"/>
      <path id="Path_7890" data-name="Path 7890" d="M287.854,201.66a7.692,7.692,0,0,1,5.081-6.407c.007.129.02.252.021.374q0,1.537,0,3.075c0,.817.305,1.247.877,1.239s.855-.43.855-1.218c0-1.53-.009-3.06.008-4.59a2.181,2.181,0,0,1,.182-.83.876.876,0,0,1,.893-.551c.938.02,1.876.006,2.815.006a1.137,1.137,0,0,1,1.3,1.287c.009,1.516,0,3.031,0,4.547,0,.115,0,.231,0,.346a.905.905,0,0,0,.854,1c.515.008.871-.4.875-1.023.007-1.01,0-2.021,0-3.031v-.609a7.539,7.539,0,0,1,5.1,6.381Z" transform="translate(-222.801 -149.192)" fill="#f6c092" stroke="#f8f7f6" stroke-miterlimit="10" stroke-width="4"/>
      <path id="Path_7891" data-name="Path 7891" d="M291.006,241.653h-9.829c-.1,0-.2,0-.3,0-.663-.007-1.075-.341-1.074-.869s.416-.862,1.08-.862q10.176,0,20.352,0c.755,0,1.207.479,1.038,1.081a.909.909,0,0,1-1,.649q-2.858.005-5.716,0h-4.547" transform="translate(-216.567 -185.7)" fill="#fff"/>
      <path id="Path_7892" data-name="Path 7892" d="M291.006,241.653h-9.829c-.1,0-.2,0-.3,0-.663-.007-1.075-.341-1.074-.869s.416-.862,1.08-.862q10.176,0,20.352,0c.755,0,1.207.479,1.038,1.081a.909.909,0,0,1-1,.649q-2.858.005-5.716,0Z" transform="translate(-216.567 -185.7)" fill="none" stroke="#fff" stroke-miterlimit="10" stroke-width="4"/>
      <path id="Path_7893" data-name="Path 7893" d="M260.206,335.41h-3.44c0-.255,0-.5,0-.735.021-1.585-.058-3.179.089-4.753a7.844,7.844,0,0,1,3.211-5.609.636.636,0,0,1,.139-.054Z" transform="translate(-198.737 -250.978)" fill="#fff"/>
      <path id="Path_7894" data-name="Path 7894" d="M260.206,335.41h-3.44c0-.255,0-.5,0-.735.021-1.585-.058-3.179.089-4.753a7.844,7.844,0,0,1,3.211-5.609.636.636,0,0,1,.139-.054Z" transform="translate(-198.737 -250.978)" fill="none" stroke="#fff" stroke-miterlimit="10" stroke-width="4"/>
      <path id="Path_7895" data-name="Path 7895" d="M387.125,335.228v-11.1l.089-.089c.473.46.989.884,1.412,1.387a8.266,8.266,0,0,1,1.956,5.583c-.015,1.4,0,2.793,0,4.219Z" transform="translate(-299.638 -250.809)" fill="#fff"/>
      <path id="Path_7896" data-name="Path 7896" d="M387.125,335.228v-11.1l.089-.089c.473.46.989.884,1.412,1.387a8.266,8.266,0,0,1,1.956,5.583c-.015,1.4,0,2.793,0,4.219Z" transform="translate(-299.638 -250.809)" fill="none" stroke="#fff" stroke-miterlimit="10" stroke-width="4"/>
      <path id="Path_7897" data-name="Path 7897" d="M319.055,305.248c0,.523.012.956-.007,1.387a.634.634,0,0,1-.152.378q-2.036,2.156-4.089,4.3a.538.538,0,0,1-.117.057l-.877-.921c-1.025-1.076-2.042-2.16-3.082-3.222a1.039,1.039,0,0,1-.344-.876c.028-.34.006-.685.006-1.1a9.269,9.269,0,0,0,8.661,0" transform="translate(-240.239 -236.264)" fill="#fff"/>
      <path id="Path_7898" data-name="Path 7898" d="M319.055,305.248c0,.523.012.956-.007,1.387a.634.634,0,0,1-.152.378q-2.036,2.156-4.089,4.3a.538.538,0,0,1-.117.057l-.877-.921c-1.025-1.076-2.042-2.16-3.082-3.222a1.039,1.039,0,0,1-.344-.876c.028-.34.006-.685.006-1.1A9.269,9.269,0,0,0,319.055,305.248Z" transform="translate(-240.239 -236.264)" fill="none" stroke="#fff" stroke-miterlimit="10" stroke-width="4"/>
      <path id="Path_7899" data-name="Path 7899" d="M281.5,258.764a1.711,1.711,0,1,1,0-3.422Z" transform="translate(-216.554 -197.637)" fill="#fff"/>
      <path id="Path_7900" data-name="Path 7900" d="M281.5,258.764a1.711,1.711,0,1,1,0-3.422Z" transform="translate(-216.554 -197.637)" fill="none" stroke="#fff" stroke-miterlimit="10" stroke-width="4"/>
      <path id="Path_7901" data-name="Path 7901" d="M371.769,258.829V255.44a1.674,1.674,0,0,1,1.725,1.666,1.694,1.694,0,0,1-1.725,1.723" transform="translate(-287.752 -197.711)" fill="#fff"/>
      <path id="Path_7902" data-name="Path 7902" d="M371.769,258.829V255.44a1.674,1.674,0,0,1,1.725,1.666A1.694,1.694,0,0,1,371.769,258.829Z" transform="translate(-287.752 -197.711)" fill="none" stroke="#fff" stroke-miterlimit="10" stroke-width="4"/>
      <path id="Path_7903" data-name="Path 7903" d="M288.334,349.564a.859.859,0,1,1-.869.849.887.887,0,0,1,.869-.849" transform="translate(-222.501 -270.565)" fill="#fff"/>
      <path id="Path_7904" data-name="Path 7904" d="M288.334,349.564a.859.859,0,1,1-.869.849A.887.887,0,0,1,288.334,349.564Z" transform="translate(-222.501 -270.565)" fill="none" stroke="#fff" stroke-miterlimit="10" stroke-width="4"/>
      <path id="Path_7905" data-name="Path 7905" d="M365.834,350.41a.859.859,0,1,1-.871-.848.886.886,0,0,1,.871.848" transform="translate(-281.828 -270.564)" fill="#fff"/>
      <path id="Path_7906" data-name="Path 7906" d="M365.834,350.41a.859.859,0,1,1-.871-.848A.886.886,0,0,1,365.834,350.41Z" transform="translate(-281.828 -270.564)" fill="none" stroke="#fff" stroke-miterlimit="10" stroke-width="4"/>
      <path id="Path_7907" data-name="Path 7907" d="M289.919,252.214h17.368l.215,5.193s-2.7,7.616-8.063,7.213c0,0-9.118-.2-9.521-9Z" transform="translate(-224.4 -195.216)" fill="#f8f7f6"/>
      <path id="Path_7908" data-name="Path 7908" d="M289.919,252.214h17.368l.215,5.193s-2.7,7.616-8.063,7.213c0,0-9.118-.2-9.521-9Z" transform="translate(-224.4 -195.216)" fill="none" stroke="#000" stroke-miterlimit="10" stroke-width="1"/>
      <path id="Path_7909" data-name="Path 7909" d="M249.492,229.46a1.227,1.227,0,0,1-.614-1.227c.023-1.588,0-3.176.01-4.763a9.8,9.8,0,0,1,5.344-9.09,8.8,8.8,0,0,1,4.327-1.029c.8,0,1.608,0,2.452,0,0-.746.008-1.45-.008-2.153a.53.53,0,0,0-.186-.315,9.975,9.975,0,0,1-2.8-4.4c-.068-.217-.149-.325-.41-.332a3.463,3.463,0,0,1-2.714-5.661c.026-.033.044-.073,0,0a10.561,10.561,0,0,1-.743-1.739,2.425,2.425,0,0,1,1.37-2.681.623.623,0,0,0,.384-.553,9.383,9.383,0,0,1,6.355-7.882.943.943,0,0,0,.689-.647,2.614,2.614,0,0,1,2.658-1.873q1.472,0,2.945,0a2.65,2.65,0,0,1,2.689,1.954.7.7,0,0,0,.493.512,9.417,9.417,0,0,1,6.537,7.977.655.655,0,0,0,.262.434,2.588,2.588,0,0,1,.775,4.209l-.056.066a10.256,10.256,0,0,1,.729,1.776,3.413,3.413,0,0,1-3.3,4.1.514.514,0,0,0-.568.421,9.766,9.766,0,0,1-2.7,4.264.937.937,0,0,0-.256.583c-.032.63-.012,1.262-.012,1.936.816,0,1.591.013,2.367,0a8.822,8.822,0,0,1,4.038.822,9.985,9.985,0,0,1,5.723,9.084c0,1.66-.015,3.32.007,4.98a1.227,1.227,0,0,1-.614,1.227Zm25.376-28.467H259.279c0,.762.011,1.5,0,2.229a8.155,8.155,0,0,0,1.454,4.933,7.5,7.5,0,0,0,6,3.445,7.87,7.87,0,0,0,7.637-5.232,15.844,15.844,0,0,0,.5-5.375M255.844,215.52v12.173h1.7c0-.337,0-.639,0-.942s-.012-.635,0-.952a.861.861,0,0,1,1.295-.8.938.938,0,0,1,.434.886c0,.6,0,1.2,0,1.811h6.893a.518.518,0,0,0,.03-.107c0-2.452.007-4.9,0-7.357a.668.668,0,0,0-.182-.409q-2.154-2.281-4.326-4.545a.547.547,0,0,0-.314-.191c-.687-.017-1.375-.009-2.1-.009v.511q0,2.315,0,4.631c0,.746-.307,1.165-.856,1.172s-.875-.416-.876-1.152q0-1.536,0-3.073c0-.661,0-1.323,0-2.062l-1.7.409m19.027,12.188c0-.67-.017-1.29,0-1.909a.858.858,0,0,1,1.293-.8.938.938,0,0,1,.434.886c0,.6,0,1.2,0,1.809h1.713V215.522l-1.713-.41v.55q0,2.272,0,4.544a3.1,3.1,0,0,1-.011.389.856.856,0,0,1-1.708.016,2.823,2.823,0,0,1-.012-.389q0-2.337,0-4.674v-.466c-.647,0-1.224.016-1.8-.007a.846.846,0,0,0-.713.3c-1.374,1.46-2.768,2.9-4.135,4.368a1.09,1.09,0,0,0-.269.673c-.02,2.293-.012,4.587-.011,6.881,0,.138.012.276.019.415Zm-17.229-31.961h18.866a7.539,7.539,0,0,0-5.1-6.381v.609c0,1.01,0,2.021,0,3.031,0,.624-.36,1.031-.875,1.022a.905.905,0,0,1-.854-1c0-.115,0-.231,0-.346,0-1.516.006-3.031,0-4.547a1.137,1.137,0,0,0-1.3-1.287c-.938,0-1.877.014-2.815-.006a.876.876,0,0,0-.893.55,2.185,2.185,0,0,0-.182.83c-.017,1.53-.008,3.06-.008,4.59,0,.788-.3,1.209-.855,1.218s-.877-.422-.877-1.239q0-1.537,0-3.074c0-.123-.013-.246-.021-.374a7.692,7.692,0,0,0-5.081,6.407m9.386,3.485h4.547q2.858,0,5.716,0a.908.908,0,0,0,1-.649c.17-.6-.283-1.081-1.038-1.081q-10.176,0-20.351,0c-.665,0-1.08.337-1.08.862s.411.862,1.074.869h10.132m-12.97,28.479V216.559a.645.645,0,0,0-.139.054,7.844,7.844,0,0,0-3.211,5.609c-.148,1.573-.068,3.168-.089,4.753,0,.24,0,.48,0,.735Zm26.019-.013h3.454c0-1.426-.012-2.822,0-4.219a8.265,8.265,0,0,0-1.956-5.583,19.775,19.775,0,0,0-1.412-1.387l-.089.089Zm-8.671-15.435a9.268,9.268,0,0,1-8.661,0c0,.412.022.757-.006,1.1a1.039,1.039,0,0,0,.343.876c1.04,1.061,2.057,2.146,3.083,3.222l.876.921a.521.521,0,0,0,.117-.057q2.048-2.144,4.089-4.3a.633.633,0,0,0,.152-.378c.019-.432.007-.864.007-1.388m-13.871-7.856v-3.422a1.711,1.711,0,1,0,0,3.422m19.072-.01a1.694,1.694,0,0,0,1.725-1.723,1.674,1.674,0,0,0-1.725-1.666Z" transform="translate(-192.633 -143.279)" fill="#cf8e56"/>
      <path id="Path_7911" data-name="Path 7911" d="M279.7,318.158l1.7-.409v2.062q0,1.536,0,3.073c0,.736.325,1.16.876,1.152s.855-.426.856-1.172q0-2.315,0-4.63v-.511c.724,0,1.412-.008,2.1.009a.548.548,0,0,1,.314.19q2.17,2.266,4.326,4.545a.667.667,0,0,1,.182.409c.009,2.452.005,4.9,0,7.357a.509.509,0,0,1-.03.107h-6.893c0-.609,0-1.21,0-1.811a.938.938,0,0,0-.434-.886.861.861,0,0,0-1.295.8c-.015.317,0,.635,0,.952,0,.3,0,.6,0,.942h-1.7Zm22.673,12.173h-1.7c0-.337,0-.639,0-.942,0-.318.012-.635,0-.952a.861.861,0,0,0-1.295-.8.938.938,0,0,0-.434.886c0,.6,0,1.2,0,1.811h-6.893a.525.525,0,0,1-.03-.107c0-2.452-.007-4.9,0-7.357a.667.667,0,0,1,.182-.409q2.154-2.281,4.326-4.545a.547.547,0,0,1,.314-.19c.687-.017,1.375-.009,2.1-.009v.511q0,2.315,0,4.63c0,.746.307,1.165.856,1.172s.875-.416.876-1.152q0-1.536,0-3.073v-2.062l1.7.409Zm-20.094-5.415a.859.859,0,1,0,.849.869.887.887,0,0,0-.849-.869" transform="translate(-216.493 -245.917)" fill="#f8f7f6"/>
      <path id="Path_7915" data-name="Path 7915" d="M290.811,241.653h-9.829c-.1,0-.2,0-.3,0-.663-.007-1.075-.341-1.074-.869s.416-.862,1.08-.862q10.176,0,20.352,0c.755,0,1.207.479,1.038,1.081a.909.909,0,0,1-1,.649q-2.858.005-5.716,0h-4.547" transform="translate(-216.416 -185.7)" fill="#f8f7f6"/>
      <path id="Path_7917" data-name="Path 7917" d="M260.011,335.41h-3.44c0-.255,0-.5,0-.735.021-1.585-.058-3.179.089-4.753a7.844,7.844,0,0,1,3.211-5.609.635.635,0,0,1,.139-.054Z" transform="translate(-198.586 -250.978)" fill="#f8f7f6"/>
      <path id="Path_7919" data-name="Path 7919" d="M386.93,335.228v-11.1l.089-.089c.473.46.989.884,1.412,1.387a8.266,8.266,0,0,1,1.956,5.583c-.015,1.4,0,2.793,0,4.219Z" transform="translate(-299.487 -250.809)" fill="#f8f7f6"/>
      <path id="Path_7921" data-name="Path 7921" d="M318.86,305.248c0,.523.012.956-.007,1.387a.634.634,0,0,1-.152.378q-2.036,2.156-4.089,4.3a.536.536,0,0,1-.117.057l-.877-.921c-1.025-1.076-2.042-2.16-3.082-3.222a1.039,1.039,0,0,1-.344-.876c.028-.34.006-.685.006-1.1a9.269,9.269,0,0,0,8.661,0" transform="translate(-240.089 -236.264)" fill="#f8f7f6"/>
      <path id="Path_7923" data-name="Path 7923" d="M281.3,258.764a1.711,1.711,0,1,1,0-3.422Z" transform="translate(-216.403 -197.637)" fill="#fff"/>
      <path id="Path_7925" data-name="Path 7925" d="M371.574,258.829V255.44a1.674,1.674,0,0,1,1.725,1.666,1.694,1.694,0,0,1-1.725,1.723" transform="translate(-287.601 -197.711)" fill="#fff"/>
      <path id="Path_7928" data-name="Path 7928" d="M288.139,349.564a.859.859,0,1,1-.869.849A.886.886,0,0,1,288.139,349.564Z" transform="translate(-222.35 -270.565)" fill="#f6c092"/>
      <path id="Path_7929" data-name="Path 7929" d="M365.639,350.41a.859.859,0,1,1-.87-.848.886.886,0,0,1,.87.848" transform="translate(-281.677 -270.564)" fill="#f6c092"/>
    </g>
  </g>
</svg>
