<svg xmlns="http://www.w3.org/2000/svg" width="86.876" height="87.145" viewBox="0 0 86.876 87.145">
  <g id="cement-hover" transform="translate(0)">
    <path id="Path_7528" data-name="Path 7528" d="M86.876,53.109c-.783-2.269-2.4-3.1-4.759-3.073-7.1.071-14.193.013-21.29.031a7.167,7.167,0,0,0-7.279,5.756,22.917,22.917,0,0,0-.238,2.823,6.064,6.064,0,0,1-4.045-.288,10.429,10.429,0,0,0-9.554-.121,18.523,18.523,0,0,1,1.5-5.6c.738-1.612,1.637-3.15,2.483-4.711a1.291,1.291,0,0,0-.309-1.863,1.253,1.253,0,0,0-1.819.481,26.839,26.839,0,0,0-4.38,11.182c-.051.33-.042.668-.067,1.117-.5-.038-.962-.079-1.428-.109a1.325,1.325,0,0,0-1.534,1.126,1.3,1.3,0,0,0,1.267,1.4,9.495,9.495,0,0,0,5.538-.794,7.367,7.367,0,0,1,6.7-.009,9.933,9.933,0,0,0,5.578.823,51.02,51.02,0,0,1-.057,6.355c-.269,2.115-2.3,3.481-4.589,3.491-3.873.017-7.747,0-11.62.005q-6.447,0-12.893,0c-3.149-.005-5.047-1.921-5.054-5.086,0-1.637,0-3.275,0-4.995.676.092,1.3.2,1.929.259a9.515,9.515,0,0,0,4.727-.682c.829-.349,1.69-.627,2.545-.909a3.029,3.029,0,0,0,1.947-1.963,10.118,10.118,0,0,1,1.27-2.626,7.293,7.293,0,0,0,1.677-5.923,3.777,3.777,0,0,1,2-4.259,6.75,6.75,0,0,0,3.372-5.036,3.882,3.882,0,0,1,3.165-3.494,6.575,6.575,0,0,0,4.651-3.987,4.183,4.183,0,0,1,4.051-2.763,6.638,6.638,0,0,0,5.25-3c1.375-1.884,1.412-1.856,2.43-2.183l4.1,7.1c-.406.238-.783.463-1.164.683-3.666,2.123-7.356,4.207-10.989,6.385a43,43,0,0,0-3.916,2.815,1.276,1.276,0,0,0-.317,1.92c.484.57,1.213.538,1.964.016,1.783-1.239,3.543-2.521,5.4-3.639,3.362-2.023,6.788-3.94,10.266-5.946.26.419.5.819.753,1.211a3.866,3.866,0,0,0,5.177,1.428c.7-.358,1.38-.772,2.061-1.173,1.078-.633,1.215-1.188.59-2.3-.136-.243-.263-.491-.426-.8.261-.164.487-.318.723-.454q6.639-3.836,13.276-7.676a14.266,14.266,0,0,0,1.334-.991V.85c-.765-.963-1.217-1.075-2.221-.5q-6.9,3.974-13.794,7.963c-.857.5-1.112,1.109-.789,1.8.361.769,1.112.945,2.01.431,2.28-1.3,4.551-2.624,6.826-3.936l5.421-3.128c0,1.044.019,1.956-.017,2.867a.762.762,0,0,1-.374.488q-10.044,5.819-20.1,11.614a.907.907,0,0,1-.241.033l-1.308-2.265c1.42-.825,2.794-1.6,4.147-2.418a1.251,1.251,0,0,0,.31-2.11,1.3,1.3,0,0,0-1.645-.042c-1.338.781-2.685,1.545-4.087,2.35-.242-.413-.439-.783-.668-1.131a1.231,1.231,0,0,0-1.755-.481,28.036,28.036,0,0,0-2.633,1.536A3.724,3.724,0,0,0,54.779,18.8c.588,1.125,1.25,2.211,1.921,3.388a8.151,8.151,0,0,0-3.256,3.12,4.27,4.27,0,0,1-3.279,1.84,17.022,17.022,0,0,0-1.919.319,4.407,4.407,0,0,0-3.378,2.447,7.84,7.84,0,0,1-5.391,4.676,4.142,4.142,0,0,0-3.039,3.361,8.182,8.182,0,0,1-3.89,5.827,4.446,4.446,0,0,0-2,4.333c.31,3.935.113,3.722-1.858,6.483a3.976,3.976,0,0,0-.76,1.59c-.137.883-.605,1.171-1.4,1.374-1.3.331-2.546.928-3.86,1.188a9.321,9.321,0,0,1-2.6-.154c-.808-.077-1.08-.489-1.079-1.348a7.076,7.076,0,0,0-5.325-6.916,4.045,4.045,0,0,0-.995-.2c-3.108-.024-6.221-.128-9.324,0A3.617,3.617,0,0,0,.013,53.884q-.023,14.588,0,29.177c0,2.023,1.239,3.17,3.042,3.813H83.822a4.472,4.472,0,0,0,3.054-3.054V76.694a1.677,1.677,0,0,1-.239-.212,1.1,1.1,0,0,0-1.492-.4,1.852,1.852,0,0,0-.776,1.255c-.087,1.777-.033,3.561-.039,5.342,0,1.207-.432,1.65-1.62,1.65q-39.269,0-78.539,0c-1.187,0-1.621-.444-1.621-1.65q0-14.207,0-28.413c0-1.2.44-1.652,1.622-1.656,2.516-.008,5.033-.022,7.549,0a4.637,4.637,0,0,1,4.75,4.791c.016,2.912,0,5.824.006,8.736a7.19,7.19,0,0,0,7.505,7.537q12.213.023,24.427,0a7.169,7.169,0,0,0,7.514-7.441c.035-2.855,0-5.711.01-8.566a4.688,4.688,0,0,1,5.083-5.062q10.771-.008,21.543,0c1.368,0,1.772.4,1.773,1.76q0,8.227,0,16.454c0,.694.082,1.332.81,1.612A1.308,1.308,0,0,0,86.8,71.8c.012-.018.052-.017.08-.025V53.109M84.331,9.564c0,4.076.012,7.973-.027,11.869,0,.261-.344.606-.614.764-3.536,2.065-7.087,4.1-10.634,6.149-.921.531-1.841,1.065-2.822,1.633L64.916,20.77,84.331,9.564M58.762,15.2,69.311,33.476c-1.875,1.361-2.422,1.247-3.514-.644L58.385,20c-.437-.758-.894-1.505-1.3-2.278a1.23,1.23,0,0,1,.479-1.818c.371-.244.767-.451,1.2-.7" transform="translate(0 -0.001)" fill="#cf8e56"/>
    <path id="Path_7529" data-name="Path 7529" d="M3.054,369.781A4.472,4.472,0,0,1,0,372.835H3.054Z" transform="translate(83.823 -285.962)" fill="#fff"/>
    <path id="Path_7530" data-name="Path 7530" d="M222.145,137a1.266,1.266,0,0,0,.022,2.532,1.266,1.266,0,1,0-.022-2.532" transform="translate(-186.62 -105.947)" fill="#443f3d"/>
    <path id="Path_7531" data-name="Path 7531" d="M158.468,95.074a1.281,1.281,0,0,0-1.27,1.217,1.294,1.294,0,0,0,1.266,1.315,1.281,1.281,0,0,0,1.263-1.31,1.267,1.267,0,0,0-1.258-1.222" transform="translate(-108.482 -73.524)" fill="#443f3d"/>
    <path id="Path_7532" data-name="Path 7532" d="M198.813,103.78a1.218,1.218,0,0,0,1.226-1.229,1.264,1.264,0,0,0-1.271-1.291,1.322,1.322,0,0,0-1.249,1.252,1.262,1.262,0,0,0,1.294,1.268" transform="translate(-157.934 -78.307)" fill="#443f3d"/>
    <path id="Path_7533" data-name="Path 7533" d="M27.132,275.167a3.9,3.9,0,0,0,3.919-3.921,3.9,3.9,0,1,0-7.8.062,3.871,3.871,0,0,0,3.885,3.859m-1.336-3.91a1.37,1.37,0,0,1,1.346-1.342,1.4,1.4,0,0,1,1.36,1.34,1.343,1.343,0,0,1-1.4,1.361,1.32,1.32,0,0,1-1.307-1.36" transform="translate(50.557 -206.761)" fill="#443f3d"/>
    <path id="Path_7534" data-name="Path 7534" d="M333.382,317.751a3.9,3.9,0,1,0-3.9,3.925,3.868,3.868,0,0,0,3.9-3.925m-5.255.039a1.393,1.393,0,0,1,1.336-1.361,1.363,1.363,0,0,1,1.371,1.312,1.321,1.321,0,0,1-1.365,1.383,1.346,1.346,0,0,1-1.342-1.335" transform="translate(-320.305 -242.729)" fill="#443f3d"/>
    <path id="Path_7535" data-name="Path 7535" d="M92.972,306.224a3.9,3.9,0,0,0,3.921,3.921,3.96,3.96,0,0,0,3.88-3.9,3.908,3.908,0,0,0-3.947-3.9,3.859,3.859,0,0,0-3.855,3.883m2.549-.033a1.316,1.316,0,0,1,1.362-1.3,1.358,1.358,0,0,1,1.34,1.344A1.406,1.406,0,0,1,96.8,307.6a1.353,1.353,0,0,1-1.275-1.4" transform="translate(-34.971 -233.809)" fill="#443f3d"/>
    <path id="Path_7536" data-name="Path 7536" d="M350.07,258.4a1.288,1.288,0,0,0,1.28-1.207,1.242,1.242,0,0,0-1.24-1.311,1.261,1.261,0,0,0-1.287,1.186,1.3,1.3,0,0,0,1.248,1.333" transform="translate(-343.542 -197.882)" fill="#443f3d"/>
    <path id="Path_7537" data-name="Path 7537" d="M82.773,351.355a1.261,1.261,0,0,0,1.238-1.322,1.244,1.244,0,0,0-1.259-1.209,1.284,1.284,0,0,0-1.259,1.229,1.3,1.3,0,0,0,1.28,1.3" transform="translate(-15.607 -269.756)" fill="#443f3d"/>
    <path id="Path_7538" data-name="Path 7538" d="M326.83,281.649a1.284,1.284,0,0,0,1.286-1.2,1.238,1.238,0,0,0-1.224-1.324,1.269,1.269,0,0,0-1.3,1.176,1.315,1.315,0,0,0,1.238,1.346" transform="translate(-315.043 -215.857)" fill="#443f3d"/>
    <path id="Path_7539" data-name="Path 7539" d="M71.028,258.4a1.313,1.313,0,0,0,1.247-1.336,1.271,1.271,0,0,0-1.293-1.182,1.226,1.226,0,0,0-1.229,1.313,1.267,1.267,0,0,0,1.275,1.2" transform="translate(-1.21 -197.884)" fill="#443f3d"/>
    <path id="Path_7540" data-name="Path 7540" d="M232.629,350.055a1.291,1.291,0,0,0,1.274,1.3,1.258,1.258,0,0,0,1.237-1.237,1.243,1.243,0,0,0-1.174-1.291,1.271,1.271,0,0,0-1.337,1.228" transform="translate(-200.994 -269.756)" fill="#443f3d"/>
    <path id="Path_7541" data-name="Path 7541" d="M83.711,292.158a1.237,1.237,0,0,0-1.376-1.164,1.207,1.207,0,0,0-1.127,1.317,1.235,1.235,0,0,0,1.278,1.182,1.264,1.264,0,0,0,1.224-1.335" transform="translate(-15.244 -225.03)" fill="#443f3d"/>
    <path id="Path_7542" data-name="Path 7542" d="M162.83,338.458a1.251,1.251,0,0,0,2.5-.007,1.26,1.26,0,0,0-1.3-1.257,1.242,1.242,0,0,0-1.2,1.264" transform="translate(-115.364 -260.761)" fill="#443f3d"/>
    <path id="Path_7543" data-name="Path 7543" d="M255.883,338.485a1.259,1.259,0,0,0,1.339,1.216,1.208,1.208,0,0,0,1.175-1.274,1.235,1.235,0,0,0-1.316-1.229,1.286,1.286,0,0,0-1.2,1.287" transform="translate(-229.522 -260.763)" fill="#443f3d"/>
    <path id="Path_7544" data-name="Path 7544" d="M36.259,350.388a1.235,1.235,0,0,0,1.243-1.3,1.2,1.2,0,0,0-1.247-1.2,1.236,1.236,0,0,0-1.258,1.2,1.266,1.266,0,0,0,1.262,1.3" transform="translate(41.442 -269.029)" fill="#443f3d"/>
    <path id="Path_7545" data-name="Path 7545" d="M220.895,280.375a1.281,1.281,0,0,0,1.3,1.273,1.313,1.313,0,0,0,1.23-1.269,1.265,1.265,0,0,0-1.31-1.252,1.241,1.241,0,0,0-1.219,1.248" transform="translate(-186.618 -215.857)" fill="#443f3d"/>
    <path id="Path_7546" data-name="Path 7546" d="M175.7,293.16a1.255,1.255,0,0,0,1.255-1.217,1.265,1.265,0,1,0-2.528.015,1.259,1.259,0,0,0,1.273,1.2" transform="translate(-129.619 -224.757)" fill="#443f3d"/>
    <path id="Path_7547" data-name="Path 7547" d="M255.881,291.91a1.258,1.258,0,0,0,1.309,1.25,1.215,1.215,0,0,0,1.208-1.246,1.263,1.263,0,0,0-1.287-1.273,1.315,1.315,0,0,0-1.229,1.269" transform="translate(-229.522 -224.761)" fill="#443f3d"/>
    <path id="Path_7548" data-name="Path 7548" d="M34.49,279.959a1.32,1.32,0,0,0,1.307,1.36,1.343,1.343,0,0,0,1.4-1.361,1.4,1.4,0,0,0-1.36-1.341,1.37,1.37,0,0,0-1.346,1.342" transform="translate(41.862 -215.463)" fill="#fff"/>
    <path id="Path_7549" data-name="Path 7549" d="M336.819,326.5a1.346,1.346,0,0,0,1.342,1.335,1.322,1.322,0,0,0,1.365-1.383,1.364,1.364,0,0,0-1.371-1.312,1.393,1.393,0,0,0-1.336,1.361" transform="translate(-328.997 -251.439)" fill="#fff"/>
    <path id="Path_7550" data-name="Path 7550" d="M104.228,314.89a1.353,1.353,0,0,0,1.275,1.4,1.406,1.406,0,0,0,1.426-1.36,1.358,1.358,0,0,0-1.34-1.344,1.316,1.316,0,0,0-1.362,1.3" transform="translate(-43.679 -242.508)" fill="#fff"/>
    <rect id="Rectangle_10497" data-name="Rectangle 10497" width="86.829" height="86.829" transform="translate(0.047 0.316)" fill="none"/>
  </g>
</svg>
