<svg xmlns="http://www.w3.org/2000/svg" xmlns:xlink="http://www.w3.org/1999/xlink" width="826.121" height="260.651" viewBox="0 0 826.121 260.651">
  <defs>
    <clipPath id="clip-path">
      <path id="Path_959" data-name="Path 959" d="M2263.32,1146.63v166.724h336.92l21.676,5.922,410.942-12.755-4.8-176.389Z" transform="translate(-2263.32 -1130.133)" fill="#fff" stroke="#707070" stroke-width="2"/>
    </clipPath>
    <linearGradient id="linear-gradient" x1="0.5" x2="0.5" y2="1" gradientUnits="objectBoundingBox">
      <stop offset="0" stop-color="#ee7420"/>
      <stop offset="1" stop-color="#fff"/>
    </linearGradient>
    <linearGradient id="linear-gradient-2" x1="0.5" x2="0.5" y2="1" gradientUnits="objectBoundingBox">
      <stop offset="0" stop-color="#201f1f"/>
      <stop offset="1" stop-color="#fff"/>
    </linearGradient>
    <linearGradient id="linear-gradient-3" x1="0.5" x2="0.5" y2="1" gradientUnits="objectBoundingBox">
      <stop offset="0" stop-color="#eee"/>
      <stop offset="1" stop-color="#fff"/>
    </linearGradient>
  </defs>
  <g id="charttype" transform="translate(-32.603 -195.864)">
    <g id="Group_172" data-name="Group 172" transform="translate(80.123 212.309)" opacity="0.2">
      <path id="Path_27" data-name="Path 27" d="M798.8,2901.2h778.6" transform="translate(-798.8 -2867.739)" fill="none" stroke="#707070" stroke-width="1"/>
      <path id="Path_28" data-name="Path 28" d="M798.8,2901.2h778.6" transform="translate(-798.8 -2901.2)" fill="none" stroke="#707070" stroke-width="1"/>
      <path id="Path_27-2" data-name="Path 27" d="M798.8,2901.2h778.6" transform="translate(-798.8 -2806.345)" fill="none" stroke="#707070" stroke-width="1"/>
      <path id="Path_28-2" data-name="Path 28" d="M798.8,2901.2h778.6" transform="translate(-798.8 -2839.04)" fill="none" stroke="#707070" stroke-width="1"/>
      <path id="Path_27-3" data-name="Path 27" d="M798.8,2901.2h778.6" transform="translate(-798.8 -2744.186)" fill="none" stroke="#707070" stroke-width="1"/>
      <path id="Path_28-3" data-name="Path 28" d="M798.8,2901.2h778.6" transform="translate(-798.8 -2776.88)" fill="none" stroke="#707070" stroke-width="1"/>
      <path id="Path_27-4" data-name="Path 27" d="M798.8,2901.2h778.6" transform="translate(-798.8 -2682.024)" fill="none" stroke="#707070" stroke-width="1"/>
      <path id="Path_28-4" data-name="Path 28" d="M798.8,2901.2h778.6" transform="translate(-798.8 -2715.485)" fill="none" stroke="#707070" stroke-width="1"/>
    </g>
    <text id="_27.50" data-name="27.50" transform="translate(32.603 208.864)" font-size="12" font-family="SegoeUI-Bold, Segoe UI" font-weight="700"><tspan x="0" y="0">27.50</tspan></text>
    <text id="_25.00" data-name="25.00" transform="translate(32.603 236.264)" font-size="12" font-family="SegoeUI-Bold, Segoe UI" font-weight="700"><tspan x="0" y="0">25.00</tspan></text>
    <text id="_20.00" data-name="20.00" transform="translate(32.603 264.171)" font-size="12" font-family="SegoeUI-Bold, Segoe UI" font-weight="700"><tspan x="0" y="0">20.00</tspan></text>
    <text id="_17.50" data-name="17.50" transform="translate(32.603 292.078)" font-size="12" font-family="SegoeUI-Bold, Segoe UI" font-weight="700"><tspan x="0" y="0">17.50</tspan></text>
    <text id="_15.00" data-name="15.00" transform="translate(32.603 319.478)" font-size="12" font-family="SegoeUI-Bold, Segoe UI" font-weight="700"><tspan x="0" y="0">15.00</tspan></text>
    <text id="_12.50" data-name="12.50" transform="translate(32.603 347.384)" font-size="12" font-family="SegoeUI-Bold, Segoe UI" font-weight="700"><tspan x="0" y="0">12.50</tspan></text>
    <text id="_10.00" data-name="10.00" transform="translate(32.603 375.291)" font-size="12" font-family="SegoeUI-Bold, Segoe UI" font-weight="700"><tspan x="0" y="0">10.00</tspan></text>
    <text id="_7.50" data-name="7.50" transform="translate(39.603 405.475)" font-size="12" font-family="SegoeUI-Bold, Segoe UI" font-weight="700"><tspan x="0" y="0">7.50</tspan></text>
    <text id="_5.00" data-name="5.00" transform="translate(39.603 432.874)" font-size="12" font-family="SegoeUI-Bold, Segoe UI" font-weight="700"><tspan x="0" y="0">5.00</tspan></text>
    <text id="_2018" data-name="2018" transform="translate(107.942 453.515)" fill="#0e0c0c" font-size="12" font-family="SegoeUI-Bold, Segoe UI" font-weight="700"><tspan x="0" y="0">2018</tspan></text>
    <text id="_2019" data-name="2019" transform="translate(268.643 453.515)" fill="#0e0c0c" font-size="12" font-family="SegoeUI-Bold, Segoe UI" font-weight="700"><tspan x="0" y="0">2019</tspan></text>
    <text id="_2020" data-name="2020" transform="translate(430.58 453.515)" fill="#0e0c0c" font-size="12" font-family="SegoeUI-Bold, Segoe UI" font-weight="700"><tspan x="0" y="0">2020</tspan></text>
    <text id="_2021" data-name="2021" transform="translate(590.045 453.515)" fill="#0e0c0c" font-size="12" font-family="SegoeUI-Bold, Segoe UI" font-weight="700"><tspan x="0" y="0">2021</tspan></text>
    <text id="_2022" data-name="2022" transform="translate(751.982 453.515)" fill="#0e0c0c" font-size="12" font-family="SegoeUI-Bold, Segoe UI" font-weight="700"><tspan x="0" y="0">2022</tspan></text>
    <g id="Mask_Group_2" data-name="Mask Group 2" transform="translate(80.463 238.142)" clip-path="url(#clip-path)">
      <path id="Path_934" data-name="Path 934" d="M634.076,490.246l5.859-6.538,6.7-3.736v-7.238l6.7,3.97,9.207-1.868v5.137l5.022,6.538,8.37-6.538V467.364l10.881,5.37V454.988l6.7,3.5,4.185-10.741,10.044,7.238-4.185-9.34,8.37,6.771V434.908l9.207,12.842,5.859-4.67L732,447.75l5.022-2.1,6.7,2.1V434.908l5.859,2.1L754.6,425.8v-5.837h5.022v-5.37l6.7,3.5,5.859,1.868v14.944l5.859-4.2v6.3l5.859-2.1v7l6.7-4.9v6.071l7.533-3.036v18.446l5.022,8.873v-8.873l6.7-1.868v-6.071l5.022-2.8v7.238l6.7,1.635v27.085l4.184-12.375,7.533-1.868v3.269l8.37,2.1,6.7,8.873,5.022-8.873V476.7l5.859,1.634h4.184l5.023,1.634v12.842h7.532v-2.568l5.022-5.137,7.534,1.4v-3.969l6.7,5.37v-4.2l6.7,2.8v-6.538l5.859,2.568,5.859-2.568,6.7,2.568V469.465l7.533,1.868v-7.939l5.022,6.071,4.185-14.477v-4.436l5.022,1.868,4.185-6.771v6.771l5.022,4.2v6.771l5.022,3.969v9.34h5.859v5.837h6.7v3.969l4.186-8.172h6.7v-3.5h7.533V476.7l7.533,1.634v4.2l5.859-2.568v3.736h7.532v6.538h4.185v6.071l7.533-3.5v5.371l6.7-1.868v11.675l6.7-3.035L1037.5,515.7l5.022-5.37h4.186v1.634h9.206V515.7l6.7-3.736v5.6l6.7-1.868v4.2l6.7-4.2v4.2l10.044-4.2,5.859,10.741v-4.67h7.533V515.7l5.859-7.706v-3.035s8.369,9.34,8.369,8.639v-8.639h6.7v3.035l6.7,5.6,4.185-1.634V519.9h8.37l6.7-2.335v6.3h8.37l5.022,30.121,10.043-6.071,5.859-11.441,6.7,9.34v-4.67l4.185,3.035,5.859,1.635v-2.8l5.231,2.8,4.186-4.67,5.021-2.51v-4.2l6.7,4.2,5.859-4.2v4.2l6.7-4.2h5.859v-6.071l10.043,4.67v3.444h6.7V530.7l5.859-4.261,4.185-4.67H1272.9v-4.2l4.185-1.868v-3.736l5.859,1.634v-8.639l8.369,3.035v-8.114l5.022,6.538v15.352l7.533,4.67V519.9h8.37v-6.3h8.37v-3.269l8.37,3.269V503.38h5.859l5.858,8.581V499.878l9.208,6.538v-1.459l6.7-1.576v3.035l7.533,1.576v2.335l7.532,1.634s-.837-3.794,0-3.97,6.7,0,6.7,0l5.859-11.675,5.022-3.5,7.533-7.705v5.137h6.7v2.568l9.207-4.9v-5.37l5.859-2.568v-5.137l9.206-2.1V458.491l6.7,4.9h6.7V450.552l9.207,12.842,5.022-8.406h5.022l5.022-2.568v-4.67h6.7v-9.515l5.859-3.327,5.022-5.545v7.647h7.533v13.543l8.37-10.507,5.859,1.868,4.185,5.837v-9.515l6.7-1.226V421.19l7.532-3.969v3.969l7.533-3.969v-5.6l5.021-24.284,6.7,17.045s6.7,1.634,7.533,2.568-2.511,6.771,0,7.939,7.532,10.274,7.532,10.274v25.393l7.533-12.317v3.677l8.37,2.568s3.348,2.744,4.184,3.269,0,1.459,0,1.459l5.022-1.459h5.022l7.532-21.423,7.534,3.036v-4.2s5.858-.467,7.532,1.168,6.7,6.771,6.7,6.771v5.137l6.7-38.527,7.324,17.512h6.7v-5.6l7.533,7.764s-.837,3.035,0,4.2,0,3.97,0,3.97,6.7,4.086,6.7,1.81v-3.036s7.532,10.682,7.532,11.908,5.022,6.246,5.022,6.246-3.348-.117,0,1.168,7.533,6.771,7.533,6.771,1.675,4.086,0,6.071,0,4.9,0,4.9v3.035l6.068-10.04h5.022v10.04l5.022,4.436V486.51l6.695-3.969v-2.568l5.86,7.939s-2.511,4.2,0,4.9,5.859,7.063,5.859,7.063v-7.063l7.533-2.568V474.836s-4.185,1.634,0,2.569,5.859,2.568,5.859,2.568v-5.137l5.858-2.1v2.1a5.156,5.156,0,0,0,0,3.736c.838,1.634,0,3.969,0,3.969l6.7-3.969v1.4l5.858,5.137s-2.51,3.5,0,5.137,8.37,4.436,8.37,4.436v3.5l5.859,9.807,5.859-8.114v5.079h6.7l5.859-3.035,7.534,10.04L1784.3,522.7v-3.035l9.207,7.939,5.022-1.4,8.371-6.538v-2.335l5.859,2.335,5.021,4.436,6.7-1.4v-3.035s5.021.7,6.7,1.868,0,46.553,0,46.553H562.2V486.51l22.6,3.736,25.11-5.137Z" transform="translate(-812.251 -394.692)" stroke="#ee7b0b" stroke-width="3" fill="url(#linear-gradient)"/>
      <path id="Path_935" data-name="Path 935" d="M634.076,491.022l5.859-6.587,6.7-3.764v-7.293l6.7,4,9.207-1.882v5.176l5.022,6.587,8.37-6.587v-12.7l10.881,5.411V455.5l6.7,3.529,4.185-10.822,10.044,7.293-4.185-9.41,8.37,6.822V435.266l9.207,12.939,5.859-4.7,5.022,4.7,5.022-2.117,6.7,2.117V435.266l5.859,2.117,5.022-11.292V420.21h5.022V414.8l6.7,3.529,5.859,1.882v15.056l5.859-4.234v6.352l5.859-2.117v7.058l6.7-4.94V443.5l7.533-3.058v18.585l5.022,8.94v-8.94l6.7-1.882v-6.117l5.022-2.823V455.5l6.7,1.647v27.289l4.184-12.468,7.533-1.882v3.294l8.37,2.117,6.7,8.94,5.022-8.94v1.882l5.859,1.647h4.184l5.023,1.647v12.939h7.532v-2.588l5.022-5.176,7.534,1.411v-4l6.7,5.411v-4.234l6.7,2.823V480.67l5.859,2.588,5.859-2.588,6.7,2.588V470.084l7.533,1.882v-8l5.022,6.117,4.185-14.586v-4.47l5.022,1.882,4.185-6.822v6.822l5.022,4.235v6.822l5.022,4v9.41h5.859v5.881h6.7v4l4.186-8.234h6.7v-3.529h7.533v1.882l7.533,1.647v4.235l5.859-2.588v3.764h7.532v6.587h4.185v6.116l7.533-3.529v5.411l6.7-1.882V508.9l6.7-3.058,4.185,10.822,5.022-5.411h4.186V512.9h9.206v3.764l6.7-3.764v5.646l6.7-1.882V520.9l6.7-4.235V520.9l10.044-4.235,5.859,10.822v-4.705h7.533v-6.117l5.859-7.763v-3.058s8.369,9.41,8.369,8.7v-8.7h6.7V508.9l6.7,5.646,4.185-1.647v8h8.37l6.7-2.353V524.9h8.37l5.022,30.348,10.043-6.117L1175.6,537.6l6.7,9.41v-4.7l4.185,3.058,5.859,1.647v-2.823l5.231,2.823,4.186-4.7,5.021-2.529v-4.235l6.7,4.235,5.859-4.235v4.235l6.7-4.235h5.859v-6.117l10.043,4.705v3.47h6.7v-5.823l5.859-4.293,4.185-4.705H1272.9v-4.235l4.185-1.882V512.9l5.859,1.647v-8.7l8.369,3.058v-8.175l5.022,6.587v15.468l7.533,4.705V520.9h8.37v-6.352h8.37v-3.294l8.37,3.294V504.255h5.859l5.858,8.646V500.726l9.208,6.587v-1.47l6.7-1.588v3.058l7.533,1.588v2.353l7.532,1.647s-.837-3.823,0-4,6.7,0,6.7,0l5.859-11.763,5.022-3.529,7.533-7.763v5.176h6.7v2.588l9.207-4.94v-5.411l5.859-2.588v-5.176l9.206-2.117V459.027l6.7,4.94h6.7V451.028l9.207,12.939,5.022-8.469h5.022l5.022-2.588v-4.705h6.7v-9.586l5.859-3.352,5.022-5.587v7.7h7.533v13.645l8.37-10.586,5.859,1.882,4.185,5.881v-9.586l6.7-1.235V421.445l7.532-4v4l7.533-4V411.8l5.021-24.466,6.7,17.174s6.7,1.647,7.533,2.588-2.511,6.822,0,8,7.532,10.351,7.532,10.351v25.584l7.533-12.41v3.705l8.37,2.588s3.348,2.764,4.184,3.293,0,1.47,0,1.47l5.022-1.47h5.022l7.532-21.585,7.534,3.058v-4.235s5.858-.47,7.532,1.176,6.7,6.822,6.7,6.822v5.176l6.7-38.817,7.324,17.644h6.7V411.8l7.533,7.822s-.837,3.058,0,4.235,0,4,0,4,6.7,4.117,6.7,1.823v-3.058s7.532,10.763,7.532,12,5.022,6.293,5.022,6.293-3.348-.118,0,1.176,7.533,6.822,7.533,6.822,1.675,4.117,0,6.117,0,4.94,0,4.94v3.058L1678,456.91h5.022v10.116l5.022,4.47v15.762l6.695-4V480.67l5.86,8s-2.511,4.235,0,4.94,5.859,7.116,5.859,7.116v-7.116l7.533-2.588V475.495s-4.185,1.647,0,2.588,5.859,2.588,5.859,2.588v-5.176l5.858-2.117v2.117a5.231,5.231,0,0,0,0,3.764c.838,1.647,0,4,0,4l6.7-4v1.411l5.858,5.176s-2.51,3.529,0,5.176,8.37,4.47,8.37,4.47v3.529l5.859,9.88,5.859-8.175v5.117h6.7l5.859-3.058,7.534,10.116,5.858,10.822v-3.058l9.207,8,5.022-1.412,8.371-6.587v-2.352l5.859,2.352,5.021,4.47,6.7-1.412v-3.058s5.021.706,6.7,1.882,0,46.9,0,46.9H562.2V487.257l22.6,3.764,25.11-5.176Z" transform="translate(-808.231 -386.292)" stroke="#000" stroke-width="3" fill="url(#linear-gradient-2)"/>
      <path id="Path_936" data-name="Path 936" d="M634.076,490.226l5.859-6.537,6.7-3.735v-7.237l6.7,3.969,9.207-1.868v5.136l5.022,6.537,8.37-6.537V467.348l10.881,5.369V454.975l6.7,3.5,4.185-10.739,10.044,7.237-4.185-9.338,8.37,6.77V434.9l9.207,12.84,5.859-4.669L732,447.738l5.022-2.1,6.7,2.1V434.9l5.859,2.1,5.022-11.206v-5.836h5.022v-5.369l6.7,3.5,5.859,1.868V434.9l5.859-4.2V437l5.859-2.1v7l6.7-4.9v6.07l7.533-3.035v18.443l5.022,8.871v-8.871l6.7-1.867v-6.07l5.022-2.8v7.237l6.7,1.634v27.08l4.184-12.373,7.533-1.868v3.268l8.37,2.1,6.7,8.871,5.022-8.871v1.868l5.859,1.634h4.184l5.023,1.634v12.84h7.532v-2.568l5.022-5.136,7.534,1.4v-3.969l6.7,5.369v-4.2l6.7,2.8v-6.537l5.859,2.568,5.859-2.568,6.7,2.568V469.449l7.533,1.868v-7.937l5.022,6.07,4.185-14.474v-4.436l5.022,1.868,4.185-6.77v6.77l5.022,4.2v6.77l5.022,3.969v9.338h5.859v5.836h6.7v3.969l4.186-8.171h6.7v-3.5h7.533v1.868l7.533,1.634v4.2l5.859-2.568v3.735h7.532v6.537h4.185v6.07l7.533-3.5v5.369l6.7-1.868v11.672l6.7-3.035,4.185,10.739,5.022-5.369h4.186v1.634h9.206v3.735l6.7-3.735v5.6l6.7-1.868v4.2l6.7-4.2v4.2l10.044-4.2,5.859,10.739v-4.669h7.533v-6.07l5.859-7.7v-3.035s8.369,9.338,8.369,8.638v-8.638h6.7v3.035l6.7,5.6,4.185-1.634v7.937h8.37l6.7-2.335v6.3h8.37l5.022,30.115,10.043-6.069,5.859-11.439,6.7,9.338v-4.669l4.185,3.035,5.859,1.634v-2.8l5.231,2.8,4.186-4.669,5.021-2.51v-4.2l6.7,4.2,5.859-4.2v4.2l6.7-4.2h5.859v-6.07L1241.935,533v3.443h6.7V530.67l5.859-4.26,4.185-4.669H1272.9v-4.2l4.185-1.868v-3.735l5.859,1.634v-8.638l8.369,3.035v-8.112l5.022,6.537v15.349l7.533,4.669v-6.536h8.37v-6.3h8.37V510.3l8.37,3.268V503.357h5.859l5.858,8.579V499.855l9.208,6.537v-1.459l6.7-1.576v3.035l7.533,1.576V510.3l7.532,1.634s-.837-3.794,0-3.969,6.7,0,6.7,0l5.859-11.672,5.022-3.5,7.533-7.7v5.136h6.7v2.568l9.207-4.9v-5.369l5.859-2.568v-5.136l9.206-2.1v-14.24l6.7,4.9h6.7v-12.84l9.207,12.84,5.022-8.4h5.022l5.022-2.568v-4.669h6.7v-9.513l5.859-3.327,5.022-5.544V437h7.533v13.54l8.37-10.505,5.859,1.868,4.185,5.836v-9.513l6.7-1.226V421.183l7.532-3.969v3.969l7.533-3.969v-5.6l5.021-24.279,6.7,17.042s6.7,1.634,7.533,2.568-2.511,6.77,0,7.937,7.532,10.272,7.532,10.272v25.387l7.533-12.314V441.9l8.37,2.568s3.348,2.743,4.184,3.268,0,1.459,0,1.459l5.022-1.459h5.022l7.532-21.419,7.534,3.035v-4.2s5.858-.467,7.532,1.167,6.7,6.77,6.7,6.77v5.136l6.7-38.519,7.324,17.509h6.7v-5.6l7.533,7.762s-.837,3.035,0,4.2,0,3.969,0,3.969,6.7,4.085,6.7,1.809v-3.035s7.532,10.68,7.532,11.906,5.022,6.245,5.022,6.245-3.348-.117,0,1.167,7.533,6.77,7.533,6.77,1.675,4.085,0,6.07,0,4.9,0,4.9v3.035L1678,456.376h5.022v10.038l5.022,4.436V486.49l6.695-3.969v-2.568l5.86,7.937s-2.511,4.2,0,4.9,5.859,7.062,5.859,7.062v-7.062l7.533-2.568V474.818s-4.185,1.634,0,2.568,5.859,2.568,5.859,2.568v-5.136l5.858-2.1v2.1a5.154,5.154,0,0,0,0,3.735c.838,1.634,0,3.969,0,3.969l6.7-3.969v1.4l5.858,5.136s-2.51,3.5,0,5.136,8.37,4.436,8.37,4.436v3.5l5.859,9.8,5.859-8.112v5.078h6.7l5.859-3.035,7.534,10.038,5.858,10.738V519.64l9.207,7.937,5.022-1.4,8.371-6.537v-2.334l5.859,2.334,5.021,4.435,6.7-1.4V519.64s5.021.7,6.7,1.868,0,46.544,0,46.544H562.2V486.49l22.6,3.735,25.11-5.136Z" transform="translate(-808.231 -376.352)" stroke="rgba(168,168,168,0.49)" stroke-width="3" fill="url(#linear-gradient-3)"/>
    </g>
  </g>
</svg>
