<svg id="consumer-and-mortgage-loans" xmlns="http://www.w3.org/2000/svg" xmlns:xlink="http://www.w3.org/1999/xlink" width="78.141" height="78.175" viewBox="0 0 78.141 78.175">
  <defs>
    <clipPath id="clip-path">
      <rect id="Rectangle_22880" data-name="Rectangle 22880" width="78.141" height="78.175" fill="none"/>
    </clipPath>
  </defs>
  <g id="Group_7952" data-name="Group 7952" clip-path="url(#clip-path)">
    <path id="Path_8118" data-name="Path 8118" d="M41.592,68.089H4.318C1.472,68.089,0,66.617,0,63.773Q0,34.031,0,4.289C0,1.506,1.494.015,4.281.015Q20.822.014,37.364,0a2.234,2.234,0,0,1,1.728.724q5.3,5.341,10.638,10.64a2.048,2.048,0,0,1,.7,1.661c-.049,1.047-.013,2.1-.013,3.235a17.617,17.617,0,0,1,15.534,1.5,17.236,17.236,0,0,1,7.31,8.892,17.775,17.775,0,0,1-8.83,22.076c.2.183.382.358.574.514q6.17,5.021,12.346,10.034c.542.44.984.909.706,1.667s-.9.86-1.6.85c-1.5-.02-2.991-.006-4.611-.006v.852q0,6.894,0,13.788c0,1.349-.392,1.747-1.72,1.747q-13.391,0-26.782,0c-1.349,0-1.744-.39-1.745-1.721,0-2.753,0-5.507,0-8.364m7.474-19.356c-.317-.181-.539-.307-.76-.435-5.793-3.351-9.014-8.368-9.191-15.055-.176-6.622,2.732-11.773,8.259-15.437.2-.133.486-.346.493-.532.046-1.116.023-2.235.023-3.394-2.543,0-4.981.01-7.419,0a3.769,3.769,0,0,1-3.918-3.922c-.012-2.179,0-4.359,0-6.538V2.535H4.329c-1.446,0-1.809.364-1.809,1.813q0,29.7,0,59.391c0,1.458.363,1.828,1.8,1.828H41.535V61.786c-1.5,0-2.94-.011-4.381,0-.736.008-1.457,0-1.77-.833s.225-1.317.811-1.767c.437-.335.858-.693,1.285-1.04l11.587-9.418m7.611-31.075a15.124,15.124,0,0,0-14.887,17.5A14.881,14.881,0,0,0,50.553,46.61a1.123,1.123,0,0,0,1.4-.2c1.212-1.044,2.47-2.035,3.715-3.041a1.336,1.336,0,0,1,2.09-.007c1.268,1.019,2.545,2.029,3.779,3.087a1.087,1.087,0,0,0,1.336.164,15.133,15.133,0,0,0-6.2-28.955M50.415,75.623c0-3.286,0-6.486,0-9.686,0-1.192.426-1.627,1.6-1.628q4.684-.007,9.368,0c1.222,0,1.635.424,1.636,1.67q0,4.409,0,8.819v.813h6.3v-.888q0-6.85,0-13.7c0-1.384.38-1.755,1.785-1.757h2.138c-.183-.194-.243-.273-.319-.334q-7.877-6.405-15.747-12.82c-.488-.4-.731-.132-1.056.132q-7.6,6.182-15.207,12.363c-.213.173-.412.362-.748.659.851,0,1.525,0,2.2,0,1.348,0,1.745.391,1.745,1.72q0,6.89,0,13.78v.859Zm10.032-8.736H52.972v8.727h7.474ZM46.117,11.351c-1.311-1.295-2.451-2.415-3.585-3.541C41.417,6.7,40.308,5.587,39.072,4.351c0,2.038-.012,3.846.005,5.655a1.2,1.2,0,0,0,1.158,1.333c1.878.038,3.757.013,5.881.013" transform="translate(0 0)" fill="#383330"/>
    <rect id="Rectangle_22879" data-name="Rectangle 22879" width="7.474" height="8.727" transform="translate(52.973 66.887)" fill="#fff"/>
    <path id="Path_8119" data-name="Path 8119" d="M192.712,27.679c-2.124,0-4,.025-5.881-.013a1.2,1.2,0,0,1-1.158-1.333c-.017-1.808-.005-3.617-.005-5.655,1.236,1.236,2.344,2.35,3.459,3.459,1.134,1.127,2.274,2.247,3.585,3.541" transform="translate(-146.595 -16.328)" fill="#fff"/>
    <path id="Path_8120" data-name="Path 8120" d="M39.484,44.6a19.357,19.357,0,0,1,.7-2.185c.086-.193.548-.3.839-.3.856-.006,1.11.514,1.251,2.5.739,0,1.49-.007,2.24,0,.925.011,1.49.494,1.491,1.257s-.567,1.253-1.49,1.259c-1.522.009-3.044,0-4.565.005-.932.006-1.49.485-1.493,1.253s.558,1.251,1.485,1.264c.709.01,1.417,0,2.125,0a3.785,3.785,0,0,1,.555,7.546c-.1.017-.206.028-.349.046-.151.974.317,2.452-1.317,2.443-1.566-.008-1.163-1.424-1.278-2.473-.784,0-1.538.01-2.291,0-.9-.015-1.475-.534-1.449-1.3.025-.737.57-1.21,1.45-1.216,1.522-.011,3.044,0,4.566-.006.97,0,1.556-.51,1.532-1.3-.023-.758-.586-1.213-1.526-1.223-.682-.007-1.364,0-2.047,0a3.787,3.787,0,0,1-.553-7.552c.1-.016.2-.033.122-.021" transform="translate(-28.369 -33.249)" fill="#b38e69"/>
    <path id="Path_8121" data-name="Path 8121" d="M52.305,212.251H37.891a4.4,4.4,0,0,1-.786-.02,1.25,1.25,0,0,1,0-2.48,3.917,3.917,0,0,1,.707-.019H66.954a3.937,3.937,0,0,1,.707.019,1.25,1.25,0,0,1,0,2.48,4.384,4.384,0,0,1-.786.021H52.305" transform="translate(-28.437 -165.593)" fill="#f6c092"/>
    <path id="Path_8122" data-name="Path 8122" d="M51.046,182.3H37.813a3.86,3.86,0,0,1-.707-.02,1.251,1.251,0,0,1,0-2.48,3.92,3.92,0,0,1,.707-.019H64.434a3.939,3.939,0,0,1,.707.019,1.251,1.251,0,0,1,0,2.481,3.86,3.86,0,0,1-.707.02H51.046" transform="translate(-28.438 -141.941)" fill="#f6c092"/>
    <path id="Path_8123" data-name="Path 8123" d="M50.411,152.341h-12.6a4.74,4.74,0,0,1-.786-.027,1.232,1.232,0,0,1-1.045-1.283,1.209,1.209,0,0,1,1.065-1.186,4.206,4.206,0,0,1,.786-.024H63.111a4.455,4.455,0,0,1,.708.015,1.216,1.216,0,0,1,1.123,1.215,1.238,1.238,0,0,1-1.143,1.277,5.966,5.966,0,0,1-.708.013H50.411" transform="translate(-28.404 -118.289)" fill="#f6c092"/>
    <path id="Path_8124" data-name="Path 8124" d="M43.507,242.222c-2,0-3.99,0-5.986,0-.986,0-1.564-.487-1.553-1.275s.583-1.241,1.585-1.242q5.985-.005,11.971,0c.985,0,1.565.487,1.554,1.274s-.588,1.241-1.586,1.243c-2,0-3.99,0-5.986,0" transform="translate(-28.4 -189.261)" fill="#f6c092"/>
    <path id="Path_8125" data-name="Path 8125" d="M248.882,121.031a6.148,6.148,0,0,1-.678,1.126q-6.154,6.191-12.34,12.351a1.269,1.269,0,1,1-1.748-1.808q6.137-6.153,12.285-12.294c.415-.416.915-.726,1.469-.4a5.578,5.578,0,0,1,1.012,1.026" transform="translate(-184.44 -94.646)" fill="#b38e69"/>
    <path id="Path_8126" data-name="Path 8126" d="M231.428,113.923a3.777,3.777,0,1,1-3.8,3.712,3.793,3.793,0,0,1,3.8-3.712m1.229,3.767a1.256,1.256,0,1,0-1.227,1.265,1.267,1.267,0,0,0,1.227-1.265" transform="translate(-179.728 -89.95)"/>
    <path id="Path_8127" data-name="Path 8127" d="M279.308,169.4a3.777,3.777,0,1,1,3.789-3.723,3.8,3.8,0,0,1-3.789,3.723m-.009-5.034a1.256,1.256,0,1,0,1.276,1.217,1.264,1.264,0,0,0-1.276-1.217" transform="translate(-217.562 -127.792)" fill="#383330"/>
  </g>
</svg>
