<svg xmlns="http://www.w3.org/2000/svg" width="53.245" height="47.105" viewBox="0 0 53.245 47.105">
  <g id="DownloadChart" transform="translate(-863.5 -426.5)">
    <rect id="Rectangle_28120" data-name="Rectangle 28120" width="52.245" height="46.105" rx="9" transform="translate(864 427)" fill="none" stroke="#cacaca" stroke-width="1"/>
    <path id="Icon_awesome-download" data-name="Icon awesome-download" d="M11.248,0h4.166a1.27,1.27,0,0,1,1.25,1.3v9.06h4.567a1.082,1.082,0,0,1,.734,1.84l-7.921,8.213a.984.984,0,0,1-1.422,0L4.692,12.2a1.082,1.082,0,0,1,.734-1.84H10V1.3A1.27,1.27,0,0,1,11.248,0ZM26.662,20.289v4.473a1.27,1.27,0,0,1-1.25,1.3H1.25A1.27,1.27,0,0,1,0,24.761V20.289a1.27,1.27,0,0,1,1.25-1.3H8.889l2.552,2.644a2.6,2.6,0,0,0,3.781,0l2.552-2.644h7.639a1.27,1.27,0,0,1,1.249,1.3Zm-6.457,3.178a1.042,1.042,0,1,0-1.042,1.079,1.064,1.064,0,0,0,1.042-1.08Zm3.333,0A1.042,1.042,0,1,0,22.5,24.545a1.064,1.064,0,0,0,1.038-1.079Z" transform="translate(877 437)" fill="#2d435e"/>
  </g>
</svg>
