<svg xmlns="http://www.w3.org/2000/svg" width="103" height="103" viewBox="0 0 103 103">
  <g id="Group_47763" data-name="Group 47763" transform="translate(-10558 -20083)">
    <rect id="Rectangle_27553" data-name="Rectangle 27553" width="103" height="103" rx="27" transform="translate(10558 20083)" fill="#e83333"/>
    <circle id="Ellipse_2095" data-name="Ellipse 2095" cx="32.5" cy="32.5" r="32.5" transform="translate(10577 20102)" fill="#fff"/>
    <g id="svgexport-18_13_" data-name="svgexport-18 (13)" transform="translate(10511.25 20036.26)">
      <path id="Path_65040" data-name="Path 65040" d="M85.916,113.6a2.166,2.166,0,0,1-1.532-3.7L109.9,84.384a2.167,2.167,0,0,1,3.064,3.064L87.447,112.967A2.158,2.158,0,0,1,85.916,113.6Z" transform="translate(0 -0.009)" fill="#e83333"/>
      <path id="Path_65041" data-name="Path 65041" d="M111.435,113.593a2.16,2.16,0,0,1-1.532-.634L84.384,87.438a2.167,2.167,0,0,1,3.064-3.064l25.52,25.52a2.166,2.166,0,0,1-1.533,3.7Z" transform="translate(0 0)" fill="#e83333"/>
    </g>
  </g>
</svg>
