<svg id="food-prices" xmlns="http://www.w3.org/2000/svg" xmlns:xlink="http://www.w3.org/1999/xlink" width="72.989" height="70.8" viewBox="0 0 72.989 70.8">
  <defs>
    <clipPath id="clip-path">
      <rect id="Rectangle_22874" data-name="Rectangle 22874" width="72.989" height="70.8" fill="none"/>
    </clipPath>
  </defs>
  <g id="Group_7947" data-name="Group 7947" clip-path="url(#clip-path)">
    <path id="Path_8085" data-name="Path 8085" d="M49.867,54.264c0,1.866-.01,3.653.017,5.438a.724.724,0,0,0,.37.481,5.81,5.81,0,0,1,2.29,7.543c-.885,2.048-2.659,2.766-4.742,2.8-3.85.06-7.7.056-11.552.082q-14.706.1-29.413.194a16.71,16.71,0,0,1-1.97-.1,4.733,4.733,0,0,1-4.4-4.627A5.5,5.5,0,0,1,3.323,60.4a1.063,1.063,0,0,0,.326-.515,1.032,1.032,0,0,0,.009-.376q0-17.289.015-34.579a.936.936,0,0,0-.694-1.042,4.823,4.823,0,0,1,1.726-9.273,1.238,1.238,0,0,0,1.135-.658A37.246,37.246,0,0,1,15.748,3.685c7.421-5.007,15.651-4.9,22.981.263a32.7,32.7,0,0,1,9.1,10.071,1,1,0,0,0,.927.594A4.758,4.758,0,0,1,53.2,17.745c.261.614.734.726,1.091.21,1.584-2.29,3.147-4.6,4.715-6.9a.825.825,0,0,0,.045-.22l-1.112.2a3.8,3.8,0,0,1-4.482-3.009,3.712,3.712,0,0,1,2.9-4.393Q61.529,2.6,66.73,1.708a3.688,3.688,0,0,1,4.281,2.98q1.015,5.176,1.926,10.373a3.789,3.789,0,0,1-7.391,1.593c-.141-.5-.227-1.021-.363-1.647-.225.3-.393.51-.547.731-2.055,2.95-4.122,5.892-6.151,8.86a1.955,1.955,0,0,1-1.826.958c-2.226-.043-4.453-.015-6.737-.015V35.752a13.319,13.319,0,0,1,12.091-3.9A12.966,12.966,0,0,1,70.2,36.82a13.457,13.457,0,0,1-.843,17.356,13.606,13.606,0,0,1-19.487.088M6.09,24.347v35.86c0,.2-.009.406,0,.608a1.358,1.358,0,0,1-.964,1.461,5.475,5.475,0,0,0-1.01.514,3.312,3.312,0,0,0-1.144,3.6,2.347,2.347,0,0,0,2.4,1.931,12,12,0,0,0,1.441.047q16.416-.109,32.833-.225c2.685-.018,5.371-.015,8.056-.047a2.547,2.547,0,0,0,2.7-1.552A3.3,3.3,0,0,0,48.5,62.066a1.513,1.513,0,0,1-1.073-1.614c.025-3.116.017-6.232,0-9.348a3.115,3.115,0,0,0-.212-1.1,13.24,13.24,0,0,1-.007-10,2.921,2.921,0,0,0,.219-1.021c.015-3.673.01-7.346.007-11.019,0-.179-.038-.358-.068-.633-.27.258-.459.425-.633.607q-2.759,2.881-5.514,5.765a3.663,3.663,0,0,1-5.13.358,3.526,3.526,0,0,1-.323-5.142c1.185-1.386,2.43-2.719,3.645-4.079.123-.137.226-.293.384-.5Zm39.167-9.768a3.428,3.428,0,0,0-.165-.345,29.379,29.379,0,0,0-7.765-8.239C31.249,1.81,24.918,1.073,18.383,4.916A32.87,32.87,0,0,0,8.576,14.3a1.046,1.046,0,0,0-.09.283Zm5.474,3.665a2.5,2.5,0,0,0-2.284-1.219q-21.691,0-43.382,0a2.436,2.436,0,1,0-.029,4.86q18.31.008,36.62-.013a1.442,1.442,0,0,0,.9-.386c.872-.845,1.656-1.785,2.556-2.6a2.572,2.572,0,0,1,1.449-.621c1.332-.085,2.672-.029,4.164-.029m7.6,20.638c-.086.015-.18.032-.275.047a3.654,3.654,0,0,0,.531,7.287c.658,0,1.317,0,1.975,0,.908.009,1.451.448,1.474,1.178.024.757-.544,1.244-1.479,1.25-1.114.008-2.229-.015-3.343.01a1.2,1.2,0,0,0-1.247,1.169,1.216,1.216,0,0,0,1.247,1.249c.371.02.744,0,1.148,0,.108,1.015-.279,2.38,1.232,2.388,1.577.009,1.127-1.416,1.272-2.357.137-.018.237-.029.336-.045a3.652,3.652,0,0,0-.533-7.281c-.684-.005-1.368.006-2.051,0-.894-.012-1.437-.48-1.434-1.218s.542-1.2,1.441-1.209c1.14-.01,2.28.017,3.419-.014a1.19,1.19,0,0,0,1.209-1.207,1.207,1.207,0,0,0-1.211-1.208c-.393-.024-.788,0-1.171,0-.139-1.921-.384-2.393-1.209-2.43-.846-.038-1.1.407-1.332,2.39" transform="translate(0 -0.001)" fill="#383330"/>
    <path id="Path_8086" data-name="Path 8086" d="M60.322,85.053c-1.492,0-2.833-.056-4.164.029a2.57,2.57,0,0,0-1.449.621c-.9.811-1.684,1.751-2.556,2.6a1.442,1.442,0,0,1-.905.386q-18.31.029-36.62.013a2.436,2.436,0,1,1,.029-4.86q21.691-.006,43.382,0a2.5,2.5,0,0,1,2.283,1.219" transform="translate(-9.591 -66.81)" fill="#fff"/>
    <path id="Path_8088" data-name="Path 8088" d="M83.58,156.988a24.263,24.263,0,0,1-.53-3.38,17.758,17.758,0,0,1,.37-3.6c.178-.971.8-1.247,1.768-.96A11.055,11.055,0,0,1,90.862,153c.929-.593,1.808-1.225,2.752-1.736,1.137-.615,1.731-.421,2.208.781.611,1.543,1.1,3.136,1.662,4.78.772-.185,1.238.38,1.677,1.058,2.789,4.305,2.177,9.005-1.63,12.379a2.3,2.3,0,0,1-.348.21c.659,1.211,1.271,2.312,1.858,3.427a2.427,2.427,0,0,1,.314.918,1.071,1.071,0,0,1-.812,1.148,1.145,1.145,0,0,1-1.429-.57c-.554-.966-1.078-1.948-1.618-2.922-.133-.24-.277-.475-.32-.549a34.335,34.335,0,0,1-4.245.292c-4.154-.221-6.74-3.4-7.81-6.3-.155-.421.082-.986.137-1.481-.954-1.189-2.03-2.428-2.986-3.752-.827-1.147-.661-1.748.594-2.439.878-.484,1.823-.847,2.714-1.253m13.755,2.653a5.638,5.638,0,0,0-2.743,3.23c-.791,2.158.412,3.733,1.416,5.391,2.558-1.617,3.231-5.837,1.327-8.621m-11.466,6.342c1.157,2.983,5.42,4.843,7.981,3.422a13.062,13.062,0,0,0-1.75-2.89,5.13,5.13,0,0,0-6.231-.532m4.206-3.295a4.562,4.562,0,0,0-3.538-3.25,5.855,5.855,0,0,0-4,.65c1.133,1.045,2.119,1.975,3.136,2.868a1.006,1.006,0,0,0,.683.122c1.243-.115,2.484-.257,3.72-.39m2.193-1.222c.808-.986,1.62-1.97,2.421-2.962a.813.813,0,0,0,.22-.446,10.638,10.638,0,0,0-.922-4.181c-2.917,1.5-3.59,4.842-1.719,7.589m-6.739-9.7a7.862,7.862,0,0,0,.609,4.634,1.084,1.084,0,0,0,.46.558c.7.258,1.431.441,2.136.648.2-.692.4-1.367.574-2.049a.729.729,0,0,0-.033-.493,7.633,7.633,0,0,0-3.746-3.3" transform="translate(-63.565 -118.693)" fill="#f6c092"/>
    <path id="Path_8089" data-name="Path 8089" d="M122.961,25.37c-.006.979-1.478,2.691-2.172,2.644a1.544,1.544,0,0,1-1.1-.6,1.474,1.474,0,0,1,.031-1.245,4.309,4.309,0,0,1,1.237-1.407,1.636,1.636,0,0,1,1.3-.18c.345.119.562.61.708.784" transform="translate(-95.284 -19.543)" fill="#f6c092"/>
    <path id="Path_8090" data-name="Path 8090" d="M75.514,49.452a3.864,3.864,0,0,1-.345.834,13.583,13.583,0,0,1-1.2,1.365,1.2,1.2,0,0,1-1.791-1.586,5.883,5.883,0,0,1,1.212-1.339,1.656,1.656,0,0,1,1.3-.182c.347.118.567.608.82.908" transform="translate(-57.311 -38.637)" fill="#f6c092"/>
    <path id="Path_8091" data-name="Path 8091" d="M118.949,49.447a4.534,4.534,0,0,1-.391.884,12.587,12.587,0,0,1-1.147,1.308,1.2,1.2,0,0,1-1.811-1.565,5.875,5.875,0,0,1,1.21-1.342,1.665,1.665,0,0,1,1.3-.2c.348.114.574.6.843.913" transform="translate(-91.918 -38.634)" fill="#f6c092"/>
    <path id="Path_8092" data-name="Path 8092" d="M142.754,49.093a4.036,4.036,0,0,1-2.108,2.4c-.892.136-1.719-.831-1.269-1.6A6.437,6.437,0,0,1,141,48.038a1.166,1.166,0,0,1,1.752,1.055" transform="translate(-110.974 -38.131)"/>
    <path id="Path_8093" data-name="Path 8093" d="M173.121,49.364c-.028.936-1.478,2.632-2.138,2.6a1.557,1.557,0,0,1-1.124-.555,1.442,1.442,0,0,1-.008-1.244,4.558,4.558,0,0,1,1.281-1.469,1.6,1.6,0,0,1,1.3-.143c.343.129.546.627.688.806" transform="translate(-135.251 -38.636)" fill="#f6c092"/>
    <path id="Path_8094" data-name="Path 8094" d="M96.947,31.575c.032.874-.343,1.394-.99,1.49a1.2,1.2,0,0,1-1.4-1.058,12.3,12.3,0,0,1-.2-1.648,1.194,1.194,0,0,1,2.363-.314c.121.538.166,1.094.228,1.53" transform="translate(-75.194 -23.176)"/>
    <path id="Path_8095" data-name="Path 8095" d="M152,23.66a22.994,22.994,0,0,1,2.435,1.78c.192.179.1.925-.121,1.209a1.326,1.326,0,0,1-1.155.425,6.382,6.382,0,0,1-2.005-1.15,1.352,1.352,0,0,1-.231-1.213c.135-.374.616-.624,1.077-1.05" transform="translate(-120.232 -18.855)"/>
    <path id="Path_8096" data-name="Path 8096" d="M154.526,201.652c1.9,2.783,1.231,7-1.327,8.621-1-1.658-2.207-3.233-1.416-5.391a5.638,5.638,0,0,1,2.743-3.23" transform="translate(-120.757 -160.703)" fill="#fff"/>
    <path id="Path_8097" data-name="Path 8097" d="M109.832,229.666a5.13,5.13,0,0,1,6.231.532,13.055,13.055,0,0,1,1.75,2.89c-2.561,1.42-6.824-.439-7.981-3.422" transform="translate(-87.529 -182.376)" fill="#fff"/>
    <path id="Path_8098" data-name="Path 8098" d="M100.958,203.419c-1.236.132-2.477.275-3.72.39a1.006,1.006,0,0,1-.683-.122c-1.017-.893-2-1.823-3.136-2.868a5.853,5.853,0,0,1,4-.65,4.562,4.562,0,0,1,3.538,3.25" transform="translate(-74.449 -159.424)" fill="#fff"/>
    <path id="Path_8099" data-name="Path 8099" d="M137.232,180.859c-1.871-2.746-1.2-6.086,1.719-7.589a10.638,10.638,0,0,1,.922,4.181.813.813,0,0,1-.22.446c-.8.992-1.613,1.976-2.421,2.962" transform="translate(-108.53 -138.085)" fill="#fff"/>
    <path id="Path_8100" data-name="Path 8100" d="M107.742,162.866a7.633,7.633,0,0,1,3.746,3.3.729.729,0,0,1,.033.493c-.175.682-.377,1.357-.574,2.049-.7-.207-1.434-.39-2.136-.648a1.084,1.084,0,0,1-.46-.558,7.862,7.862,0,0,1-.609-4.634" transform="translate(-85.779 -129.793)" fill="#fff"/>
  </g>
</svg>
