<svg id="government-budget" xmlns="http://www.w3.org/2000/svg" xmlns:xlink="http://www.w3.org/1999/xlink" width="76.509" height="73.279" viewBox="0 0 76.509 73.279">
  <defs>
    <clipPath id="clip-path">
      <rect id="Rectangle_22883" data-name="Rectangle 22883" width="76.509" height="73.279" fill="none"/>
    </clipPath>
  </defs>
  <g id="Group_7955" data-name="Group 7955" clip-path="url(#clip-path)">
    <path id="Path_8138" data-name="Path 8138" d="M32.268,12.415v.923q0,24.64,0,49.279c0,1.259-.2,1.46-1.486,1.46h-8.5c-1.246,0-1.437-.188-1.437-1.425q0-24.534,0-49.067c0-.212-.015-.426,0-.637.032-.4-.141-.546-.536-.538-.849.016-1.7,0-2.549,0a1.737,1.737,0,0,1-1.748-1.083A1.789,1.789,0,0,1,16.4,9.243C19.181,6.415,21.952,3.58,24.753.774A2.483,2.483,0,0,1,28.374.8c2.78,2.794,5.536,5.61,8.3,8.421a1.79,1.79,0,0,1,.43,2.08,1.768,1.768,0,0,1-1.8,1.121c-.984-.009-1.968,0-3.039,0" transform="translate(-13.597 0)"/>
    <path id="Path_8139" data-name="Path 8139" d="M62.762,118.774H74.624a6.886,6.886,0,0,1,.707.014,1.274,1.274,0,0,1,1.177,1.275,1.3,1.3,0,0,1-1.093,1.358,3.738,3.738,0,0,1-.636.024h-73a4.028,4.028,0,0,1-.706-.026A1.3,1.3,0,0,1,0,120.045a1.28,1.28,0,0,1,1.2-1.258c.258-.024.519-.013.778-.013H39.637l.065-.148c-.2-.108-.4-.221-.612-.323a19.171,19.171,0,0,1-7.385-6.021c-3.352-4.724-3.709-9.755-1.377-15.01a31.62,31.62,0,0,1,5.7-8.313c2.154-2.378,4.394-4.679,6.573-7.035.734-.794,1.4-1.652,1.975-2.34a7.149,7.149,0,0,1-.918-1.6c-.165-.645.311-1.089,1-1.421a13.775,13.775,0,0,0-1.039-1.6C42.4,73.555,41.14,72.18,39.886,70.8c-.6-.662-1.272-1.268-1.848-1.952a3.61,3.61,0,0,1,.221-5.1,7.285,7.285,0,0,1,4.934-2,12.941,12.941,0,0,1,7.145,1.632c3.509,1.894,2.827,1.365,5.936.709a18.958,18.958,0,0,1,4.051-.491,2.9,2.9,0,0,1,2.8,4.075,13.056,13.056,0,0,1-1.561,2.833c-.965,1.424-2.046,2.77-3.037,4.178a18.952,18.952,0,0,0-1,1.776c1.551.745,1.6,2.139.053,2.908.641.8,1.22,1.622,1.895,2.355,2.431,2.637,4.926,5.215,7.334,7.873a31.512,31.512,0,0,1,4.96,7.122c3.214,6.472,1.976,13.326-3.428,18.137a44.242,44.242,0,0,1-4.812,3.326,7.024,7.024,0,0,1-.8.408l.031.186m-13.178-.533c5.726,0,9.333-.777,12.642-2.4a17.615,17.615,0,0,0,4.931-3.516c4.124-4.239,4.806-9.544,1.918-14.955a35.849,35.849,0,0,0-5.538-7.4c-1.717-1.851-3.5-3.64-5.209-5.5a15.611,15.611,0,0,1-3.544-4.9.7.7,0,0,0-.549-.288q-3.044-.031-6.088,0a.8.8,0,0,0-.55.3c-.935,1.291-1.736,2.7-2.784,3.884-2.2,2.494-4.555,4.85-6.789,7.314a29.811,29.811,0,0,0-5.21,7.537,12.233,12.233,0,0,0-1.147,7.09A12.994,12.994,0,0,0,37.16,114a21.836,21.836,0,0,0,12.424,4.244m1.537-41.648c1.038,0,2.076.023,3.112-.019a.866.866,0,0,0,.593-.416c.61-1.137,1.086-2.356,1.782-3.434.919-1.423,2.016-2.729,3-4.112a12.508,12.508,0,0,0,.974-1.714c.192-.387.011-.644-.42-.676a3.12,3.12,0,0,0-.846.01c-1.383.285-2.768.567-4.138.906a5.375,5.375,0,0,1-3.135-.007,16.479,16.479,0,0,1-2.315-1.038,12.343,12.343,0,0,0-4.846-1.653,6.184,6.184,0,0,0-4.45.974c-.81.613-.858,1.153-.172,1.889.9.965,1.853,1.882,2.764,2.838a19.743,19.743,0,0,1,4.408,6.094.845.845,0,0,0,.648.343c1.013.037,2.028.016,3.042.015" transform="translate(0 -52.977)"/>
    <path id="Path_8140" data-name="Path 8140" d="M173.715,111.615c0,.573,0,1.04,0,1.507,0,2.855.018,5.711-.023,8.565a2.115,2.115,0,0,1-.468,1.257,34.1,34.1,0,0,0-6.213,9.482.859.859,0,0,1-1.055.607c-.571-.127-.667-.576-.666-1.092q.009-7.681,0-15.361c0-1.439-.017-2.879.008-4.318.008-.493-.157-.676-.65-.645a14.252,14.252,0,0,1-1.486-.006,1.467,1.467,0,0,1-1.025-2.512c1.982-2.022,3.959-4.048,5.965-6.047a1.925,1.925,0,0,1,2.8.014c1.987,1.984,3.948,3.993,5.916,6a1.471,1.471,0,0,1-1.009,2.549c-.657.02-1.316,0-2.094,0" transform="translate(-138.795 -87.947)"/>
    <path id="Path_8141" data-name="Path 8141" d="M146.263,501.184H122.487c-.212,0-.425.008-.637,0a1.354,1.354,0,0,1-1.375-1.326,1.312,1.312,0,0,1,1.34-1.345c.259-.017.519-.009.778-.009h47.27a8.952,8.952,0,0,1,.919.021,1.272,1.272,0,0,1,1.189,1.263,1.307,1.307,0,0,1-1.085,1.367,4.419,4.419,0,0,1-.776.031H146.263" transform="translate(-103.415 -427.908)" fill="#cf8e56"/>
    <path id="Path_8142" data-name="Path 8142" d="M57.561,498.568a1.323,1.323,0,0,1,1.417,1.331,1.358,1.358,0,0,1-1.421,1.343,1.33,1.33,0,0,1-1.372-1.311,1.3,1.3,0,0,1,1.375-1.362" transform="translate(-48.229 -427.967)"/>
    <path id="Path_8143" data-name="Path 8143" d="M89.724,501.228a1.335,1.335,0,0,1-1.384-1.372,1.4,1.4,0,0,1,2.792.023,1.339,1.339,0,0,1-1.408,1.349" transform="translate(-75.83 -427.956)"/>
    <path id="Path_8144" data-name="Path 8144" d="M319.771,246.085c0,2.1-.011,4.1.021,6.1,0,.158.27.384.461.455.748.28,1.552.431,2.267.774a5.336,5.336,0,0,1,1.844,8.153,6.7,6.7,0,0,1-3.885,2.423c-.6.135-.785.386-.716.951a3.3,3.3,0,0,1-.015.847,1.3,1.3,0,0,1-1.391,1.135,1.158,1.158,0,0,1-1.224-1.2c.172-1.277-.386-1.705-1.547-2.008a5.771,5.771,0,0,1-3.532-2.771,1.4,1.4,0,0,1,.356-2.094c.715-.4,1.434-.152,1.947.692a4.2,4.2,0,0,0,2.675,1.847c.024-.28.058-.5.058-.721,0-1.7-.015-3.4.014-5.1a.731.731,0,0,0-.656-.872,9.686,9.686,0,0,1-1.992-.7,5.271,5.271,0,0,1-.924-9.121,10.543,10.543,0,0,1,2.894-1.408c.537-.191.731-.392.672-.921a4.182,4.182,0,0,1,0-.778,1.279,1.279,0,0,1,1.3-1.232c.719-.011,1.425.478,1.326,1.168-.2,1.375.489,1.753,1.645,2.074a5.768,5.768,0,0,1,3.34,2.59,1.364,1.364,0,1,1-2.254,1.477,4.18,4.18,0,0,0-2.683-1.769m-2.731.056a3.413,3.413,0,0,0-3.026,3.213,3.047,3.047,0,0,0,3.026,2.654Zm2.765,15.145a3.257,3.257,0,0,0,3-3.384,2.777,2.777,0,0,0-3-2.445Z" transform="translate(-267.228 -206.481)" fill="#cf8e56"/>
    <path id="Path_8145" data-name="Path 8145" d="M448.661,355.08c-.16.554-.359,1.427-.665,2.261a12.642,12.642,0,0,1-3.54,4.953,1.362,1.362,0,0,1-1.963-.051,1.331,1.331,0,0,1,.128-1.9,10.266,10.266,0,0,0,3.42-5.944,1.249,1.249,0,0,1,1.5-.972c.677.1,1.11.615,1.121,1.654" transform="translate(-379.54 -303.363)" fill="#cf8e56"/>
  </g>
</svg>
