<svg id="gross-domestic-products-hover" xmlns="http://www.w3.org/2000/svg" xmlns:xlink="http://www.w3.org/1999/xlink" width="80.085" height="93" viewBox="0 0 80.085 93">
  <defs>
    <clipPath id="clip-path">
      <rect id="Rectangle_22614" data-name="Rectangle 22614" width="80.085" height="93" fill="#f6c092"/>
    </clipPath>
  </defs>
  <g id="Group_7894" data-name="Group 7894" clip-path="url(#clip-path)">
    <path id="Path_7845" data-name="Path 7845" d="M75.8,47.437,64.886,37.079l-10.9,10.358c1.442,0,2.628,0,3.814,0,1.5,0,1.852.357,1.853,1.859q0,15.06,0,30.119v1.247h1.112q6.979,0,13.957,0c1.533,0,1.937.379,1.853,1.939-.828,15.307-8.213,26.218-22.028,32.8a1.391,1.391,0,0,0-.621.467q3.413,0,6.826,0a4.149,4.149,0,0,1,.952.04,1.163,1.163,0,0,1,.986,1.318,1.135,1.135,0,0,1-1.092,1.123,6.978,6.978,0,0,1-.859.02H23.07c-.223,0-.446.005-.669-.007a1.239,1.239,0,0,1-.019-2.477c1.3-.045,2.605-.013,4.2-.013-.458-.234-.66-.346-.869-.443-12.1-5.611-19.375-14.951-21.675-28.109-.268-1.531-.274-3.107-.418-4.661A1.8,1.8,0,0,1,4.62,80.6C.53,77.526-.272,73.227.071,68.6c.358-4.823,2.44-9.09,5-13.075,2.128-3.317,4.542-6.454,6.9-9.617a2.292,2.292,0,0,1,1.6-.769c4.173-.063,8.348-.055,12.522-.007a2.172,2.172,0,0,1,1.491.611c4.017,4.842,7.717,9.91,10.144,15.766.834,2.012,1.368,4.149,2.067,6.315h4.4V66.669c0-2.932-.007-5.865,0-8.8,0-1.325.388-1.694,1.719-1.7q5.018-.006,10.037,0h1.113V49.951H52.1a3.488,3.488,0,0,1-1.138-.027c-.465-.17-1.092-.422-1.235-.8A1.666,1.666,0,0,1,50.1,47.7c1.206-1.268,2.514-2.44,3.785-3.647q4.888-4.64,9.778-9.279c.964-.914,1.474-.928,2.436-.016,4.487,4.253,8.979,8.5,13.426,12.795a2.12,2.12,0,0,1,.553,1.554c-.086.763-.824.845-1.5.842-1.939-.007-3.877,0-5.959,0v1.181q0,9.514,0,19.027c0,.287.015.576-.012.86a1.24,1.24,0,0,1-2.479-.037c-.017-.222-.009-.446-.009-.669q0-10.47,0-20.94c0-1.6.341-1.933,1.977-1.935,1.139,0,2.278,0,3.708,0M19.827,80.813c3.233-.237,6.522-.3,9.754-.763,3.611-.519,6.211-2.479,7.146-6.231a16.389,16.389,0,0,0-.7-9.844c-2.214-6-5.9-11.1-9.87-16.018a1.166,1.166,0,0,0-.811-.336q-5.493-.033-10.987.005a1.39,1.39,0,0,0-.945.451,66.705,66.705,0,0,0-7.861,11.6c-1.922,3.743-3.4,7.595-2.972,11.954.474,4.88,2.838,7.717,7.68,8.446,3.133.472,6.332.5,9.562.736M53.565,98.527h5.669c.223,0,.447-.006.669.007.8.048,1.344.421,1.387,1.272.035.714-.532,1.228-1.4,1.239-2.007.025-4.016.055-6.021-.011a1.3,1.3,0,0,0-1.507,1.024,36.657,36.657,0,0,1-6.037,10.887c-.716.884-1.489,1.724-2.374,2.744a34.347,34.347,0,0,0,24.1-14.475c-.2-.089-.254-.135-.31-.136-.8-.011-1.593-.013-2.389-.023-1.117-.014-1.7-.43-1.714-1.228-.019-.823.6-1.288,1.753-1.3,1.179-.01,2.359-.035,3.536.011a1.127,1.127,0,0,0,1.185-.714,32.765,32.765,0,0,0,3.25-9.139c.33-1.793.51-3.614.765-5.477H55.667a62.306,62.306,0,0,1-2.1,15.317m-26.5-15.321a56.647,56.647,0,0,0,2.081,14.706c.171.6.5.619.976.619q9.983-.008,19.967.01c.631,0,.914-.2,1.033-.808.509-2.588,1.148-5.155,1.539-7.76.332-2.216.388-4.472.571-6.767Zm-20.83.007c0,.348-.014.631,0,.913a33.657,33.657,0,0,0,3.8,13.585,1.34,1.34,0,0,0,1.4.832c4.711-.031,9.423-.016,14.134-.016h1.075a61.8,61.8,0,0,1-2.1-15.314ZM46.769,80.6h10.3V58.735h-10.3ZM30.2,101.113c2.191,5.68,5.187,10.636,9.915,14.492A33.766,33.766,0,0,0,50,101.113Zm5.994,14.56a3.189,3.189,0,0,0-.272-.42,36.785,36.785,0,0,1-8.185-13.436.976.976,0,0,0-1.091-.772c-4.557.022-9.113.011-13.67.016-.235,0-.469.047-.876.091A34.382,34.382,0,0,0,36.2,115.673M39.7,70.409c-.164,4-1.121,7.6-4.669,10.2h9.072v-10.2Z" transform="translate(0 -25.381)" fill="#cf8e56"/>
    <path id="Path_7846" data-name="Path 7846" d="M36.425,4.052a10.889,10.889,0,0,0,1.066-1.2A3.331,3.331,0,0,1,40.764,1.4c2.608.1,5.221.019,7.832.031,1.533.007,2.024.708,1.5,2.132C48.912,6.789,47.7,10,46.533,13.23a1.72,1.72,0,0,1-1.839,1.309c-2.579-.035-5.159-.027-7.738,0a1.846,1.846,0,0,1-1.789-1Q31.886,7.876,28.551,2.252c-.39-.66-.607-1.3.021-1.9s1.273-.326,1.911.069c1.946,1.2,3.9,2.39,5.942,3.633M33.389,5.145l-.137.144c1.224,2.082,2.436,4.172,3.691,6.235a1.138,1.138,0,0,0,.812.467c1.973.04,3.947.049,5.919-.009a1.19,1.19,0,0,0,.835-.65c.7-1.738,1.335-3.5,1.985-5.262.24-.648.462-1.3.749-2.111a35.761,35.761,0,0,1-4.212-.03c-2.222-.272-3.969.3-5.147,2.276a1.1,1.1,0,0,1-.126.144,1.347,1.347,0,0,1-1.947.28c-.8-.5-1.614-.99-2.422-1.484" transform="translate(-20.981 0)" fill="#cf8e56"/>
    <path id="Path_7847" data-name="Path 7847" d="M14.21,53.95c-.812-.777-1.537-1.444-2.23-2.143s-.748-1.357-.207-1.926,1.273-.506,2,.185a.938.938,0,0,1,.136.134c1.5,2.174,3.542,2.737,6.146,2.592,4.064-.226,8.15-.054,12.226-.065.66,0,1.213.143,1.464.815.33.883-.284,1.672-1.346,1.685-1.942.023-3.885.007-5.828.007-3.121,0-6.242-.021-9.363.025a2.111,2.111,0,0,0-1.3.546c-1.793,1.719-3.529,3.5-5.292,5.247-.8.791-1.479.872-2.068.273s-.5-1.262.307-2.066c1.736-1.73,3.482-3.451,5.36-5.31" transform="translate(-6.079 -36.855)" fill="#f6c194"/>
    <path id="Path_7848" data-name="Path 7848" d="M259.633,356.8c-.634,0-1.269.029-1.9-.008a1.127,1.127,0,0,1-1.158-1.145,1.114,1.114,0,0,1,1.088-1.3,37.162,37.162,0,0,1,3.988,0,1.1,1.1,0,0,1,1.067,1.23,1.139,1.139,0,0,1-1.185,1.218c-.632.036-1.267.007-1.9.006" transform="translate(-191.049 -263.812)" fill="#cf8e56"/>
    <path id="Path_7849" data-name="Path 7849" d="M58.041,354.33c.476,0,.954-.03,1.427.007a1.191,1.191,0,0,1,1.237,1.289,1.15,1.15,0,0,1-1.227,1.189c-1.015.023-2.031.026-3.046,0a1.134,1.134,0,0,1-1.225-1.181,1.17,1.17,0,0,1,1.216-1.3c.536-.044,1.078-.008,1.618-.009" transform="translate(-41.108 -263.833)" fill="#f6c194"/>
    <path id="Path_7850" data-name="Path 7850" d="M276.88,196.321c-.013.284.084.665-.062.832-.344.391-.789.91-1.222.939a1.547,1.547,0,0,1-1.137-.886,2.612,2.612,0,0,1-.009-1.76,1.658,1.658,0,0,1,1.19-.936c.406.006.853.573,1.182.976.139.17.023.55.023.834h.034" transform="translate(-204.252 -144.838)" fill="#f6c194"/>
    <path id="Path_7851" data-name="Path 7851" d="M9.763,39.558a1.766,1.766,0,0,1-1.581-1.5,1.273,1.273,0,0,1,1.271-1.263,1.774,1.774,0,0,1,1.529,1.453,1.266,1.266,0,0,1-1.219,1.314" transform="translate(-6.092 -27.396)" fill="#cf8e56"/>
    <path id="Path_7852" data-name="Path 7852" d="M34.364,354.365a1.248,1.248,0,0,1,1.306,1.224,1.223,1.223,0,0,1-1.342,1.269A1.265,1.265,0,0,1,33.05,355.6a1.29,1.29,0,0,1,1.314-1.236" transform="translate(-24.609 -263.869)" fill="#cf8e56"/>
    <path id="Path_7853" data-name="Path 7853" d="M59.652,118.378c0-.511-.024-1.016.005-1.519.05-.865.553-1.411,1.274-1.367a1.264,1.264,0,0,1,1.242,1.315c.07.674-.08,1.594.3,1.952.415.394,1.338.208,2.007.393a2.689,2.689,0,0,1,1.341.734,1.234,1.234,0,0,1-.038,1.2,1.758,1.758,0,0,1-1.286.553c-1.393-.112-2.774-.363-4.158-.573a2.16,2.16,0,0,0-2.312.742,1.912,1.912,0,0,0,1.239,3.025c1.122.227,2.259.374,3.389.559a4.448,4.448,0,0,1-.045,8.858c-.092.013-.182.042-.432.1,0,.465.018.961,0,1.454-.041.929-.539,1.507-1.287,1.458-.859-.056-1.187-.611-1.237-1.413-.122-1.961-.128-1.96-2.126-2.208-.189-.024-.38-.044-.567-.082a1.245,1.245,0,0,1-1.147-1.393,1.226,1.226,0,0,1,1.52-1.074c1.294.158,2.584.361,3.875.542a7.71,7.71,0,0,0,.947.1,1.922,1.922,0,0,0,.4-3.816c-1.124-.215-2.26-.37-3.39-.556a4.45,4.45,0,0,1,.148-8.869,3.041,3.041,0,0,0,.343-.117" transform="translate(-41.067 -85.996)" fill="#f6c194"/>
    <path id="Path_7854" data-name="Path 7854" d="M133.133,58.125a1.461,1.461,0,0,1-.807-.671q-2.45-3.725-4.909-7.445a9.418,9.418,0,0,1-1.451-3.492,6.746,6.746,0,0,1,.188-3.147,7.324,7.324,0,0,1,2.55-3.778,7.016,7.016,0,0,1,3.124-1.442,7.27,7.27,0,0,1,6.695,2.017,7.166,7.166,0,0,1,2.12,4.2,7.308,7.308,0,0,1-1.005,4.827c-.667,1.155-1.43,2.255-2.161,3.372-1.069,1.632-2.151,3.256-3.221,4.888a1.459,1.459,0,0,1-.807.67Z" transform="translate(-93.718 -28.3)" fill="#f6c194" stroke="#cf8e56" stroke-miterlimit="10" stroke-width="3"/>
    <path id="Path_7855" data-name="Path 7855" d="M101.012,346.4a2.734,2.734,0,0,1,2.753,2.749,2.707,2.707,0,0,1-2.688,2.724,2.737,2.737,0,1,1-.065-5.473" transform="translate(-61.295 -332.442)" fill="#fff" stroke="#cf8e56" stroke-width="2"/>
  </g>
</svg>
