<svg xmlns="http://www.w3.org/2000/svg" xmlns:xlink="http://www.w3.org/1999/xlink" width="62.41" height="82.592" viewBox="0 0 62.41 82.592">
  <defs>
    <clipPath id="clip-path">
      <rect id="Rectangle_22597" data-name="Rectangle 22597" width="62.41" height="82.592" fill="none"/>
    </clipPath>
  </defs>
  <g id="hajj-umrah" clip-path="url(#clip-path)">
    <path id="Path_7736" data-name="Path 7736" d="M60.212,68.755c-.454.548-.74.9-1.029,1.243A40.206,40.206,0,0,1,42.069,82.313a6.335,6.335,0,0,1-.614.215c-.572.147-1.083.07-1.291-.561a.931.931,0,0,1,.66-1.246c.779-.308,1.571-.583,2.339-.914A39.63,39.63,0,0,0,60.145,65.579a1.358,1.358,0,0,0,.153-1.461A19.326,19.326,0,0,0,56.29,58c-.746-.763-1.095-.727-1.656.147C47.282,69.6,36.667,76.254,23.556,79.17c-2.6.578-5.254.885-7.995,1.336a2.978,2.978,0,0,1-.092,1.155c-.186.38-.623.884-.945.88s-.782-.513-.925-.9a4.431,4.431,0,0,1-.048-1.478q0-5.734,0-11.469c0-.279-.077-.627.058-.821.222-.321.579-.739.894-.751s.678.394.935.691c.137.158.093.472.149.839a45.944,45.944,0,0,0,16.295-5.725c4.17-2.519,8.017-6.414,9.434-9.579-4.693-1.086-5.6-4.909-6.277-8.954a14.573,14.573,0,0,1-7.694-.009c-.08.3-.154.551-.218.809-.268,1.084-.467,2.189-.812,3.248a6.843,6.843,0,0,1-6.833,5.018,17.687,17.687,0,0,0-16.817,12.9,19.194,19.194,0,0,0-.682,4.584c-.1,3.353-.033,6.712-.037,10.069,0,.279.081.634-.056.819-.231.311-.608.707-.923.706s-.657-.419-.893-.727c-.124-.162-.055-.481-.055-.729,0-3.232-.026-6.465,0-9.7A19.608,19.608,0,0,1,16.031,51.9a22.293,22.293,0,0,1,3.422-.339,5,5,0,0,0,5.037-3.785,30.83,30.83,0,0,0,.812-3.532.911.911,0,0,0-.343-.775c-5.622-2.884-8.68-7.709-10.294-13.606a1.438,1.438,0,0,0-1.212-1.219A4.348,4.348,0,0,1,10.017,24.9a4.344,4.344,0,0,1,2.094-4.632,1.075,1.075,0,0,0,.56-1.339,19.339,19.339,0,0,1,.156-8.049A12.343,12.343,0,0,1,19.966,2.2,26.126,26.126,0,0,1,36.463.675a7.574,7.574,0,0,1,5.253,3.841.878.878,0,0,0,.613.421c3.741,0,6.675,2.634,7.136,7.2a44.788,44.788,0,0,1-.1,6.679c-.032.643.036.97.647,1.3a4.637,4.637,0,0,1-1.224,8.56,1.281,1.281,0,0,0-1.1,1.112C46.324,35,43.7,39.391,39.136,42.453c-.258.173-.526.33-.795.485-1.451.832-1.487.839-1.126,2.449a24.088,24.088,0,0,0,.913,3.12,4.535,4.535,0,0,0,2.807,2.685,1.683,1.683,0,0,0,2.027-.283,2.525,2.525,0,0,1,1.794-.539,19.392,19.392,0,0,1,9.282,3.3c.647.443,1,1.3,1.616,1.808s1.517.707,2.081,1.257a19.432,19.432,0,0,1,4.423,6.831,2.916,2.916,0,0,1-.11,2.6,1.682,1.682,0,0,0-.191.865c.141,2.1.388,4.2.456,6.3.082,2.546.021,5.1.017,7.645,0,.279.073.63-.064.819-.227.315-.6.721-.909.725s-.7-.394-.911-.711c-.149-.221-.073-.6-.075-.911-.015-3.543-.022-7.086-.041-10.629,0-.42-.063-.84-.117-1.522M46.595,23.761a12.407,12.407,0,0,0-1.122-5.7c-1.716-3.626-5.236-4.01-7.768-2.052a10.6,10.6,0,0,1-8.622,2.026,12.313,12.313,0,0,1-4.93-2.3,4.485,4.485,0,0,0-6.263.809A8.132,8.132,0,0,0,15.946,21c-.727,7.1,1.168,13.336,6.37,18.384A12.753,12.753,0,0,0,40,39.352c4.56-4.167,6.334-9.576,6.594-15.592m-31.019,54.7c1.816-.257,3.565-.461,5.3-.758A48.446,48.446,0,0,0,43.885,67.444,41.4,41.4,0,0,0,53.15,56.833c.356-.588.551-1.1-.189-1.578A19.214,19.214,0,0,0,45,52.331a1.088,1.088,0,0,0-1.3.734,24.37,24.37,0,0,1-6.578,8.455,39.133,39.133,0,0,1-15.5,7.776c-1.993.541-4.023.945-6.033,1.411ZM47.567,17.8a39.717,39.717,0,0,0-.047-5.711c-.566-3.749-2.295-5.063-6.122-5.177a1.408,1.408,0,0,1-1.023-.729A5.915,5.915,0,0,0,35.952,2.55a25,25,0,0,0-12.967.53C15.429,5.3,13.445,11.735,14.6,18.267c.3-.57.537-1.055.8-1.529a6.67,6.67,0,0,1,10.273-2.322,8.987,8.987,0,0,0,11.145-.126,6.655,6.655,0,0,1,9.894,2.029c.262.44.513.887.855,1.48m.716,9.062a2.8,2.8,0,0,0,2.143-2.422A2.575,2.575,0,0,0,48.79,21.72l-.506,5.14m-34.845-5.09a2.614,2.614,0,0,0-1.5,2.908,2.35,2.35,0,0,0,2.138,2.008c-.211-1.624-.418-3.226-.637-4.916" transform="translate(0 0)" fill="#383330"/>
    <path id="Path_7737" data-name="Path 7737" d="M190,266.929a6.819,6.819,0,0,1-.586.952,38.486,38.486,0,0,1-8.659,7.288c-.561.343-1.126.528-1.545-.112-.437-.666-.091-1.16.521-1.532a37.5,37.5,0,0,0,8.257-6.9,1.829,1.829,0,0,1,1.265-.447c.242,0,.478.467.748.756" transform="translate(-134.434 -199.889)" fill="#f6c092"/>
    <path id="Path_7738" data-name="Path 7738" d="M62.543,236.22v-7.758c2.01-.466,4.041-.87,6.033-1.411a39.135,39.135,0,0,0,15.5-7.776,24.369,24.369,0,0,0,6.578-8.455,1.089,1.089,0,0,1,1.3-.734,19.219,19.219,0,0,1,7.966,2.923c.74.476.544.991.188,1.578A41.4,41.4,0,0,1,90.852,225.2a48.451,48.451,0,0,1-23.012,10.264c-1.733.3-3.482.5-5.3.758m13.413-5.57a8.892,8.892,0,0,0,.868-.292c2.206-1.048,4.422-2.077,6.6-3.173a25.168,25.168,0,0,0,2.521-1.571c.518-.343.7-.914.28-1.341-.262-.263-.85-.23-1.3-.264-.148-.011-.3.2-.469.28q-4.119,2.124-8.241,4.24c-.246.127-.609.164-.732.36a1.5,1.5,0,0,0-.272,1.053c.091.3.516.509.739.708" transform="translate(-46.968 -157.754)" fill="#fff"/>
    <path id="Path_7739" data-name="Path 7739" d="M193.886,92.359c.177-1.8.338-3.431.506-5.14a2.575,2.575,0,0,1,1.636,2.719,2.8,2.8,0,0,1-2.142,2.422" transform="translate(-145.603 -65.499)" fill="#fff"/>
    <path id="Path_7740" data-name="Path 7740" d="M49.252,87.422c.219,1.69.427,3.292.637,4.916A2.349,2.349,0,0,1,47.75,90.33a2.614,2.614,0,0,1,1.5-2.908" transform="translate(-35.813 -65.651)" fill="#fff"/>
    <path id="Path_7741" data-name="Path 7741" d="M114.1,272.693c-.223-.2-.647-.4-.739-.708a1.5,1.5,0,0,1,.272-1.053c.123-.2.486-.234.732-.36q4.123-2.116,8.241-4.24c.165-.085.321-.292.469-.28.447.034,1.034,0,1.3.264.424.426.238,1-.28,1.341a25.17,25.17,0,0,1-2.521,1.571c-2.182,1.1-4.4,2.125-6.6,3.173a8.813,8.813,0,0,1-.868.292" transform="translate(-85.113 -199.797)" fill="#f6c092"/>
  </g>
</svg>
