<svg xmlns="http://www.w3.org/2000/svg" xmlns:xlink="http://www.w3.org/1999/xlink" width="86" height="86" viewBox="0 0 86 86">
  <defs>
    <clipPath id="clip-path">
      <rect id="Rectangle_10495" data-name="Rectangle 10495" width="86" height="86" transform="translate(-0.4 -0.4)" fill="none"/>
    </clipPath>
  </defs>
  <g id="ICON-OilGas" transform="translate(0.4 0.4)" clip-path="url(#clip-path)">
    <path id="Path_7508" data-name="Path 7508" d="M84.242,52.651v23.2c-.056.209-.128.415-.167.627A9.487,9.487,0,0,1,65.3,75.629c-.143-1.854-.078-3.725-.093-5.588-.018-2.165.022-4.332-.041-6.5a3.6,3.6,0,0,0-2.684-3.387v2.352h-5.4c0,.919.012,1.712,0,2.5a6.774,6.774,0,0,1-4.859,6.676.692.692,0,0,0-.58.808c.027,1.041.032,2.084,0,3.124-.015.471.159.649.6.791a6.885,6.885,0,0,1,4.753,7.776H0c0-.346,0-.642,0-.939a6.736,6.736,0,0,1,4.931-6.861c.646-.214.5-.624.5-1.024q.008-33.142,0-66.285V8.123H2.8V0H54.3V8.19H51.645c0,1.793.029,3.488-.016,5.181a1.042,1.042,0,0,0,.711,1.106c3.168,1.557,6.313,3.16,9.482,4.714a1.058,1.058,0,0,1,.7,1.113c-.025,5.18-.014,10.359-.016,15.539,0,.264-.024.527-.042.881H59.8c0,1.3-.075,2.5.016,3.7a3.96,3.96,0,0,0,3.6,3.855q6.881,1.171,13.769,2.3c1.98.32,3.853.8,5.275,2.366a8.305,8.305,0,0,1,1.786,3.712M43.425,8.179H8.221V76.09h5.32v2.72h-.958c-1.947,0-3.894-.019-5.84.01A3.683,3.683,0,0,0,3.12,81.44h50.84a.987.987,0,0,0,0-.236,1.646,1.646,0,0,0-.134-.3,4.2,4.2,0,0,0-3.912-2.1q-16.288.02-32.576.007h-.977V76.042H48.826V8.14H46.263V5.4h5.321V2.782H5.472V5.436H43.425ZM54.334,36.712V35.706c0-3.236.005-6.471-.01-9.707,0-.273-.053-.689-.228-.793-.758-.448-1.57-.8-2.426-1.226V47.669a7.01,7.01,0,0,1,5.439,6.694h5.406v2.568a25.747,25.747,0,0,1,3.174,1.954,6.6,6.6,0,0,1,2.256,5.347c0,3.455-.034,6.911.009,10.365A6.776,6.776,0,1,0,81.5,74.53c.043-6.937.03-13.875,0-20.812a3.939,3.939,0,0,0-3.557-4.226q-7.244-1.265-14.5-2.43c-4.082-.65-6.359-3.232-6.366-7.349,0-.98,0-1.96,0-3ZM51.688,50.646V68.913a3.541,3.541,0,0,0,2.6-3.242q.083-5.869,0-11.741a3.613,3.613,0,0,0-2.6-3.284m-.043-33.479c0,1.145-.041,2.148.025,3.144a1.207,1.207,0,0,0,.529.849c1.418.765,2.863,1.48,4.319,2.17a.874.874,0,0,1,.571.941c-.029,1.387-.01,2.775-.01,4.176h2.69c0-2.314.019-4.555-.027-6.8a1.128,1.128,0,0,0-.591-.732c-1.915-.994-3.851-1.947-5.782-2.911-.529-.264-1.061-.519-1.722-.842M59.714,31.3H57.144v2.62h2.571ZM59.7,57.135H57.128v2.588H59.7Z" transform="translate(0.173 0.173)" fill="#023074"/>
    <rect id="Rectangle_10492" data-name="Rectangle 10492" width="2.573" height="2.588" transform="translate(57.301 57.308)" fill="#fff"/>
    <path id="Path_7509" data-name="Path 7509" d="M68.694,72.751q-6.538,0-13.075,0c-2.992,0-4.6-1.625-4.6-4.639q0-6.25,0-12.5c0-2.927,1.661-4.59,4.585-4.591q13.075,0,26.15,0c2.931,0,4.6,1.659,4.608,4.575q.011,6.291,0,12.582c0,2.942-1.642,4.57-4.593,4.572q-6.538.006-13.075,0m-.079-19q-6.494,0-12.988,0c-1.465,0-1.871.4-1.873,1.839q-.008,6.289,0,12.577c0,1.457.445,1.889,1.932,1.889q12.988,0,25.975,0c1.529,0,1.953-.426,1.954-1.948q0-6.206,0-12.412c0-1.568-.372-1.944-1.932-1.945q-6.535,0-13.07,0" transform="translate(-39.979 -39.981)" fill="#023074"/>
    <path id="Path_7510" data-name="Path 7510" d="M103.73,177.419c.144.247.244.4.326.566,2.3,4.6,4.627,9.2,6.9,13.812a7.848,7.848,0,0,1-2.254,10.083,8.431,8.431,0,0,1-9.764.118,7.755,7.755,0,0,1-2.718-9.424c1.641-3.612,3.5-7.126,5.267-10.681.729-1.468,1.466-2.932,2.238-4.474m.063,6.024c-.2.346-.31.531-.406.724-1.544,3.115-3.219,6.174-4.592,9.363-1.484,3.446.7,6.791,4.5,7.223a5.158,5.158,0,0,0,5.5-6.967c-1.463-3.474-3.271-6.8-5-10.344" transform="translate(-75.047 -139.466)" fill="#8ec4ec"/>
    <rect id="Rectangle_10493" data-name="Rectangle 10493" width="17.587" height="2.63" transform="translate(17.865 16.521)" fill="#8ec4ec"/>
    <rect id="Rectangle_10494" data-name="Rectangle 10494" width="2.657" height="2.606" transform="translate(38.241 16.527)" fill="#8ec4ec"/>
  </g>
</svg>
