<svg xmlns="http://www.w3.org/2000/svg" width="105.673" height="82.639" viewBox="0 0 105.673 82.639">
  <g id="ICON-banks_hover" transform="translate(-143 0)">
    <path id="Path_7788" data-name="Path 7788" d="M0,71.467a2.293,2.293,0,0,1,2.182-1.03c3.5.037,7,.015,10.643.015v-5.82c0-3.212.1-3.312,3.351-3.312h3.11c.019-.372.051-.693.051-1.014,0-7.958-.009-15.917.019-23.875,0-.82-.189-1.151-1.078-1.1-1.164.073-2.338.031-3.507.013-1.395-.022-1.93-.539-1.941-1.918-.019-2.332-.005-4.665-.005-7.17-1.284,0-2.5,0-3.724,0-.447,0-.895,0-1.34-.026-.773-.051-1.427-.452-1.436-1.191a3.431,3.431,0,0,1,.732-1.631c.144-.227.515-.316.787-.461Q27.937,12.178,48.019,1.39A9.6,9.6,0,0,1,57.98,1.4c3.938,2.213,7.941,4.311,11.914,6.463a4.974,4.974,0,0,1,.868.54,1.374,1.374,0,0,1,.337,1.912,1.383,1.383,0,0,1-1.771.636,7.223,7.223,0,0,1-.928-.43c-4.069-2.19-8.148-4.364-12.2-6.588a6.164,6.164,0,0,0-6.271-.077Q32.288,13.321,14.641,22.784c-.116.062-.225.139-.533.331H91.644c-.49-.278-.78-.45-1.077-.611q-7.814-4.223-15.629-8.446a6.615,6.615,0,0,1-.962-.584,1.48,1.48,0,0,1,1.317-2.589,3.638,3.638,0,0,1,.846.355q11.026,5.947,22.05,11.9c.736.4,1.371.88,1.221,1.8-.157.964-.878,1.313-1.8,1.316-1.541,0-3.082,0-4.754,0v2.194c0,1.693.021,3.387-.008,5.08-.021,1.252-.575,1.789-1.838,1.814-1.306.026-2.614.019-3.921,0-.5-.006-.759.114-.758.675q.028,12.5.033,24.991c0,.061.049.121.13.306,1.344,0,2.742,0,4.14,0,1.7.006,2.217.515,2.221,2.19.006,2.266,0,4.531,0,6.941H94c3.164,0,6.328.024,9.492-.015a2.289,2.289,0,0,1,2.182,1.03V81.629a2.508,2.508,0,0,1-2.3,1.01q-50.532-.022-101.064,0A2.508,2.508,0,0,1,0,81.629Zm102.551,2.106H3.159V79.5h99.392ZM16,70.374H89.689V64.413H16Zm-.025-38.128H89.69V26.322H15.975ZM45,61.286c0-2.062,0-4.021,0-5.979,0-1.629.5-2.374,1.588-2.348,1.042.024,1.507.74,1.507,2.324q0,2.979,0,5.958H57.5V35.418H48.092v1.164c0,3.59.009,7.179-.007,10.769a1.554,1.554,0,1,1-3.085.04c-.011-.237,0-.474,0-.711q0-5.08,0-10.159V35.431h-3.39V61.286ZM38.364,35.419H29.012V61.263h9.352ZM67.3,61.252h9.354V35.41H67.3ZM64.06,35.426H60.743V61.285H64.06ZM22.514,61.265h3.28V35.413h-3.28Zm57.381,0H83.18V35.415H79.9Z" transform="translate(143 0)" fill="#0715d4"/>
    <path id="Path_7813" data-name="Path 7813" d="M233.343,39.612a5.819,5.819,0,1,1-5.846,5.827,5.843,5.843,0,0,1,5.846-5.827m.034,8.576a2.783,2.783,0,0,0,2.723-2.756,2.765,2.765,0,0,0-5.531-.016,2.78,2.78,0,0,0,2.808,2.772" transform="translate(-37.896 -33.612)" fill="#023074" stroke="#023074" stroke-width="1"/>
    <path id="Path_7814" data-name="Path 7814" d="M245.307,60.119a2.78,2.78,0,0,1-2.808-2.772,2.765,2.765,0,0,1,5.531.016,2.783,2.783,0,0,1-2.723,2.756" transform="translate(-49.826 -45.543)" fill="#fff" stroke="#023074" stroke-width="1"/>
  </g>
</svg>
