<svg xmlns="http://www.w3.org/2000/svg" width="36.641" height="36.642" viewBox="0 0 36.641 36.642"><g transform="translate(0.001)"><path d="M217.441,214.22a3.22,3.22,0,1,1-3.22-3.22A3.22,3.22,0,0,1,217.441,214.22Zm0,0" transform="translate(-195.901 -195.899)" fill="#f2f3f9"/><path d="M135.171,120H124.294A4.3,4.3,0,0,0,120,124.294v10.878a4.3,4.3,0,0,0,4.294,4.294h10.878a4.3,4.3,0,0,0,4.294-4.294V124.294A4.3,4.3,0,0,0,135.171,120Zm-5.439,15.1a5.367,5.367,0,1,1,5.367-5.367A5.373,5.373,0,0,1,129.733,135.1Zm6.154-10.449a1.073,1.073,0,1,1,1.074-1.073A1.073,1.073,0,0,1,135.887,124.652Zm0,0" transform="translate(-111.413 -111.412)" fill="#f2f3f9"/><path d="M26.98,0H9.661A9.672,9.672,0,0,0,0,9.661V26.98a9.672,9.672,0,0,0,9.661,9.661H26.98a9.672,9.672,0,0,0,9.661-9.661V9.661A9.672,9.672,0,0,0,26.98,0ZM30.2,23.76A6.448,6.448,0,0,1,23.759,30.2H12.881A6.448,6.448,0,0,1,6.441,23.76V12.882a6.448,6.448,0,0,1,6.441-6.441H23.759A6.448,6.448,0,0,1,30.2,12.882Zm0,0" transform="translate(-0.001)" fill="#f2f3f9"/></g></svg>