<svg width="30" height="30" viewBox="0 0 30 30" fill="none" xmlns="http://www.w3.org/2000/svg">
<path opacity="0.88" d="M24.5255 30H5.47445C4.02306 29.9983 2.63159 29.421 1.6053 28.3947C0.579004 27.3684 0.00169034 25.9769 0 24.5255V5.47445C0.00169034 4.02306 0.579004 2.63159 1.6053 1.6053C2.63159 0.579004 4.02306 0.00169034 5.47445 0L24.5255 0C25.9769 0.00169034 27.3684 0.579004 28.3947 1.6053C29.421 2.63159 29.9983 4.02306 30 5.47445V24.5255C29.9986 25.977 29.4213 27.3686 28.395 28.395C27.3686 29.4213 25.977 29.9986 24.5255 30ZM13.8686 17.2308L18.3285 23.7089L18.6752 24.2117H23.8057L22.5538 22.3932L16.7144 13.9078L23.1916 6.38686H21.7153L20.4434 7.85401L16.0584 12.9562L11.885 6.8896L11.5383 6.38686H6.40785L7.65876 8.2062L13.2108 16.2728L6.38686 24.2144H7.8677L13.8686 17.2308ZM21.5995 23.0547H19.2874L14.6524 16.3203L13.9927 15.3622L8.61496 7.54745H10.9288L15.2774 13.8686L15.938 14.8266L21.6004 23.0538L21.5995 23.0547Z" fill="#F2F3F9"/>
</svg>
