<svg xmlns="http://www.w3.org/2000/svg" xmlns:xlink="http://www.w3.org/1999/xlink" width="74.485" height="73.466" viewBox="0 0 74.485 73.466">
  <defs>
    <clipPath id="clip-path">
      <rect id="Rectangle_9751" data-name="Rectangle 9751" width="74.485" height="73.466" transform="translate(0)" fill="#838181"/>
    </clipPath>
  </defs>
  <g id="ICON-MarketIndicators" transform="translate(0)" clip-path="url(#clip-path)">
    <path id="Path_6923" data-name="Path 6923" d="M68.543,0V7.061H66.108V4.032L60.368,7.9l3.086,2.72-.886.2v2.228c-.276-.234-.428-.36-.577-.489-1.22-1.055-2.446-2.105-3.657-3.171a.9.9,0,0,0-1.1-.148,37.117,37.117,0,0,1-16.072,2.614,1.251,1.251,0,0,1-.246-.068V9.458A34.99,34.99,0,0,0,55.384,7.4a34.94,34.94,0,0,0-16.9-4.989v33.1H72.074c-.076-.975-.114-1.942-.234-2.9a33.945,33.945,0,0,0-4.366-12.964,1.336,1.336,0,0,1-.229-.592,31.693,31.693,0,0,1,.128-3.86c.135.172.277.339.4.517a35.743,35.743,0,0,1,6.61,18.261A36.612,36.612,0,0,1,53.438,69.8a36.833,36.833,0,0,1-23.227,2.96,1.522,1.522,0,0,0-1.259.259,2.707,2.707,0,0,1-1.422.423q-11.313.038-22.627.014A2.344,2.344,0,0,1,2.416,71.1c-.028-.573-.01-1.147-.01-1.721,0-1.956.461-2.569,2.355-3.094V64.05c-.191-.053-.417-.107-.636-.179a2.137,2.137,0,0,1-1.672-2.027c-.024-1.206.141-2.415.18-3.624.011-.363-.174-.729-.187-1.1-.03-.834-.009-1.67-.009-2.58A2.689,2.689,0,0,1,0,52.658V49.214a8.689,8.689,0,0,1,1.208-1.442.669.669,0,0,0,.3-.859C1.156,45.557.818,44.2.561,42.821.318,41.519.183,40.2,0,38.883V34.435c.108-.874.2-1.75.326-2.621A36.061,36.061,0,0,1,10.835,10.884,36.59,36.59,0,0,1,30.911.554C32.242.327,33.587.183,34.926,0h4.511a3.54,3.54,0,0,0,.493.1,37.361,37.361,0,0,1,17.711,5.88,1.036,1.036,0,0,0,.9.028c1.673-1.005,3.316-2.06,4.963-3.106a6.382,6.382,0,0,0,.609-.535H61.267V0ZM27.69,49.776v2.292c1.875.525,2.346,1.142,2.348,3.032,0,.478.034.96-.009,1.434a14.228,14.228,0,0,0-.241,1.6c.025.969.191,1.934.236,2.9.019.414.145.565.555.658a2.31,2.31,0,0,1,1.864,2.262c.019.549.005,1.1.005,1.65,0,2.049-.409,2.6-2.362,3.2-.168,1.557-.168,1.557,1.372,1.787.168.025.334.06.5.078,1.338.143,2.677.283,4.059.429V2.473a1.862,1.862,0,0,0-.319-.041c-.653.042-1.307.072-1.957.139a34.32,34.32,0,0,0-20.74,9.535,33.853,33.853,0,0,0-9.032,34.75c.131.417.3.7.832.4,0-.549,0-1.121,0-1.693,0-2.06.872-2.921,2.962-2.921q10.841,0,21.681,0c.218,0,.437-.008.654.009A2.4,2.4,0,0,1,32.447,45.1c.014.717.01,1.435,0,2.152a2.414,2.414,0,0,1-2.557,2.526c-.722.014-1.444,0-2.2,0M38.471,70.982c18.2-.23,33.409-15.8,33.507-33.019H38.471ZM27.622,54.565H4.85v2.242H27.622ZM27.6,59.3H4.847v2.268H27.6Zm.017,9.478H4.848v2.249H27.62Zm2.391-23.7H7.28v2.258h22.73Zm-27.578,7H25.188V49.826H2.432ZM30,64.046H7.273V66.3H30Z" transform="translate(0)" fill="#443f3d"/>
    <rect id="Rectangle_9744" data-name="Rectangle 9744" width="28.755" height="2.265" transform="translate(40.904 30.848)" fill="#f6c092"/>
    <path id="Path_6926" data-name="Path 6926" d="M96.615,131.575v2.3h-2.4v-2.305c-1.956.128-3.691-.233-4.945-1.778a4.4,4.4,0,0,1-1.041-2.892h2.321c.046.163.092.322.135.482a2.321,2.321,0,0,0,2.323,1.8c1.576.016,3.152.014,4.728,0a2.366,2.366,0,1,0-.008-4.727c-1.6-.022-3.2.012-4.8-.014a4.772,4.772,0,0,1-4.534-3.4,4.558,4.558,0,0,1,2-5.245,9.816,9.816,0,0,1,2.591-.8,5.442,5.442,0,0,1,1.213-.015v-2.3h2.424v2.315a5.423,5.423,0,0,1,4.857,1.675,4.657,4.657,0,0,1,1.139,3h-2.361l-.091-.4a2.313,2.313,0,0,0-2.323-1.888c-1.576-.023-3.152-.018-4.728,0A2.373,2.373,0,0,0,90.6,119.7a2.4,2.4,0,0,0,2.47,2.393c1.721.037,3.445-.036,5.164.043a4.708,4.708,0,0,1,4.326,5.408,4.794,4.794,0,0,1-4.69,4.031c-.382.015-.766,0-1.256,0" transform="translate(-74.983 -96.022)" fill="#f6c092"/>
    <rect id="Rectangle_9745" data-name="Rectangle 9745" width="2.327" height="2.308" transform="translate(52.91 47.421)" fill="#f6c092"/>
    <rect id="Rectangle_9746" data-name="Rectangle 9746" width="2.303" height="2.275" transform="translate(45.715 47.444)" fill="#f6c092"/>
    <rect id="Rectangle_9747" data-name="Rectangle 9747" width="2.298" height="2.303" transform="translate(60.128 47.428)" fill="#f6c092"/>
    <rect id="Rectangle_9748" data-name="Rectangle 9748" width="5.306" height="20.321" transform="translate(62.314 10.481)" fill="#f6c092"/>
    <rect id="Rectangle_9749" data-name="Rectangle 9749" width="5.306" height="14.235" transform="translate(52.773 16.567)" fill="#f6c092"/>
    <rect id="Rectangle_9750" data-name="Rectangle 9750" width="5.306" height="10.613" transform="translate(43.08 20.189)" fill="#f6c092"/>
  </g>
</svg>
