<svg id="ICON-ExportsImports_hover" xmlns="http://www.w3.org/2000/svg" xmlns:xlink="http://www.w3.org/1999/xlink" width="88" height="88" viewBox="0 0 88 88">
  <defs>
    <clipPath id="clip-path">
      <rect id="Rectangle_10479" data-name="Rectangle 10479" width="88" height="88" fill="#023074"/>
    </clipPath>
  </defs>
  <g id="Group_4365" data-name="Group 4365" transform="translate(0)" clip-path="url(#clip-path)">
    <path id="Path_7478" data-name="Path 7478" d="M27.015,211.489h12.1c.622,0,1.244-.009,1.865,0,1.151.02,1.663.532,1.668,1.7.01,2.516,0,5.032,0,7.549q0,5.817,0,11.634c0,1.384-.478,1.855-1.876,1.855q-19.453,0-38.905,0c-1.4,0-1.869-.47-1.87-1.859q0-9.5,0-19.005c0-1.4.467-1.871,1.85-1.878.765,0,1.531,0,2.414,0V210.5q0-8.481,0-16.963c0-1.507.442-1.945,1.961-1.945q9.415,0,18.831,0c1.511,0,1.955.443,1.955,1.953q0,8.437,0,16.874Zm-2.895-.042V194.429H19.906c0,1.4.007,2.665,0,3.935-.009,1.226-.51,1.741-1.715,1.748q-2.532.016-5.064,0c-1.257-.007-1.741-.511-1.748-1.8-.006-1.265,0-2.53,0-3.827h-4.2v16.964ZM2.886,231.327H19.864V214.385H15.64c0,1.35.01,2.647,0,3.944-.012,1.159-.527,1.677-1.687,1.685-1.658.012-3.317.007-4.975,0-1.391,0-1.859-.473-1.864-1.867,0-1.26,0-2.52,0-3.774H2.886Zm19.9.014H39.753V214.4H35.546c0,1.342.008,2.614,0,3.886-.01,1.215-.516,1.72-1.735,1.728-1.658.01-3.317.007-4.975,0-1.332-.005-1.81-.487-1.816-1.825-.006-1.263,0-2.526,0-3.8H22.789Zm-5.768-36.862H14.276v2.728h2.745Zm-4.242,19.927H10.013v2.7h2.766Zm19.865-.007H29.9v2.734h2.741Z" transform="translate(0 -146.112)" fill="#b38e69"/>
    <path id="Path_7479" data-name="Path 7479" d="M83.833,64.593l-2.385-1.274c6.39-13.329,6.493-26.569-.7-39.521a39.782,39.782,0,0,0-25.1-19.516,40,40,0,0,0-23.864.7,40.489,40.489,0,0,0-19.527,13.9A41.012,41.012,0,0,0,3.745,41.2c-.259.015-.459.044-.658.036-.675-.028-1.35-.069-2.021-.1C1.249,29.781,8.356,12.953,25.351,4.6a44.012,44.012,0,0,1,58.483,60" transform="translate(-0.813 0)" fill="#cf8e56"/>
    <path id="Path_7480" data-name="Path 7480" d="M231.281,263.158h-2.308q-5.771,0-11.542,0c-1.284,0-1.782-.495-1.789-1.76q-.012-2.485,0-4.971c.005-1.315.5-1.793,1.843-1.794q6.348-.005,12.7,0h1.1a4.455,4.455,0,0,1,.026-1.32,2.4,2.4,0,0,1,.818-1.318,1.622,1.622,0,0,1,1.448.143c2.4,1.831,4.749,3.725,7.085,5.634a1.369,1.369,0,0,1-.036,2.284c-2.293,1.869-4.594,3.73-6.946,5.523a1.738,1.738,0,0,1-1.516.228c-.418-.217-.663-.869-.855-1.38a4.113,4.113,0,0,1-.024-1.266m-12.754-2.843h1.026c4.176,0,8.351.021,12.527-.015.993-.009,1.75.212,2.1,1.27l3.347-2.679-3.372-2.7c-.306,1.112-1.072,1.3-2.021,1.292-4.2-.023-8.41-.01-12.616-.01h-.995Z" transform="translate(-164.454 -192.095)" fill="#f6c092"/>
    <path id="Path_7481" data-name="Path 7481" d="M225.52,322.71c0,.544.02.958,0,1.37a1.386,1.386,0,0,1-2.263,1.165c-2.411-1.862-4.782-3.776-7.14-5.706a1.344,1.344,0,0,1,.036-2.22c2.338-1.907,4.687-3.8,7.071-5.651a1.388,1.388,0,0,1,2.295,1.1c.029.436,0,.875,0,1.411h1.019q6.348,0,12.7,0c1.462,0,1.924.454,1.928,1.89q.006,2.4,0,4.793c0,1.374-.483,1.843-1.886,1.844q-6.348,0-12.7,0h-1.06m-2.9-1.583c.346-1.083,1.121-1.281,2.108-1.273,4.2.033,8.405.014,12.608.014h.911v-2.844c-4.511,0-8.95-.02-13.389.015-1.021.008-1.874-.126-2.248-1.275l-3.333,2.685,3.343,2.677" transform="translate(-164.383 -237.432)" fill="#f6c092"/>
    <path id="Path_7482" data-name="Path 7482" d="M149.152,87.238l-1.92-1.857L169.275,63.34l1.752,2.024L149.152,87.238" transform="translate(-112.286 -48.306)" fill="#383330"/>
    <path id="Path_7483" data-name="Path 7483" d="M209.4,119.72a5.685,5.685,0,1,1-5.722,5.669,5.695,5.695,0,0,1,5.722-5.669m-.007,8.525a2.839,2.839,0,1,0-2.869-2.787,2.854,2.854,0,0,0,2.869,2.787" transform="translate(-155.332 -91.303)" fill="#383330"/>
    <path id="Path_7484" data-name="Path 7484" d="M149.465,59.829a5.685,5.685,0,1,1-5.692,5.7,5.7,5.7,0,0,1,5.692-5.7m.008,8.524a2.839,2.839,0,1,0-2.853-2.8,2.859,2.859,0,0,0,2.853,2.8" transform="translate(-109.647 -45.628)" fill="#383330"/>
    <path id="Path_7485" data-name="Path 7485" d="M47.168,220.581H30.221V203.618h4.2c0,1.3,0,2.562,0,3.827.006,1.292.491,1.8,1.748,1.8q2.532.014,5.064,0c1.205-.008,1.706-.522,1.715-1.748.009-1.27,0-2.54,0-3.935h4.214Z" transform="translate(-23.048 -155.247)" fill="#fff"/>
    <path id="Path_7486" data-name="Path 7486" d="M12.158,304.553V287.6h4.224c0,1.254,0,2.514,0,3.774,0,1.393.472,1.863,1.864,1.867,1.658,0,3.317.01,4.975,0,1.16-.009,1.676-.526,1.687-1.686.013-1.3,0-2.594,0-3.944h4.224v16.942Z" transform="translate(-9.272 -219.338)" fill="#fff"/>
    <path id="Path_7487" data-name="Path 7487" d="M96.012,304.621V287.672h4.226c0,1.272,0,2.535,0,3.8.006,1.338.484,1.82,1.816,1.825q2.488.009,4.975,0c1.22-.007,1.725-.512,1.735-1.728.01-1.272,0-2.544,0-3.886h4.207v16.94Z" transform="translate(-73.223 -219.391)" fill="#fff"/>
    <rect id="Rectangle_10476" data-name="Rectangle 10476" width="2.745" height="2.728" transform="translate(14.276 48.367)" fill="#fff"/>
    <rect id="Rectangle_10477" data-name="Rectangle 10477" width="2.766" height="2.702" transform="translate(10.013 68.294)" fill="#fff"/>
    <rect id="Rectangle_10478" data-name="Rectangle 10478" width="2.741" height="2.734" transform="translate(29.902 68.287)" fill="#fff"/>
    <path id="Path_7488" data-name="Path 7488" d="M227.812,274.161v-2.843h.995c4.205,0,8.411-.013,12.616.01.949,0,1.715-.18,2.021-1.292l3.372,2.7-3.347,2.679c-.355-1.058-1.112-1.279-2.1-1.27-4.175.036-8.351.015-12.527.015Z" transform="translate(-173.739 -205.941)" fill="#fff"/>
    <path id="Path_7489" data-name="Path 7489" d="M234.612,335.384l-3.343-2.677,3.333-2.685c.374,1.148,1.227,1.282,2.248,1.275,4.439-.035,8.878-.015,13.389-.015v2.844h-.912c-4.2,0-8.405.018-12.608-.014-.987-.008-1.762.19-2.108,1.273" transform="translate(-176.376 -251.688)" fill="#fff"/>
    <path id="Path_7490" data-name="Path 7490" d="M218.533,137.392a2.839,2.839,0,1,1,2.81-2.848,2.862,2.862,0,0,1-2.81,2.848" transform="translate(-164.475 -100.451)" fill="#fff"/>
  </g>
</svg>
