<svg xmlns="http://www.w3.org/2000/svg" xmlns:xlink="http://www.w3.org/1999/xlink" width="91.101" height="70.044" viewBox="0 0 91.101 70.044">
  <defs>
    <clipPath id="clip-path">
      <rect id="Rectangle_10505" data-name="Rectangle 10505" width="91.101" height="70.044" fill="#023074"/>
    </clipPath>
  </defs>
  <g id="ICON-InvestmentFunds_hover" clip-path="url(#clip-path)">
    <path id="Path_7582" data-name="Path 7582" d="M88.939,4.745c-6.969,0-13.938.008-20.907-.015a5.885,5.885,0,0,1-1.9-.337c-3.211-1.13-6.4-2.321-9.606-3.462A14.194,14.194,0,0,0,43.894,2.182Q29.082,11.1,14.295,20.049a3.605,3.605,0,0,0-.938.8,6.307,6.307,0,0,0,6.369,10.032,12.774,12.774,0,0,0,2.663,7.272H21.255q-8.1,0-16.192,0a7.3,7.3,0,0,0-1.239.077A4.763,4.763,0,0,0,0,41.872V69.1a2.338,2.338,0,0,0,2.131.949q31.271-.029,62.543-.016c1.685,0,2.125-.428,2.126-2.085q0-12.366,0-24.732c0-3.249-1.831-5.06-5.081-5.06q-9.653,0-19.305,0h-.7l2.454-5.841c1.376.309,2.855.618,4.32.978a5.9,5.9,0,0,0,3.4-.168c4.457-1.512,8.948-2.928,13.379-4.514a16.893,16.893,0,0,1,6.858-1.1c1.231.078,2.471.014,3.808.014,0,1.415,0,2.712,0,4.008,0,1.619.448,2.078,2.05,2.081q5.516.009,11.032,0c1.631,0,2.085-.476,2.085-2.147q0-12.277,0-24.554c0-1.707-.452-2.161-2.161-2.161M63.7,66.942H3.071V53.391H63.7Zm-12.086-23.2c0-.822,0-1.643,0-2.56h1.319q4.447,0,8.894,0c1.411,0,1.924.513,1.93,1.934.01,2.34,0,4.68,0,7.126H3.045c0-2.591-.032-5.134.019-7.674A1.342,1.342,0,0,1,4.458,41.21c3.522-.039,7.046-.017,10.711-.017,0,.9,0,1.745,0,2.59.012,2.286,1.17,3.466,3.444,3.467q14.765.009,29.529,0c2.344,0,3.464-1.148,3.469-3.509m-3.074-2.56v2.973H18.278V41.182c1.952,0,3.868.022,5.784-.008a7.733,7.733,0,0,1,3.257.6,11.75,11.75,0,0,0,9.816-.247,3.642,3.642,0,0,1,1.434-.329c3.287-.028,6.574-.015,9.97-.015m-21.9-17.959a8.777,8.777,0,0,1,9.834-.476.834.834,0,0,1,.266.7c-.81,3.751.312,6.114,3.784,7.941a.734.734,0,0,1,.361.494,7.662,7.662,0,0,1-1.627,3.831,3.922,3.922,0,0,1-.228.34,4.146,4.146,0,0,1-1.889,1.707l-.033.023.022.019c-2.161,2.087-7.324,2.895-11.074-.229a9.086,9.086,0,0,1-1.974-11.62,3.888,3.888,0,0,1,.328-.506c.041-.06.081-.12.124-.179l.011.011c.037-.044.078-.086.117-.128l.047-.052.052-.053a3.734,3.734,0,0,1,.285-.258c.015-.016.033-.03.048-.045.057-.07.115-.14.172-.209a1.284,1.284,0,0,1,.1-.11c.1-.094.269-.231.438-.36a4.115,4.115,0,0,1,.852-.82l-.019-.019m49.211,1.2a7.123,7.123,0,0,1-1,.046,29.054,29.054,0,0,0-13.27,2.144c-3.5,1.366-7.111,2.438-10.687,3.6a3.355,3.355,0,0,1-1.634.09c-2.437-.5-4.87-1.02-7.283-1.621a3.37,3.37,0,0,1-2.434-3.993,3.47,3.47,0,0,1,3.857-2.672q1.145.158,2.289.318c1.261.179,2.518.408,3.785.517a3.918,3.918,0,0,0,1.695-.252,24.938,24.938,0,0,0,2.469-1.213,1.551,1.551,0,0,0,.89-2.118,1.436,1.436,0,0,0-2.177-.6c-1.885,1.389-3.883,1.07-5.94.72a26.916,26.916,0,0,0-3.613-.434,6.269,6.269,0,0,0-4.12,1.525,12.272,12.272,0,0,0-6.25-2.068,12.07,12.07,0,0,0-12.019,8.237,1.609,1.609,0,0,1-1.246,1.2,3.152,3.152,0,0,1-3.184-.86,3.025,3.025,0,0,1-.766-3.279,2.547,2.547,0,0,1,1-1.27Q30.844,13.564,45.509,4.751a11.211,11.211,0,0,1,9.992-.97c3.344,1.2,6.675,2.431,10.027,3.6a6.672,6.672,0,0,0,2.071.365c2.724.041,5.449.017,8.253.017ZM88.026,30.5H79.018V7.843h9.008Z" transform="translate(0 0)" fill="#f6c092"/>
    <path id="Path_7584" data-name="Path 7584" d="M0,0H2.885V2.951H0Z" transform="translate(82.076 23.832)" fill="#b38e69"/>
    <path id="Path_7583" data-name="Path 7583" d="M2.751,0H4.966c0,.313.014.615,0,.916-.014.228.083.3.289.374.773.294,1.532.625,2.334.958L6.5,4.253c-.441-.226-.848-.452-1.27-.647a2.285,2.285,0,0,0-1.574-.2.959.959,0,0,0-.7.644c-.108.3-.081.57.24.715.714.322,1.431.638,2.154.94A3.069,3.069,0,0,1,7.269,7.843,3.478,3.478,0,0,1,5.3,11.89a.45.45,0,0,0-.336.512c.027.341.006.686.006,1.062H2.751c0-.359.017-.712-.011-1.062a.385.385,0,0,0-.225-.279A7.914,7.914,0,0,1,0,10.794L1.207,8.95c.4.254.767.489,1.135.729a2.5,2.5,0,0,0,1.816.273A1.332,1.332,0,0,0,5.183,8.743.987.987,0,0,0,4.5,7.756c-.732-.314-1.479-.6-2.191-.951A2.559,2.559,0,0,1,.7,4.223,3.1,3.1,0,0,1,2.478,1.489a.408.408,0,0,0,.277-.444c-.018-.34,0-.682,0-1.046" transform="matrix(0.719, -0.695, 0.695, 0.719, 24.111, 29.1)" fill="#b38e69"/>
  </g>
</svg>
