<svg id="Icon-awesome-twitter-square" xmlns="http://www.w3.org/2000/svg" width="29.421" height="29.422" viewBox="0 0 29.421 29.422">
  <path id="Path_64574" data-name="Path 64574" d="M27.806,1.618A5.313,5.313,0,0,0,23.908,0H5.519a5.314,5.314,0,0,0-3.9,1.618A5.314,5.314,0,0,0,0,5.516V23.9a5.314,5.314,0,0,0,1.618,3.9,5.314,5.314,0,0,0,3.9,1.619H23.908A5.526,5.526,0,0,0,29.424,23.9V5.516A5.314,5.314,0,0,0,27.806,1.618Zm-5.3,9.7a5.079,5.079,0,0,1,.019.517,11.59,11.59,0,0,1-1.906,6.331,12.073,12.073,0,0,1-2.308,2.624A10.359,10.359,0,0,1,15.1,22.612a11.711,11.711,0,0,1-4.022.68,11.288,11.288,0,0,1-6.168-1.8,7.762,7.762,0,0,0,.958.057,7.947,7.947,0,0,0,5-1.724,3.817,3.817,0,0,1-2.327-.8A4.088,4.088,0,0,1,7.11,17.029a5.394,5.394,0,0,0,.747.076,3.744,3.744,0,0,0,.977-.153,4.024,4.024,0,0,1-2.356-1.389,3.825,3.825,0,0,1-.958-2.557v-.038a4.75,4.75,0,0,0,1.915.5,3.794,3.794,0,0,1-1.743-3.352,3.984,3.984,0,0,1,.555-2.03,11.4,11.4,0,0,0,3.678,2.969A11.388,11.388,0,0,0,14.561,12.3a3.7,3.7,0,0,1-.1-.919,4.022,4.022,0,0,1,4.022-4.023A3.823,3.823,0,0,1,21.418,8.62a8,8,0,0,0,2.567-.977A3.911,3.911,0,0,1,22.2,9.884a8.527,8.527,0,0,0,2.317-.651A7.823,7.823,0,0,1,22.51,11.32Z" transform="translate(-0.003 0)" fill="#f2f3f9"/>
</svg>
