<svg xmlns="http://www.w3.org/2000/svg" width="17.373" height="17.373" viewBox="0 0 17.373 17.373"><path d="M11.257,1.928a8.687,8.687,0,1,0,8.687,8.687,8.687,8.687,0,0,0-8.687-8.687Zm0,16.288A7.575,7.575,0,0,1,8.25,17.6l3.956-4.45a.543.543,0,0,0,.137-.361V11.158a.543.543,0,0,0-.543-.543c-1.917,0-3.94-1.993-3.959-2.013a.543.543,0,0,0-.384-.159H5.285a.543.543,0,0,0-.543.543v3.258a.543.543,0,0,0,.3.486l1.872.936v3.188a7.605,7.605,0,0,1-2.526-9.5H6.371A.543.543,0,0,0,6.755,7.2L8.927,5.027a.543.543,0,0,0,.159-.384V3.329a7.622,7.622,0,0,1,5.5.452c-.07.059-.139.122-.2.187a3.258,3.258,0,0,0,2.3,5.561q.081,0,.161,0a12.749,12.749,0,0,1-.143,6.317.541.541,0,0,0-.014.089,7.577,7.577,0,0,1-5.432,2.285Z" transform="translate(-2.571 -1.928)" fill="#383330"/></svg>