<?xml version="1.0" encoding="UTF-8"?>
<svg id="Layer_1" data-name="Layer 1" xmlns="http://www.w3.org/2000/svg" viewBox="0 0 132.71 48.15">
  <defs>
    <style>
      .cls-1 {
        fill: #fff;
      }

      .cls-2 {
        fill: #707070;
        font-family: Dubai-Regular, Dubai;
        font-size: 12px;
      }

      .cls-2, .cls-3, .cls-4 {
        isolation: isolate;
      }

      .cls-5 {
        letter-spacing: .06em;
      }

      .cls-6 {
        stroke: #111dbd;
        stroke-linecap: round;
        stroke-width: .8px;
      }

      .cls-6, .cls-4, .cls-7 {
        fill: none;
      }

      .cls-8 {
        fill: #e4f4ff;
        stroke: #e4f4ff;
      }

      .cls-8, .cls-9, .cls-10 {
        stroke-width: 2px;
      }

      .cls-9, .cls-11 {
        fill: #8ec4ec;
      }

      .cls-9, .cls-7 {
        stroke: #8ec4ec;
      }

      .cls-12 {
        letter-spacing: .02em;
      }

      .cls-13 {
        letter-spacing: .07em;
      }

      .cls-14 {
        letter-spacing: .11em;
      }

      .cls-15 {
        letter-spacing: .1em;
      }

      .cls-3 {
        font-family: Dubai-Bold, Dubai;
        font-size: 18px;
        font-weight: 700;
      }

      .cls-3, .cls-16, .cls-10 {
        fill: #001739;
      }

      .cls-17 {
        letter-spacing: .08em;
      }

      .cls-16 {
        stroke-miterlimit: 10;
        stroke-width: 3px;
      }

      .cls-16, .cls-10 {
        stroke: #001739;
      }

      .cls-7 {
        stroke-width: .5px;
      }
    </style>
  </defs>
  <g id="logo">
    <g id="ECONOMIC" class="cls-4">
      <text class="cls-3" transform="translate(32.71 28.53)"><tspan class="cls-17" x="0" y="0">E</tspan><tspan class="cls-5" x="11.29" y="0">C</tspan><tspan class="cls-13" x="22.77" y="0">ONOMIC</tspan></text>
    </g>
    <g id="GATE" class="cls-4">
      <text class="cls-2" transform="translate(32.71 41.15)"><tspan class="cls-15" x="0" y="0">G</tspan><tspan class="cls-12" x="8.96" y="0">A</tspan><tspan class="cls-14" x="16.78" y="0">TE</tspan></text>
    </g>
    <path id="Path_10" data-name="Path 10" class="cls-16" d="m27.75,41.36H1.87V1.93h35.73v8.14h.37V1.5H1.5v40.29h26.25v-.43Z"/>
    <g id="Group_31" data-name="Group 31">
      <g id="Group_23" data-name="Group 23">
        <rect id="Rectangle_36" data-name="Rectangle 36" class="cls-10" x="8.55" y="16.36" width="4.36" height="17.6"/>
        <rect id="Rectangle_37" data-name="Rectangle 37" class="cls-9" x="15.79" y="23.12" width="4.36" height="10.83"/>
        <rect id="Rectangle_38" data-name="Rectangle 38" class="cls-8" x="23.03" y="27.07" width="4.36" height="6.89"/>
      </g>
      <g id="Group_11" data-name="Group 11">
        <path id="Path_3" data-name="Path 3" class="cls-6" d="m9.91,12.69l3.34-2.92,4.94,10.41,5.72-2.22,1.46,7.37h1.1"/>
        <g id="Ellipse_1" data-name="Ellipse 1">
          <circle class="cls-1" cx="24.47" cy="17.54" r="1"/>
          <circle class="cls-7" cx="24.47" cy="17.54" r=".75"/>
        </g>
        <g id="Ellipse_4" data-name="Ellipse 4">
          <circle class="cls-1" cx="26.47" cy="25.32" r="1"/>
          <circle class="cls-7" cx="26.47" cy="25.32" r=".75"/>
        </g>
        <g id="Path_6222" data-name="Path 6222">
          <path class="cls-1" d="m18.84,20.31c-.41,0-.75-.34-.75-.75s.34-.75.75-.75.75.34.75.75-.34.75-.75.75Z"/>
          <path class="cls-11" d="m18.84,19.07c-.27,0-.5.22-.5.5s.22.5.5.5.5-.22.5-.5-.22-.5-.5-.5m0-.5c.55,0,1,.45,1,1s-.45,1-1,1-1-.45-1-1,.45-1,1-1Z"/>
        </g>
        <g id="Ellipse_2" data-name="Ellipse 2">
          <circle class="cls-1" cx="13.48" cy="9.76" r="1"/>
          <circle class="cls-7" cx="13.48" cy="9.76" r=".75"/>
        </g>
        <g id="Path_6223" data-name="Path 6223">
          <path class="cls-1" d="m9.91,13.39c-.41,0-.75-.34-.75-.75s.34-.75.75-.75.75.34.75.75-.34.75-.75.75Z"/>
          <path class="cls-11" d="m9.91,12.15c-.27,0-.5.22-.5.5s.22.5.5.5.5-.22.5-.5-.22-.5-.5-.5m0-.5c.55,0,1,.45,1,1s-.45,1-1,1-1-.45-1-1,.45-1,1-1Z"/>
        </g>
      </g>
    </g>
  </g>
</svg>