<?xml version="1.0" encoding="utf-8"?>
<!-- Generator: Adobe Illustrator 27.7.0, SVG Export Plug-In . SVG Version: 6.00 Build 0)  -->
<svg version="1.1" id="Layer_1" xmlns="http://www.w3.org/2000/svg" xmlns:xlink="http://www.w3.org/1999/xlink" x="0px" y="0px"
	 viewBox="0 0 132.7 48.2" style="enable-background:new 0 0 132.7 48.2;" xml:space="preserve">
<style type="text/css">
	.st0{enable-background:new    ;}
	.st1{fill:#001739;}
	.st2{fill:#707070;}
	.st3{fill:#001739;stroke:#001739;stroke-width:3;stroke-miterlimit:10;}
	.st4{fill:#001739;stroke:#001739;stroke-width:2;}
	.st5{fill:#8EC4EC;stroke:#8EC4EC;stroke-width:2;}
	.st6{fill:#E4F4FF;stroke:#E4F4FF;stroke-width:2;}
	.st7{fill:none;stroke:#111DBD;stroke-width:0.8;stroke-linecap:round;}
	.st8{fill:#FFFFFF;}
	.st9{fill:none;stroke:#8EC4EC;stroke-width:0.5;}
	.st10{fill:#8EC4EC;}
</style>
<g id="logo" transform="translate(1.5 1.5)">
	<g class="st0">
		<path class="st1" d="M35,24.9h5.4V27h-7.9V15.4h7.8v2.1H35v2.6h4.6l-0.3,2.1H35V24.9z"/>
		<path class="st1" d="M44.5,25.7c-0.9-1.1-1.4-2.5-1.4-4.4c0-1.5,0.3-2.7,0.8-3.6c0.5-0.9,1.2-1.6,2-2c0.8-0.4,1.8-0.6,2.8-0.6
			c0.7,0,1.4,0.1,2,0.3c0.6,0.2,1.2,0.4,1.8,0.8l-1,1.9c-0.9-0.6-1.8-0.8-2.8-0.8c-2,0-3.1,1.3-3.1,3.9c0,1.3,0.3,2.3,0.8,3
			c0.6,0.7,1.4,1,2.4,1c0.5,0,1-0.1,1.4-0.2c0.4-0.1,0.8-0.3,1.2-0.6l1,1.8c-0.6,0.4-1.3,0.7-1.9,0.9c-0.6,0.2-1.3,0.3-2,0.3
			C46.9,27.3,45.4,26.7,44.5,25.7z"/>
		<path class="st1" d="M57.3,26.5c-0.9-0.5-1.5-1.2-2-2.2c-0.4-0.9-0.7-2-0.7-3.2c0-1.3,0.3-2.5,0.8-3.4c0.5-0.9,1.3-1.6,2.2-2
			c0.9-0.4,1.9-0.7,3-0.7c1.2,0,2.3,0.3,3.2,0.8c0.9,0.5,1.5,1.2,2,2.2c0.4,0.9,0.7,2,0.7,3.2c0,1.3-0.3,2.5-0.8,3.4
			c-0.5,0.9-1.2,1.6-2.1,2c-0.9,0.4-1.9,0.7-3,0.7C59.2,27.3,58.2,27,57.3,26.5z M62.3,24.7c0.5-0.3,0.9-0.8,1.1-1.4
			c0.2-0.6,0.4-1.3,0.4-2.1c0-1.3-0.3-2.3-0.8-3s-1.3-1.1-2.4-1.1c-1.1,0-1.9,0.4-2.5,1.1c-0.6,0.7-0.8,1.7-0.8,2.9
			c0,1.3,0.3,2.3,0.8,3c0.5,0.7,1.3,1.1,2.4,1.1C61.2,25.2,61.8,25,62.3,24.7z"/>
		<path class="st1" d="M80,15.4V27h-2.8l-3.7-5.4c-0.3-0.5-0.6-0.9-0.8-1.3c-0.2-0.4-0.4-0.8-0.6-1.2V27h-2.5V15.4h2.7l4,6
			c0,0.1,0.2,0.2,0.3,0.5c0.2,0.3,0.3,0.5,0.5,0.7c0.1,0.2,0.3,0.5,0.4,0.7v-7.9H80z"/>
		<path class="st1" d="M86,26.5c-0.9-0.5-1.5-1.2-2-2.2c-0.4-0.9-0.7-2-0.7-3.2c0-1.3,0.3-2.5,0.8-3.4c0.5-0.9,1.3-1.6,2.2-2
			c0.9-0.4,1.9-0.7,3-0.7c1.2,0,2.3,0.3,3.2,0.8c0.9,0.5,1.5,1.2,2,2.2c0.4,0.9,0.7,2,0.7,3.2c0,1.3-0.3,2.5-0.8,3.4
			c-0.5,0.9-1.2,1.6-2.1,2c-0.9,0.4-1.9,0.7-3,0.7C87.9,27.3,86.8,27,86,26.5z M90.9,24.7c0.5-0.3,0.9-0.8,1.1-1.4
			c0.2-0.6,0.4-1.3,0.4-2.1c0-1.3-0.3-2.3-0.8-3s-1.3-1.1-2.4-1.1c-1.1,0-1.9,0.4-2.5,1.1c-0.6,0.7-0.8,1.7-0.8,2.9
			c0,1.3,0.3,2.3,0.8,3c0.5,0.7,1.3,1.1,2.4,1.1C89.8,25.2,90.4,25,90.9,24.7z"/>
		<path class="st1" d="M111,15.4V27h-2.5v-7.3c-0.2,0.4-0.4,1-0.8,1.7l-2,4.1h-2l-2.1-4.1c-0.4-0.7-0.6-1.3-0.8-1.7V27h-2.5V15.4
			h2.6l2.7,5.1c0.2,0.4,0.4,0.8,0.6,1.2c0.2,0.4,0.3,0.8,0.4,1.1c0.2-0.6,0.5-1.3,1-2.3l2.7-5.1H111z"/>
		<path class="st1" d="M114.9,27V15.4h2.5V27H114.9z"/>
		<path class="st1" d="M122.1,25.7c-0.9-1.1-1.4-2.5-1.4-4.4c0-1.5,0.3-2.7,0.8-3.6s1.2-1.6,2-2c0.8-0.4,1.8-0.6,2.8-0.6
			c0.7,0,1.4,0.1,2,0.3c0.6,0.2,1.2,0.4,1.8,0.8l-1,1.9c-0.9-0.6-1.8-0.8-2.8-0.8c-2,0-3.1,1.3-3.1,3.9c0,1.3,0.3,2.3,0.9,3
			s1.4,1,2.4,1c0.5,0,1-0.1,1.4-0.2c0.4-0.1,0.8-0.3,1.2-0.6l1,1.8c-0.6,0.4-1.3,0.7-1.9,0.9s-1.3,0.3-2,0.3
			C124.4,27.3,123,26.7,122.1,25.7z"/>
	</g>
	<g class="st0">
		<path class="st2" d="M38.2,35.3v3.8c-0.5,0.2-0.9,0.4-1.3,0.5c-0.4,0.1-0.9,0.2-1.5,0.2c-0.9,0-1.6-0.2-2.1-0.5
			c-0.6-0.3-1-0.8-1.2-1.4c-0.3-0.6-0.4-1.3-0.4-2.1c0-0.9,0.2-1.7,0.5-2.3c0.3-0.6,0.8-1,1.3-1.3c0.6-0.3,1.2-0.4,1.9-0.4
			c0.5,0,1,0.1,1.4,0.2c0.4,0.1,0.8,0.3,1.2,0.5l-0.5,0.8c-0.3-0.2-0.6-0.3-0.9-0.4c-0.3-0.1-0.7-0.2-1.1-0.2c-0.9,0-1.6,0.3-2,0.8
			c-0.4,0.5-0.6,1.3-0.6,2.2c0,1,0.2,1.8,0.6,2.3s1.1,0.8,2,0.8c0.6,0,1.1-0.1,1.7-0.3v-2.3h-2l0.1-0.9H38.2z"/>
		<path class="st2" d="M44.6,31.9l2.9,7.7v0.1h-1.1l-0.8-2.2h-3.3l-0.8,2.2h-1.1v-0.1l2.9-7.7H44.6z M42.6,36.5h2.6l-1.3-3.6
			L42.6,36.5z"/>
		<path class="st2" d="M54.7,31.9v1H52v6.8h-1.1v-6.8h-2.7v-1H54.7z"/>
		<path class="st2" d="M58.4,38.7h3.8v0.9h-4.9v-7.8h4.9v0.9h-3.8v2.4h3.3l-0.1,0.9h-3.2V38.7z"/>
	</g>
	<path id="Path_10" class="st3" d="M26.2,39.9H0.4V0.4h35.7v8.1h0.4V0H0v40.3h26.2V39.9z"/>
	<g id="Group_31" transform="translate(2.054 7.267)">
		<g id="Group_23" transform="translate(0 2.591)">
			<rect id="Rectangle_36" x="5" y="5" class="st4" width="4.4" height="17.6"/>
			<rect id="Rectangle_37" x="12.2" y="11.8" class="st5" width="4.4" height="10.8"/>
			<rect id="Rectangle_38" x="19.5" y="15.7" class="st6" width="4.4" height="6.9"/>
		</g>
		<g id="Group_11" transform="translate(5.355)">
			<path id="Path_3" class="st7" d="M1,3.9L4.3,1l4.9,10.4L15,9.2l1.5,7.4h1.1"/>
			<g id="Ellipse_1" transform="translate(14.568 7.779)">
				<ellipse class="st8" cx="1" cy="1" rx="1" ry="1"/>
				<ellipse class="st9" cx="1" cy="1" rx="0.7" ry="0.7"/>
			</g>
			<g id="Ellipse_4" transform="translate(16.565 15.558)">
				<ellipse class="st8" cx="1" cy="1" rx="1" ry="1"/>
				<ellipse class="st9" cx="1" cy="1" rx="0.7" ry="0.7"/>
			</g>
			<g id="Path_6222" transform="translate(8.935 9.799)">
				<path class="st8" d="M1,1.7C0.6,1.7,0.3,1.4,0.3,1S0.6,0.3,1,0.3S1.7,0.6,1.7,1S1.4,1.7,1,1.7z"/>
				<path class="st10" d="M1,0.5C0.7,0.5,0.5,0.7,0.5,1S0.7,1.5,1,1.5S1.5,1.3,1.5,1S1.3,0.5,1,0.5 M1,0c0.6,0,1,0.4,1,1S1.5,2,1,2
					S0,1.5,0,1S0.4,0,1,0z"/>
			</g>
			<g id="Ellipse_2" transform="translate(3.574)">
				<ellipse class="st8" cx="1" cy="1" rx="1" ry="1"/>
				<ellipse class="st9" cx="1" cy="1" rx="0.7" ry="0.7"/>
			</g>
			<g id="Path_6223" transform="translate(0 2.88)">
				<path class="st8" d="M1,1.7C0.6,1.7,0.3,1.4,0.3,1S0.6,0.3,1,0.3S1.7,0.6,1.7,1S1.4,1.7,1,1.7z"/>
				<path class="st10" d="M1,0.5C0.7,0.5,0.5,0.7,0.5,1S0.7,1.5,1,1.5S1.5,1.3,1.5,1S1.3,0.5,1,0.5 M1,0c0.6,0,1,0.4,1,1S1.5,2,1,2
					S0,1.5,0,1S0.4,0,1,0z"/>
			</g>
		</g>
	</g>
</g>
</svg>
