<svg xmlns="http://www.w3.org/2000/svg" xmlns:xlink="http://www.w3.org/1999/xlink" width="246.11" height="49.187" viewBox="0 0 246.11 49.187"><defs><clipPath id="a"><path d="M14.71,38.891,21.9,34.662V23.554H14.71Z" transform="translate(-14.71 -23.554)" fill="#f4f4f7"/></clipPath><clipPath id="b"><path d="M25.106,32.906l4.876-2.885,2.32,2.885V17.737h-7.2Z" transform="translate(-25.106 -17.737)" fill="#f4f4f7"/></clipPath><clipPath id="c"><path d="M35.861,35.252l1.206,1.486,5.99-3.767V13.436h-7.2Z" transform="translate(-35.861 -13.436)" fill="#f4f4f7"/></clipPath><clipPath id="d"><path d="M7.738,16.079C7.738,9.8,12.59,4.688,18.555,4.688H42.79a2.544,2.544,0,0,1,2.473,2.6V26.4l-2.292.265L45,29.387,32.224,37.525,26.712,30.35,7.738,41.494ZM18.555,0c-8.42,0-15.27,7.213-15.27,16.079V44.108L0,46.039v3.148L25.016,37.331,31.462,46,48.615,34.64l1.749,2.491,6.559-12.077-7.207.833V7.293A7.124,7.124,0,0,0,42.79,0Z" fill="#F38020"/></clipPath></defs><g transform="translate(-65 -11)"><path d="M4.158,9.734v4.488h5.28v2.046H4.158v4.686H10.1V23H1.65V7.688H10.1V9.734Zm8.624,7.194a6.869,6.869,0,0,1,.759-3.289,5.4,5.4,0,0,1,2.1-2.189,6.078,6.078,0,0,1,3.08-.77,6.043,6.043,0,0,1,3.641,1.045,5.145,5.145,0,0,1,1.947,2.981H21.6A2.862,2.862,0,0,0,20.548,13.3a3.119,3.119,0,0,0-1.826-.506,3.037,3.037,0,0,0-2.453,1.089,4.607,4.607,0,0,0-.913,3.047,4.653,4.653,0,0,0,.913,3.058,3.024,3.024,0,0,0,2.453,1.1A2.783,2.783,0,0,0,21.6,19.172H24.31a5.417,5.417,0,0,1-1.98,2.937A5.843,5.843,0,0,1,18.722,23.2a6.01,6.01,0,0,1-3.08-.781,5.474,5.474,0,0,1-2.1-2.2A6.869,6.869,0,0,1,12.782,16.928ZM32.516,23.2a6.208,6.208,0,0,1-3.1-.781,5.61,5.61,0,0,1-2.178-2.2,6.636,6.636,0,0,1-.792-3.289,6.509,6.509,0,0,1,.814-3.278,5.622,5.622,0,0,1,2.222-2.2,6.812,6.812,0,0,1,6.292,0,5.622,5.622,0,0,1,2.222,2.2,6.509,6.509,0,0,1,.814,3.278,6.374,6.374,0,0,1-.836,3.278,5.789,5.789,0,0,1-2.277,2.211A6.563,6.563,0,0,1,32.516,23.2Zm0-2.178a3.732,3.732,0,0,0,1.815-.462,3.52,3.52,0,0,0,1.375-1.386,4.456,4.456,0,0,0,.528-2.244,4.549,4.549,0,0,0-.506-2.233,3.416,3.416,0,0,0-1.342-1.375,3.67,3.67,0,0,0-1.8-.462,3.609,3.609,0,0,0-1.793.462,3.3,3.3,0,0,0-1.309,1.375A4.719,4.719,0,0,0,29,16.928a4.253,4.253,0,0,0,1,3.025A3.308,3.308,0,0,0,32.516,21.02ZM47.85,10.68a5.436,5.436,0,0,1,2.563.594,4.224,4.224,0,0,1,1.771,1.76,5.79,5.79,0,0,1,.638,2.816V23H50.336V16.224a3.518,3.518,0,0,0-.814-2.5,2.9,2.9,0,0,0-2.222-.869,2.933,2.933,0,0,0-2.233.869,3.489,3.489,0,0,0-.825,2.5V23H41.734V10.878h2.508v1.386A4.151,4.151,0,0,1,45.815,11.1,5.029,5.029,0,0,1,47.85,10.68ZM61.71,23.2a6.208,6.208,0,0,1-3.1-.781,5.61,5.61,0,0,1-2.178-2.2,6.636,6.636,0,0,1-.792-3.289,6.509,6.509,0,0,1,.814-3.278,5.622,5.622,0,0,1,2.222-2.2,6.812,6.812,0,0,1,6.292,0,5.622,5.622,0,0,1,2.222,2.2A6.509,6.509,0,0,1,68,16.928a6.374,6.374,0,0,1-.836,3.278,5.789,5.789,0,0,1-2.277,2.211A6.563,6.563,0,0,1,61.71,23.2Zm0-2.178a3.732,3.732,0,0,0,1.815-.462A3.52,3.52,0,0,0,64.9,19.172a4.456,4.456,0,0,0,.528-2.244,4.549,4.549,0,0,0-.506-2.233A3.416,3.416,0,0,0,63.58,13.32a3.67,3.67,0,0,0-1.8-.462,3.609,3.609,0,0,0-1.793.462,3.3,3.3,0,0,0-1.309,1.375,4.719,4.719,0,0,0-.484,2.233,4.253,4.253,0,0,0,1,3.025A3.308,3.308,0,0,0,61.71,21.02ZM85.6,10.68a5.436,5.436,0,0,1,2.563.594,4.291,4.291,0,0,1,1.782,1.76A5.709,5.709,0,0,1,90.6,15.85V23H88.11V16.224a3.518,3.518,0,0,0-.814-2.5,2.9,2.9,0,0,0-2.222-.869,2.933,2.933,0,0,0-2.233.869,3.489,3.489,0,0,0-.825,2.5V23H79.53V16.224a3.518,3.518,0,0,0-.814-2.5,2.9,2.9,0,0,0-2.222-.869,2.933,2.933,0,0,0-2.233.869,3.489,3.489,0,0,0-.825,2.5V23H70.928V10.878h2.508v1.386A4.17,4.17,0,0,1,75,11.1a4.952,4.952,0,0,1,2.024-.418,5.388,5.388,0,0,1,2.6.616,4.211,4.211,0,0,1,1.76,1.782,4.066,4.066,0,0,1,1.716-1.749A5.075,5.075,0,0,1,85.6,10.68Zm9.9-1.408A1.578,1.578,0,0,1,93.9,7.666,1.578,1.578,0,0,1,95.5,6.06a1.528,1.528,0,0,1,1.122.462,1.647,1.647,0,0,1,0,2.288A1.528,1.528,0,0,1,95.5,9.272Zm1.232,1.606V23H94.226V10.878Zm2.9,6.05a6.869,6.869,0,0,1,.759-3.289,5.4,5.4,0,0,1,2.1-2.189,6.716,6.716,0,0,1,6.721.275,5.145,5.145,0,0,1,1.947,2.981H108.46A2.862,2.862,0,0,0,107.4,13.3a3.119,3.119,0,0,0-1.826-.506,3.037,3.037,0,0,0-2.453,1.089,4.607,4.607,0,0,0-.913,3.047,4.653,4.653,0,0,0,.913,3.058,3.024,3.024,0,0,0,2.453,1.1,2.783,2.783,0,0,0,2.882-1.914h2.706a5.417,5.417,0,0,1-1.98,2.937,5.843,5.843,0,0,1-3.608,1.089,6.01,6.01,0,0,1-3.08-.781,5.474,5.474,0,0,1-2.1-2.2A6.869,6.869,0,0,1,99.638,16.928Zm31.7-4.818a4.042,4.042,0,0,0-1.65-1.727,4.97,4.97,0,0,0-2.442-.583,5.337,5.337,0,0,0-2.706.682,4.779,4.779,0,0,0-1.859,1.936,6.063,6.063,0,0,0-.671,2.9,6.128,6.128,0,0,0,.671,2.915,4.763,4.763,0,0,0,1.859,1.947,5.337,5.337,0,0,0,2.706.682,4.788,4.788,0,0,0,3.322-1.144,4.973,4.973,0,0,0,1.562-3.1H126.39v-2h8.426v1.958a7.553,7.553,0,0,1-7.568,6.556,7.9,7.9,0,0,1-3.938-1,7.463,7.463,0,0,1-2.827-2.783,7.809,7.809,0,0,1-1.045-4.026,7.809,7.809,0,0,1,1.045-4.026,7.441,7.441,0,0,1,2.838-2.783,8.343,8.343,0,0,1,8.272.2,6.827,6.827,0,0,1,2.761,3.4Zm5.544,4.774a6.709,6.709,0,0,1,.759-3.234,5.53,5.53,0,0,1,4.961-2.97,5.292,5.292,0,0,1,2.5.561,5.068,5.068,0,0,1,1.705,1.4v-1.76h2.53V23h-2.53V21.2a4.981,4.981,0,0,1-1.738,1.43A5.625,5.625,0,0,1,139.7,22.4a5.7,5.7,0,0,1-2.057-2.244A6.9,6.9,0,0,1,136.884,16.884Zm9.922.044a4.39,4.39,0,0,0-.517-2.178,3.629,3.629,0,0,0-1.353-1.408,3.54,3.54,0,0,0-1.8-.484,3.6,3.6,0,0,0-1.8.473,3.567,3.567,0,0,0-1.353,1.386,4.327,4.327,0,0,0-.517,2.167,4.516,4.516,0,0,0,.517,2.2,3.648,3.648,0,0,0,1.364,1.441,3.5,3.5,0,0,0,1.793.5,3.54,3.54,0,0,0,1.8-.484,3.611,3.611,0,0,0,1.353-1.419A4.452,4.452,0,0,0,146.806,16.928Zm9.2-4v6.71a1.288,1.288,0,0,0,.319.979,1.586,1.586,0,0,0,1.089.3h1.54V23h-1.98a3.816,3.816,0,0,1-2.6-.792,3.264,3.264,0,0,1-.9-2.574v-6.71h-1.43V10.878h1.43V7.864H156v3.014h2.948v2.046Zm16.808,3.718a7.841,7.841,0,0,1-.088,1.232H163.46a3.364,3.364,0,0,0,1.078,2.332,3.4,3.4,0,0,0,2.376.88,2.935,2.935,0,0,0,2.86-1.694h2.706a5.46,5.46,0,0,1-1.991,2.739,5.842,5.842,0,0,1-3.575,1.067,6.191,6.191,0,0,1-3.113-.781,5.557,5.557,0,0,1-2.156-2.2,6.711,6.711,0,0,1-.781-3.289,6.869,6.869,0,0,1,.759-3.289,5.338,5.338,0,0,1,2.134-2.189,6.351,6.351,0,0,1,3.157-.77,6.174,6.174,0,0,1,3.058.748,5.285,5.285,0,0,1,2.09,2.1A6.328,6.328,0,0,1,172.81,16.642Zm-2.618-.792a2.854,2.854,0,0,0-.99-2.222,3.539,3.539,0,0,0-2.4-.836,3.221,3.221,0,0,0-2.222.825,3.448,3.448,0,0,0-1.1,2.233Z" transform="translate(138.3 21)" fill="#fff"/><g transform="translate(65 11)"><g transform="translate(12.876 21.712)"><g clip-path="url(#a)"><path d="M.311.237,12.756,0l-.311,16.947L0,17.184Z" transform="translate(-5.646 2.277) rotate(-23.163)" fill="#f4f4f7"/></g></g><g transform="translate(21.975 16.35)"><g clip-path="url(#b)"><path d="M.309.236,12.691,0l-.309,16.795L0,17.031Z" transform="translate(-5.586 2.252) rotate(-23.163)" fill="#f4f4f7"/></g></g><g transform="translate(31.389 12.385)"><g clip-path="url(#c)"><path d="M.445.294,15.89,0l-.445,24.214L0,24.508Z" transform="translate(-8.527 3.51) rotate(-23.163)" fill="#f4f4f7"/></g></g><g clip-path="url(#d)"><path d="M1.255,1.358,72.541,0,71.286,68.264,0,69.622Z" transform="translate(-18.579 6.855) rotate(-23.163)" fill="#F38020"/></g></g></g></svg>