<svg id="macro-economy-data" xmlns="http://www.w3.org/2000/svg" xmlns:xlink="http://www.w3.org/1999/xlink" width="77.532" height="77.642" viewBox="0 0 77.532 77.642">
  <defs>
    <clipPath id="clip-path">
      <rect id="Rectangle_22886" data-name="Rectangle 22886" width="77.532" height="77.642" fill="none"/>
    </clipPath>
  </defs>
  <g id="Group_7957" data-name="Group 7957" clip-path="url(#clip-path)">
    <path id="Path_8149" data-name="Path 8149" d="M41.36,209.771h2.584v-.905q0-5.128,0-10.255c0-1.311.418-1.72,1.749-1.721,2.823,0,5.646,0,8.585,0,0-.323,0-.607,0-.89-.025-2.636-.058-5.271-.075-7.907-.008-1.177.43-1.615,1.589-1.617,2.9,0,5.8,0,8.821,0v-.812q0-5.168,0-10.336c0-1.268.426-1.694,1.693-1.7q4.763,0,9.526,0c1.266,0,1.7.429,1.7,1.694q0,17.684,0,35.367c0,1.288-.433,1.7-1.772,1.7q-17.639,0-35.279.014a4.8,4.8,0,0,0-1.542.315,14.328,14.328,0,0,1-11.433-.4,1.026,1.026,0,0,0-.769.032,14,14,0,0,1-12.082.009,1.125,1.125,0,0,0-.836-.006,13.984,13.984,0,0,1-11.644.2A3.324,3.324,0,0,1,0,209.146q.066-15.5,0-31.007a3.38,3.38,0,0,1,2.125-3.375,13.8,13.8,0,0,1,7.782-1.108,14.468,14.468,0,0,1,3.684,1.075,3.151,3.151,0,0,1,2.032,3.249c-.079,2.77-.022,5.544-.022,8.316v.855c.938-.189,1.788-.409,2.653-.525a14.588,14.588,0,0,1,6.541.357,10.333,10.333,0,0,1,2.6,1.39,2.584,2.584,0,0,1,1.07,2.321c-.03,1.02-.007,2.042-.007,3.154a13.511,13.511,0,0,1,5.839-.813,22.721,22.721,0,0,1,4.55.932,3.434,3.434,0,0,1,2.544,3.732c-.1,3.712-.028,7.428-.028,11.142Zm25.93-.07h7.565V176.3H67.29Zm-2.762-20.4a1.306,1.306,0,0,0-.3-.1c-2.26-.006-4.519,0-6.779-.019-.532,0-.531.3-.531.677q.005,9.606-.008,19.212c0,.539.178.688.7.682,2.1-.024,4.2-.008,6.295-.014a4.99,4.99,0,0,0,.623-.08ZM54.2,204.642c0-1.452-.019-2.9.009-4.355.011-.561-.184-.756-.747-.749q-3.063.036-6.128,0c-.562-.007-.751.188-.747.748q.03,4.355,0,8.71c0,.56.184.756.746.749q3.063-.036,6.128,0c.562.007.758-.187.747-.749-.028-1.451-.009-2.9-.009-4.355M2.65,180.612c0,.961.035,1.82-.013,2.674a.89.89,0,0,0,.66,1.043,24.778,24.778,0,0,0,3.421.8,10.215,10.215,0,0,0,5.433-.754c.287-.128.686-.42.705-.663.08-1,.033-2.017.033-3.091a16.274,16.274,0,0,1-10.239-.009M2.65,200c0,.956.033,1.837-.013,2.715a.845.845,0,0,0,.63.98,25.406,25.406,0,0,0,3.417.812,10.226,10.226,0,0,0,5.435-.736c.293-.128.714-.407.733-.643.081-1.021.035-2.053.035-3.129A16.287,16.287,0,0,1,2.65,200m12.918,0c0,.972.036,1.832-.013,2.686a.891.891,0,0,0,.673,1.035,24.436,24.436,0,0,0,3.422.8,10.17,10.17,0,0,0,5.357-.733c.309-.136.741-.442.765-.7.09-1,.036-2.01.036-3.083a16.227,16.227,0,0,1-10.24,0m12.918,0c0,.972.036,1.832-.013,2.687a.891.891,0,0,0,.674,1.034,24.487,24.487,0,0,0,3.422.8,10.17,10.17,0,0,0,5.357-.733c.309-.136.741-.442.764-.7.09-1,.036-2.01.036-3.083a16.223,16.223,0,0,1-10.24,0M2.65,187.075c0,.921.048,1.755-.015,2.58a1.015,1.015,0,0,0,.8,1.2,23.647,23.647,0,0,0,3.354.746,10.284,10.284,0,0,0,5.353-.764c.3-.133.695-.465.719-.734.087-.977.034-1.967.034-3.031a16.2,16.2,0,0,1-10.242,0m0,6.464c0,.918.046,1.77-.015,2.614a.974.974,0,0,0,.757,1.146,23.588,23.588,0,0,0,3.351.757,10.263,10.263,0,0,0,5.356-.74c.307-.135.732-.447.755-.708.089-1,.036-2.006.036-3.071a16.275,16.275,0,0,1-10.241,0m23.163,0a16.273,16.273,0,0,1-10.245,0c0,.895.055,1.723-.017,2.54a1.046,1.046,0,0,0,.84,1.254,23.426,23.426,0,0,0,3.277.725,10.162,10.162,0,0,0,5.426-.784,1.288,1.288,0,0,0,.686-.835c.09-.929.033-1.872.033-2.9M2.65,206.46c0,.955.032,1.835-.012,2.711a.844.844,0,0,0,.625.982,25.473,25.473,0,0,0,3.5.824,10.231,10.231,0,0,0,5.355-.744c.294-.128.718-.4.737-.639.082-1.022.035-2.054.035-3.133a16.285,16.285,0,0,1-10.237,0m12.918-.007c0,.948.045,1.807-.015,2.66a.93.93,0,0,0,.72,1.088,24.365,24.365,0,0,0,3.347.771,10.279,10.279,0,0,0,5.432-.751c.3-.132.7-.462.723-.731.087-.978.035-1.969.035-3.025a16.283,16.283,0,0,1-10.242-.012m12.918.071c0,.891.033,1.772-.012,2.649a.844.844,0,0,0,.628.981,25.451,25.451,0,0,0,3.5.823,10.234,10.234,0,0,0,5.355-.745c.294-.127.716-.4.735-.641.081-1.022.035-2.053.035-3.111-3.932,1.042-4.519,1.043-10.237.043M12.776,177.507c-1.843-1.717-8.516-1.6-9.961,0,1.439,1.6,8.1,1.721,9.961,0m2.954,12.929c1.7,1.75,8.782,1.574,9.92-.056-1.889-1.695-8.553-1.526-9.92.056M28.6,196.888c1.908,1.731,8.561,1.589,9.964,0-1.366-1.574-8.029-1.744-9.964,0" transform="translate(0 -136.091)" fill="#443f3d"/>
    <path id="Path_8150" data-name="Path 8150" d="M26.67,13.7A28.411,28.411,0,0,0,20.994,27.13c.282.023.508.056.734.057,1.642,0,3.284.038,4.924-.012a2.038,2.038,0,0,1,1.893.965c.883,1.253,1.8,2.482,2.769,3.673a1.548,1.548,0,0,0,1.041.522c2.879.042,5.759.04,8.638.013a1.765,1.765,0,0,1,1.7.967c1.14,1.95,2.323,3.875,3.48,5.815A1.43,1.43,0,0,1,45.73,41.4c-1.287.974-2.6,1.92-3.86,2.924a1.419,1.419,0,0,0-.463.911c-.064.85-.022,1.709-.022,2.641H38.743c0-1.42-.05-2.863.037-4.3.021-.338.463-.705.788-.961,1.222-.961,2.476-1.881,3.789-2.87-.912-1.511-1.778-2.992-2.707-4.432-.127-.2-.563-.27-.857-.272-2.718-.02-5.437-.051-8.154.009a2.3,2.3,0,0,1-2.164-1.076q-1.265-1.821-2.68-3.536a1.727,1.727,0,0,0-1.124-.552c-1.342-.067-2.69-.011-4.035-.033-.5-.008-.783.14-.767.671.037,1.206.018,2.418.143,3.615.067.641-.152.853-.7.87-.612.019-1.224,0-2,0-.992-10.577,2.128-19.688,10.048-26.9a30.424,30.424,0,0,1,34.476-4.81C73.057,8.446,78.6,16.971,80.061,28.292c-.732.157-1.328.287-1.924.413-.957.2-.9-.555-.955-1.091a26.94,26.94,0,0,0-1.965-7.453,28.777,28.777,0,0,0-5.831-8.844c-.446-.468-.735-.512-1.247-.065q-2.493,2.174-5.082,4.238a.909.909,0,0,0-.3,1.286c.606,1.407,1.139,2.846,1.729,4.26a2.07,2.07,0,0,1-.294,2.255c-1.139,1.465-2.242,2.958-3.344,4.452a1.886,1.886,0,0,1-1.71.843q-2.42-.071-4.843.006a2.659,2.659,0,0,0-1.315.448c-.938.627-1.81,1.351-2.729,2.006-.37.264-.4.489-.149.86C51.245,33.6,52.352,35.32,53.524,37a1.338,1.338,0,0,0,.934.446c1.236.052,2.475.009,3.713.026a1.232,1.232,0,0,1,1.353,1.278c.016,2.934,0,5.868,0,8.8a2.24,2.24,0,0,1-.064.352H56.885V40.137c-1.214,0-2.336-.03-3.456.011a1.819,1.819,0,0,1-1.746-.91c-1.559-2.387-3.157-4.749-4.733-7.124-.675-1.018-.572-1.576.414-2.318,1.526-1.149,3.039-2.317,4.6-3.42a2.716,2.716,0,0,1,1.4-.457c1.586-.056,3.175-.038,4.762-.011a1.139,1.139,0,0,0,1.075-.522c.73-1.032,1.493-2.042,2.274-3.036a.946.946,0,0,0,.151-1.087c-.654-1.562-1.264-3.141-1.89-4.714-.482-1.211-.4-1.5.622-2.349q2.949-2.452,5.891-4.911c.16-.133.305-.283.643-.6-1.866-1.1-3.635-2.151-5.423-3.168-.128-.073-.46.044-.594.177q-3.786,3.75-7.53,7.542a1.45,1.45,0,0,0-.315.925c-.027,2.045-.036,4.092,0,6.137a1.853,1.853,0,0,1-.9,1.752c-2.385,1.561-4.746,3.158-7.123,4.732-.979.648-1.419.6-2.259-.24-1.317-1.31-2.641-2.612-3.932-3.947a1.641,1.641,0,0,0-1.331-.564c-1.614.038-3.229.019-4.844.012-1.153-.005-1.6-.459-1.609-1.62s-.021-2.315.008-3.472a.932.932,0,0,0-.528-.96c-1.26-.718-2.492-1.483-3.835-2.289M58.31,4.58l-.189-.332a28.035,28.035,0,0,0-17.672-.079A27.591,27.591,0,0,0,28.605,11.66c1.476.894,2.82,1.724,4.181,2.526a1.654,1.654,0,0,1,.921,1.644c-.045.858.031,1.723-.023,2.581-.045.725.167,1.016.941.977,1.207-.061,2.422.033,3.628-.033a2.464,2.464,0,0,1,2.054.867c1.095,1.148,2.248,2.24,3.352,3.379a.672.672,0,0,0,1.028.116c1.685-1.155,3.409-2.253,5.079-3.43a1.5,1.5,0,0,0,.544-1.04c.053-1.881.075-3.767,0-5.647a2.7,2.7,0,0,1,.93-2.191c1.906-1.859,3.766-3.764,5.66-5.635.436-.431.935-.8,1.4-1.2" transform="translate(-14.22 0)" fill="#cf8e56"/>
    <path id="Path_8151" data-name="Path 8151" d="M211.658,110.771h-1.917v-2.592c1.769,0,3.537-.049,5.3.024.736.031,1.1.617,1.1,1.361,0,1.641,0,3.282,0,4.99h-2.564v-1.942c-.344.32-.556.5-.755.7-2.247,2.244-4.5,4.481-6.734,6.737q-7.975,8.056-15.939,16.124c-.887.895-1.816,1.75-2.766,2.578a1.714,1.714,0,0,1-1.007.409c-2.1.037-4.193.019-6.354.019v-2.609c1.148,0,2.326-.074,3.49.018a4.3,4.3,0,0,0,3.808-1.521c5.823-6.046,11.813-11.933,17.762-17.858,1.959-1.951,3.971-3.85,5.956-5.776.185-.179.352-.377.62-.666" transform="translate(-141.195 -84.834)" fill="#cf8e56"/>
    <rect id="Rectangle_22885" data-name="Rectangle 22885" width="2.526" height="2.527" transform="translate(33.638 51.782)"/>
    <path id="Path_8152" data-name="Path 8152" d="M12.23,206.423a16.276,16.276,0,0,0,10.239.009c0,1.075.046,2.088-.033,3.091-.019.242-.418.535-.705.662a10.216,10.216,0,0,1-5.433.755,24.809,24.809,0,0,1-3.421-.8.89.89,0,0,1-.66-1.043c.047-.855.013-1.714.013-2.674" transform="translate(-9.58 -161.901)" fill="#cf8e56"/>
    <path id="Path_8153" data-name="Path 8153" d="M12.232,296.311a16.286,16.286,0,0,0,10.238,0c0,1.077.046,2.108-.035,3.129-.019.236-.44.515-.733.643a10.222,10.222,0,0,1-5.435.736,25.41,25.41,0,0,1-3.417-.812.845.845,0,0,1-.63-.98c.046-.877.013-1.759.013-2.715" transform="translate(-9.582 -232.402)" fill="#cf8e56"/>
    <path id="Path_8154" data-name="Path 8154" d="M72.124,296.3a16.226,16.226,0,0,0,10.24,0c0,1.073.053,2.084-.036,3.083-.023.259-.455.565-.765.7a10.17,10.17,0,0,1-5.357.733,24.461,24.461,0,0,1-3.422-.8.891.891,0,0,1-.673-1.035c.049-.855.013-1.714.013-2.686" transform="translate(-56.556 -232.392)" fill="#cf8e56"/>
    <path id="Path_8155" data-name="Path 8155" d="M132.02,296.3a16.223,16.223,0,0,0,10.24,0c0,1.073.053,2.084-.036,3.083-.023.259-.455.565-.764.7a10.17,10.17,0,0,1-5.357.733,24.461,24.461,0,0,1-3.422-.8.891.891,0,0,1-.673-1.035c.049-.855.013-1.714.013-2.686" transform="translate(-103.533 -232.392)" fill="#cf8e56"/>
    <path id="Path_8165" data-name="Path 8165" d="M132.02,296.3a16.223,16.223,0,0,0,10.24,0c0,1.073.053,2.084-.036,3.083-.023.259-.455.565-.764.7a10.17,10.17,0,0,1-5.357.733,24.461,24.461,0,0,1-3.422-.8.891.891,0,0,1-.673-1.035c.049-.855.013-1.714.013-2.686" transform="translate(-103.533 -225.516)" fill="#cf8e56" stroke="#cf8e56" stroke-width="1"/>
    <path id="Path_8156" data-name="Path 8156" d="M12.21,236.379a16.2,16.2,0,0,0,10.242,0c0,1.064.052,2.053-.034,3.031-.024.269-.418.6-.718.734a10.285,10.285,0,0,1-5.353.764,23.678,23.678,0,0,1-3.354-.746,1.015,1.015,0,0,1-.8-1.2c.063-.825.015-1.659.015-2.58" transform="translate(-9.56 -185.395)" fill="#cf8e56"/>
    <path id="Path_8157" data-name="Path 8157" d="M12.212,266.349a16.276,16.276,0,0,0,10.241,0c0,1.065.053,2.074-.036,3.071-.023.261-.448.573-.755.708a10.26,10.26,0,0,1-5.356.74,23.621,23.621,0,0,1-3.351-.757.974.974,0,0,1-.757-1.147c.062-.844.015-1.7.015-2.614" transform="translate(-9.562 -208.901)" fill="#cf8e56"/>
    <path id="Path_8158" data-name="Path 8158" d="M82.336,266.338c0,1.032.057,1.976-.033,2.9a1.288,1.288,0,0,1-.686.835,10.159,10.159,0,0,1-5.426.784,23.359,23.359,0,0,1-3.277-.725,1.046,1.046,0,0,1-.84-1.254c.072-.817.017-1.645.017-2.54a16.271,16.271,0,0,0,10.245,0" transform="translate(-56.523 -208.894)" fill="#cf8e56"/>
    <path id="Path_8159" data-name="Path 8159" d="M12.234,326.266a16.285,16.285,0,0,0,10.237,0c0,1.079.047,2.111-.035,3.133-.019.235-.443.511-.737.639a10.231,10.231,0,0,1-5.356.744,25.482,25.482,0,0,1-3.5-.824.844.844,0,0,1-.625-.982c.044-.876.012-1.756.012-2.711" transform="translate(-9.584 -255.897)" fill="#cf8e56"/>
    <path id="Path_8160" data-name="Path 8160" d="M72.11,326.235a16.284,16.284,0,0,0,10.242.012c0,1.056.053,2.047-.034,3.025-.024.268-.422.6-.723.731a10.283,10.283,0,0,1-5.433.751,24.391,24.391,0,0,1-3.347-.771.93.93,0,0,1-.72-1.088c.06-.852.015-1.711.015-2.659" transform="translate(-56.542 -255.872)" fill="#cf8e56"/>
    <path id="Path_8161" data-name="Path 8161" d="M23.013,187.494c-1.857,1.72-8.522,1.6-9.961,0,1.445-1.6,8.118-1.716,9.961,0" transform="translate(-10.237 -146.078)" fill="#cf8e56"/>
    <path id="Path_8162" data-name="Path 8162" d="M72.933,247.391c1.368-1.583,8.031-1.751,9.92-.056-1.139,1.631-8.216,1.806-9.92.056" transform="translate(-57.203 -193.046)" fill="#cf8e56"/>
    <path id="Path_8163" data-name="Path 8163" d="M132.626,277.356c1.935-1.745,8.6-1.575,9.964,0-1.4,1.589-8.056,1.732-9.964,0" transform="translate(-104.021 -216.559)" fill="#cf8e56"/>
  </g>
</svg>
