<svg xmlns="http://www.w3.org/2000/svg" xmlns:xlink="http://www.w3.org/1999/xlink" width="71.203" height="75.421" viewBox="0 0 71.203 75.421">
  <defs>
    <clipPath id="clip-path">
      <rect id="Rectangle_22881" data-name="Rectangle 22881" width="71.203" height="75.421" fill="#383330"/>
    </clipPath>
  </defs>
  <g id="oil-gas-fuel-price-data-hover" transform="translate(-21.797 -5.598)">
    <g id="Group_7953" data-name="Group 7953" transform="translate(21.797 5.598)">
      <g id="Group_7953-2" data-name="Group 7953" clip-path="url(#clip-path)">
        <path id="Path_8128" data-name="Path 8128" d="M180.135,140.1c-1.479-.331-3-.541-4.43-1.012a18.927,18.927,0,0,1-12.1-23.749c.066-.206.115-.417.2-.714-.567,0-1.074.006-1.581,0a.9.9,0,0,1-.99-.948c-.012-.2-.009-.393-.009-.589q0-10.643,0-21.286c0-1.331.173-1.507,1.472-1.507q3.352,0,6.7,0c1.015,0,1.3.289,1.3,1.323q0,6.518,0,13.037v.891c.259-.145.415-.246.581-.324,1.613-.761,3.212-1.557,4.853-2.252.513-.217.707-.414.7-.977-.02-6.506-.013-13.012-.013-19.518,0-1.911.037-1.948,1.931-1.948q3.02,0,6.041,0c1.285,0,1.513.227,1.513,1.488q0,9.833,0,19.665v.927c.21.077.4.163.607.221a18.994,18.994,0,0,1-2.091,37c-.53.087-1.059.182-1.589.274Zm1.546-36.149a17.137,17.137,0,1,0,17.17,17.095,17.164,17.164,0,0,0-17.17-17.095m-2.966-1.76h5.65V82.388h-5.65Zm-9.895-10.02H163.1v20.531c1.4.218,1.325.168,2.068-.918.981-1.431,2.062-2.8,3.161-4.14a1.774,1.774,0,0,0,.5-1.22c-.018-4.492-.01-8.984-.01-13.477v-.777" transform="translate(-129.497 -64.683)" fill="#cf8e56"/>
        <path id="Path_8129" data-name="Path 8129" d="M9.467,19.193A5.511,5.511,0,0,1,5.9,21.274a5.221,5.221,0,1,1,4.534-5.51,1.929,1.929,0,0,1-.014.731c-.349.912.225,1.291.862,1.719,1.73,1.165,3.431,2.372,5.145,3.561a.831.831,0,0,0,.2.056,5.283,5.283,0,0,1,8.737.466,4.508,4.508,0,0,0,.423-.281c1.8-1.516,3.6-3.04,5.411-4.55a.689.689,0,0,0,.3-.85,5.156,5.156,0,0,1,2.26-6.059,5.227,5.227,0,0,1,6.322.717c.072.065.146.127.26.224.167-.136.338-.261.494-.4,1.83-1.673,3.651-3.356,5.494-5.015a1.465,1.465,0,0,0,.522-1.128,5.219,5.219,0,1,1,5.035,5.489,5.113,5.113,0,0,1-4.069-2.183c-.142-.193-.274-.392-.445-.637-1.954,1.791-3.877,3.535-5.765,5.319-.155.146-.134.572-.071.84a5.243,5.243,0,0,1-8.869,4.868c-1.207,1.015-2.406,2.02-3.6,3.027-.826.7-1.628,1.423-2.483,2.082a1.277,1.277,0,0,0-.538,1.173,5.191,5.191,0,0,1-10.2,1.446,12.723,12.723,0,0,1-.153-2.248c-.019-.243-.025-.594-.176-.7C13.518,22,11.5,20.608,9.467,19.193m26.959-7.548a3.381,3.381,0,0,0,.011,6.762,3.381,3.381,0,1,0-.011-6.762M5.223,19.46a3.381,3.381,0,0,0,3.4-3.338A3.428,3.428,0,0,0,5.2,12.711,3.383,3.383,0,0,0,1.863,16.1a3.347,3.347,0,0,0,3.36,3.356M48.7,5.245a3.327,3.327,0,0,0,3.38,3.344A3.363,3.363,0,1,0,48.7,5.245M20.876,28.318a3.364,3.364,0,1,0-3.4-3.308,3.337,3.337,0,0,0,3.4,3.308" transform="translate(0 -0.001)" fill="#383330"/>
        <path id="Path_8130" data-name="Path 8130" d="M12.047,147.895q0,5.078,0,10.155c0,1.071-.27,1.339-1.35,1.34q-3.422,0-6.845,0c-1,0-1.263-.264-1.264-1.266q0-10.3,0-20.6c0-1,.268-1.264,1.263-1.265q3.459-.005,6.919,0c.979,0,1.275.292,1.276,1.265q.005,5.188,0,10.376m-1.9-9.741h-5.7V157.5h5.7Z" transform="translate(-2.077 -109.443)" fill="#cf8e56"/>
        <path id="Path_8131" data-name="Path 8131" d="M81.9,188.267c0-1.963,0-3.926,0-5.889,0-1.009.258-1.258,1.267-1.26q3.46-.006,6.921,0c.983,0,1.274.287,1.275,1.264q.006,5.889,0,11.778c0,.97-.3,1.264-1.279,1.266q-3.461.007-6.921,0c-1,0-1.259-.265-1.263-1.27-.006-1.963,0-3.926,0-5.889m1.878,5.257h5.685V182.992H83.781Z" transform="translate(-65.787 -145.48)" fill="#cf8e56"/>
        <path id="Path_8132" data-name="Path 8132" d="M213.736,236.57a8.877,8.877,0,0,1,1.66-5.383q3.731-5.157,7.434-10.335c.793-1.1,1.32-1.1,2.123.018,2.405,3.346,4.743,6.744,7.233,10.026a9.3,9.3,0,0,1-1.276,12.525,9.681,9.681,0,0,1-10.093,2.316,9.833,9.833,0,0,1-6.961-7.925,10.281,10.281,0,0,1-.12-1.242m10.146-14.011c-.084.119-.125.179-.168.238-2.362,3.284-4.75,6.549-7.073,9.86a6.081,6.081,0,0,0-1.031,4.417,8.364,8.364,0,0,0,13.662,5.339,7.419,7.419,0,0,0,1.561-10.2q-1.759-2.449-3.522-4.9l-3.429-4.763" transform="translate(-171.683 -176.737)" fill="#cf8e56"/>
        <path id="Path_8133" data-name="Path 8133" d="M231.265,232.889l3.43,4.763q1.762,2.447,3.522,4.9a7.42,7.42,0,0,1-1.561,10.2,8.364,8.364,0,0,1-13.663-5.339,6.081,6.081,0,0,1,1.031-4.417c2.322-3.312,4.711-6.576,7.073-9.86.043-.059.084-.12.168-.238m5.245,13.255c.046-.84-.217-1.3-.805-1.323-.622-.027-.934.314-1,.928-.274,2.464-1.456,3.645-3.944,3.948-.591.072-.975.35-.979.977,0,.551.462.9,1.129.888a5.84,5.84,0,0,0,5.6-5.417" transform="translate(-179.065 -187.067)" fill="#f6c092"/>
        <path id="Path_8134" data-name="Path 8134" d="M264.485,294.852a5.84,5.84,0,0,1-5.6,5.417c-.668.01-1.133-.337-1.129-.888,0-.627.388-.905.979-.977,2.487-.3,3.669-1.484,3.944-3.948.068-.613.38-.954,1-.928.588.025.851.483.806,1.323" transform="translate(-207.041 -235.775)" fill="#cf8e56"/>
      </g>
    </g>
  </g>
</svg>
