<svg xmlns="http://www.w3.org/2000/svg" width="53.245" height="47.105" viewBox="0 0 53.245 47.105">
  <g id="OpenChart" transform="translate(-803.5 -426.5)">
    <rect id="Rectangle_28121" data-name="Rectangle 28121" width="52.245" height="46.105" rx="9" transform="translate(804 427)" fill="none" stroke="#cacaca" stroke-width="1"/>
    <g id="Group_116518" data-name="Group 116518" transform="translate(815.002 435.002)">
      <path id="Path_55814" data-name="Path 55814" d="M13.519,4.5H8.785a5.272,5.272,0,0,0-5.41,5.12V14.1A1.1,1.1,0,0,0,4.5,15.166,1.1,1.1,0,0,0,5.629,14.1V9.543a2.853,2.853,0,0,1,.942-2A3.155,3.155,0,0,1,8.7,6.633h4.814a1.1,1.1,0,0,0,1.127-1.067A1.1,1.1,0,0,0,13.519,4.5Z" transform="translate(-3.375 -4.5)" fill="#2d435e"/>
      <path id="Path_55815" data-name="Path 55815" d="M28.723,4.5H23.908a1.1,1.1,0,0,0-1.127,1.067,1.1,1.1,0,0,0,1.127,1.067h4.814a3.155,3.155,0,0,1,2.133.914,2.853,2.853,0,0,1,.942,2V14.1a1.129,1.129,0,0,0,2.254,0V9.543A5.2,5.2,0,0,0,28.723,4.5Z" transform="translate(-4.248 -4.5)" fill="#2d435e"/>
      <path id="Path_55816" data-name="Path 55816" d="M13.519,30.189H8.7a3.155,3.155,0,0,1-2.134-.914,2.853,2.853,0,0,1-.942-2V22.723A1.1,1.1,0,0,0,4.5,21.656a1.1,1.1,0,0,0-1.127,1.067v4.556A5.2,5.2,0,0,0,8.7,32.322h4.814a1.068,1.068,0,1,0,0-2.133Z" transform="translate(-3.375 -1.715)" fill="#2d435e"/>
      <path id="Path_55817" data-name="Path 55817" d="M32.925,21.656A1.1,1.1,0,0,0,31.8,22.723v4.556a2.853,2.853,0,0,1-.942,2,3.155,3.155,0,0,1-2.133.914H23.908a1.068,1.068,0,1,0,0,2.133h4.734a5.277,5.277,0,0,0,5.41-5.12v-4.48a1.1,1.1,0,0,0-1.127-1.07Z" transform="translate(-4.248 -1.715)" fill="#2d435e"/>
    </g>
  </g>
</svg>
