<svg xmlns="http://www.w3.org/2000/svg" width="53" height="53" viewBox="0 0 53 53">
  <g id="Share_icon" transform="translate(-1636.5 -115.5)">
    <rect id="Rectangle_23003" data-name="Rectangle 23003" width="52" height="52" rx="10" transform="translate(1637 168) rotate(-90)" fill="none" stroke="#cacaca" stroke-width="1"/>
    <g id="svgexport-21" transform="translate(1650.57 128.552)">
      <path id="Path_64678" data-name="Path 64678" d="M36.529,17.972a4.68,4.68,0,0,0-3.8,1.985l-7.466-3.933a4.721,4.721,0,0,0-.139-3.182l7.813-4.827a4.657,4.657,0,0,0,3.59,1.73,4.812,4.812,0,0,0,4.738-4.872,4.739,4.739,0,1,0-9.474,0,4.948,4.948,0,0,0,.329,1.752l-7.837,4.85A4.654,4.654,0,0,0,20.738,9.8a4.874,4.874,0,0,0,0,9.746A4.687,4.687,0,0,0,24.582,17.5l7.442,3.917a4.932,4.932,0,0,0-.232,1.43,4.739,4.739,0,1,0,4.737-4.879Z" transform="translate(-15.987 -0.012)" fill="#2d435e"/>
    </g>
  </g>
</svg>
