<svg id="tasi-financial-ratios-hover" xmlns="http://www.w3.org/2000/svg" xmlns:xlink="http://www.w3.org/1999/xlink" width="76" height="63.933" viewBox="0 0 76 63.933">
  <defs>
    <clipPath id="clip-path">
      <rect id="Rectangle_759" data-name="Rectangle 759" width="60.885" height="54.738" fill="none"/>
    </clipPath>
  </defs>
  <g id="Group_1181" data-name="Group 1181" transform="translate(0 0)">
    <g id="Mask_Group_1" data-name="Mask Group 1" transform="translate(0 0)" clip-path="url(#clip-path)">
      <path id="Path_1" data-name="Path 1" d="M56.422,51.161V2.509c0-.211.005-.423,0-.634A1.769,1.769,0,0,0,54.592.015q-5.93-.029-11.861,0c-1.2.006-1.823.759-1.824,2.105q-.007,7.613,0,15.226v.8H32.6V17.44q0-4.028,0-8.057a1.844,1.844,0,0,0-2.1-2.106q-5.645-.005-11.291,0c-1.442,0-2.118.689-2.119,2.149q0,9.484,0,18.969v.815h-.744q-4.5,0-9.007,0c-1.495,0-2.164.671-2.164,2.168q0,9.452,0,18.905v.84c-.987,0-1.932-.009-2.878,0a4.17,4.17,0,0,0-1.066.106A1.79,1.79,0,0,0,.01,53.1a1.809,1.809,0,0,0,1.611,1.621,6.417,6.417,0,0,0,.7.015q28.131,0,56.262-.005a3.721,3.721,0,0,0,1.182-.147,1.741,1.741,0,0,0,1.105-1.929,1.682,1.682,0,0,0-1.511-1.481c-.944-.059-1.895-.014-2.934-.014m-3.687-.09H44.544V3.633h8.191Zm-23.773,0H20.736V10.937h8.226Zm3.676-29.211H40.85V51.077H32.638Zm-15.57,29.2H8.863V32.836h8.206Z" transform="translate(0.001 0)" fill="#cf8e56"/>
    </g>
  </g>
  <ellipse id="Ellipse_11" data-name="Ellipse 11" cx="18.5" cy="18" rx="18.5" ry="18" transform="translate(39 27.933)" fill="#fff"/>
  <g id="Path_8202" data-name="Path 8202" transform="translate(42 29.933)" fill="#fff">
    <path d="M 15.5 30.5 C 11.76949024200439 30.5 8.259710311889648 28.99776077270508 5.617209911346436 26.27001953125 C 2.962189912796021 23.52935028076172 1.5 19.88205909729004 1.5 16 C 1.5 12.11793994903564 2.962189912796021 8.470649719238281 5.617209911346436 5.729979991912842 C 8.259710311889648 3.002239942550659 11.76949024200439 1.5 15.5 1.5 C 19.23051071166992 1.5 22.74028968811035 3.002239942550659 25.38278961181641 5.729979991912842 C 28.03780937194824 8.470649719238281 29.5 12.11793994903564 29.5 16 C 29.5 19.88205909729004 28.03780937194824 23.52935028076172 25.38278961181641 26.27001953125 C 22.74028968811035 28.99776077270508 19.23051071166992 30.5 15.5 30.5 Z" stroke="none"/>
    <path d="M 15.5 3 C 12.17918014526367 3 9.052009582519531 4.340179443359375 6.694570541381836 6.773679733276367 C 4.312089920043945 9.233009338378906 3 12.5096492767334 3 16 C 3 19.49034881591797 4.312089920043945 22.76699066162109 6.694570541381836 25.22632026672363 C 9.052009582519531 27.65982055664062 12.17918014526367 29 15.5 29 C 18.82081985473633 29 21.94799041748047 27.65982055664062 24.30542945861816 25.22632026672363 C 26.68791007995605 22.76699066162109 28 19.49034881591797 28 16 C 28 12.5096492767334 26.68791007995605 9.233009338378906 24.30542945861816 6.773679733276367 C 21.94799041748047 4.340179443359375 18.82081985473633 3 15.5 3 M 15.5 0 C 24.06040954589844 0 31 7.163440704345703 31 16 C 31 24.8365592956543 24.06040954589844 32 15.5 32 C 6.939590454101562 32 0 24.8365592956543 0 16 C 0 7.163440704345703 6.939590454101562 0 15.5 0 Z" stroke="none" fill="#443f3d"/>
  </g>
  <g id="Group_7991" data-name="Group 7991" transform="translate(49.113 38.338)">
    <path id="Path_8201" data-name="Path 8201" d="M1608.047,1019.641s-9.505,10.339-11.84,12.673" transform="translate(-1593.052 -1019.069)" fill="none" stroke="#f6c092" stroke-width="3"/>
    <g id="Ellipse_9" data-name="Ellipse 9" transform="translate(-0.113 -0.404)" fill="#cf8e56" stroke="#f6c092" stroke-width="2">
      <ellipse cx="3.5" cy="4" rx="3.5" ry="4" stroke="none"/>
      <ellipse cx="3.5" cy="4" rx="2.5" ry="3" fill="none"/>
    </g>
    <g id="Ellipse_10" data-name="Ellipse 10" transform="translate(9.887 7.596)" fill="#cf8e56" stroke="#f6c092" stroke-width="2">
      <ellipse cx="3.5" cy="4" rx="3.5" ry="4" stroke="none"/>
      <ellipse cx="3.5" cy="4" rx="2.5" ry="3" fill="none"/>
    </g>
  </g>
</svg>
