<svg id="telecommunication" xmlns="http://www.w3.org/2000/svg" xmlns:xlink="http://www.w3.org/1999/xlink" width="80.668" height="76.31" viewBox="0 0 80.668 76.31">
  <defs>
    <clipPath id="clip-path">
      <rect x="5" y="3" width="80.668" height="76.31" fill="none"/>
    </clipPath>
    <clipPath id="clip-path-2">
      <rect id="Rectangle_5712" data-name="Rectangle 5712" width="87.668" height="83.31" fill="none"/>
    </clipPath>
  </defs>
  <g id="Scroll_Group_5" data-name="Scroll Group 5" transform="translate(-5 -3)" clip-path="url(#clip-path)" style="isolation: isolate">
    <g id="Group_1379" data-name="Group 1379" clip-path="url(#clip-path-2)">
      <path id="Path_5552" data-name="Path 5552" d="M32.634,30.738A1.823,1.823,0,1,1,30.8,28.947a1.878,1.878,0,0,1,1.831,1.791" transform="translate(13.416 10.91)" fill="#b6b4b4"/>
      <path id="Path_5553" data-name="Path 5553" d="M34.256,47.2a1.763,1.763,0,0,1-1.765-1.761V45.39a1.8,1.8,0,0,1,3.6-.108A1.874,1.874,0,0,1,34.256,47.2" transform="translate(14.416 14.824)" fill="#b6b4b4"/>
      <path id="Path_5554" data-name="Path 5554" d="M27.335,47.183a1.735,1.735,0,0,1-1.8-1.662V45.5a1.783,1.783,0,0,1,1.71-1.859h.017a1.838,1.838,0,0,1,1.857,1.743,1.787,1.787,0,0,1-1.773,1.8h-.009" transform="translate(12.43 14.844)" fill="#b6b4b4"/>
      <path id="Path_5555" data-name="Path 5555" d="M30.831,33.117a1.816,1.816,0,1,1-.031,0h.031" transform="translate(13.42 12.027)" fill="#b6b4b4"/>
      <path id="Path_5556" data-name="Path 5556" d="M30.822,40.784A1.789,1.789,0,0,1,29,39.03v-.02a1.8,1.8,0,1,1,1.821,1.779" transform="translate(13.42 13.134)" fill="#b6b4b4"/>
      <path id="Path_5557" data-name="Path 5557" d="M32.609,43.145a1.8,1.8,0,1,1-1.827-1.756,1.791,1.791,0,0,1,1.827,1.756" transform="translate(13.42 14.242)" fill="#b6b4b4"/>
      <path id="Path_5558" data-name="Path 5558" d="M23.844,49.428a1.762,1.762,0,0,1-1.789-1.718A1.787,1.787,0,0,1,23.817,45.9h.015a1.835,1.835,0,0,1,1.81,1.8,1.807,1.807,0,0,1-1.8,1.729" transform="translate(11.437 15.449)" fill="#b6b4b4"/>
      <path id="Path_5559" data-name="Path 5559" d="M18.57,49.928a1.763,1.763,0,0,1,1.753-1.775h.057A1.807,1.807,0,0,1,22.155,49.9,1.847,1.847,0,0,1,20.331,51.7,1.808,1.808,0,0,1,18.57,49.93" transform="translate(10.442 16.053)" fill="#b6b4b4"/>
      <path id="Path_5560" data-name="Path 5560" d="M37.764,49.428a1.806,1.806,0,0,1-1.8-1.728,1.835,1.835,0,0,1,1.811-1.8,1.814,1.814,0,0,1,1.793,1.737,1.787,1.787,0,0,1-1.782,1.793h-.018" transform="translate(15.407 15.45)" fill="#b6b4b4"/>
      <path id="Path_5561" data-name="Path 5561" d="M43.036,49.911a1.812,1.812,0,0,1-1.823,1.781,1.867,1.867,0,0,1-1.769-1.775,1.807,1.807,0,0,1,1.843-1.758,1.756,1.756,0,0,1,1.75,1.757" transform="translate(16.401 16.055)" fill="#b6b4b4"/>
      <path id="Path_5562" data-name="Path 5562" d="M20.8,33.073c-2.035-1.037-2.485-1.937-2.142-4.279A13.841,13.841,0,0,1,31.143,16.624c.152-.022.3-.037.685-.084a8.493,8.493,0,0,1-5.738-2.972A7.646,7.646,0,0,1,24.2,7.726a8.32,8.32,0,0,1,16.593,1.23,8.25,8.25,0,0,1-7.011,7.491,33.912,33.912,0,0,1,4.964,1.662,13.42,13.42,0,0,1,7.615,11.144,3.25,3.25,0,0,1-2.2,3.825Z" transform="translate(10.438 3.195)" fill="#cf8e56"/>
      <path id="Path_5563" data-name="Path 5563" d="M45.685,65.621c-1.726-.88-2.109-1.648-1.819-3.632a11.748,11.748,0,0,1,10.6-10.337c.129-.019.257-.032.582-.071a7.213,7.213,0,0,1-4.871-2.523,6.5,6.5,0,0,1-1.6-4.96,7.064,7.064,0,1,1,8.134,7.4,28.77,28.77,0,0,1,4.215,1.411,11.393,11.393,0,0,1,6.466,9.46,2.759,2.759,0,0,1-1.864,3.248Z" transform="translate(17.638 13.241)" fill="#cf8e56"/>
      <path id="Path_5564" data-name="Path 5564" d="M61.594,44.644A7.091,7.091,0,1,1,54.5,37.652a7.041,7.041,0,0,1,7.089,6.992" transform="translate(18.676 13.241)" fill="#383330"/>
      <path id="Path_5565" data-name="Path 5565" d="M1.907,65.621C.181,64.741-.2,63.973.089,61.988a11.748,11.748,0,0,1,10.6-10.337c.129-.019.257-.032.582-.071A7.213,7.213,0,0,1,6.4,49.057,6.5,6.5,0,0,1,4.8,44.1a7.064,7.064,0,1,1,8.134,7.4,28.77,28.77,0,0,1,4.215,1.411,11.393,11.393,0,0,1,6.466,9.46,2.759,2.759,0,0,1-1.864,3.248Z" transform="translate(5.141 13.241)" fill="#cf8e56"/>
      <path id="Path_5566" data-name="Path 5566" d="M39.64,8.262a8.377,8.377,0,0,1-16.753,0,8.377,8.377,0,0,1,16.753,0" transform="translate(11.675 3.159)" fill="#383330"/>
      <path id="Path_5567" data-name="Path 5567" d="M17.876,44.644a7.091,7.091,0,1,1-7.089-6.992,7.041,7.041,0,0,1,7.089,6.992" transform="translate(6.196 13.241)" fill="#383330"/>
    </g>
  </g>
</svg>
