<?xml version="1.0" encoding="utf-8"?>
<!-- Generator: Adobe Illustrator 24.0.1, SVG Export Plug-In . SVG Version: 6.00 Build 0)  -->
<svg version="1.1" id="Layer_1" xmlns="http://www.w3.org/2000/svg" xmlns:xlink="http://www.w3.org/1999/xlink" x="0px" y="0px"
	 viewBox="0 0 258.92 43.28" style="enable-background:new 0 0 258.92 43.28;" xml:space="preserve">
<style type="text/css">
	.st0{fill:#FFFFFF;}
</style>
<g>
	<path class="st0" d="M18.35,26.91H7.51l-1.23,5.7H0L6.97,1.07H18.9l6.97,31.54h-6.28L18.35,26.91z M14.02,6.36h-2.19L8.7,21.34
		h8.47L14.02,6.36z"/>
	<path class="st0" d="M29.46,9.42h6.06v2.46c2.61-1.55,5.04-2.55,7.29-3.02v6.26c-2.28,0.46-4.39,1.01-6.33,1.62l-0.91,0.33v15.54
		h-6.1V9.42z"/>
	<path class="st0" d="M47.97,41.82c-1.81-0.97-2.71-2.56-2.71-4.75c0-1.14,0.27-2.16,0.8-3.04c0.53-0.88,1.36-1.79,2.48-2.71
		c-0.55-0.37-0.96-0.85-1.25-1.44c-0.29-0.59-0.43-1.2-0.43-1.85c0-0.46,0.11-0.94,0.34-1.44c0.23-0.49,0.71-1.33,1.43-2.5
		c-2.06-1.55-3.1-3.8-3.1-6.77c0-2.81,0.84-4.91,2.53-6.29c1.68-1.37,4.03-2.06,7.04-2.06c1.28,0,2.81,0.2,4.6,0.6l7.33-0.23v4.96
		l-3.42-0.28c0.4,0.65,0.66,1.21,0.8,1.67c0.14,0.46,0.21,1.1,0.21,1.9c0,2.78-0.77,4.77-2.32,5.96s-3.9,1.79-7.06,1.79
		c-0.91,0-1.61-0.06-2.09-0.19c-0.3,0.74-0.46,1.38-0.46,1.9c0,0.65,0.31,1.04,0.93,1.18c0.62,0.14,1.78,0.22,3.48,0.26
		c2.34,0.06,4.2,0.25,5.58,0.56c1.38,0.31,2.45,0.94,3.21,1.88c0.76,0.94,1.14,2.33,1.14,4.15c0,2.81-0.94,4.89-2.82,6.21
		c-1.88,1.33-4.77,1.99-8.65,1.99C52.3,43.28,49.78,42.79,47.97,41.82z M59.72,37.57c0.77-0.4,1.16-1.02,1.16-1.85
		c0-0.77-0.28-1.26-0.84-1.46c-0.56-0.2-1.22-0.32-1.96-0.35c-0.74-0.03-1.24-0.05-1.48-0.05l-4.1-0.33
		c-0.82,0.84-1.23,1.67-1.23,2.51c0,0.74,0.39,1.28,1.16,1.62c0.77,0.34,1.95,0.51,3.53,0.51C57.69,38.18,58.94,37.97,59.72,37.57z
		 M58.6,17.17c0-2.26-1.15-3.39-3.46-3.39c-2.34,0-3.51,1.13-3.51,3.39c0,2.29,1.17,3.43,3.51,3.43
		C57.45,20.6,58.6,19.45,58.6,17.17z"/>
	<path class="st0" d="M69.21,25.56c0-2.41,0.63-4.15,1.89-5.22c1.26-1.07,3.29-1.69,6.08-1.88l4.87-0.37v-1.44
		c0-0.93-0.21-1.58-0.61-1.95c-0.41-0.37-1.1-0.56-2.07-0.56c-1,0-2.38,0.04-4.14,0.12c-1.76,0.08-3.23,0.16-4.42,0.26l-0.18-4.31
		c3.28-0.9,6.38-1.34,9.29-1.34c2.91,0,5.02,0.62,6.31,1.85c1.29,1.24,1.94,3.22,1.94,5.94v9.65c0.06,0.77,0.19,1.3,0.39,1.58
		c0.2,0.28,0.57,0.48,1.12,0.6l-0.18,4.68c-1.58,0-2.83-0.11-3.76-0.32c-0.93-0.22-1.84-0.65-2.75-1.3
		c-2.22,1.08-4.45,1.62-6.7,1.62C71.56,33.17,69.21,30.63,69.21,25.56z M81.37,27.55l0.68-0.19v-4.96l-4.14,0.37
		c-1.7,0.15-2.55,1.08-2.55,2.78s0.74,2.55,2.23,2.55C78.74,28.11,80,27.93,81.37,27.55z"/>
	<path class="st0" d="M92.48,25.56c0-2.41,0.63-4.15,1.89-5.22c1.26-1.07,3.28-1.69,6.08-1.88l4.87-0.37v-1.44
		c0-0.93-0.2-1.58-0.61-1.95c-0.41-0.37-1.1-0.56-2.07-0.56c-1,0-2.38,0.04-4.14,0.12c-1.76,0.08-3.23,0.16-4.42,0.26l-0.18-4.31
		c3.28-0.9,6.37-1.34,9.29-1.34s5.02,0.62,6.31,1.85c1.29,1.24,1.93,3.22,1.93,5.94v9.65c0.06,0.77,0.19,1.3,0.39,1.58
		c0.2,0.28,0.57,0.48,1.11,0.6l-0.18,4.68c-1.58,0-2.83-0.11-3.76-0.32c-0.93-0.22-1.84-0.65-2.75-1.3
		c-2.22,1.08-4.45,1.62-6.69,1.62C94.83,33.17,92.48,30.63,92.48,25.56z M104.64,27.55l0.68-0.19v-4.96l-4.14,0.37
		c-1.7,0.15-2.55,1.08-2.55,2.78s0.74,2.55,2.23,2.55C102.01,28.11,103.27,27.93,104.64,27.55z"/>
	<path class="st0" d="M117.25,9.42h6.06v1.3c1.12-0.65,2.1-1.12,2.94-1.41c0.83-0.29,1.71-0.44,2.62-0.44
		c1.06,0,2.09,0.18,3.07,0.53c0.99,0.36,1.8,0.91,2.44,1.65c1.43-0.74,2.77-1.29,4.03-1.65c1.26-0.35,2.54-0.53,3.85-0.53
		c2.82,0,4.83,0.88,6.01,2.64c1.18,1.76,1.78,4.61,1.78,8.53v12.57h-6.1V20.23c0-2.07-0.23-3.56-0.68-4.45
		c-0.46-0.9-1.31-1.35-2.55-1.35c-0.88,0-2.05,0.22-3.51,0.65l-0.68,0.23c0.12,2.07,0.18,3.83,0.18,5.29v12.01h-6.1V20.69
		c0-1.67-0.08-2.94-0.25-3.8c-0.17-0.86-0.49-1.49-0.96-1.88c-0.47-0.39-1.18-0.58-2.12-0.58c-0.97,0-2.09,0.22-3.37,0.65
		l-0.55,0.19v17.35h-6.1V9.42z"/>
	<path class="st0" d="M171.53,6.73h-8.29V1.07h22.77v5.66h-8.2v25.88h-6.28V6.73z"/>
</g>
<g>
	<path class="st0" d="M182.88,29.19c-1.77-2.07-2.65-5.01-2.65-8.82c0-3.78,0.88-6.7,2.65-8.75c1.77-2.06,4.36-3.08,7.78-3.08
		c3.42,0,6.01,1.03,7.78,3.08c1.77,2.06,2.65,4.97,2.65,8.75c0,3.81-0.88,6.75-2.65,8.82c-1.77,2.07-4.36,3.11-7.78,3.11
		C187.25,32.29,184.65,31.26,182.88,29.19z M193.88,25.53c0.7-1.06,1.04-2.78,1.04-5.17c0-2.39-0.35-4.1-1.04-5.12
		c-0.69-1.03-1.77-1.54-3.22-1.54c-1.45,0-2.52,0.52-3.22,1.54c-0.7,1.03-1.04,2.74-1.04,5.12c0,2.39,0.35,4.11,1.04,5.17
		c0.7,1.06,1.77,1.59,3.22,1.59C192.11,27.12,193.19,26.59,193.88,25.53z"/>
</g>
<g>
	<path class="st0" d="M207.01,29.19c-1.77-2.07-2.65-5.01-2.65-8.82c0-3.78,0.88-6.7,2.65-8.75c1.77-2.06,4.36-3.08,7.78-3.08
		c3.42,0,6.01,1.03,7.78,3.08c1.77,2.06,2.65,4.97,2.65,8.75c0,3.81-0.88,6.75-2.65,8.82c-1.77,2.07-4.36,3.11-7.78,3.11
		C211.37,32.29,208.78,31.26,207.01,29.19z M218.01,25.53c0.7-1.06,1.04-2.78,1.04-5.17c0-2.39-0.35-4.1-1.04-5.12
		c-0.69-1.03-1.77-1.54-3.22-1.54s-2.52,0.52-3.22,1.54c-0.7,1.03-1.04,2.74-1.04,5.12c0,2.39,0.35,4.11,1.04,5.17
		c0.7,1.06,1.77,1.59,3.22,1.59S217.32,26.59,218.01,25.53z"/>
</g>
<g>
	<path class="st0" d="M229.94,0h6.08v31.75h-6.08V0z"/>
</g>
<g>
	<path class="st0" d="M242.55,31.47l-1.45-0.27l0.18-5.08c3.66,0.48,6.32,0.72,7.98,0.72c1.12,0,2-0.12,2.65-0.36
		c0.65-0.24,0.97-0.69,0.97-1.36c0-0.6-0.31-1.04-0.93-1.31c-0.62-0.27-1.65-0.53-3.11-0.77c-0.54-0.06-0.92-0.12-1.13-0.18
		c-1.51-0.27-2.75-0.61-3.72-1.02c-0.97-0.41-1.75-1.06-2.36-1.95c-0.6-0.89-0.91-2.14-0.91-3.74c0-2.57,0.79-4.48,2.36-5.72
		c1.57-1.24,3.73-1.86,6.48-1.86c1.63,0,4.04,0.29,7.21,0.86l1.5,0.27l-0.09,5.03c-3.66-0.48-6.36-0.73-8.12-0.73
		c-1.03,0-1.84,0.11-2.43,0.32c-0.59,0.21-0.88,0.62-0.88,1.22c0,0.63,0.3,1.08,0.91,1.34s1.59,0.51,2.95,0.75l1.59,0.27
		c2.42,0.48,4.14,1.2,5.17,2.15c1.03,0.95,1.54,2.49,1.54,4.6c0,2.6-0.74,4.52-2.22,5.76c-1.48,1.24-3.76,1.86-6.85,1.86
		C247.86,32.29,245.42,32.02,242.55,31.47z"/>
</g>
</svg>
