<svg id="tourism" xmlns="http://www.w3.org/2000/svg" xmlns:xlink="http://www.w3.org/1999/xlink" width="91.46" height="82.14" viewBox="0 0 91.46 82.14">
  <defs>
    <clipPath id="clip-path">
      <rect id="Rectangle_8145" data-name="Rectangle 8145" width="91.46" height="82.14" fill="none"/>
    </clipPath>
  </defs>
  <g id="Mask_Group_2500" data-name="Mask Group 2500" clip-path="url(#clip-path)">
    <path id="Path_6500" data-name="Path 6500" d="M0,102.542c.09-.408.163-.822.273-1.225a4.994,4.994,0,0,1,4.755-3.831c3.962-.056,7.926-.068,11.888,0a4.957,4.957,0,0,1,4.89,4.908c.1,5.316.106,10.633.136,15.949a2.265,2.265,0,0,1-1.3,2.285,1.774,1.774,0,0,1-2.155-.313,3.83,3.83,0,0,1-.82-1.805,15.433,15.433,0,0,1-.059-2.531q-.037-6.3-.072-12.6a3.439,3.439,0,0,0-.046-.809c-.036-.141-.244-.349-.348-.335a.623.623,0,0,0-.448.328,3.235,3.235,0,0,0-.059.9q.016,17.49.036,34.982c0,.392.008.787-.029,1.177a2.549,2.549,0,0,1-5.05.23,7.977,7.977,0,0,1-.085-1.353q-.008-9.47,0-18.941v-1.107H10.386v1.121q0,9.742,0,19.484c0,1.8-1.124,2.984-2.7,2.9a2.547,2.547,0,0,1-2.4-2.167,7.428,7.428,0,0,1-.064-1.264q0-17.536-.016-35.072c0-.414.3-1.052-.433-1.142a2.35,2.35,0,0,0-.354,1.128c-.054,4.954-.072,9.908-.107,14.862a2.2,2.2,0,0,1-1.673,2.447C1.483,121.038.652,120.5,0,119.037V102.542" transform="translate(0 -59.835)" fill="#383330"/>
    <path id="Path_6501" data-name="Path 6501" d="M75.368,65.77c0-.709,0-1.216,0-1.723-.014-2.235-.089-4.471-.032-6.7a8.174,8.174,0,0,0-4.261-7.773c.518-.025.817-.053,1.115-.053q5.5,0,10.993,0a5.922,5.922,0,0,0,.8-.02,1.127,1.127,0,0,0,1-1.682,46.244,46.244,0,0,0-8.279-13.24,18.191,18.191,0,0,0-13.6-5.8c-.685-.008-1.37.01-2.055.02a1.232,1.232,0,0,0-.278.117v1.274c0,2.477-.01,4.954.008,7.43,0,.511-.068.8-.662.942a7.523,7.523,0,0,0-4.329,3.292v-13H26.818v.922q0,9.423,0,18.847c0,.421-.171.96.366.96L24.03,52.85l-3.117-3.28.84-.129V28.792H.6V22.4h.936q28.332,0,56.663.007A33.325,33.325,0,0,1,91.517,51.316a26.04,26.04,0,0,1,.2,6.212,8.844,8.844,0,0,1-7.342,7.848,79.7,79.7,0,0,1-9.01.394" transform="translate(-0.369 -13.749)" fill="#cf8e56"/>
    <path id="Path_6502" data-name="Path 6502" d="M78.239,118.476H77.112v1.106q0,9.786,0,19.571a2.56,2.56,0,0,1-2.314,2.817,2.5,2.5,0,0,1-2.728-1.953,6.61,6.61,0,0,1-.123-1.437q-.01-17.533-.022-35.065a4.389,4.389,0,0,0-.384-1.233,4.484,4.484,0,0,0-.391,1.235c-.059,4.893-.088,9.785-.11,14.678a2.477,2.477,0,0,1-.984,2.29,2.073,2.073,0,0,1-3.17-1.147,4.526,4.526,0,0,1-.15-1.249q.028-7.43.085-14.859c.034-3.717,2.071-5.737,5.745-5.739q5.228,0,10.456,0c3.425.007,5.521,2.1,5.552,5.564q.067,7.52.1,15.04c.009,1.526-.514,2.357-1.636,2.665a2.067,2.067,0,0,1-2.6-1.666,7.251,7.251,0,0,1-.072-1.173q-.055-7.248-.1-14.5a1.166,1.166,0,0,0-.012-.448,7.047,7.047,0,0,0-.459-.739,3.554,3.554,0,0,0-.414.709,2.479,2.479,0,0,0-.015.72q.021,17.4.041,34.793c0,.392.006.787-.029,1.177a2.547,2.547,0,0,1-5.061.173,8.693,8.693,0,0,1-.07-1.264q-.006-9.469,0-18.937v-1.134" transform="translate(-41.329 -59.863)" fill="#383330"/>
    <path id="Path_6503" data-name="Path 6503" d="M144.369,118.468l-1.1-.051v1.095q0,9.742.007,19.483a2.921,2.921,0,0,1-.842,2.3,2.444,2.444,0,0,1-2.661.525,2.5,2.5,0,0,1-1.654-2.177,8.675,8.675,0,0,1-.025-1.086q0-17.535-.016-35.07c0-.424.281-1.054-.431-1.157a2.527,2.527,0,0,0-.389,1.2c-.045,4.833-.049,9.666-.076,14.5a5.237,5.237,0,0,1-.142,1.25,2.105,2.105,0,0,1-2.04,1.582,2.138,2.138,0,0,1-2.015-1.627,5.173,5.173,0,0,1-.094-1.168q.014-7.341.043-14.681c.016-3.859,2.052-5.9,5.877-5.9,3.456,0,6.913-.006,10.369,0,3.408.008,5.52,2.141,5.539,5.586q.043,7.521.075,15.043c.006,1.553-.5,2.345-1.641,2.648a2.045,2.045,0,0,1-2.555-1.612,6.754,6.754,0,0,1-.115-1.258q-.041-7.2-.065-14.409a2.542,2.542,0,0,0-.04-.807c-.063-.18-.3-.295-.467-.439-.126.149-.319.28-.362.451a3.375,3.375,0,0,0-.029.811q.012,17.716.033,35.433a2.835,2.835,0,0,1-1.211,2.651,2.532,2.532,0,0,1-3.817-1.453,5.471,5.471,0,0,1-.151-1.432q-.014-9.56-.006-19.121Z" transform="translate(-82.303 -59.863)" fill="#383330"/>
    <path id="Path_6504" data-name="Path 6504" d="M39.9,5.075q-15.462,0-30.924,0a11.328,11.328,0,0,1-1.249-.041A2.427,2.427,0,0,1,5.553,2.673,2.43,2.43,0,0,1,7.567.084,7.284,7.284,0,0,1,8.813,0q31.1-.005,62.2,0A7.519,7.519,0,0,1,72.175.07,2.428,2.428,0,0,1,74.263,2.6a2.428,2.428,0,0,1-2.19,2.436,10.564,10.564,0,0,1-1.16.04q-15.506,0-31.013,0" transform="translate(-3.438 0)" fill="#f6c092"/>
    <path id="Path_6505" data-name="Path 6505" d="M197.2,147.184v-5c.217-.023.388-.057.558-.057q6.473,0,12.946,0a2.532,2.532,0,0,1,2.6,1.795,2.472,2.472,0,0,1-2.193,3.244c-4.607.063-9.216.022-13.909.022" transform="translate(-122.133 -87.27)" fill="#f6c092"/>
    <path id="Path_6506" data-name="Path 6506" d="M26.046,74.834a4.445,4.445,0,1,1-4.454-4.553,4.481,4.481,0,0,1,4.454,4.553" transform="translate(-10.625 -43.157)" fill="#383330"/>
    <path id="Path_6507" data-name="Path 6507" d="M83.919,74.842a4.443,4.443,0,1,1,4.431,4.488,4.494,4.494,0,0,1-4.431-4.488" transform="translate(-51.973 -43.157)" fill="#383330"/>
    <path id="Path_6508" data-name="Path 6508" d="M158.864,74.852a4.492,4.492,0,0,1-4.442,4.48,4.524,4.524,0,0,1,0-9.047,4.49,4.49,0,0,1,4.444,4.567" transform="translate(-92.871 -43.159)" fill="#383330"/>
    <path id="Path_6509" data-name="Path 6509" d="M120.546,92.837h6.117l-3.052,3.081-3.066-3.081" transform="translate(-74.657 -57.008)"/>
  </g>
</svg>
