<svg xmlns="http://www.w3.org/2000/svg" xmlns:xlink="http://www.w3.org/1999/xlink" width="57.5" height="64.688" viewBox="0 0 57.5 64.688">
  <defs>
    <clipPath id="clip-path">
      <rect x="5" y="1" width="57.5" height="64.688" fill="none"/>
    </clipPath>
    <clipPath id="clip-path-2">
      <rect id="Rectangle_5714" data-name="Rectangle 5714" width="46.32" height="65.319" transform="translate(17 6)" fill="none"/>
    </clipPath>
    <clipPath id="clip-path-3">
      <rect id="Rectangle_22619" data-name="Rectangle 22619" width="23.18" height="32.688" transform="translate(17 6)" fill="none"/>
    </clipPath>
  </defs>
  <g id="water" transform="translate(-5 -1)" clip-path="url(#clip-path)" style="isolation: isolate">
    <g id="water-2" data-name="water" transform="translate(-1580 -978.654)">
      <g id="Group_1383" data-name="Group 1383" transform="translate(1563 976.022)" clip-path="url(#clip-path-2)">
        <path id="Path_5575" data-name="Path 5575" d="M69.833,48.807A38.708,38.708,0,0,0,66.4,37.613,136.506,136.506,0,0,0,54.467,16.6c-1.592-2.37-3.689-2.426-5.2-.026-2.783,4.425-5.564,8.856-8.184,13.394a68.658,68.658,0,0,0-5.9,13.151,25.857,25.857,0,0,0-1.476,8.425c.039.451.063,1.3.192,2.14C35.023,60.964,38.708,66.207,45.033,69c7.443,3.287,15.329,1.156,20.587-5.395a19.367,19.367,0,0,0,4.213-14.8" transform="translate(-9.885 -3.531)" fill="#c2a486" stroke="#383330" stroke-width="2"/>
        <path id="Path_5576" data-name="Path 5576" d="M57.884,67.071a2.289,2.289,0,0,0-2.037-1.344A4.045,4.045,0,0,1,52,61.652c-.115-1.606-1.025-2.572-2.365-2.512-1.316.059-2.132,1.144-2.125,2.78.071.514.117,1.032.216,1.539.792,4.066,4.337,7.148,8.123,7.076a2.384,2.384,0,0,0,2.037-3.465" transform="translate(-14.733 -14.116)" fill="#f6c091"/>
        <path id="Path_5577" data-name="Path 5577" d="M50.106,53.079a1.87,1.87,0,1,0-1.863,2,1.944,1.944,0,0,0,1.863-2" transform="translate(-13.599 -12.189)" fill="#f6c091"/>
      </g>
      <g id="Group_7914" data-name="Group 7914" transform="translate(1602.32 972.654)" clip-path="url(#clip-path-3)">
        <path id="Path_7992" data-name="Path 7992" d="M51.786,31.815a19.37,19.37,0,0,0-1.716-5.6A68.311,68.311,0,0,0,44.1,15.7c-.8-1.186-1.846-1.214-2.6-.013-1.393,2.214-2.784,4.432-4.1,6.7a34.358,34.358,0,0,0-2.952,6.581,12.939,12.939,0,0,0-.738,4.216c.019.226.031.653.1,1.071a9.374,9.374,0,0,0,5.571,7.667,8.446,8.446,0,0,0,10.3-2.7,9.692,9.692,0,0,0,2.108-7.406" transform="translate(-13.294 -6.16)" fill="#c2a486" stroke="#383330" stroke-width="2"/>
        <path id="Path_7993" data-name="Path 7993" d="M52.7,63.107a1.146,1.146,0,0,0-1.019-.673A2.024,2.024,0,0,1,49.755,60.4c-.058-.8-.513-1.287-1.184-1.257s-1.067.573-1.063,1.391c.035.257.059.517.108.77a4.28,4.28,0,0,0,4.065,3.541A1.193,1.193,0,0,0,52.7,63.107" transform="translate(-22.614 -33.61)" fill="#f6c091"/>
        <path id="Path_7994" data-name="Path 7994" d="M48.241,52.073a.936.936,0,1,0-.932,1,.973.973,0,0,0,.932-1" transform="translate(-21.48 -28.613)" fill="#f6c091"/>
      </g>
    </g>
  </g>
</svg>
