<svg xmlns="http://www.w3.org/2000/svg" width="14.44" height="20" viewBox="0 0 14.44 20">
  <g id="question_icon_ar" transform="translate(0 0)">
    <path id="Path_95802" data-name="Path 95802" d="M59.68,15H55.93a.641.641,0,0,0-.625.625v3.75A.641.641,0,0,0,55.93,20h3.75a.642.642,0,0,0,.625-.625v-3.75A.642.642,0,0,0,59.68,15ZM64.6,3.774a6.478,6.478,0,0,0-1.656-1.992,8.47,8.47,0,0,0-2.281-1.3A7,7,0,0,0,58.149,0,7.981,7.981,0,0,0,50.9,4.156a.617.617,0,0,0-.086.437.608.608,0,0,0,.242.39l2.563,1.953a.748.748,0,0,0,.391.125.608.608,0,0,0,.484-.25,10.658,10.658,0,0,1,1.672-1.8,2.954,2.954,0,0,1,1.687-.453,2.893,2.893,0,0,1,1.68.5,1.412,1.412,0,0,1,.726,1.156,1.754,1.754,0,0,1-.39,1.187,3.853,3.853,0,0,1-1.313.875,6.6,6.6,0,0,0-2.234,1.7,3.64,3.64,0,0,0-1.016,2.445v.7a1.173,1.173,0,0,0,.164.586.47.47,0,0,0,.4.289h3.75a.544.544,0,0,0,.437-.243.818.818,0,0,0,.188-.507,2.129,2.129,0,0,1,.429-1.047,3.064,3.064,0,0,1,1.071-1.016q.609-.344.953-.555a7.915,7.915,0,0,0,.9-.68,4.494,4.494,0,0,0,.859-.93,5.276,5.276,0,0,0,.789-2.774A5.119,5.119,0,0,0,64.6,3.774Z" transform="translate(-50.804 0)" fill="#f38020"/>
  </g>
</svg>
