<svg xmlns="http://www.w3.org/2000/svg" width="37.625" height="43" viewBox="0 0 37.625 43">
  <g id="compare" transform="translate(-2.25)">
    <path id="Path_91" data-name="Path 91" d="M15.688,31.645H13.84c-2.066,0-2.436-.3-2.839-.806-.462-.579-.689-1.6-.689-4.552V12.278a5.375,5.375,0,1,0-5.375,0V26.286c0,3.9.311,5.946,1.856,7.895,1.671,2.108,3.779,3.007,7.046,3.007h1.848v5.375L23.75,34.5l-8.063-8.063ZM7.625,4.266A3.359,3.359,0,1,1,4.266,7.625,3.358,3.358,0,0,1,7.625,4.266Z" transform="translate(0 0.438)" fill="#de231c"/>
    <path id="Path_92" data-name="Path 92" d="M34.563,30.285V16.024c0-3.9-.311-5.946-1.856-7.895-1.671-2.108-3.779-2.923-7.046-2.923H23.813V0L15.75,8.063l8.063,8.063V10.75H25.66c2.066,0,2.436.218,2.839.722.462.579.689,1.6.689,4.552V30.285a5.375,5.375,0,1,0,5.375,0ZM31.875,38.3a3.359,3.359,0,1,1,3.359-3.359A3.358,3.358,0,0,1,31.875,38.3Z" transform="translate(2.625)" fill="#de231c"/>
  </g>
</svg>
