<svg id="credential_icon" xmlns="http://www.w3.org/2000/svg" width="31" height="30" viewBox="0 0 31 30">
  <rect id="Rectangle_28327" data-name="Rectangle 28327" width="31" height="30" rx="4" fill="#ee7421"/>
  <g id="svgexport-18_1_" data-name="svgexport-18 (1)" transform="translate(8 6)">
    <path id="Path_95798" data-name="Path 95798" d="M133.2,111.5a2.362,2.362,0,0,1-2.324,2.4H120.524a2.362,2.362,0,0,1-2.324-2.4l.005-1.338c.142-2.861,3.44-5.144,7.495-5.144s7.353,2.288,7.495,5.149Zm-7.571-15.6a3.611,3.611,0,1,0,3.494,3.609A3.554,3.554,0,0,0,125.629,95.9Z" transform="translate(-118.2 -95.9)" fill="#fff"/>
    <g id="Group_119224" data-name="Group 119224" transform="translate(7.09 0)">
      <path id="Path_95799" data-name="Path 95799" d="M259.61,99.509A3.65,3.65,0,0,0,256,95.9v7.218A3.646,3.646,0,0,0,259.61,99.509Zm4.293,10.653c-.149-2.861-3.633-5.149-7.9-5.149v8.882h5.459a2.425,2.425,0,0,0,2.451-2.4Z" transform="translate(-256 -95.9)" fill="#fff"/>
    </g>
  </g>
</svg>
