<svg xmlns="http://www.w3.org/2000/svg" width="299.182" height="31.685" xmlns:v="https://vecta.io/nano"><defs><clipPath id="A"><path d="M0,0H26.674V31.685H0Z" fill="none" stroke="#152e66" stroke-width=".5"/></clipPath></defs><path d="M38.178 5.376l-3.7.038c-2.907 0-3.8 3.849-3.787 4.444v.117l.014 17.9h-6.237V9.66c-.107-1.611.293-3.216 1.143-4.589.734-1.099 1.731-1.999 2.9-2.616a11.06 11.06 0 0 1 5.336-1.247h6.481zm19.951-1.8H56.5a24.49 24.49 0 0 0-2.512.148 7.77 7.77 0 0 0-2.7.79c-.865.44-1.597 1.104-2.119 1.922-.618 1.077-.897 2.316-.8 3.554a6.3 6.3 0 0 0 1.05 3.653 6.33 6.33 0 0 0 2.649 2.1 11.81 11.81 0 0 0 3.768.888 27.98 27.98 0 0 0 1.314.073l.978-.048zm5.084 20.433a7.95 7.95 0 0 1-2.9 2.616c-1.646.858-3.481 1.287-5.336 1.248h-6.483l-2.16-4.173 8.007-.037a4.07 4.07 0 0 0 2.989-2c.618-.655.912-1.551.8-2.445V19.1c-.3 0-.606 0-.909-.006H56.18c-1.254.017-2.509-.034-3.758-.152a15.72 15.72 0 0 1-5.092-1.308 9.64 9.64 0 0 1-3.7-2.912 8.01 8.01 0 0 1-1.485-4.886c-.114-1.62.286-3.235 1.143-4.615a8.01 8.01 0 0 1 2.9-2.59c1.136-.589 2.364-.979 3.631-1.155a24.1 24.1 0 0 1 3.334-.276h11.2v18.215a7.75 7.75 0 0 1-1.142 4.591m43.313-11.571q-.488-.031-.976-.047a27.83 27.83 0 0 0-1.312.072c-1.294.087-2.564.387-3.759.889a6.31 6.31 0 0 0-2.644 2.1c-.716 1.08-1.082 2.355-1.047 3.651a6.19 6.19 0 0 0 .8 3.557 5.44 5.44 0 0 0 2.119 1.927c.841.425 1.753.693 2.69.791a24.62 24.62 0 0 0 2.5.148h1.628zm4.918 15.465h-9.885a23.9 23.9 0 0 1-3.327-.273c-1.265-.176-2.491-.569-3.623-1.16a8.01 8.01 0 0 1-2.894-2.594c-.855-1.382-1.253-2.998-1.139-4.619-.051-1.748.469-3.466 1.482-4.892.97-1.262 2.238-2.263 3.691-2.914a15.67 15.67 0 0 1 5.082-1.31c1.246-.119 2.498-.169 3.75-.152h1.04l.908-.006v-.114c.012-.594-.879-4.448-3.779-4.448-.432 0-7.992-.038-7.992-.038l2.157-4.174h6.468c1.851-.038 3.683.391 5.324 1.249 1.168.618 2.162 1.519 2.894 2.619a7.76 7.76 0 0 1 1.14 4.6V27.9zM82.163 12.436q-.487-.031-.975-.047a27.87 27.87 0 0 0-1.313.072c-1.293.087-2.564.387-3.759.889-1.055.447-1.969 1.173-2.643 2.1a6.31 6.31 0 0 0-1.054 3.656 6.2 6.2 0 0 0 .8 3.557 5.45 5.45 0 0 0 2.119 1.927c.841.425 1.752.693 2.689.791a24.62 24.62 0 0 0 2.507.148h1.627zM87.081 27.9h-9.887a23.89 23.89 0 0 1-3.326-.273 11.16 11.16 0 0 1-3.623-1.16 8.01 8.01 0 0 1-2.894-2.594 7.74 7.74 0 0 1-1.14-4.619 8.04 8.04 0 0 1 1.481-4.892 9.6 9.6 0 0 1 3.692-2.914 15.66 15.66 0 0 1 5.081-1.31 34.5 34.5 0 0 1 3.75-.152h1.04l.907-.006v-.114c.011-.594-.88-4.448-3.78-4.448-.43 0-7.991-.038-7.991-.038l2.156-4.174h6.472a11 11 0 0 1 5.325 1.249c1.167.619 2.16 1.52 2.891 2.62a7.77 7.77 0 0 1 1.139 4.6V27.9zM15.972 12.436q-.488-.031-.976-.047l-1.312.072a11.74 11.74 0 0 0-3.759.889c-1.056.447-1.97 1.173-2.644 2.1-.716 1.08-1.081 2.355-1.047 3.65a6.19 6.19 0 0 0 .8 3.557c.519.822 1.25 1.49 2.115 1.934.841.425 1.753.693 2.69.791a24.62 24.62 0 0 0 2.507.148h1.626zM20.028 27.9h-9.024a23.9 23.9 0 0 1-3.327-.273c-1.265-.176-2.491-.569-3.623-1.16a8.01 8.01 0 0 1-2.894-2.594 7.75 7.75 0 0 1-1.141-4.618c-.052-1.749.469-3.466 1.482-4.892a9.6 9.6 0 0 1 3.691-2.914 15.67 15.67 0 0 1 5.082-1.31c1.246-.119 2.498-.169 3.75-.152h1.039l.908-.006v-.115c.012-.594-.879-4.448-3.779-4.448-.432 0-7.992-.038-7.992-.038l2.157-4.173h6.469a11 11 0 0 1 5.324 1.249c1.17.618 2.166 1.518 2.9 2.619.848 1.376 1.246 2.982 1.139 4.595V27.9h-2.161zm131.777 0h-4.919V9.076c.07-1.67-.463-3.309-1.5-4.619a3.88 3.88 0 0 0-6.457 0c-1.037 1.31-1.57 2.949-1.5 4.619V27.9h-6.22V9.076c.07-1.67-.462-3.309-1.5-4.619-1.072-1.231-2.654-1.896-4.283-1.8h-3.677V27.9h-6.213V.331h12.046c1.489-.005 2.966.271 4.352.816a9.23 9.23 0 0 1 2.4 1.38 9.28 9.28 0 0 1 2.389-1.38 11.73 11.73 0 0 1 4.375-.816q.235 0 .467.01l.4-.01a13.51 13.51 0 0 1 .638.018l.656-.018c1.253-.003 2.498.189 3.692.569 1.145.356 2.212.926 3.145 1.679.912.743 1.658 1.67 2.188 2.721a7.88 7.88 0 0 1 .82 3.632V27.9z" fill="#ed7c00"/><g fill="#112a63" stroke-width=".5"><path d="M187.911 2.549a2.2 2.2 0 0 1 .641 1.654v21.068a2.05 2.05 0 0 1-.6 1.566c-.432.391-1.002.596-1.584.57-.572.031-1.132-.175-1.547-.57-.394-.423-.598-.989-.565-1.566V10.609l-6.413 11.457a3.59 3.59 0 0 1-.981 1.157c-.365.252-.801.383-1.245.373a2.17 2.17 0 0 1-1.245-.356 3.3 3.3 0 0 1-.981-1.174l-6.447-11.279v14.484c-.029.862-.556 1.629-1.35 1.965s-1.711.181-2.35-.399c-.394-.423-.598-.989-.565-1.566V4.2c-.029-.613.196-1.211.622-1.653.45-.429 1.057-.654 1.678-.623a2.54 2.54 0 0 1 2.3 1.53l8.372 15.054 8.338-15.052a2.49 2.49 0 0 1 2.225-1.53c.627-.03 1.24.195 1.7.623" stroke="#152e66"/><path d="M227.345 25.948c-1.895-1.015-3.439-2.577-4.431-4.484a14.38 14.38 0 0 1-1.547-6.833 14.27 14.27 0 0 1 1.552-6.815c.996-1.899 2.54-3.455 4.431-4.467a13.9 13.9 0 0 1 6.727-1.566c1.584-.011 3.16.223 4.673.694a12.41 12.41 0 0 1 3.886 2.006 2.08 2.08 0 0 1 .679.747 2.2 2.2 0 0 1 .189.961 1.97 1.97 0 0 1-.454 1.322 1.39 1.39 0 0 1-1.1.533c-.552-.016-1.088-.189-1.545-.5a11.4 11.4 0 0 0-3.018-1.583 10.11 10.11 0 0 0-3.091-.445c-2.226-.157-4.406.692-5.94 2.313q-2.011 2.317-2.011 6.8 0 4.519 2.018 6.833c1.534 1.621 3.714 2.47 5.94 2.313 1.018.011 2.032-.146 3-.462a14.7 14.7 0 0 0 3.111-1.567c.242-.137.494-.256.754-.355.253-.095.521-.143.791-.142.424.002.824.198 1.086.532.306.37.466.838.452 1.317a2.22 2.22 0 0 1-.189.943c-.157.309-.391.573-.679.765a12.39 12.39 0 0 1-3.884 2.012c-1.513.471-3.09.705-4.675.694a13.89 13.89 0 0 1-6.725-1.566" stroke="#112a63"/><path d="M269.806 25.556c.004.539-.258 1.045-.7 1.353a2.72 2.72 0 0 1-2.79.267 2.42 2.42 0 0 1-.924-.8l-5.016-7.189a4.76 4.76 0 0 0-1.6-1.6 4.6 4.6 0 0 0-2.2-.462h-3.7v7.969a2.25 2.25 0 0 1-.642 1.689c-.471.432-1.096.657-1.735.624a2.45 2.45 0 0 1-1.753-.624c-.452-.442-.692-1.057-.66-1.689V4.274a2.06 2.06 0 0 1 .622-1.6 2.44 2.44 0 0 1 1.711-.574h9.428q4.526 0 6.882 1.9a6.66 6.66 0 0 1 2.357 5.5 6.72 6.72 0 0 1-1.753 4.787c-1.34 1.33-3.085 2.175-4.959 2.4a4.88 4.88 0 0 1 1.923.89 7.99 7.99 0 0 1 1.622 1.783l3.432 4.947a2.17 2.17 0 0 1 .452 1.245m-6.6-12.936c.892-.734 1.371-1.856 1.283-3.008a3.49 3.49 0 0 0-1.284-3.008 6.87 6.87 0 0 0-4.034-.942h-6.331v7.936h6.335a6.67 6.67 0 0 0 4.034-.979m16.362 13.333a10.74 10.74 0 0 1-4.393-4.484 14.38 14.38 0 0 1-1.545-6.833 14.42 14.42 0 0 1 1.527-6.815 10.62 10.62 0 0 1 4.389-4.467 15.29 15.29 0 0 1 13.48 0 10.64 10.64 0 0 1 4.375 4.467 14.42 14.42 0 0 1 1.527 6.815 14.38 14.38 0 0 1-1.546 6.833 10.74 10.74 0 0 1-4.393 4.484c-4.232 2.087-9.193 2.087-13.425 0m12.446-4.484q2.053-2.383 2.055-6.833.002-4.45-2.055-6.815a8.13 8.13 0 0 0-11.464 0q-2.057 2.366-2.055 6.815.002 4.449 2.055 6.832a8.08 8.08 0 0 0 11.464 0" stroke="#152e66"/></g><g transform="translate(191.55)" clip-path="url(#A)"><g fill="#152e66" stroke="#152e66" stroke-width=".5"><path d="M23.671 22.589l-1.639-3.814-3.984 3.749.728 1.794.6 1.331a5.168 5.168 0 0 0 .657 1.117 2.2 2.2 0 0 0 .755.575 2.553 2.553 0 0 0 1.081.21 2.593 2.593 0 0 0 1.845-.719 2.146 2.146 0 0 0 .763-1.582 7.706 7.706 0 0 0-.808-2.659m-3.729-8.665l-3.828 3.6-.041-.1L12.1 7.189l-3.912 10.24-.3.81-.371 1-.728 1.961-1.259 3.185a16.282 16.282 0 0 1-.858 1.88l-2.756 1.206a.792.792 0 0 1-.079-.02 2.7 2.7 0 0 1-1.059-.6 2.148 2.148 0 0 1-.76-1.351A2.036 2.036 0 0 1 0 25.271a3.013 3.013 0 0 1 .1-.778l.076-.256q.18-.541.594-1.5L7.525 6.611l.692-1.668a8.3 8.3 0 0 1 .866-1.613 3.413 3.413 0 0 1 1.2-1.041 3.894 3.894 0 0 1 1.845-.4 3.948 3.948 0 0 1 1.864.4A3.494 3.494 0 0 1 15.2 3.313a6.922 6.922 0 0 1 .774 1.344l.8 1.92 2.064 4.789.944 2.193z"/></g><path d="M26.671 12.46v4.114a1.029 1.029 0 0 1-2.054.008V15.16L7.05 31.686v-7.652l-2.038 1.918-.78.731-.367.346a2.483 2.483 0 0 1-3.344-.35 2.151 2.151 0 0 1-.521-1.4 2.1 2.1 0 0 1 .126-.714.618.618 0 0 0 .573.668.673.673 0 0 0 .52-.17l2-1.881L7.07 19.56a2.043 2.043 0 0 1 2.762 0 1.785 1.785 0 0 1 .572 1.3v3.214l6.95-6.534.819-.771 4.077-3.834h-1.577a1 1 0 0 1-1.028-.966v-.074a1 1 0 0 1 1.028-.965h4.375a1.58 1.58 0 0 1 1.626 1.53" fill="#f38020" stroke="#f38020" stroke-width=".5"/></g></svg>