<svg xmlns="http://www.w3.org/2000/svg" xmlns:xlink="http://www.w3.org/1999/xlink" width="136.75" height="31.685" viewBox="0 0 136.75 31.685">
  <defs>
    <clipPath id="clip-path">
      <rect id="Rectangle_43655" data-name="Rectangle 43655" width="26.674" height="31.685" fill="none" stroke="#152e66" stroke-width="0.5"/>
    </clipPath>
  </defs>
  <g id="EN_Page_Logo" transform="translate(-186.414 -30)">
    <g id="macro_logo">
      <path id="Path_184269" data-name="Path 184269" d="M25.228.783a2.2,2.2,0,0,1,.641,1.654V23.505a2.048,2.048,0,0,1-.6,1.566,2.216,2.216,0,0,1-1.584.57,2.083,2.083,0,0,1-1.547-.57,2.124,2.124,0,0,1-.565-1.566V8.843L15.16,20.3a3.59,3.59,0,0,1-.981,1.157,2.106,2.106,0,0,1-1.245.373,2.171,2.171,0,0,1-1.245-.356,3.3,3.3,0,0,1-.981-1.174L4.261,9.021V23.505a2.1,2.1,0,0,1-.584,1.548,2.113,2.113,0,0,1-1.566.588,2.083,2.083,0,0,1-1.546-.57A2.124,2.124,0,0,1,0,23.505V2.436A2.234,2.234,0,0,1,.622.783,2.267,2.267,0,0,1,2.3.16,2.539,2.539,0,0,1,4.6,1.69l8.372,15.054L21.306,1.69A2.492,2.492,0,0,1,23.531.16a2.333,2.333,0,0,1,1.7.623" transform="translate(186.664 31.766)" fill="#112a63" stroke="#152e66" stroke-width="0.5"/>
      <path id="Path_184270" data-name="Path 184270" d="M67.4,24.165a10.675,10.675,0,0,1-4.431-4.484,14.378,14.378,0,0,1-1.547-6.833,14.272,14.272,0,0,1,1.547-6.815A10.706,10.706,0,0,1,67.4,1.566,13.9,13.9,0,0,1,74.127,0,15.384,15.384,0,0,1,78.8.694,12.408,12.408,0,0,1,82.686,2.7a2.082,2.082,0,0,1,.679.747,2.2,2.2,0,0,1,.189.961A1.971,1.971,0,0,1,83.1,5.73a1.388,1.388,0,0,1-1.095.533,2.894,2.894,0,0,1-1.545-.5,11.4,11.4,0,0,0-3.018-1.583,10.111,10.111,0,0,0-3.091-.445,7.457,7.457,0,0,0-5.94,2.313Q66.4,8.365,66.4,12.848q0,4.519,2.018,6.833a7.454,7.454,0,0,0,5.94,2.313,9.344,9.344,0,0,0,3-.462,14.7,14.7,0,0,0,3.111-1.567,5.432,5.432,0,0,1,.754-.355,2.223,2.223,0,0,1,.791-.142A1.387,1.387,0,0,1,83.1,20a1.975,1.975,0,0,1,.452,1.317,2.218,2.218,0,0,1-.189.943,2.017,2.017,0,0,1-.679.765A12.389,12.389,0,0,1,78.8,25.037a15.384,15.384,0,0,1-4.675.694A13.888,13.888,0,0,1,67.4,24.165" transform="translate(183.926 31.783)" fill="#112a63" stroke="#112a63" stroke-width="0.5"/>
      <path id="Path_184271" data-name="Path 184271" d="M111.111,23.812a1.635,1.635,0,0,1-.7,1.353,2.625,2.625,0,0,1-1.64.533,2.6,2.6,0,0,1-1.15-.266,2.42,2.42,0,0,1-.924-.8l-5.016-7.189a4.762,4.762,0,0,0-1.6-1.6,4.6,4.6,0,0,0-2.205-.462h-3.7V23.35a2.248,2.248,0,0,1-.642,1.689,2.384,2.384,0,0,1-1.735.624,2.451,2.451,0,0,1-1.753-.624,2.207,2.207,0,0,1-.66-1.689V2.53a2.06,2.06,0,0,1,.622-1.6,2.445,2.445,0,0,1,1.716-.57h9.428q4.526,0,6.882,1.9a6.659,6.659,0,0,1,2.357,5.5,6.718,6.718,0,0,1-1.753,4.787,8.475,8.475,0,0,1-4.959,2.4,4.883,4.883,0,0,1,1.923.89,7.989,7.989,0,0,1,1.621,1.779l3.432,4.947a2.168,2.168,0,0,1,.452,1.245m-6.6-12.936a3.544,3.544,0,0,0,1.283-3.008,3.488,3.488,0,0,0-1.283-3.008,6.872,6.872,0,0,0-4.034-.942H94.142v7.936h6.335a6.674,6.674,0,0,0,4.034-.979" transform="translate(182.676 31.744)" fill="#112a63" stroke="#152e66" stroke-width="0.5"/>
      <path id="Path_184272" data-name="Path 184272" d="M122.022,24.165a10.741,10.741,0,0,1-4.393-4.484,14.378,14.378,0,0,1-1.545-6.833,14.425,14.425,0,0,1,1.527-6.815A10.623,10.623,0,0,1,122,1.566a15.29,15.29,0,0,1,13.48,0,10.641,10.641,0,0,1,4.375,4.467,14.414,14.414,0,0,1,1.527,6.815,14.378,14.378,0,0,1-1.546,6.833,10.736,10.736,0,0,1-4.393,4.484,15.173,15.173,0,0,1-13.425,0m12.446-4.484q2.053-2.383,2.055-6.833t-2.055-6.815a8.126,8.126,0,0,0-11.464,0q-2.057,2.366-2.055,6.815T123,19.68a8.081,8.081,0,0,0,11.464,0" transform="translate(181.527 31.783)" fill="#112a63" stroke="#152e66" stroke-width="0.5"/>
      <g id="Group_141172" data-name="Group 141172" transform="translate(215.531 30)" clip-path="url(#clip-path)">
        <path id="Path_184273" data-name="Path 184273" d="M54.945,22.893l-1.639-3.814-3.984,3.749.728,1.794c.165.387.371.827.6,1.331a5.168,5.168,0,0,0,.657,1.117,2.2,2.2,0,0,0,.755.575,2.553,2.553,0,0,0,1.081.21,2.593,2.593,0,0,0,1.845-.719,2.146,2.146,0,0,0,.763-1.582,7.706,7.706,0,0,0-.808-2.659" transform="translate(-31.274 -0.304)" fill="#152e66" stroke="#152e66" stroke-width="0.5"/>
        <path id="Path_184274" data-name="Path 184274" d="M50.138,12.155l-3.828,3.6-.041-.1L42.294,5.418l-3.908,10.24-.3.81-.371,1-.728,1.961-1.259,3.185a16.282,16.282,0,0,1-.858,1.88L32.114,25.7a.792.792,0,0,1-.079-.02,2.7,2.7,0,0,1-1.059-.6,2.148,2.148,0,0,1-.76-1.353,2.036,2.036,0,0,1-.013-.227V23.5a3.013,3.013,0,0,1,.1-.778c.023-.083.044-.168.076-.256q.18-.541.594-1.5L37.723,4.84c.192-.462.425-1.017.692-1.668a8.3,8.3,0,0,1,.866-1.613,3.413,3.413,0,0,1,1.2-1.041,3.894,3.894,0,0,1,1.845-.4,3.948,3.948,0,0,1,1.864.4A3.494,3.494,0,0,1,45.4,1.542a6.922,6.922,0,0,1,.774,1.344c.209.479.478,1.122.8,1.92l2.064,4.789.944,2.193Z" transform="translate(-30.198 1.771)" fill="#152e66" stroke="#152e66" stroke-width="0.5"/>
        <path id="Path_184275" data-name="Path 184275" d="M56.869,11.8v4.114a1.029,1.029,0,0,1-2.054.008V14.5L37.248,31.026V23.374l-2.038,1.918-.78.731-.367.346a2.483,2.483,0,0,1-3.344-.35,2.151,2.151,0,0,1-.521-1.4,2.1,2.1,0,0,1,.126-.714.618.618,0,0,0,.573.668.673.673,0,0,0,.52-.17l2-1.881L37.268,18.9a2.043,2.043,0,0,1,2.762,0,1.785,1.785,0,0,1,.572,1.3v3.214l6.95-6.534.819-.771,4.077-3.834H50.871a1,1,0,0,1-1.028-.966v-.074a1,1,0,0,1,1.028-.965h4.375A1.58,1.58,0,0,1,56.872,11.8" transform="translate(-30.198 0.66)" fill="#f38020" stroke="#f38020" stroke-width="0.5"/>
      </g>
    </g>
  </g>
</svg>
