<svg xmlns="http://www.w3.org/2000/svg" width="53.245" height="47.105" viewBox="0 0 53.245 47.105">
  <g id="excel_download_icon" transform="translate(-864 -427)">
    <rect id="Rectangle_28120" data-name="Rectangle 28120" width="52.245" height="46.105" rx="9" transform="translate(864.5 427.5)" fill="none" stroke="#cacaca" stroke-width="1"/>
    <path id="Icon_awesome-file-download-2" d="M272.492,445.117V438.2H262.321a1.215,1.215,0,0,0-1.221,1.221h0v23.733a1.215,1.215,0,0,0,1.221,1.221h17.224a1.216,1.216,0,0,0,1.221-1.221h0V446.337h-6.917A1.252,1.252,0,0,1,272.492,445.117Zm3.933,10.849-4.882,4.882a.76.76,0,0,1-1.221,0l-4.882-4.882a1.012,1.012,0,0,1,0-1.221,1.028,1.028,0,0,1,.542-.271h3.39v-4.069a.875.875,0,0,1,.814-.814h1.627a.875.875,0,0,1,.814.814h0v4.069h3.39a.875.875,0,0,1,.814.814A1.449,1.449,0,0,1,276.425,455.966Zm3.933-12.341-5.018-5.018a1.172,1.172,0,0,0-.814-.407h-.271v6.51h6.51v-.271A.966.966,0,0,0,280.358,443.625Z" transform="translate(618.9 -1.2)" fill="#2d435e"/>
  </g>
</svg>
