<svg id="general_icon_hover" xmlns="http://www.w3.org/2000/svg" width="22.25" height="21.441" viewBox="0 0 22.25 21.441">
  <g id="svgexport-18_8_" data-name="svgexport-18 (8)">
    <path id="Path_184206" data-name="Path 184206" d="M22.89,13.413a.7.7,0,0,0,0-1L17.557,7.084a2.124,2.124,0,0,0-2.4-.417l-4.21,1.978a.7.7,0,0,1-.8-.141L4.864,3.22a.712.712,0,0,0-1,0,.7.7,0,0,0,0,1L9.151,9.507a2.124,2.124,0,0,0,2.4.417l4.2-1.978a.723.723,0,0,1,.805.134l5.326,5.333a.716.716,0,0,0,1,0Zm-8.632.87v8.759a1.413,1.413,0,0,0,1.413,1.413h1.413A1.413,1.413,0,0,0,18.5,23.042V14.283a1.417,1.417,0,0,0-1.413-1.413H15.671A1.417,1.417,0,0,0,14.258,14.283ZM2.25,9.324V23.042a1.413,1.413,0,0,0,1.413,1.413H5.075a1.413,1.413,0,0,0,1.413-1.413V9.324A1.417,1.417,0,0,0,5.075,7.911H3.663A1.417,1.417,0,0,0,2.25,9.324ZM20.262,20.6v2.444a1.413,1.413,0,0,0,1.413,1.413h1.413A1.413,1.413,0,0,0,24.5,23.042V20.6a1.417,1.417,0,0,0-1.413-1.413H21.675A1.417,1.417,0,0,0,20.262,20.6ZM8.254,16.741v6.3a1.413,1.413,0,0,0,1.413,1.413h1.413a1.413,1.413,0,0,0,1.413-1.413v-6.3a1.417,1.417,0,0,0-1.413-1.413H9.667A1.417,1.417,0,0,0,8.254,16.741Z" transform="translate(-2.25 -3.014)" fill="#fff"/>
  </g>
  <path id="Path_184207" data-name="Path 184207" d="M22.915,13.413a.7.7,0,0,0,0-1L17.582,7.084a2.124,2.124,0,0,0-2.4-.417l-4.21,1.978a.7.7,0,0,1-.8-.141L4.889,3.22a.712.712,0,0,0-1,0,.7.7,0,0,0,0,1L9.176,9.507a2.124,2.124,0,0,0,2.4.417l4.2-1.978a.723.723,0,0,1,.805.134l5.326,5.333a.716.716,0,0,0,1,0Z" transform="translate(-2.275 -3.013)" fill="#fff"/>
</svg>
