<svg xmlns="http://www.w3.org/2000/svg" width="53.245" height="47.105" viewBox="0 0 53.245 47.105">
  <g id="ImageDownload_icon" transform="translate(12088 3316)">
    <rect id="Rectangle_28120" data-name="Rectangle 28120" width="52.245" height="46.105" rx="9" transform="translate(-12087.5 -3315.5)" fill="none" stroke="#cacaca" stroke-width="1"/>
    <g id="svgexport-21_1_" data-name="svgexport-21 (1)" transform="translate(-12074.999 -3306)">
      <path id="Path_64685" data-name="Path 64685" d="M25.57,20.426v-9.7a3.907,3.907,0,0,0-3.85-3.956H8.675a3.907,3.907,0,0,0-3.85,3.956v9.7a3.907,3.907,0,0,0,3.85,3.956H21.723a3.907,3.907,0,0,0,3.85-3.956Zm-14.349-8.95h.009a.948.948,0,1,1-.009,0Zm11.059,8.069a.932.932,0,0,1-1.3-.311L17.8,14.025,14.049,20.2a.941.941,0,0,1-1.593.019l-1.773-2.791-1.2,1.884a.937.937,0,0,1-.811.474.951.951,0,0,1-.943-.962,1.065,1.065,0,0,1,.151-.544l1.4-2.2a1.646,1.646,0,0,1,2.8.01l1.141,1.794,3.159-5.2a1.645,1.645,0,0,1,2.828,0L22.586,18.2a1,1,0,0,1-.307,1.343ZM25.57,2H22.741a.97.97,0,0,0,0,1.94H25.57a.962.962,0,0,1,.943.969V7.82a.944.944,0,1,0,1.885,0V4.909A2.873,2.873,0,0,0,25.57,2ZM2.943,8.789a.957.957,0,0,0,.943-.969V4.909a.962.962,0,0,1,.943-.969H7.659a.97.97,0,1,0,0-1.94H4.828A2.873,2.873,0,0,0,2,4.909V7.82a.957.957,0,0,0,.943.969ZM4.828,29.154H7.658a.97.97,0,1,0,0-1.94H4.828a.962.962,0,0,1-.943-.969V23.336a.944.944,0,1,0-1.885,0v2.909a2.873,2.873,0,0,0,2.828,2.908Zm22.627-6.789a.957.957,0,0,0-.943.969v2.909a.962.962,0,0,1-.943.969H22.741a.97.97,0,1,0,0,1.94H25.57A2.873,2.873,0,0,0,28.4,26.243V23.336a.957.957,0,0,0-.943-.97Z" transform="translate(-1.999 -2)" fill="#2d435e"/>
    </g>
  </g>
</svg>
