<svg xmlns="http://www.w3.org/2000/svg" xmlns:xlink="http://www.w3.org/1999/xlink" width="30" height="30" viewBox="0 0 30 30">
  <defs>
    <clipPath id="clip-linkedin">
      <rect width="30" height="30"/>
    </clipPath>
  </defs>
  <g id="linkedin" clip-path="url(#clip-linkedin)">
    <path id="linkedin-in" d="M6.265,28H.462V9.313h5.8ZM3.36,6.763A3.377,3.377,0,1,1,6.721,3.371,3.377,3.377,0,0,1,3.36,6.763ZM27.984,28h-5.79V18.9c0-2.168-.044-4.948-3.017-4.948-3.017,0-3.48,2.356-3.48,4.792V28H9.9V9.313h5.562v2.55h.081a6.1,6.1,0,0,1,5.491-3.018c5.873,0,6.953,3.868,6.953,8.891V28Z" transform="translate(1.023 0.993)" fill="#7d8aaa"/>
  </g>
</svg>
