<svg xmlns="http://www.w3.org/2000/svg" width="105.715" height="118.4" viewBox="0 0 105.715 118.4">
  <g id="Group_141364" data-name="Group 141364" transform="translate(13781.246 -8826.43)">
    <path id="Path_184345" data-name="Path 184345" d="M84.629,0H5.857A5.857,5.857,0,0,0,0,5.857V57.4a5.717,5.717,0,0,0,3.674,4.3C8.284,63.366.134,64.587,2.4,64.587V77.054l82.228,1.354c3.235,0,5.857-17.774,5.857-21.009V5.857A5.857,5.857,0,0,0,84.629,0Z" transform="translate(-13766.017 8863.965)" fill="#2d4058"/>
    <path id="Path_184344" data-name="Path 184344" d="M5.857,0H84.629a5.857,5.857,0,0,1,5.857,5.857V57.4a5.717,5.717,0,0,1-3.674,4.3c-4.61,1.662-12.971,2.454-15.239,2.454L70.385,79.274,5.857,78.408C2.622,78.408,0,60.634,0,57.4V5.857A5.857,5.857,0,0,1,5.857,0Z" transform="translate(-13781.245 8847.598)" fill="#2d435e"/>
    <path id="Path_184343" data-name="Path 184343" d="M68.841,39.186H18.1a2.115,2.115,0,0,0,0,4.229H68.841A2.115,2.115,0,0,0,68.841,39.186Zm0,12.686H18.1a2.115,2.115,0,0,0,0,4.229H68.841A2.115,2.115,0,0,0,68.841,51.871Zm0-25.371H32.9a2.115,2.115,0,0,0,0,4.229H68.841A2.115,2.115,0,0,0,68.841,26.5Z" transform="translate(-13778.2 8847.501)" fill="#fff"/>
    <path id="Polygon_33" data-name="Polygon 33" d="M9.272.645a1,1,0,0,1,1.371,0l7.435,7a1,1,0,0,1-.685,1.728H2.522a1,1,0,0,1-.685-1.728Z" transform="translate(-13716.099 8919.11) rotate(-45)" fill="#fff"/>
    <path id="Path_184346" data-name="Path 184346" d="M21.164,99.075v15.212h82.788a6.255,6.255,0,0,0,6.343-6.147V40.518c0-.8-5.758-6.633-13.866-1.3-7.242,4.762-1.675,25.5-4.262,40.792-.851,5.039-3.941,9.259-7.439,12.3-7.161,6.232-19.96,5.929-30.615,6.763A206.273,206.273,0,0,1,21.164,99.075Zm82.788,11.114c0,1.129,1.167,0,0,0l-82.788,1.773Z" transform="translate(-13785.825 8828.086)" fill="#2d3f56"/>
    <g id="svgexport-11_3_" data-name="svgexport-11 (3)" transform="translate(-13781.245 8826.43)">
      <path id="Path_184342" data-name="Path 184342" d="M13.343,107.6H21.8v8.457a6.351,6.351,0,0,0,6.343,6.343h78.229a6.351,6.351,0,0,0,6.343-6.343V46.286a6.351,6.351,0,0,0-6.343-6.343H97.914V31.486a6.351,6.351,0,0,0-6.343-6.343h-31.8a2.114,2.114,0,0,0,0,4.229h31.8a2.116,2.116,0,0,1,2.114,2.114V86.458H83.114A6.351,6.351,0,0,0,76.771,92.8v10.571H13.343a2.116,2.116,0,0,1-2.114-2.114V31.486a2.116,2.116,0,0,1,2.114-2.114H46.924L51.556,40.74a2.114,2.114,0,0,0,3.916-1.594c-2.2-5.362-6.8-16.709-8.969-22.01C51.922,12.975,48.793,3.914,41.886,4c-9.781.321-9.779,14.483,0,14.8a6.982,6.982,0,0,0,.7-.072L45.2,25.143H13.343A6.351,6.351,0,0,0,7,31.486v69.771A6.351,6.351,0,0,0,13.343,107.6Zm93.029-63.429a2.116,2.116,0,0,1,2.114,2.114v69.771a2.116,2.116,0,0,1-2.114,2.114H28.143a2.116,2.116,0,0,1-2.114-2.114V107.6H78.886a2.13,2.13,0,0,0,1.5-.622l16.91-16.91a2.121,2.121,0,0,0,.622-1.5v-44.4ZM83.114,90.686H90.7l-9.7,9.7V92.8A2.116,2.116,0,0,1,83.114,90.686ZM38.714,11.4c.074-4.167,6.269-4.167,6.343,0C44.97,15.582,38.784,15.555,38.714,11.4Z" transform="translate(-7 -4)" fill="#2d435e"/>
    </g>
  </g>
</svg>
