<svg xmlns="http://www.w3.org/2000/svg" width="18.466" height="18.532" viewBox="0 0 18.466 18.532">
  <path id="search" d="M17.741,16.71l-3.087-3.018h0l-.072-.11a.727.727,0,0,0-1.021,0h0a7.285,7.285,0,0,1-9.446.306A6.9,6.9,0,0,1,2.582,4.769,7.252,7.252,0,0,1,11.632,2.1a6.952,6.952,0,0,1,3.874,8.429.7.7,0,0,0,.163.693.738.738,0,0,0,.7.208.721.721,0,0,0,.532-.485h0a8.383,8.383,0,0,0-4.49-10.1A8.759,8.759,0,0,0,1.517,3.669,8.312,8.312,0,0,0,2.738,14.62,8.791,8.791,0,0,0,14,15.083l2.733,2.672a.735.735,0,0,0,1.021,0,.7.7,0,0,0,0-1.006h0Z" transform="translate(0.255 0.265)" fill="#ee7421" stroke="#ee7421" stroke-width="0.5"/>
</svg>
