<svg xmlns="http://www.w3.org/2000/svg" width="25.404" height="27.45" viewBox="0 0 25.404 27.45">
  <g id="share-icon" transform="translate(0.123 0.016)">
    <path id="Path_64678" data-name="Path 64678" d="M36.529,17.972a4.68,4.68,0,0,0-3.8,1.985l-7.466-3.933a4.721,4.721,0,0,0-.139-3.182l7.813-4.827a4.657,4.657,0,0,0,3.59,1.73,4.812,4.812,0,0,0,4.738-4.872,4.739,4.739,0,1,0-9.474,0,4.948,4.948,0,0,0,.329,1.752l-7.837,4.85A4.654,4.654,0,0,0,20.738,9.8a4.874,4.874,0,1,0,0,9.747A4.687,4.687,0,0,0,24.582,17.5l7.442,3.917a4.932,4.932,0,0,0-.232,1.43,4.739,4.739,0,1,0,4.737-4.879Z" transform="translate(-15.987 -0.012)" fill="#2d435e"/>
  </g>
</svg>
