<svg xmlns="http://www.w3.org/2000/svg" xmlns:xlink="http://www.w3.org/1999/xlink" width="73.2" height="78.179" viewBox="0 0 73.2 78.179">
  <defs>
    <clipPath id="clip-path">
      <rect id="Rectangle_22935" data-name="Rectangle 22935" width="73.2" height="78.179" transform="translate(5)" fill="none"/>
    </clipPath>
  </defs>
  <g id="banks-aggregated-data-hover" transform="translate(-5)" clip-path="url(#clip-path)">
    <path id="Path_8211" data-name="Path 8211" d="M84.323,69.827c.931,0,1.829.024,2.725-.009.553-.02.742.2.723.732-.028.786-.007,1.574-.007,2.475,1.012,0,2,.04,2.981-.013.695-.038.966.176.917.894-.055.807-.032,1.622-.006,2.432.017.546-.21.773-.744.721-.115-.011-.232,0-.347,0H34.887c-1.085,0-1.085,0-1.085-1.064,0-.788.013-1.576,0-2.364-.01-.45.176-.617.621-.61,1.061.018,2.122.006,3.277.006,0-.861.02-1.663-.007-2.465-.018-.534.173-.753.725-.737,1.018.03,2.037.009,3.116.009V54.167c-1.927,0-.646-1.555-1.233-2.416H38.186c-.672,0-1.345-.023-2.015.007-.638.028-.857-.251-.848-.871.024-1.805.008-3.612.008-5.533H32.488a4.577,4.577,0,0,1-.9-.014A2.834,2.834,0,0,1,30.911,45c.165-.195.29-.472.5-.571,2.174-1.029,4.363-2.03,6.547-3.039.183-.084.361-.177.548-.27-2.7-3.217-3.16-5.685-1.568-8.365a6.345,6.345,0,0,1,6.784-2.988c2.967.61,4.634,2.724,5.132,6.588.221-.1.42-.184.617-.274q6.3-2.9,12.6-5.815a1.251,1.251,0,0,1,1.171.014q15.2,6.985,30.4,13.961c.342.158.886.512.86.714-.078.614-.685.371-1.085.381-1.063.028-2.128.01-3.292.01v1.325q0,2.051,0,4.1c0,.883-.084.968-.944.97-1.273,0-2.546,0-3.923,0,0,.484-.023.939.006,1.39.043.665-.085,1.141-.943.954ZM91.9,44.481l.015-.12c-.1-.051-.2-.106-.3-.153Q77.353,37.67,63.088,31.15a1.286,1.286,0,0,0-.949.032q-6.473,2.949-12.916,5.963a1.537,1.537,0,0,0-.728.8A6.449,6.449,0,0,1,39.93,41.87a1.447,1.447,0,0,0-1.009.022c-1.423.614-2.82,1.286-4.227,1.938-.386.179-.77.362-1.155.543l.039.108Zm-2.658,6.4V47.851h-.884q-13.205,0-26.411-.008c-.371,0-.986.208-.991-.415-.005-.658.626-.4.983-.4q13.24-.022,26.48-.012h.827V45.4H36.212v5.477ZM58.525,69.79v-15.7c-.848.158-.987-.314-.943-.979.029-.432.006-.869.006-1.324h-6.21c-.637.764.707,2.355-1.249,2.365V69.79Zm17.1.015V54.09c-.869.175-.979-.318-.939-.973.026-.433.005-.869.005-1.328H68.415c-.5.8.707,2.328-1.18,2.374V69.8ZM34.678,76.187h56.1v-2.3h-56.1Zm52.2-5.476H38.574V72.99H86.881ZM42.408,41.51A5.521,5.521,0,1,0,36.878,36a5.542,5.542,0,0,0,5.53,5.514M81.187,54.161H78.78V69.808h2.406Zm-17.1,0H61.673V69.805h2.411Zm-17.106,0H44.71V69.807h2.269Zm36.436,0h-1.3V69.806h1.3Zm-5.568.006h-1.29V69.808h1.29ZM65,69.78H66.3V54.141H65Zm-5.57.006h1.322V54.16H59.425Zm-11.518,0h1.3V54.138h-1.3ZM43.78,54.162H42.485V69.809H43.78Zm-2.415-.936h8.958V51.781H41.365Zm17.074,0h8.97V51.8h-8.97Zm25.947-1.442h-8.8v1.453h8.8Z" transform="translate(-19.608 -24.129)" fill="#383330"/>
    <path id="Path_8213" data-name="Path 8213" d="M104.215,2.094c0,.507.032,1.017-.017,1.519-.017.176-.237.331-.365.5-.149-.168-.419-.331-.426-.5-.041-1.035-.037-2.074,0-3.11.006-.169.239-.331.367-.5.148.168.4.324.425.506a14.314,14.314,0,0,1,.02,1.588" transform="translate(-78.615)" fill="#383330"/>
    <path id="Path_8214" data-name="Path 8214" d="M91.478,2.071a11.284,11.284,0,0,1-.02,1.45c-.027.211-.267.394-.41.59-.134-.183-.377-.361-.384-.549-.038-1.013-.038-2.028,0-3.041.007-.178.267-.347.411-.52.134.183.361.356.383.551a14.034,14.034,0,0,1,.019,1.519" transform="translate(-68.239)" fill="#383330"/>
    <path id="Path_8215" data-name="Path 8215" d="M77.151,2.044a11.284,11.284,0,0,1,.02-1.45c.028-.212.266-.4.409-.593.135.182.379.36.386.547.038,1.013.038,2.028,0,3.041-.007.179-.265.348-.407.521-.135-.182-.365-.353-.387-.548a13.989,13.989,0,0,1-.019-1.519" transform="translate(-57.248 -0.001)" fill="#383330"/>
    <path id="Path_8216" data-name="Path 8216" d="M68.568,45.171a5.521,5.521,0,1,1,5.549-5.495,5.546,5.546,0,0,1-5.549,5.495m.328-2.75c1.058-.332,1.505-.819,1.573-1.67.065-.814-.25-1.225-1.229-1.7a.733.733,0,0,1-.355-.469,6.582,6.582,0,0,1-.017-1.049.952.952,0,0,0,1.39.315c-.042-1.052-1.109-1.041-1.59-1.619-.029-.035-.238.052-.342.116-.124.077-.21.239-.339.279A1.486,1.486,0,0,0,66.842,38.1a1.652,1.652,0,0,0,1.086,1.621.665.665,0,0,1,.366.4,11.891,11.891,0,0,1,.017,1.39c-.51-.544-.835-1.2-1.562-.7.134.929.406,1.224,1.509,1.638.091.69.091.69.587.618l.051-.648" transform="translate(-45.768 -27.79)" fill="#fff"/>
    <rect id="Rectangle_22922" data-name="Rectangle 22922" width="2.406" height="15.646" transform="translate(59.172 30.032)" fill="#fff"/>
    <path id="Path_8217" data-name="Path 8217" d="M187.073,61.838a3.439,3.439,0,1,1,3.482-3.393,3.452,3.452,0,0,1-3.482,3.393m.062-.834a2.605,2.605,0,0,0-.036-5.211A2.606,2.606,0,1,0,187.134,61" transform="translate(-143.965 -44.752)" fill="#383330"/>
    <path id="Path_8228" data-name="Path 8228" d="M120.4,124.035c-.946,0-1.894.03-2.838-.02-.247-.013-.481-.274-.722-.421.226-.131.451-.372.679-.375q2.873-.046,5.747,0c.23,0,.457.24.686.369-.237.149-.469.413-.713.427-.944.05-1.892.02-2.838.02" transform="translate(-89.575 -100.314)"/>
    <path id="Path_8229" data-name="Path 8229" d="M85.166,51.6l-.051.648c-.5.072-.5.072-.587-.618-1.1-.413-1.376-.709-1.509-1.638.727-.505,1.052.154,1.562.7a11.892,11.892,0,0,0-.017-1.39.665.665,0,0,0-.366-.4,1.652,1.652,0,0,1-1.086-1.621,1.486,1.486,0,0,1,1.146-1.476c.129-.04.215-.2.339-.279.1-.064.313-.151.342-.116.481.577,1.548.567,1.59,1.618a.952.952,0,0,1-1.39-.315,6.579,6.579,0,0,0,.016,1.049.732.732,0,0,0,.355.469c.98.473,1.294.884,1.229,1.7-.068.851-.515,1.338-1.573,1.67m-.008-.97.261.093a2.834,2.834,0,0,0,.33-.907c0-.2-.291-.4-.452-.6l-.139.111Zm-.642-2.751V46.564c-.509.517-.561.894,0,1.316" transform="translate(-62.037 -36.97)" fill="#383330"/>
    <path id="Path_8231" data-name="Path 8231" d="M94.532,67.363v-1.3l.139-.111c.161.2.455.4.452.6a2.836,2.836,0,0,1-.33.907l-.261-.093" transform="translate(-71.412 -53.702)" fill="#fff"/>
    <path id="Path_8232" data-name="Path 8232" d="M89.318,52.967c-.561-.422-.509-.8,0-1.316Z" transform="translate(-66.84 -42.057)" fill="#fff"/>
    <path id="Path_8242" data-name="Path 8242" d="M0,0H59.827" transform="translate(12.842 58.829)" fill="#cf8e56" stroke="#c08350" stroke-linecap="round" stroke-width="2"/>
    <line id="Line_406" data-name="Line 406" y2="11.928" transform="translate(42.756 53.062)" fill="none" stroke="#c08350" stroke-linecap="round" stroke-miterlimit="10" stroke-width="2"/>
    <rect id="Rectangle_22934" data-name="Rectangle 22934" width="7.448" height="5.985" transform="translate(39.044 56.083)" fill="#c08350" stroke="#c08350" stroke-width="1"/>
    <path id="Path_8233" data-name="Path 8233" d="M332,369.929q-2.378,0-4.757,0c-.74,0-1.063-.328-1.063-1.075q0-3.038,0-6.076a.913.913,0,0,1,1.049-1.052q1.3,0,2.6,0a.9.9,0,0,1,1.041.916.886.886,0,0,0,.966.84c1.659,0,3.317,0,4.976,0,.772,0,1.084.315,1.085,1.09q0,2.16,0,4.319a.907.907,0,0,1-1.028,1.036q-2.433,0-4.866,0" transform="translate(-260.034 -292.313)" fill="#383330"/>
    <path id="Path_8234" data-name="Path 8234" d="M168.934,369.929q-2.4,0-4.793,0a.916.916,0,0,1-1.05-1.052q0-3.056,0-6.113a.906.906,0,0,1,1.025-1.039q1.335,0,2.671,0a.886.886,0,0,1,.99.892.889.889,0,0,0,.981.864c1.659,0,3.317,0,4.976,0,.753,0,1.071.317,1.072,1.066q0,2.16,0,4.319c0,.741-.325,1.06-1.078,1.06q-2.4,0-4.793,0" transform="translate(-127.236 -292.312)" fill="#383330"/>
    <path id="Path_8235" data-name="Path 8235" d="M5.856,369.929q-2.4,0-4.793,0C.324,369.928,0,369.6,0,368.852q0-3.038,0-6.076c0-.722.329-1.049,1.051-1.05q1.3,0,2.6,0a.9.9,0,0,1,1.039.917.886.886,0,0,0,.968.839c1.646,0,3.293,0,4.939,0,.822,0,1.12.3,1.12,1.128q0,2.141,0,4.283a.907.907,0,0,1-1.03,1.035q-2.415,0-4.83,0" transform="translate(5.562 -292.313)" fill="#383330"/>
    <path id="Path_8236" data-name="Path 8236" d="M30.351,321.505h-.766l1.149,2.3,1.144-2.285h-.745v-6.9h4.032a.983.983,0,0,0,.238-.011.379.379,0,0,0-.009-.745.978.978,0,0,0-.214-.009h-4.3c-.406,0-.525.119-.525.527q0,3.406,0,6.812v.314" transform="translate(-18.528 -255.557)"/>
    <path id="Path_8237" data-name="Path 8237" d="M30.351,321.505h-.766l1.149,2.3,1.144-2.285h-.745v-6.9h4.032a.983.983,0,0,0,.238-.011.379.379,0,0,0-.009-.745.978.978,0,0,0-.214-.009h-4.3c-.406,0-.525.119-.525.527q0,3.406,0,6.812Z" transform="translate(-18.528 -255.557)" fill="#c08350" stroke="#c08350" stroke-miterlimit="10" stroke-width="1"/>
    <path id="Path_8239" data-name="Path 8239" d="M342.1,322.682h.766l-1.149,2.3-1.144-2.285h.745v-6.9h-4.032a1,1,0,0,1-.238-.011.379.379,0,0,1,.009-.745.984.984,0,0,1,.214-.009h4.3c.406,0,.525.119.525.527q0,3.406,0,6.812Z" transform="translate(-268.636 -256.515)" fill="#cf8e56" stroke="#c08350" stroke-miterlimit="10" stroke-width="1"/>
    <path id="Path_8240" data-name="Path 8240" d="M194.31,334.79h.97l-1.455,2.909-1.451-2.9h.966v-.351c0-1.151,0-2.3,0-3.453,0-.374.236-.61.548-.567.266.037.42.239.421.573q0,1.711,0,3.423v.365" transform="translate(-151.081 -269.052)" fill="#cf8e56"/>
    <path id="Path_8241" data-name="Path 8241" d="M194.31,334.79h.97l-1.455,2.909-1.451-2.9h.966v-.351c0-1.151,0-2.3,0-3.453,0-.374.236-.61.548-.567.266.037.42.239.421.573q0,1.711,0,3.423Z" transform="translate(-151.081 -269.052)" fill="#c08350" stroke="#c08350" stroke-miterlimit="10" stroke-width="1"/>
    <path id="Path_8243" data-name="Path 8243" d="M84.323,69.827c.931,0,1.829.024,2.725-.009.553-.02.742.2.723.732-.028.786-.007,1.574-.007,2.475,1.012,0,2,.04,2.981-.013.695-.038.966.176.917.894-.055.807-.032,1.622-.006,2.432.017.546-.21.773-.744.721-.115-.011-.232,0-.347,0H34.887c-1.085,0-1.085,0-1.085-1.064,0-.788.013-1.576,0-2.364-.01-.45.176-.617.621-.61,1.061.018,2.122.006,3.277.006,0-.861.02-1.663-.007-2.465-.018-.534.173-.753.725-.737,1.018.03,2.037.009,3.116.009V54.167c-1.927,0-.646-1.555-1.233-2.416H38.186c-.672,0-1.345-.023-2.015.007-.638.028-.857-.251-.848-.871.024-1.805.008-3.612.008-5.533H32.488a4.577,4.577,0,0,1-.9-.014A2.834,2.834,0,0,1,30.911,45c.165-.195.29-.472.5-.571,2.174-1.029,4.363-2.03,6.547-3.039.183-.084.361-.177.548-.27-2.7-3.217-3.16-5.685-1.568-8.365a6.345,6.345,0,0,1,6.784-2.988c2.967.61,4.634,2.724,5.132,6.588.221-.1.42-.184.617-.274q6.3-2.9,12.6-5.815a1.251,1.251,0,0,1,1.171.014q15.2,6.985,30.4,13.961c.342.158.886.512.86.714-.078.614-.685.371-1.085.381-1.063.028-2.128.01-3.292.01v1.325q0,2.051,0,4.1c0,.883-.084.968-.944.97-1.273,0-2.546,0-3.923,0,0,.484-.023.939.006,1.39.043.665-.085,1.141-.943.954ZM91.9,44.481l.015-.12c-.1-.051-.2-.106-.3-.153Q77.353,37.67,63.088,31.15a1.286,1.286,0,0,0-.949.032q-6.473,2.949-12.916,5.963a1.537,1.537,0,0,0-.728.8A6.449,6.449,0,0,1,39.93,41.87a1.447,1.447,0,0,0-1.009.022c-1.423.614-2.82,1.286-4.227,1.938-.386.179-.77.362-1.155.543l.039.108Zm-2.658,6.4V47.851h-.884l-18.892,0-7.519-.006c-.371,0-.986.208-.991-.415-.005-.658.626-.4.983-.4q13.24-.022,26.48-.012h.827V45.4H36.212v5.477ZM58.525,69.79v-15.7c-.848.158-.987-.314-.943-.979.029-.432.006-.869.006-1.324h-6.21c-.637.764.707,2.355-1.249,2.365V69.79Zm17.1.015V54.09c-.869.175-.979-.318-.939-.973.026-.433.005-.869.005-1.328H68.415c-.5.8.707,2.328-1.18,2.374V69.8ZM34.678,76.187h56.1v-2.3h-56.1Zm52.2-5.476H38.574V72.99H86.881ZM42.408,41.51A5.521,5.521,0,1,0,36.878,36,5.542,5.542,0,0,0,42.408,41.51ZM81.187,54.161H78.78V69.808h2.406Zm-17.1,0H61.673V69.805h2.411Zm-17.106,0H44.71V69.807h2.269Zm36.436,0h-1.3V69.806h1.3Zm-5.568.006h-1.29V69.808h1.29ZM65,69.78H66.3V54.141H65Zm-5.57.006h1.322V54.16H59.425Zm-11.518,0h1.3V54.138h-1.3ZM43.78,54.162H42.485V69.809H43.78Zm-2.415-.936h8.958V51.781H41.365Zm17.074,0h8.97V51.8h-8.97Zm25.947-1.442h-8.8v1.453h8.8Z" transform="translate(-19.608 -24.129)" fill="#f6c091" stroke="#f6c091" stroke-miterlimit="10" stroke-width="0.5"/>
  </g>
</svg>
