<svg id="cement-statistics" xmlns="http://www.w3.org/2000/svg" xmlns:xlink="http://www.w3.org/1999/xlink" width="75.147" height="84.606" viewBox="0 0 75.147 84.606">
  <defs>
    <clipPath id="clip-path">
      <rect id="Rectangle_22871" data-name="Rectangle 22871" width="75.147" height="84.606" fill="none"/>
    </clipPath>
  </defs>
  <g id="Group_7945" data-name="Group 7945" clip-path="url(#clip-path)">
    <path id="Path_8075" data-name="Path 8075" d="M54.661,84.607c-1.8-.268-3.71-.427-5.56-.861a19.151,19.151,0,0,1-6.363-2.88,2.166,2.166,0,0,0-1.136-.35c-4.558-.033-9.116-.038-13.675-.041-1.979,0-3.958.033-5.937.026a20.142,20.142,0,0,1-7.309-1.486c-.808-.316-.974-.291-1.476.414-.72,1.012-1.423,2.035-2.141,3.048a4.378,4.378,0,0,1-6.37,1.063c-.939-.672-1.886-1.333-2.818-2.016A4.4,4.4,0,0,1,.81,75.384c1-1.454,2.008-2.9,3.042-4.331a1.1,1.1,0,0,0,.077-1.365,21.512,21.512,0,0,1-2.86-10.98q.006-14.1,0-28.2c0-1.744-.024-3.488,0-5.231A20.926,20.926,0,0,1,3.794,15.049a1.464,1.464,0,0,0-.105-1.873C2.672,11.842,1.733,10.449.783,9.066a4.372,4.372,0,0,1,.822-5.888A37.5,37.5,0,0,1,5.055.7a4.338,4.338,0,0,1,6.03,1.328c.716,1.042,1.46,2.063,2.176,3.106A.962.962,0,0,0,14.6,5.5a20.027,20.027,0,0,1,7.558-1.529q9.552,0,19.1,0a20.247,20.247,0,0,1,7.743,1.588.871.871,0,0,0,1.168-.38c.807-1.1,1.68-2.157,2.412-3.305a4.277,4.277,0,0,1,5.7-1.252,44.171,44.171,0,0,1,3.668,2.624,4.344,4.344,0,0,1,.783,5.739q-1.471,2.2-3.041,4.333a1.273,1.273,0,0,0-.082,1.593,20.5,20.5,0,0,1,2.762,10.161c.042,6.194.026,12.389,0,18.583a1.23,1.23,0,0,0,.843,1.294,20.276,20.276,0,0,1,11.5,14.8A19.926,19.926,0,0,1,71.59,75.272a20.146,20.146,0,0,1-13.2,8.755c-1.184.24-2.39.375-3.727.58M60.977,44V43.12q0-8.735,0-17.471A20.3,20.3,0,0,0,58.231,15.3a2.129,2.129,0,0,1,.081-2.449c1.06-1.518,2.136-3.025,3.181-4.552a2.967,2.967,0,0,0-.735-4.212c-.913-.671-1.841-1.323-2.765-1.979a2.965,2.965,0,0,0-4.48.795c-.651.927-1.3,1.859-1.951,2.783-1.06,1.495-1.61,1.6-3.364,1a22.091,22.091,0,0,0-7.274-1.331c-5.864.026-11.729.041-17.593-.005a21.159,21.159,0,0,0-8.108,1.424,2.327,2.327,0,0,1-3.25-1C11.265,4.76,10.564,3.734,9.83,2.732a2.919,2.919,0,0,0-4.257-.683c-.892.625-1.782,1.254-2.662,1.9a3.033,3.033,0,0,0-.767,4.6c.915,1.3,1.794,2.632,2.758,3.9a2.626,2.626,0,0,1,.155,3.245,19.375,19.375,0,0,0-2.572,9.8q-.03,16.524-.01,33.047A20.287,20.287,0,0,0,5.151,68.971a2.451,2.451,0,0,1-.182,2.963c-.982,1.334-1.924,2.7-2.868,4.059a3,3,0,0,0,.718,4.463q1.363,1.015,2.768,1.973a2.955,2.955,0,0,0,4.375-.841q1.077-1.56,2.173-3.108a2.227,2.227,0,0,1,2.914-.848,19.64,19.64,0,0,0,7.508,1.481c2.114-.009,4.229,0,6.343,0l10.536,0h.993a20.916,20.916,0,0,1-4.161-25.623,20.594,20.594,0,0,1,8.718-8.316A20.811,20.811,0,0,1,60.977,44M35.029,63.726a19.343,19.343,0,1,0,20-19.364,19.346,19.346,0,0,0-20,19.364" transform="translate(0 0)" fill="#383330" stroke="#383330" stroke-width="0.5"/>
    <path id="Path_8076" data-name="Path 8076" d="M64.023,91.146v-.852q0-3.109,0-6.217c0-.945.133-1.079,1.048-1.079q9.226,0,18.452,0c.927,0,1.074.141,1.077,1.053.006,2.05,0,4.1,0,6.15,0,.28.025.56.043.944.289,0,.54,0,.791,0q3.466.035,6.931.069a2.7,2.7,0,0,0,.323-.043c.979-.111,1.273.157,1.271,1.134q-.007,3.624,0,7.248c0,.98-.139,1.119-1.148,1.119q-9.225,0-18.451,0l-18.779,0c-.24,0-.48.005-.72-.008a.713.713,0,0,1-.762-.787c0-2.618-.007-5.235,0-7.853,0-.633.3-.875,1.024-.876q4.025-.007,8.049,0h.847M55.508,99.2H73.285c0-2.124.01-4.192-.023-6.259,0-.129-.339-.359-.524-.363-1.934-.049-3.869-.081-5.8-.079-2.463,0-4.926.043-7.389.06-1.156.008-2.312,0-3.468,0-.292,0-.574-.009-.573.423.008,2.047,0,4.094,0,6.215m37.1.046c0-2.14,0-4.161,0-6.183,0-.362-.176-.5-.527-.5-.651.008-1.3-.006-1.954-.006-4.883,0-9.766.011-14.649-.009-.58,0-.746.169-.734.742.035,1.722.04,3.445,0,5.166-.015.627.162.806.8.8,5.406-.024,10.812-.014,16.218-.014h.851M65.464,91.078H83.124V84.433H65.464Z" transform="translate(-42.295 -64.89)" fill="#cf8e56" stroke="#cf8e56" stroke-width="1"/>
    <path id="Path_8077" data-name="Path 8077" d="M206.745,255.146a3.175,3.175,0,0,1-.243.32q-4.79,4.809-9.585,9.614c-.546.548-.836.547-1.383,0l-4.665-4.677c-.084-.085-.173-.165-.33-.317a2.476,2.476,0,0,1-.238.338q-3.73,3.743-7.464,7.483c-.459.46-.864.518-1.194.175s-.257-.72.2-1.173q4.036-4.045,8.069-8.09c.533-.533.838-.536,1.362-.009q2.332,2.338,4.663,4.679a2.907,2.907,0,0,1,.2.244l9.579-9.6c-.02-.022-.088-.1-.162-.177q-1.34-1.346-2.683-2.688a.725.725,0,0,1,.542-1.306c2.243.005,4.486,0,6.729,0,.632,0,.866.244.866.889,0,2.227,0,4.454,0,6.68a.778.778,0,0,1-.42.824.762.762,0,0,1-.91-.262c-.95-.964-1.909-1.92-2.933-2.948" transform="translate(-141.86 -195.419)" fill="#f6c092" stroke="#f6c092" stroke-width="0.5"/>
  </g>
</svg>
