<svg id="construction-materials" xmlns="http://www.w3.org/2000/svg" xmlns:xlink="http://www.w3.org/1999/xlink" width="104.68" height="81.785" viewBox="0 0 104.68 81.785">
  <defs>
    <clipPath id="clip-path">
      <rect id="Rectangle_22873" data-name="Rectangle 22873" width="104.68" height="81.785" fill="none"/>
    </clipPath>
  </defs>
  <g id="Group_7946" data-name="Group 7946" clip-path="url(#clip-path)">
    <path id="Path_8078" data-name="Path 8078" d="M85.73,79.127l-2.171-2.294,20.16-25.677-.106-.12H42.822c.615,1.842,1.212,3.636,1.814,5.427,1.165,3.468,2.345,6.93,3.487,10.405a2.418,2.418,0,0,0,1.022,1.279q3.352,2.291,6.7,4.583,4.1,2.813,8.2,5.636c.763.526.753.531.273,1.308-.4.641-.778,1.289-1.157,1.917L56.306,76.9c0,4.468,0,8.868,0,13.269a1.594,1.594,0,1,1-3.176-.009q-.012-3.937-.007-7.874c0-2.311,0-4.622.018-6.933a1.1,1.1,0,0,0-.532-1.028Q46.346,70.065,40.1,65.778,35.894,62.895,31.7,60c-.5-.346-1.024-.667-1.516-1.028a2.444,2.444,0,0,0-1.532-.449q-6.195.018-12.39,0a5.3,5.3,0,0,1-1.32-.134,1.63,1.63,0,0,1-1.155-1.548,1.715,1.715,0,0,1,1.448-1.482,6.614,6.614,0,0,1,.841-.041c4.378,0,8.755.025,13.133,0a4.183,4.183,0,0,1,2.522.83q5.466,3.8,10.968,7.557c.348.238.735.42,1.22.693a4.565,4.565,0,0,0-.106-.6Q41.688,57.6,39.561,51.4a11.382,11.382,0,0,1-.513-1.7,1.49,1.49,0,0,1,1.473-1.867c1.5-.066,3-.028,4.507-.035.148,0,.3-.006.446,0,.309.009.455-.113.527-.443A14.882,14.882,0,0,1,50.542,39.3,15.185,15.185,0,0,1,59.7,35.261c.049,0,.1,0,.148-.01.409-.059.918.007,1.194-.216.236-.19.216-.71.286-1.088a13.291,13.291,0,0,1,22.608-6.6,12.144,12.144,0,0,1,3.473,7.432c.045.419.215.5.572.545a15.08,15.08,0,0,1,8.416,3.854,14.388,14.388,0,0,1,4.6,7.8c.169.787.194.8,1.007.814,1.453.018,2.907,0,4.361.005.247,0,.5,0,.742.024a1.557,1.557,0,0,1,1.262,2.5c-.461.719-1.03,1.37-1.559,2.045Q100.753,60.082,94.7,67.794,90.693,72.9,86.685,78c-.3.387-.636.754-.955,1.13M97.921,47.695c-.083-.287-.131-.46-.184-.632a11.588,11.588,0,0,0-8.192-8.136,25.272,25.272,0,0,0-3.753-.594,1.572,1.572,0,0,1-1.521-1.683c-.006-.314-.005-.627-.01-.941a8.751,8.751,0,0,0-2.481-6.034,9.829,9.829,0,0,0-8.747-3.112,9.625,9.625,0,0,0-7.416,4.787,9.3,9.3,0,0,0-1.25,5.019c.018,1.634-.558,2.085-2.18,2.063a15.777,15.777,0,0,0-3.251.159,11.846,11.846,0,0,0-9.492,8.147c-.353,1.013-.36,1.044.719,1.057,1.7.021,3.4-.005,5.1,0q20.712.008,41.424.014c.388,0,.776-.069,1.229-.111" transform="translate(-8.913 -15.056)" fill="#383330"/>
    <path id="Path_8079" data-name="Path 8079" d="M22.837,11.439v4.947H49.424c.122.514-.149.557-.434.639-1.345.386-2.7.755-4.022,1.2-.7.236-1.33.661-2.021.924a5.078,5.078,0,0,1-1.7.417c-3.634.035-7.268.014-10.9.012a2.912,2.912,0,0,1-.347,0c-.48-.058-.668.106-.652.628.041,1.32.032,2.641.013,3.961-.005.373.186.4.46.4q2.6-.013,5.2-.02c.588,0,1.175,0,1.781,0-.571,1.018-1.084,1.926-1.591,2.838a.915.915,0,0,1-.936.412q-3.122-.019-6.243-.031c-1.716,0-3.432,0-5.183,0v4.964h3.973v3.221H3.189c0,.5.008.938,0,1.379A1.968,1.968,0,0,1,2.7,38.743,4.659,4.659,0,0,0,1.657,42.77c.056.332.132.661.217,1.083A3.257,3.257,0,0,1,.018,41.076c-.021-1.717-.03-3.434.009-5.15.021-.916.554-1.827.01-2.747.022-2.044-.024-4.093.1-6.131a4.01,4.01,0,0,0-.061-1.961,2.506,2.506,0,0,1-.065-.931c0-1.42-.036-2.841.015-4.258a15.219,15.219,0,0,1,.326-1.832,1.183,1.183,0,0,0-.065-.492c-.058-.2-.216-.39-.216-.584,0-2.11-.01-4.221.062-6.328.02-.6.278-1.175-.029-1.788A2.065,2.065,0,0,1,.013,8C.006,6.444,0,4.892.013,3.341A3.175,3.175,0,0,1,3.023.04,7.851,7.851,0,0,1,3.864,0q13.38,0,26.761,0a3.364,3.364,0,0,1,3.612,2.6,2.639,2.639,0,0,1,.073.634c.006,1.453.02,2.906-.009,4.358-.009.471.125.618.605.616C39.7,8.19,44.487,8.174,49.278,8.2c.914,0,1.826.2,2.741.289a2.93,2.93,0,0,0,.683-.02c.827-.113,1.651-.24,2.512-.282a21.178,21.178,0,0,0-4.449,5.122c0-.45-.016-.9.005-1.351.016-.341-.07-.54-.455-.533-.33.006-.66-.03-.99-.03q-12.686,0-25.373,0c-.36,0-.719.029-1.116.047M3.183,3.253c0,1.527,0,3.009,0,4.491,0,.324.083.479.454.456.543-.035,1.09-.01,1.635-.01l23.192,0c.743,0,1.487.023,2.229,0,.132,0,.367-.2.369-.3.024-1.529.017-3.058.017-4.626Zm11.558,21.31v0c3.648,0,7.3-.007,10.944.01.423,0,.521-.121.511-.529-.03-1.253-.012-2.507-.015-3.761,0-.7,0-.7-.71-.7l-19.164,0c-.908,0-1.815.005-2.723,0-.313,0-.421.1-.415.437.021,1.3.032,2.607,0,3.909-.014.5.133.651.634.649,3.648-.018,7.3-.01,10.944-.01M3.184,27.8v1.008c0,1.155,0,2.31,0,3.465,0,.325.059.5.468.5,4.8-.019,9.609-.016,14.414-.019h1.53V27.8ZM19.619,11.439H3.209v4.875h16.41Z" transform="translate(0 0)" fill="#cf8d54"/>
    <path id="Path_8080" data-name="Path 8080" d="M159.992,185.9a9.767,9.767,0,1,1,9.88,9.81,9.763,9.763,0,0,1-9.88-9.81m9.792-6.545a6.564,6.564,0,1,0,6.56,6.532,6.509,6.509,0,0,0-6.56-6.532" transform="translate(-103.481 -113.926)" fill="#cf8d54"/>
    <path id="Path_8081" data-name="Path 8081" d="M261.973,69.636a4.276,4.276,0,0,1,.68-.107c2.774-.01,5.548-.043,8.321,0a3.153,3.153,0,0,1,3.144,3.222c.007,1.879,0,3.76-.112,5.635A16.025,16.025,0,0,0,274,80.316a57.823,57.823,0,0,1,.079,5.979,2.913,2.913,0,0,1-2.8,2.725c-1.447.084-2.9.042-4.354.047a2.845,2.845,0,0,1-.487-.084c-.011-.066-.039-.127-.021-.149.654-.828,1.328-1.64,1.962-2.483a1.074,1.074,0,0,1,.915-.479c.413,0,.826-.019,1.238,0,.331.017.439-.12.43-.433-.015-.544.008-1.089-.013-1.633a1.75,1.75,0,0,1,.464-1.314,4.949,4.949,0,0,0,.274-6.054c-.058-.08-.1-.193-.176-.236-.633-.348-.559-.944-.555-1.52,0-.5-.017-.991,0-1.485.014-.355-.086-.485-.476-.481-2.03.022-4.062,0-6.092.019a.97.97,0,0,1-1.052-.653c-.371-.817-.87-1.575-1.365-2.448" transform="translate(-169.442 -44.958)" fill="#383330"/>
    <path id="Path_8082" data-name="Path 8082" d="M9.005,9.209H36.9c0,1.568.008,3.1-.017,4.626,0,.108-.237.3-.369.3-.742.026-1.486,0-2.229,0l-23.192,0c-.545,0-1.092-.024-1.635.01C9.085,14.179,9,14.024,9,13.7c.007-1.482,0-2.964,0-4.491" transform="translate(-5.822 -5.956)" fill="#fff"/>
    <path id="Path_8083" data-name="Path 8083" d="M20.533,60.412c-3.648,0-7.3-.008-10.944.01-.5,0-.648-.146-.634-.648.036-1.3.026-2.606,0-3.909-.006-.332.1-.44.415-.438.908.008,1.815,0,2.723,0l19.164,0c.707,0,.709,0,.71.7,0,1.254-.015,2.508.015,3.761.01.408-.088.531-.511.529-3.648-.017-7.3-.01-10.944-.01Z" transform="translate(-5.792 -35.85)" fill="#fff"/>
    <path id="Path_8084" data-name="Path 8084" d="M9.009,78.7H25.42V83.65h-1.53c-4.8,0-9.609,0-14.414.019-.409,0-.47-.172-.468-.5.005-1.155,0-2.31,0-3.465V78.7" transform="translate(-5.826 -50.902)" fill="#fff"/>
    <rect id="Rectangle_22872" data-name="Rectangle 22872" width="16.41" height="4.875" transform="translate(3.209 11.439)" fill="#fff"/>
  </g>
</svg>
