<svg xmlns="http://www.w3.org/2000/svg" xmlns:xlink="http://www.w3.org/1999/xlink" width="84.543" height="84.529" viewBox="0 0 84.543 84.529">
  <defs>
    <clipPath id="clip-path">
      <rect id="Rectangle_22882" data-name="Rectangle 22882" width="84.543" height="84.529" fill="none"/>
    </clipPath>
  </defs>
  <g id="consumer-spending-hover" clip-path="url(#clip-path)">
    <path id="Path_8118" data-name="Path 8118" d="M14.11,128.246a4.273,4.273,0,0,1-.7-.439,11.288,11.288,0,0,1-2.843-4.091.98.98,0,0,0-1.042-.74,5.388,5.388,0,0,1-5.181-3.809A5.466,5.466,0,0,1,6.4,113.124a1.314,1.314,0,0,0,.413-.9c.038-1.845.011-3.691.02-5.537A10.919,10.919,0,0,1,17.762,95.741c3.178-.009,6.373-.128,9.531.147a10.728,10.728,0,0,1,9.517,10.427c.038,1.93.023,3.862,0,5.792a1.2,1.2,0,0,0,.531,1.129,5.395,5.395,0,0,1-3.107,9.735,1.245,1.245,0,0,0-1.2.781c-.844,1.4-1.83,2.707-2.784,4.034a4.206,4.206,0,0,1-.813.625c1.086.2,1.918.315,2.732.508a14.933,14.933,0,0,1,11.453,14.318c.04,4.515.013,9.03.008,13.545,0,1.177-.474,1.659-1.651,1.659q-20.147.008-40.294,0c-1.224,0-1.676-.474-1.677-1.718,0-4.486-.029-8.973.006-13.46a14.963,14.963,0,0,1,13.435-14.691c.159-.016.316-.048.474-.073l.181-.256M10.921,139.4v16.25H32.76V139.428h2.725v16.228h5.4c0-4.434.19-8.814-.048-13.17a12.062,12.062,0,0,0-9.262-10.935,1.016,1.016,0,0,0-1.366.54c-.949,1.711-2,3.368-3,5.05a1.439,1.439,0,0,1-1.786.765,7.029,7.029,0,0,0-.746-.132,4.78,4.78,0,0,0,.09.8c.785,2.783,1.572,5.565,2.386,8.339a1.53,1.53,0,0,1-.334,1.649c-1.32,1.331-2.635,2.666-3.978,3.973a1.325,1.325,0,0,1-2.039-.009c-1.322-1.288-2.613-2.607-3.92-3.911a1.463,1.463,0,0,1-.4-1.63c.129-.374.219-.763.327-1.144q1.07-3.763,2.136-7.527a1.091,1.091,0,0,0,0-.547c-.011-.043-.294-.064-.426-.019-1.177.4-1.532.28-2.165-.769-.968-1.6-1.969-3.188-2.873-4.826a1.1,1.1,0,0,0-1.494-.58A12.3,12.3,0,0,0,2.74,143.428c-.017,3.833,0,7.667,0,11.5,0,.246.029.492.043.72H8.227V139.4Zm23.132-27.329c0-2.161.161-4.243-.035-6.291A7.748,7.748,0,0,0,26.9,98.6a71.97,71.97,0,0,0-10.286.015,7.529,7.529,0,0,0-6.8,6.211,62.726,62.726,0,0,0-.352,7.257c2.451,0,4.716.038,6.979-.009a6.768,6.768,0,0,0,6.747-6.886c0-.41,0-.821,0-1.223h2.727c0,1.837-.019,3.62.006,5.4a2.627,2.627,0,0,0,2.442,2.687c1.869.064,3.741.016,5.691.016m-10.443-.58c-2.436,2.76-5.518,3.554-8.976,3.333-.756-.048-1.517-.007-2.351-.007,0,1.481-.052,2.868.01,4.25a9.152,9.152,0,0,0,5.719,8.555,9.089,9.089,0,0,0,10.157-1.608c3.491-3.005,3.377-7.05,3.124-11.231-3.111.22-6.09.125-7.683-3.292M21.846,149.82c.832-.881,1.567-1.625,2.252-2.414a.929.929,0,0,0,.123-.74q-.929-3.4-1.925-6.783c-.062-.21-.328-.359-.5-.537-.151.167-.384.311-.441.505q-1,3.424-1.944,6.866a.912.912,0,0,0,.175.725c.676.762,1.4,1.482,2.258,2.376M9.5,120.2v-5.352a2.716,2.716,0,0,0-2.671,2.871A2.623,2.623,0,0,0,9.5,120.2m24.622-.014a2.6,2.6,0,0,0,2.69-2.478,2.7,2.7,0,0,0-2.69-2.847Zm-10.67,14.99-1.642-2.672c-.544.9-1,1.65-1.448,2.4a2.135,2.135,0,0,0-.123.293c1.809,1.417,1.383,1.386,3.213-.023m4.106-3.941H24.267l1.645,2.754,1.648-2.754m-8.185.01H16.1l1.638,2.733,1.642-2.733" transform="translate(0 -73.918)" fill="#b38e69"/>
    <path id="Path_8119" data-name="Path 8119" d="M228.189,241.75l2.091,1.739-4.883,5.872h15.848l-4.874-5.873,2.088-1.73c1.109,1.324,2.178,2.6,3.246,3.878.91,1.09,1.793,2.2,2.742,3.258a1.666,1.666,0,0,0,1.049.508c1.3.061,2.612.013,3.918.028,1.117.013,1.621.512,1.629,1.613q.018,2.47,0,4.942c-.006,1.033-.371,1.4-1.347,1.638a1.222,1.222,0,0,0-.7.666c-1.561,3.833-3.089,7.68-4.627,11.523-.515,1.287-.714,1.426-2.075,1.426q-8.989,0-17.977,0c-1.3,0-1.532-.156-2.021-1.379-1.538-3.843-3.082-7.683-4.6-11.534a.976.976,0,0,0-.941-.767,1.225,1.225,0,0,1-1.145-1.352c-.018-1.789-.025-3.579,0-5.367.014-.908.578-1.395,1.568-1.408,1.306-.018,2.615.036,3.918-.03a1.743,1.743,0,0,0,1.122-.53c1.994-2.325,3.942-4.689,5.972-7.121m20.087,10.463H218.369v2.623h29.907Zm-18.992,9.426h8.059v-3.988h-8.059Zm8.088,2.847h-8.1v3.98h8.1Zm2.827-6.856V261.7c1.389,0,2.719.008,4.048-.009.168,0,.436-.09.487-.211.533-1.253,1.03-2.521,1.562-3.844Zm-19.85,0c.52,1.3.992,2.508,1.49,3.7.062.149.259.342.4.344,1.4.025,2.807.015,4.2.015v-4.062Zm19.84,6.841v4.045a9.466,9.466,0,0,0,1.139-.012c.247-.031.623-.107.7-.272.541-1.226,1.02-2.48,1.534-3.761Zm-17.1-.012c.363.923.7,1.783,1.038,2.64.586,1.476.588,1.476,2.154,1.394a.558.558,0,0,0,.163-.077v-3.958Z" transform="translate(-166.508 -186.711)" fill="#b38e69"/>
    <path id="Path_8120" data-name="Path 8120" d="M137.584,9.019,139.143,7.2l1.965,2.031c-1.3,1.319-2.637,2.738-4.044,4.088a1.208,1.208,0,0,1-1.773-.064c-1.358-1.327-2.681-2.69-4.046-4.066l2.048-1.851,1.268,1.6.231-.144c.022-.206.061-.413.062-.619.006-1.306.017-2.612,0-3.918a1.387,1.387,0,0,0-1.464-1.521c-.2-.012-.4,0-.6,0H94.631c-1.665,0-2.038.377-2.038,2.062q0,6.644,0,13.288v.962H89.867v-.895q0-6.814,0-13.629A4.131,4.131,0,0,1,94.357,0q19.379,0,38.757,0a4.125,4.125,0,0,1,4.469,4.45c0,1.435,0,2.869,0,4.565" transform="translate(-69.407 0)" fill="#b38e69"/>
    <path id="Path_8121" data-name="Path 8121" d="M251.841,90.407a12.265,12.265,0,1,1,12.278-12.2,12.257,12.257,0,0,1-12.278,12.2m-.025-2.727a9.538,9.538,0,1,0-9.507-9.559,9.536,9.536,0,0,0,9.507,9.559" transform="translate(-185.036 -50.879)" fill="#b38e69"/>
    <path id="Path_8122" data-name="Path 8122" d="M241.576,192.238l1.972-2,1.366,1.771.273-.155v-6.006h2.739v5.985l.178.072,1.438-1.672,1.969,2.013c-1.349,1.375-2.689,2.8-4.1,4.146a1.208,1.208,0,0,1-1.773-.071c-1.358-1.327-2.681-2.689-4.064-4.082" transform="translate(-186.576 -143.535)" fill="#f6c092"/>
    <path id="Path_8123" data-name="Path 8123" d="M307.854,192.067l1.615-1.817,1.964,2.029c-1.327,1.349-2.669,2.766-4.076,4.116a1.207,1.207,0,0,1-1.773-.06c-1.359-1.326-2.682-2.69-4.056-4.076l2.056-1.835,1.261,1.593.27-.152V185.86h2.739Z" transform="translate(-232.878 -143.545)" fill="#f6c092"/>
    <path id="Path_8124" data-name="Path 8124" d="M87.638,297.861c-.859-.894-1.582-1.614-2.258-2.376a.912.912,0,0,1-.175-.725q.935-3.443,1.943-6.866c.057-.195.29-.338.441-.505.171.177.438.327.5.537q1,3.381,1.925,6.783a.928.928,0,0,1-.123.739c-.685.788-1.42,1.533-2.252,2.414" transform="translate(-65.792 -221.959)" fill="#fff"/>
    <path id="Path_8125" data-name="Path 8125" d="M32.662,185.142a2.623,2.623,0,0,1-2.671-2.482,2.716,2.716,0,0,1,2.671-2.871Z" transform="translate(-23.159 -138.857)" fill="#fff"/>
    <path id="Path_8126" data-name="Path 8126" d="M149.889,185.174v-5.326a2.7,2.7,0,0,1,2.69,2.847,2.6,2.6,0,0,1-2.69,2.478" transform="translate(-115.764 -138.902)" fill="#fff"/>
    <path id="Path_8127" data-name="Path 8127" d="M92.123,260.013c-1.83,1.409-1.4,1.44-3.213.023a2.134,2.134,0,0,1,.123-.293c.449-.752.9-1.5,1.448-2.4l1.642,2.673" transform="translate(-68.668 -198.751)" fill="#fff"/>
    <path id="Path_8128" data-name="Path 8128" d="M109.884,251.768l-1.648,2.754-1.645-2.754Z" transform="translate(-82.323 -194.448)" fill="#fff"/>
    <path id="Path_8129" data-name="Path 8129" d="M73.977,251.811l-1.642,2.733L70.7,251.811Z" transform="translate(-54.601 -194.481)" fill="#fff"/>
    <rect id="Rectangle_22879" data-name="Rectangle 22879" width="29.907" height="2.623" transform="translate(51.861 65.502)" fill="#fff"/>
    <rect id="Rectangle_22880" data-name="Rectangle 22880" width="8.059" height="3.988" transform="translate(62.776 70.94)" fill="#fff"/>
    <rect id="Rectangle_22881" data-name="Rectangle 22881" width="8.097" height="3.98" transform="translate(62.768 77.776)" fill="#fff"/>
    <path id="Path_8130" data-name="Path 8130" d="M323.679,311.5h6.1c-.531,1.324-1.029,2.591-1.562,3.844-.051.12-.318.209-.487.211-1.329.017-2.658.01-4.048.01Z" transform="translate(-249.987 -240.582)" fill="#fff"/>
    <path id="Path_8131" data-name="Path 8131" d="M236.492,311.489h6.083v4.062c-1.388,0-2.792.01-4.2-.015-.138,0-.335-.2-.4-.344-.5-1.194-.97-2.4-1.49-3.7" transform="translate(-182.65 -240.572)" fill="#fff"/>
    <path id="Path_8132" data-name="Path 8132" d="M323.638,341.536h3.368c-.513,1.281-.993,2.535-1.534,3.761-.073.165-.449.241-.7.272a9.466,9.466,0,0,1-1.139.012Z" transform="translate(-249.955 -263.779)" fill="#fff"/>
    <path id="Path_8133" data-name="Path 8133" d="M248.533,341.483h3.356v3.958a.557.557,0,0,1-.163.077c-1.566.082-1.568.082-2.154-1.394-.341-.858-.676-1.718-1.038-2.641" transform="translate(-191.95 -263.738)" fill="#fff"/>
    <path id="Path_8134" data-name="Path 8134" d="M278.569,91.806c.188-1.588.389-1.945,1.066-1.914.661.03.857.408.968,1.946.306,0,.623-.016.938,0a.966.966,0,0,1,.97.967.953.953,0,0,1-.968.966c-.912.025-1.825,0-2.738.011-.72.006-1.152.376-1.154.968s.432.966,1.149.976c.547.008,1.1,0,1.643,0a2.925,2.925,0,0,1,.427,5.831c-.079.013-.159.021-.269.036-.116.753.245,1.894-1.019,1.887-1.21-.007-.9-1.1-.986-1.913-.324,0-.622.013-.92,0a.974.974,0,0,1-1-1,.959.959,0,0,1,1-.936c.892-.02,1.784,0,2.677-.008.749-.005,1.2-.395,1.185-1-.018-.585-.453-.936-1.18-.944-.527-.005-1.055,0-1.582,0a2.926,2.926,0,0,1-.425-5.835l.22-.038" transform="translate(-212.928 -69.425)" fill="#f6c092"/>
  </g>
</svg>
