<svg id="consumer-and-mortgage-loans-hover" xmlns="http://www.w3.org/2000/svg" xmlns:xlink="http://www.w3.org/1999/xlink" width="78.007" height="78.041" viewBox="0 0 78.007 78.041">
  <defs>
    <clipPath id="clip-path">
      <rect id="Rectangle_22880" data-name="Rectangle 22880" width="78.007" height="78.041" fill="none"/>
    </clipPath>
  </defs>
  <g id="Group_7952" data-name="Group 7952" clip-path="url(#clip-path)">
    <path id="Path_8118" data-name="Path 8118" d="M41.521,67.973H4.311C1.47,67.973,0,66.5,0,63.664Q0,33.973,0,4.281C0,1.5,1.491.015,4.273.015Q20.787.014,37.3,0a2.23,2.23,0,0,1,1.725.723q5.29,5.332,10.62,10.622a2.045,2.045,0,0,1,.7,1.658c-.049,1.045-.013,2.094-.013,3.229a17.587,17.587,0,0,1,15.507,1.5,17.207,17.207,0,0,1,7.3,8.876,17.745,17.745,0,0,1-8.815,22.039c.2.183.381.357.573.513q6.16,5.012,12.325,10.017c.542.439.982.908.705,1.664s-.894.858-1.6.849c-1.493-.02-2.986-.006-4.6-.006v.851q0,6.882,0,13.764c0,1.346-.391,1.744-1.717,1.744q-13.368,0-26.736,0c-1.347,0-1.741-.389-1.743-1.718,0-2.749,0-5.5,0-8.35M48.983,48.65c-.316-.181-.538-.307-.758-.434-5.784-3.346-9-8.354-9.176-15.029-.175-6.61,2.728-11.753,8.245-15.41.2-.133.485-.345.493-.531.046-1.114.023-2.231.023-3.389-2.539,0-4.973.01-7.407,0a3.762,3.762,0,0,1-3.911-3.916c-.012-2.175,0-4.351,0-6.527V2.531H4.322c-1.444,0-1.806.363-1.806,1.81q0,29.645,0,59.29c0,1.456.362,1.825,1.793,1.825H41.464V61.68c-1.5,0-2.935-.011-4.374,0-.735.008-1.454,0-1.767-.831s.224-1.315.809-1.764c.437-.335.856-.691,1.283-1.038l11.567-9.4m7.6-31.022A15.1,15.1,0,0,0,41.719,35.1a14.855,14.855,0,0,0,8.747,11.428,1.121,1.121,0,0,0,1.4-.2c1.21-1.042,2.466-2.031,3.709-3.035a1.334,1.334,0,0,1,2.086-.007c1.265,1.018,2.54,2.025,3.773,3.081a1.085,1.085,0,0,0,1.334.164,15.107,15.107,0,0,0-6.186-28.906M50.329,75.494c0-3.28,0-6.475,0-9.669,0-1.19.426-1.624,1.594-1.626q4.676-.007,9.352,0c1.22,0,1.632.424,1.633,1.667q0,4.4,0,8.8v.812H69.2V74.6q0-6.839,0-13.678c0-1.381.38-1.752,1.782-1.754h2.134c-.183-.193-.243-.272-.318-.333q-7.864-6.394-15.72-12.8c-.487-.4-.73-.132-1.054.132q-7.59,6.171-15.181,12.342c-.212.172-.411.361-.747.658.85,0,1.522,0,2.195,0,1.345,0,1.742.39,1.742,1.717q0,6.878,0,13.756v.857Zm10.015-8.722H52.882v8.712h7.461ZM46.038,11.332C44.729,10.04,43.591,8.921,42.459,7.8c-1.113-1.106-2.22-2.219-3.454-3.453,0,2.034-.012,3.84.005,5.645a1.193,1.193,0,0,0,1.156,1.33c1.874.038,3.75.013,5.871.013" transform="translate(0 0)" fill="#f6c092"/>
    <rect id="Rectangle_22879" data-name="Rectangle 22879" width="7.461" height="8.712" transform="translate(52.882 66.773)" fill="#fff"/>
    <path id="Path_8119" data-name="Path 8119" d="M192.7,27.667c-2.121,0-4,.025-5.871-.013a1.193,1.193,0,0,1-1.156-1.33c-.017-1.805-.005-3.611-.005-5.645,1.234,1.234,2.34,2.346,3.454,3.453,1.132,1.125,2.27,2.243,3.579,3.535" transform="translate(-146.662 -16.335)" fill="#f6c092"/>
    <path id="Path_8120" data-name="Path 8120" d="M39.477,44.6a19.322,19.322,0,0,1,.7-2.182c.086-.193.547-.3.837-.3.855-.006,1.108.513,1.249,2.5.738,0,1.487-.007,2.236,0,.924.011,1.488.493,1.488,1.255s-.566,1.251-1.488,1.256c-1.519.009-3.039,0-4.558.005-.931.006-1.487.485-1.491,1.251s.557,1.249,1.482,1.261c.707.01,1.415,0,2.122,0a3.778,3.778,0,0,1,.554,7.533c-.1.017-.206.028-.348.046-.151.972.316,2.447-1.315,2.439-1.563-.008-1.161-1.421-1.276-2.469-.783,0-1.535.01-2.287,0-.9-.015-1.472-.534-1.447-1.3.025-.735.569-1.207,1.448-1.214,1.519-.011,3.039,0,4.558-.006.969,0,1.554-.509,1.53-1.293-.023-.756-.585-1.211-1.523-1.22-.681-.007-1.362,0-2.043,0a3.78,3.78,0,0,1-.552-7.539c.1-.016.2-.033.122-.021" transform="translate(-28.382 -33.264)" fill="#cf8e56"/>
    <path id="Path_8121" data-name="Path 8121" d="M52.278,212.247H37.888a4.395,4.395,0,0,1-.785-.02,1.248,1.248,0,0,1,0-2.475,3.909,3.909,0,0,1,.706-.019H66.9a3.93,3.93,0,0,1,.706.019,1.248,1.248,0,0,1,0,2.476,4.376,4.376,0,0,1-.785.021H52.278" transform="translate(-28.45 -165.668)" fill="#cf8e56"/>
    <path id="Path_8122" data-name="Path 8122" d="M51.02,182.292H37.81a3.854,3.854,0,0,1-.706-.02,1.249,1.249,0,0,1,0-2.476,3.914,3.914,0,0,1,.706-.019H64.386a3.931,3.931,0,0,1,.706.019,1.249,1.249,0,0,1,0,2.476,3.854,3.854,0,0,1-.706.02H51.02" transform="translate(-28.451 -142.006)" fill="#cf8e56"/>
    <path id="Path_8123" data-name="Path 8123" d="M50.386,152.337H37.805a4.731,4.731,0,0,1-.784-.026,1.23,1.23,0,0,1-1.044-1.28,1.207,1.207,0,0,1,1.063-1.184,4.2,4.2,0,0,1,.784-.024h25.24a4.449,4.449,0,0,1,.707.015,1.214,1.214,0,0,1,1.122,1.213,1.236,1.236,0,0,1-1.141,1.275,5.958,5.958,0,0,1-.707.013H50.386" transform="translate(-28.417 -118.343)" fill="#cf8e56"/>
    <path id="Path_8124" data-name="Path 8124" d="M43.494,242.218c-1.992,0-3.984,0-5.975,0-.984,0-1.561-.486-1.55-1.273s.582-1.239,1.583-1.24q5.975-.005,11.951,0c.984,0,1.562.486,1.552,1.272s-.587,1.239-1.584,1.241c-1.992,0-3.984,0-5.975,0" transform="translate(-28.413 -189.347)" fill="#cf8e56"/>
    <path id="Path_8125" data-name="Path 8125" d="M248.856,121.029a6.139,6.139,0,0,1-.677,1.124q-6.144,6.181-12.319,12.33a1.267,1.267,0,1,1-1.745-1.8q6.127-6.142,12.264-12.273c.415-.415.913-.725,1.466-.4a5.568,5.568,0,0,1,1.01,1.024" transform="translate(-184.524 -94.689)" fill="#cf8e56"/>
    <path id="Path_8126" data-name="Path 8126" d="M231.422,113.923a3.771,3.771,0,1,1-3.8,3.705,3.787,3.787,0,0,1,3.8-3.705m1.227,3.76a1.254,1.254,0,1,0-1.224,1.263,1.265,1.265,0,0,0,1.224-1.263" transform="translate(-179.809 -89.991)"/>
    <path id="Path_8127" data-name="Path 8127" d="M279.3,169.392a3.771,3.771,0,1,1,3.783-3.717,3.789,3.789,0,0,1-3.783,3.717m-.009-5.025a1.253,1.253,0,1,0,1.273,1.215,1.261,1.261,0,0,0-1.273-1.215" transform="translate(-217.661 -127.851)" fill="#383330"/>
  </g>
</svg>
