<svg xmlns="http://www.w3.org/2000/svg" width="53.245" height="53.073" viewBox="0 0 53.245 53.073">
  <g id="download_icon_full" transform="translate(-1782.5 -115.52)">
    <rect id="Rectangle_23001" data-name="Rectangle 23001" width="52.073" height="52.245" rx="10" transform="translate(1783 168.093) rotate(-90)" fill="none" stroke="#cacaca" stroke-width="1"/>
    <path id="Icon_awesome-download" data-name="Icon awesome-download" d="M11.1,0h4.109a1.274,1.274,0,0,1,1.233,1.317v9.22h4.505a1.106,1.106,0,0,1,.729,1.875l-7.811,8.353a.951.951,0,0,1-1.4,0L4.635,12.412a1.106,1.106,0,0,1,.729-1.875h4.5V1.317A1.274,1.274,0,0,1,11.1,0ZM26.3,20.636v4.549A1.274,1.274,0,0,1,25.069,26.5H1.233A1.274,1.274,0,0,1,0,25.185V20.636a1.274,1.274,0,0,1,1.233-1.317H8.769l2.517,2.689a2.515,2.515,0,0,0,3.729,0l2.517-2.689h7.536A1.274,1.274,0,0,1,26.3,20.636Zm-6.371,3.229a1.03,1.03,0,1,0-1.028,1.1,1.067,1.067,0,0,0,1.029-1.095Zm3.288,0a1.03,1.03,0,1,0-1.028,1.1,1.068,1.068,0,0,0,1.033-1.095Z" transform="translate(1796.001 129.02)" fill="#2d435e"/>
  </g>
</svg>
