<svg xmlns="http://www.w3.org/2000/svg" xmlns:xlink="http://www.w3.org/1999/xlink" width="62.824" height="67.959" viewBox="0 0 62.824 67.959">
  <defs>
    <clipPath id="clip-path">
      <rect id="Rectangle_9267" data-name="Rectangle 9267" width="62.824" height="67.959" fill="none"/>
    </clipPath>
  </defs>
  <g id="electricity-hover" clip-path="url(#clip-path)">
    <path id="Path_6675" data-name="Path 6675" d="M66.348,0A2.335,2.335,0,0,1,67.7,2.8c-.664,5.288-1.282,10.581-1.919,15.871q-.515,4.281-1.035,8.561c-.023.191-.031.383-.051.639h.795q6.686,0,13.372,0c1.4,0,2.216.775,2.031,1.921a2.886,2.886,0,0,1-.329.864q-9.543,17.985-19.1,35.965a1.976,1.976,0,0,1-2.631,1.16,1.611,1.611,0,0,1-1.09-1.743c.14-1.452.312-2.9.481-4.351q.8-6.886,1.616-13.77c.258-2.193.517-4.387.787-6.676h-.858q-6.374,0-12.748,0c-2.1,0-3.016-1.4-2.082-3.2q9.521-18.328,19.07-36.643A6.948,6.948,0,0,1,65.378,0Z" transform="translate(-31.335)" fill="#cf8e56"/>
    <path id="Path_6676" data-name="Path 6676" d="M23.786,66.437l-.838,7.146C12.636,71.276.094,60.963,0,44.839c-.092-15.886,12.442-27.985,26.866-29.86a4.485,4.485,0,0,1-.181.477c-1.314,2.531-2.622,5.065-3.965,7.583a1.683,1.683,0,0,1-.765.683C14.914,26.813,10.185,31.881,8.328,39.08c-2.168,8.405.108,15.791,6.446,21.972a22.708,22.708,0,0,0,8.415,5.1c.151.053.3.112.449.172a.958.958,0,0,1,.148.108" transform="translate(0 -10.718)" fill="#f6c092"/>
    <path id="Path_6677" data-name="Path 6677" d="M121.018,76.429c.133-.269.226-.468.329-.662,1.294-2.441,2.577-4.889,3.9-7.315a2.048,2.048,0,0,1,.891-.833c7.064-3.174,11.717-8.339,13.515-15.6,1.881-7.6.015-14.458-5.305-20.4a23.06,23.06,0,0,0-9.654-6.347c-.151-.053-.3-.114-.447-.176a1.152,1.152,0,0,1-.16-.113l.869-7.2c13.194,3.387,24.309,15.91,22.8,31.7-1.468,15.348-14.247,25.452-26.74,26.941" transform="translate(-85.071 -12.73)" fill="#f6c092"/>
  </g>
</svg>
