<svg id="exports-and-imports" xmlns="http://www.w3.org/2000/svg" xmlns:xlink="http://www.w3.org/1999/xlink" width="77.2" height="78.278" viewBox="0 0 77.2 78.278">
  <defs>
    <clipPath id="clip-path">
      <rect id="Rectangle_22882" data-name="Rectangle 22882" width="77.2" height="78.278" fill="none"/>
    </clipPath>
  </defs>
  <g id="Group_7954" data-name="Group 7954" clip-path="url(#clip-path)">
    <path id="Path_8135" data-name="Path 8135" d="M72.388,6.305c1.079.645,2.021,1.223,2.979,1.775a3.8,3.8,0,0,1,1.848,2.448,3.667,3.667,0,0,0,.615,1.232,3.279,3.279,0,0,1,.3,3.882,15.221,15.221,0,0,1-7.327,6,8.3,8.3,0,0,0-5.3,5.667,5.217,5.217,0,0,1-.347.933c-.127.27-.3.517-.523.884.541.254,1.02.517,1.526.711,2.017.773,4.05,1.5,6.062,2.291,1.829.714,3.572,1.553,4.451,3.5.1.212.41.355.652.465,1.059.482,2.143.911,3.191,1.417a1.8,1.8,0,0,1,1,2.473,1.86,1.86,0,0,1-2.634.765c-1.411-.645-2.831-1.271-4.243-1.914A2.22,2.22,0,0,1,73.16,36.9c-.029-.318-.5-.723-.861-.863-2.01-.787-4.024-1.579-6.082-2.227a9.057,9.057,0,0,1-4.962-3.141,6.236,6.236,0,0,1-.822-1.434,1.939,1.939,0,0,1,.922-2.56A1.5,1.5,0,0,0,62,26a9.691,9.691,0,0,1,2.772-4.382,48.477,48.477,0,0,1,3.876-3.13,1.915,1.915,0,0,1,1.3-.395,2.022,2.022,0,0,0,1.774-.482c1.013-.9,1.982-1.844,2.94-2.8a.737.737,0,0,0-.015-1.164,2.461,2.461,0,0,1-.57-.91C73.126,9.9,70.618,9.4,68.186,8.8a1.215,1.215,0,0,0-.828.259A30.126,30.126,0,0,0,54.229,29.274c-.159.9-.249,1.813-.333,2.724a2.005,2.005,0,0,1-2.164,2.022A1.926,1.926,0,0,1,49.89,31.8,32.593,32.593,0,0,1,55.357,15.6,33.883,33.883,0,0,1,79.635.376c14.005-1.924,24.927,3.588,33.03,14.89a32.21,32.21,0,0,1,6.107,19.363,33.726,33.726,0,0,1-7.134,20.543A33.713,33.713,0,0,1,92.278,68.029a4.514,4.514,0,0,1-1.225.186,1.948,1.948,0,0,1-1.847-1.721,2.014,2.014,0,0,1,1.542-2.243c2.3-.78,4.643-1.489,6.875-2.444a25.526,25.526,0,0,0,6.929-4.612c-.578-.123-1.055-.19-1.511-.327a7.537,7.537,0,0,1-4.768-4.124c-1.472-3.077-2.427-6.261-1.478-9.73a1.825,1.825,0,0,0-.161-1.029,24.539,24.539,0,0,0-1.143-2.665,1.119,1.119,0,0,0-.906-.361,20.129,20.129,0,0,1-2.625.32,5.543,5.543,0,0,1-2.5-.712,10.13,10.13,0,0,1-4.591-7.105A9.328,9.328,0,0,1,87.422,22.9a2.559,2.559,0,0,0,.794-2.489,5.236,5.236,0,0,1,1.248-4.1c.16-.222.407-.453.426-.694.145-1.869,1.409-2.889,2.84-3.751a1.189,1.189,0,0,0,.679-1.24,4.982,4.982,0,0,1,1.571-3.386c.266-.313.55-.61.91-1.008a30.814,30.814,0,0,0-23.5.075m21.306,8.966c.368,1.7.215,2.038-1.215,2.916a2.889,2.889,0,0,0-.64.524.955.955,0,0,0,0,1.464,1.783,1.783,0,0,1,.193,2.729c-.735,1.007-1.535,1.967-2.306,2.949a6.952,6.952,0,0,0,.544,8.93,2.66,2.66,0,0,0,2.712.8,14.212,14.212,0,0,1,2.865-.415,3.3,3.3,0,0,1,2.993,1.743c.411,1.311.791,2.635,1.27,3.921a5.3,5.3,0,0,1,.174,3.49,5.892,5.892,0,0,0-.213,2.211,11.882,11.882,0,0,0,2.078,5.634,3.349,3.349,0,0,0,1.773,1.241,5.874,5.874,0,0,0,6.039-2.546A30.009,30.009,0,0,0,113,24.3a29.575,29.575,0,0,0-12.88-15.9c-.247-.153-.7-.317-.865-.2a13.938,13.938,0,0,0-1.873,1.628.821.821,0,0,0-.007.783c1.074,1.507.871,2.474-.785,3.306-.958.481-1.941.911-2.894,1.355" transform="translate(-41.573 0)" fill="#383330"/>
    <path id="Path_8136" data-name="Path 8136" d="M58.6,342.414a3.454,3.454,0,0,1-.8-.447q-2.494-2.45-4.95-4.939a2.021,2.021,0,1,1,2.839-2.85c2.384,2.364,4.75,4.747,7.13,7.115.648.645,1.32,1.266,1.984,1.894a2,2,0,0,1,.155,3.008q-4.67,4.687-9.383,9.332a1.957,1.957,0,0,1-2.9.005,1.981,1.981,0,0,1,.111-2.9c1.652-1.683,3.329-3.343,4.993-5.014.207-.208.4-.429.739-.794H57.3q-15.026,0-30.051,0a2.081,2.081,0,0,1-2.327-1.774,1.983,1.983,0,0,1,2.154-2.256c2.58-.026,5.161-.009,7.742-.009l22.643,0h.882l.254-.369" transform="translate(-20.761 -277.893)" fill="#f6c092"/>
    <path id="Path_8137" data-name="Path 8137" d="M7.214,220.966H8.336q14.991,0,29.983,0c1.374,0,2.2.645,2.316,1.763a2.033,2.033,0,0,1-2.26,2.255q-6.163.013-12.326.005l-18.073,0H7.033c.308.337.492.552.691.753,1.685,1.692,3.388,3.365,5.053,5.076a2.01,2.01,0,0,1-.921,3.457,2.15,2.15,0,0,1-2.081-.763q-3.872-3.9-7.767-7.78c-.432-.431-.885-.841-1.318-1.272a2.015,2.015,0,0,1-.026-3.014q4.583-4.541,9.183-9.064a2.785,2.785,0,0,1,1.108-.68,1.905,1.905,0,0,1,2.209.917,1.972,1.972,0,0,1-.385,2.507q-2.485,2.52-5.009,5a3.631,3.631,0,0,1-.8.46l.24.379" transform="translate(0 -176.369)" fill="#cf8e56"/>
  </g>
</svg>
