<svg id="financing" xmlns="http://www.w3.org/2000/svg" xmlns:xlink="http://www.w3.org/1999/xlink" width="77.064" height="71.941" viewBox="0 0 77.064 71.941">
  <defs>
    <clipPath id="clip-path">
      <rect id="Rectangle_22628" data-name="Rectangle 22628" width="77.064" height="71.941" fill="none"/>
    </clipPath>
  </defs>
  <g id="Group_7930" data-name="Group 7930" clip-path="url(#clip-path)">
    <path id="Path_8054" data-name="Path 8054" d="M96.443,25.694c-1.213,0-2.307,0-3.4,0-1.138,0-1.388-.175-1.787-1.231a3.6,3.6,0,0,0-3.011.75c-3.39,2.766-11.407,2.875-14.544-2.805-.207-.374-.438-.735-.658-1.1-.488-.813-.488-.813-1.586-.674A14.146,14.146,0,0,1,74.4,31.939a13.76,13.76,0,0,1-4.36,8.026A14.163,14.163,0,0,1,53.019,41.57a14.321,14.321,0,0,1-5.6-17.529c-.8.442-1.459.837-2.145,1.188a5.127,5.127,0,0,1-4.837-9.04c4.777-2.79,9.576-5.544,14.365-8.313,2.2-1.271,4.409-2.52,6.589-3.821a10.476,10.476,0,0,1,5.571-1.493c5.886.032,11.772.045,17.658-.006a11.465,11.465,0,0,1,5.926,1.4c.206.117.43.2.585.276.216-.468.309-1.055.65-1.3a2.9,2.9,0,0,1,1.5-.345c1.012-.048,2.027-.014,3.161-.014,0-.453-.021-.87,0-1.284A1.233,1.233,0,0,1,97.726.017q3.852-.035,7.705,0a1.246,1.246,0,0,1,1.279,1.273c.015.186.006.374.006.562q0,12.282,0,24.564c0,1.472-.375,1.846-1.848,1.847q-3.291,0-6.582,0c-1.471,0-1.832-.364-1.844-1.849,0-.209,0-.419,0-.719M91.3,21.841c0-4.811,0-9.516-.011-14.219a.673.673,0,0,0-.254-.517c-1.807-.9-3.523-1.993-5.68-1.978-6.285.043-12.57.018-18.855.013a6.6,6.6,0,0,0-3.366.9l-3.471,2q-8.954,5.17-17.906,10.344a2.557,2.557,0,1,0,2.349,4.542c2.731-1.569,5.443-3.175,8.11-4.85A14.144,14.144,0,0,1,57,15.89c1.561-.3,3.156-.427,4.834-.643-.036.068.015,0,.036-.072a4.425,4.425,0,0,1,4.715-3.61q5.7,0,11.394,0a3.477,3.477,0,0,1,.64.019,1.275,1.275,0,0,1,0,2.528,3.912,3.912,0,0,1-.721.02c-3.825,0-7.649-.005-11.474,0a1.95,1.95,0,0,0-2.085,1.79A2.059,2.059,0,0,0,66.3,17.973c.239.023.481.014.722.015,2.006,0,4.012.014,6.018-.007a1.57,1.57,0,0,1,1.516.841c.384.673.793,1.331,1.193,2a7.693,7.693,0,0,0,11.887,1.621,2.677,2.677,0,0,1,1.412-.573,17.544,17.544,0,0,1,2.256-.024M60.442,41.114a11.551,11.551,0,0,0,8.1-19.83,2.207,2.207,0,0,0-1.828-.745A4.013,4.013,0,0,1,63.018,19a2.494,2.494,0,0,0-2.331-1,13.147,13.147,0,0,0-1.677.111,11.544,11.544,0,0,0,1.432,23m43.646-38.5h-5.03V25.663h5.03ZM93.927,23.062H96.4V5.181H93.927Z" transform="translate(-29.655 0)" fill="#443f3d"/>
    <path id="Path_8055" data-name="Path 8055" d="M48.737,214.024c4.076-2.354,8.073-4.673,12.083-6.968a7.129,7.129,0,0,1,1.828-.789,5.121,5.121,0,0,1,3.741,9.416c-3.218,1.907-6.471,3.756-9.71,5.627-3.748,2.165-7.513,4.3-11.242,6.5a10.946,10.946,0,0,1-5.792,1.566q-8.747-.063-17.494,0a11.441,11.441,0,0,1-6-1.429,7.134,7.134,0,0,0-.656-.3c-.258,1.493-.522,1.707-2.074,1.707H10.274c0,.436.015.827,0,1.215a1.253,1.253,0,0,1-1.292,1.342q-3.852.035-7.7,0a1.244,1.244,0,0,1-1.268-1.284c-.014-.186,0-.374,0-.562q0-12.28,0-24.559c0-1.471.371-1.839,1.851-1.84q3.29,0,6.58,0c1.47,0,1.829.363,1.842,1.851,0,.209,0,.417,0,.718h3c1.844,0,2.081.223,2.164,2.156.273-.053.54-.092.8-.157q2.878-.711,5.754-1.432a9.169,9.169,0,0,1,4.679,0c6.218,1.657,12.433,3.329,18.655,4.971a5.764,5.764,0,0,1,3.408,2.236m-33.323-2.939v.941c0,3.853.035,7.706-.026,11.557a1.528,1.528,0,0,0,1.058,1.669c1.555.7,3.022,1.564,4.825,1.556,6.313-.03,12.627.029,18.938-.05a7.1,7.1,0,0,0,3.281-.845c7.187-4.065,14.323-8.219,21.468-12.358a2.561,2.561,0,0,0,1.07-3.574,2.6,2.6,0,0,0-3.635-.858q-6.156,3.527-12.283,7.1a1.129,1.129,0,0,0-.476.787,5.09,5.09,0,0,1-6.472,4.826c-5.04-1.308-10.064-2.677-15.094-4.025-.91-.244-1.313-.857-1.108-1.639.2-.748.876-1.072,1.794-.829q3.833,1.015,7.663,2.045c2.424.65,4.843,1.321,7.272,1.952a2.563,2.563,0,0,0,3.344-2.807,2.688,2.688,0,0,0-2.309-2.242c-5.574-1.482-11.14-2.995-16.714-4.476-1.491-.4-2.985-1.013-4.558-.668-2.679.588-5.336,1.279-8.037,1.935m-7.763-4.8H2.614V229.33H7.651Zm5.14,2.6H10.318v17.881H12.79Z" transform="translate(0 -159.997)" fill="#443f3d"/>
    <path id="Path_8056" data-name="Path 8056" d="M126.245,111.5c-.136,1.971-.4,2.481-1.275,2.519s-1.143-.428-1.4-2.521a3.878,3.878,0,0,1-3.7-3.188,1.8,1.8,0,0,1,.127-1.3,1.564,1.564,0,0,1,1.227-.619,1.687,1.687,0,0,1,1.069.988c.427,1.345.538,1.5,1.913,1.505.642,0,1.284.017,1.925-.006a1.281,1.281,0,1,0-.01-2.557c-.775-.022-1.551,0-2.327-.008a3.857,3.857,0,0,1-.621-7.682c.129-.022.26-.033.422-.053.152-1.007-.32-2.513,1.353-2.49,1.594.022,1.179,1.463,1.276,2.443,2.3.463,3.517,1.551,3.8,3.375a1.418,1.418,0,0,1-.715,1.7,1.265,1.265,0,0,1-1.8-1c-.238-1.186-.528-1.432-1.7-1.437-.7,0-1.391-.017-2.086.006a1.281,1.281,0,1,0,.008,2.557c.748.023,1.5,0,2.246.007a3.859,3.859,0,0,1,.545,7.7c-.077.012-.153.03-.264.051" transform="translate(-94.093 -75.483)" fill="#f6c092"/>
  </g>
</svg>
