<svg xmlns="http://www.w3.org/2000/svg" xmlns:xlink="http://www.w3.org/1999/xlink" width="138.6" height="73.544" viewBox="0 0 138.6 73.544">
  <defs>
    <clipPath id="clip-path">
      <path id="Path_91754" data-name="Path 91754" d="M14.71,37.4l6.5-3.818V23.554h-6.5Z" transform="translate(-14.71 -23.554)" fill="#fff"/>
    </clipPath>
    <clipPath id="clip-path-2">
      <path id="Path_91755" data-name="Path 91755" d="M25.106,31.432l4.4-2.6,2.094,2.6V17.737h-6.5Z" transform="translate(-25.106 -17.737)" fill="#fff"/>
    </clipPath>
    <clipPath id="clip-path-3">
      <path id="Path_91756" data-name="Path 91756" d="M35.861,33.131l1.089,1.341,5.407-3.4V13.436h-6.5Z" transform="translate(-35.861 -13.436)" fill="#fff"/>
    </clipPath>
    <clipPath id="clip-path-4">
      <path id="Path_91757" data-name="Path 91757" d="M6.986,14.517A10.046,10.046,0,0,1,16.752,4.232H38.631a2.3,2.3,0,0,1,2.232,2.352V23.835l-2.07.239,1.83,2.457L29.092,33.877,24.116,27.4,6.986,37.461ZM16.752,0C9.15,0,2.966,6.512,2.966,14.517v25.3L0,41.564v2.842L22.585,33.7l5.82,7.831L43.89,31.274l1.579,2.249,5.921-10.9-6.507.752V6.584A6.432,6.432,0,0,0,38.631,0Z" fill="#fff"/>
    </clipPath>
  </defs>
  <g id="Footer_LOGO_EN" transform="translate(-140 -4468)">
    <path id="Path_95284" data-name="Path 95284" d="M4.194-10.17v2.556H8.316v2.376H4.194v2.772H8.856V0H1.116V-12.636h7.74v2.466Zm6.048,5.148a5.62,5.62,0,0,1,.639-2.736,4.438,4.438,0,0,1,1.782-1.8,5.336,5.336,0,0,1,2.619-.63,4.98,4.98,0,0,1,3.159.99,4.671,4.671,0,0,1,1.665,2.79H16.83a1.577,1.577,0,0,0-1.6-1.152,1.615,1.615,0,0,0-1.35.657,3.039,3.039,0,0,0-.5,1.881,3.039,3.039,0,0,0,.5,1.881,1.615,1.615,0,0,0,1.35.657,1.577,1.577,0,0,0,1.6-1.152h3.276A4.715,4.715,0,0,1,18.432-.864,4.929,4.929,0,0,1,15.282.144a5.336,5.336,0,0,1-2.619-.63,4.438,4.438,0,0,1-1.782-1.8A5.62,5.62,0,0,1,10.242-5.022ZM26.316.144a5.544,5.544,0,0,1-2.655-.63,4.613,4.613,0,0,1-1.854-1.8,5.379,5.379,0,0,1-.675-2.736,5.335,5.335,0,0,1,.684-2.727,4.641,4.641,0,0,1,1.872-1.809,5.6,5.6,0,0,1,2.664-.63,5.6,5.6,0,0,1,2.664.63,4.641,4.641,0,0,1,1.872,1.809,5.335,5.335,0,0,1,.684,2.727A5.281,5.281,0,0,1,30.879-2.3a4.686,4.686,0,0,1-1.89,1.809A5.65,5.65,0,0,1,26.316.144Zm0-2.664a2.005,2.005,0,0,0,1.5-.648,2.574,2.574,0,0,0,.621-1.854,2.622,2.622,0,0,0-.6-1.854,1.949,1.949,0,0,0-1.485-.648,1.953,1.953,0,0,0-1.494.639,2.642,2.642,0,0,0-.594,1.863,2.674,2.674,0,0,0,.585,1.854A1.893,1.893,0,0,0,26.316-2.52ZM39.33-10.152a3.645,3.645,0,0,1,2.817,1.143A4.458,4.458,0,0,1,43.2-5.868V0H40.14V-5.454a2.2,2.2,0,0,0-.522-1.566,1.83,1.83,0,0,0-1.4-.558,1.83,1.83,0,0,0-1.4.558,2.2,2.2,0,0,0-.522,1.566V0H33.21V-10.044h3.078v1.332a3.247,3.247,0,0,1,1.26-1.053A4.006,4.006,0,0,1,39.33-10.152ZM49.914.144a5.544,5.544,0,0,1-2.655-.63,4.613,4.613,0,0,1-1.854-1.8,5.379,5.379,0,0,1-.675-2.736,5.335,5.335,0,0,1,.684-2.727,4.641,4.641,0,0,1,1.872-1.809,5.6,5.6,0,0,1,2.664-.63,5.6,5.6,0,0,1,2.664.63,4.641,4.641,0,0,1,1.872,1.809,5.335,5.335,0,0,1,.684,2.727A5.281,5.281,0,0,1,54.477-2.3a4.686,4.686,0,0,1-1.89,1.809A5.65,5.65,0,0,1,49.914.144Zm0-2.664a2.005,2.005,0,0,0,1.5-.648,2.574,2.574,0,0,0,.621-1.854,2.622,2.622,0,0,0-.6-1.854,1.949,1.949,0,0,0-1.485-.648,1.953,1.953,0,0,0-1.494.639,2.642,2.642,0,0,0-.594,1.863,2.674,2.674,0,0,0,.585,1.854A1.893,1.893,0,0,0,49.914-2.52Zm19.71-7.632A3.972,3.972,0,0,1,72.6-9.018a4.318,4.318,0,0,1,1.107,3.15V0H70.65V-5.454a2.075,2.075,0,0,0-.513-1.5,1.873,1.873,0,0,0-1.413-.531,1.873,1.873,0,0,0-1.413.531,2.075,2.075,0,0,0-.513,1.5V0h-3.06V-5.454a2.075,2.075,0,0,0-.513-1.5,1.873,1.873,0,0,0-1.413-.531,1.873,1.873,0,0,0-1.413.531,2.075,2.075,0,0,0-.513,1.5V0H56.808V-10.044h3.078v1.26a3.3,3.3,0,0,1,1.224-1,3.848,3.848,0,0,1,1.71-.369,4.16,4.16,0,0,1,2.025.486A3.484,3.484,0,0,1,66.24-8.28a4.046,4.046,0,0,1,1.422-1.35A3.842,3.842,0,0,1,69.624-10.152Zm7.794-.936a1.866,1.866,0,0,1-1.323-.477,1.546,1.546,0,0,1-.513-1.179,1.566,1.566,0,0,1,.513-1.2,1.866,1.866,0,0,1,1.323-.477,1.841,1.841,0,0,1,1.305.477,1.566,1.566,0,0,1,.513,1.2,1.546,1.546,0,0,1-.513,1.179A1.841,1.841,0,0,1,77.418-11.088Zm1.53,1.044V0H75.87V-10.044Zm1.62,5.022a5.62,5.62,0,0,1,.639-2.736,4.438,4.438,0,0,1,1.782-1.8,5.336,5.336,0,0,1,2.619-.63,4.98,4.98,0,0,1,3.159.99,4.671,4.671,0,0,1,1.665,2.79H87.156a1.577,1.577,0,0,0-1.6-1.152A1.615,1.615,0,0,0,84.2-6.9a3.039,3.039,0,0,0-.5,1.881,3.039,3.039,0,0,0,.5,1.881,1.615,1.615,0,0,0,1.35.657,1.577,1.577,0,0,0,1.6-1.152h3.276A4.715,4.715,0,0,1,88.758-.864,4.929,4.929,0,0,1,85.608.144a5.336,5.336,0,0,1-2.619-.63,4.438,4.438,0,0,1-1.782-1.8A5.62,5.62,0,0,1,80.568-5.022ZM104.274-8.64a2.3,2.3,0,0,0-.981-.963,3.21,3.21,0,0,0-1.5-.333,3.092,3.092,0,0,0-2.394.981,3.723,3.723,0,0,0-.9,2.619,3.768,3.768,0,0,0,.945,2.727,3.442,3.442,0,0,0,2.6.981,3.146,3.146,0,0,0,1.917-.576A3.265,3.265,0,0,0,105.1-4.86H101.2V-7.128h6.7v2.862a6.038,6.038,0,0,1-1.161,2.142,6.126,6.126,0,0,1-2.079,1.6,6.426,6.426,0,0,1-2.844.612,6.732,6.732,0,0,1-3.339-.819,5.834,5.834,0,0,1-2.286-2.277,6.682,6.682,0,0,1-.819-3.33,6.732,6.732,0,0,1,.819-3.339,5.834,5.834,0,0,1,2.277-2.286,6.682,6.682,0,0,1,3.33-.819,6.469,6.469,0,0,1,3.825,1.1,5.182,5.182,0,0,1,2.061,3.042Zm4.716,3.6a6,6,0,0,1,.585-2.718,4.364,4.364,0,0,1,1.593-1.8,4.159,4.159,0,0,1,2.25-.63,3.865,3.865,0,0,1,1.863.432,3.182,3.182,0,0,1,1.233,1.134v-1.422h3.078V0h-3.078V-1.422a3.324,3.324,0,0,1-1.251,1.134A3.865,3.865,0,0,1,113.4.144,4.084,4.084,0,0,1,111.168-.5a4.416,4.416,0,0,1-1.593-1.818A6.06,6.06,0,0,1,108.99-5.04Zm7.524.018a2.517,2.517,0,0,0-.639-1.818,2.076,2.076,0,0,0-1.557-.666,2.09,2.09,0,0,0-1.557.657,2.485,2.485,0,0,0-.639,1.809,2.549,2.549,0,0,0,.639,1.827,2.063,2.063,0,0,0,1.557.675,2.076,2.076,0,0,0,1.557-.666A2.517,2.517,0,0,0,116.514-5.022ZM127.422-2.61V0h-1.566a3.833,3.833,0,0,1-2.61-.819,3.384,3.384,0,0,1-.936-2.673v-4h-1.224v-2.556h1.224v-2.448h3.078v2.448H127.4v2.556h-2.016v4.032a.843.843,0,0,0,.216.648,1.054,1.054,0,0,0,.72.2ZM138.6-5.184a7.859,7.859,0,0,1-.054.9H131.58a2.093,2.093,0,0,0,.6,1.431,1.842,1.842,0,0,0,1.3.495,1.618,1.618,0,0,0,1.6-.972h3.276a4.5,4.5,0,0,1-.909,1.782A4.551,4.551,0,0,1,135.81-.306a5.29,5.29,0,0,1-2.214.45,5.387,5.387,0,0,1-2.628-.63,4.481,4.481,0,0,1-1.8-1.8,5.557,5.557,0,0,1-.648-2.736,5.62,5.62,0,0,1,.639-2.736,4.423,4.423,0,0,1,1.791-1.8,5.425,5.425,0,0,1,2.646-.63,5.371,5.371,0,0,1,2.592.612,4.394,4.394,0,0,1,1.773,1.746A5.3,5.3,0,0,1,138.6-5.184Zm-3.15-.81a1.583,1.583,0,0,0-.54-1.26,1.988,1.988,0,0,0-1.35-.468,1.95,1.95,0,0,0-1.305.45,2,2,0,0,0-.657,1.278Z" transform="translate(140 4541.4)" fill="#e9f1f9"/>
    <g id="Group_113783" data-name="Group 113783" transform="translate(140 4468)">
      <g id="Group_113613" data-name="Group 113613" transform="translate(11.624 19.601)">
        <g id="Group_113612" data-name="Group 113612" clip-path="url(#clip-path)">
          <path id="Path_91759" data-name="Path 91759" d="M.281.214,11.516,0l-.281,15.3L0,15.514Z" transform="translate(-5.097 2.056) rotate(-23.163)" fill="#fff"/>
        </g>
      </g>
      <g id="Group_113615" data-name="Group 113615" transform="translate(19.839 14.761)">
        <g id="Group_113614" data-name="Group 113614" clip-path="url(#clip-path-2)">
          <path id="Path_91760" data-name="Path 91760" d="M.279.213,11.458,0l-.279,15.162L0,15.375Z" transform="translate(-5.043 2.033) rotate(-23.163)" fill="#fff"/>
        </g>
      </g>
      <g id="Group_113617" data-name="Group 113617" transform="translate(28.338 11.181)">
        <g id="Group_113616" data-name="Group 113616" clip-path="url(#clip-path-3)">
          <path id="Path_91761" data-name="Path 91761" d="M.4.266,14.346,0l-.4,21.86L0,22.126Z" transform="translate(-7.698 3.169) rotate(-23.163)" fill="#fff"/>
        </g>
      </g>
      <g id="Group_113619" data-name="Group 113619">
        <g id="Group_113618" data-name="Group 113618" clip-path="url(#clip-path-4)">
          <path id="Path_91758" data-name="Path 91758" d="M1.133,1.226,65.491,0,64.358,61.629,0,62.855Z" transform="translate(-16.773 6.189) rotate(-23.163)" fill="#F38020"/>
        </g>
      </g>
    </g>
  </g>
</svg>
