<svg id="govt-budget-hover" xmlns="http://www.w3.org/2000/svg" xmlns:xlink="http://www.w3.org/1999/xlink" width="91.667" height="90.232" viewBox="0 0 91.667 90.232">
  <defs>
    <clipPath id="clip-path">
      <rect id="Rectangle_22615" data-name="Rectangle 22615" width="91.667" height="90.232" fill="none"/>
    </clipPath>
  </defs>
  <g id="Group_7897" data-name="Group 7897" clip-path="url(#clip-path)">
    <path id="Path_7857" data-name="Path 7857" d="M261.026,169.048a13.732,13.732,0,0,1-5.692-1.122c-.611-.3-1.366-.892-1.487-1.47-.186-.888.787-1.255,1.5-1.525a16.047,16.047,0,0,1,11.9.03c.68.266,1.5.593,1.492,1.486s-.843,1.169-1.5,1.49a15.323,15.323,0,0,1-6.208,1.11" transform="translate(-192.909 -124.493)" fill="#f6c092" stroke="#000" stroke-width="1"/>
    <path id="Path_7862" data-name="Path 7862" d="M261.026,169.048a13.732,13.732,0,0,1-5.692-1.122c-.611-.3-1.366-.892-1.487-1.47-.186-.888.787-1.255,1.5-1.525a16.047,16.047,0,0,1,11.9.03c.68.266,1.5.593,1.492,1.486s-.843,1.169-1.5,1.49a15.323,15.323,0,0,1-6.208,1.11" transform="translate(-178.405 -135.129)" fill="#f6c092"/>
    <path id="Path_7863" data-name="Path 7863" d="M261.026,169.048a13.732,13.732,0,0,1-5.692-1.122c-.611-.3-1.366-.892-1.487-1.47-.186-.888.787-1.255,1.5-1.525a16.047,16.047,0,0,1,11.9.03c.68.266,1.5.593,1.492,1.486s-.843,1.169-1.5,1.49a15.323,15.323,0,0,1-6.208,1.11" transform="translate(-189.041 -155.435)" fill="#f6c092" stroke="#f6c092" stroke-width="1"/>
    <path id="Path_7858" data-name="Path 7858" d="M98.166,174.614A18.743,18.743,0,1,1,79.523,155.86a18.781,18.781,0,0,1,18.643,18.754m-1.437-.022A17.3,17.3,0,1,0,79.41,191.906a17.336,17.336,0,0,0,17.319-17.315" transform="translate(-46.117 -118.456)" fill="#cf8e56" stroke="#cf8e56" stroke-width="1"/>
    <path id="Path_7859" data-name="Path 7859" d="M179.136,232.58a23.514,23.514,0,0,1-16.588,21.635c-.5.142-1.056.31-1.271-.378s.349-.839.841-1q12.839-4.325,15.324-17.646a23.874,23.874,0,0,0,.251-2.857c.033-.517-.028-1.107.7-1.123.792-.017.758.6.743,1.152a2,2,0,0,0,0,.222" transform="translate(-122.536 -175.72)" fill="#cf8d56" stroke="#cf8d56" stroke-width="1"/>
    <path id="Path_7860" data-name="Path 7860" d="M103.5,318.965a23.686,23.686,0,0,1-9.311-2.336c-.447-.217-.808-.488-.581-1.028.251-.595.718-.512,1.2-.278a21.507,21.507,0,0,0,9.342,2.205c.5,0,.915.142.912.735s-.42.722-.924.7c-.239-.009-.479,0-.64,0" transform="translate(-71.091 -239.516)" fill="#cf8d56" stroke="#cf8d56" stroke-width="1"/>
    <path id="Path_7864" data-name="Path 7864" d="M4469.983,795.545s-3.61,3.868-2.063,5.286a6.148,6.148,0,0,0,4,1.289l10.313-1.289,9.67,1.289,2.707-3.868L4491.9,794.9l-10.7,1.805Z" transform="translate(-4447.678 -774.304)" fill="#f6c092"/>
    <path id="Path_7865" data-name="Path 7865" d="M120.48,210.3a6.419,6.419,0,0,1-.029,1.4c-.059.276-.408.49-.626.732-.26-.235-.671-.431-.746-.715a5.769,5.769,0,0,1-.034-1.465c-.96-.311-1.864-.523-2.7-.892a3.946,3.946,0,0,1-2.484-2.765c-.116-.523-.261-1.152.5-1.307.692-.142.686.446.925.908a4.971,4.971,0,0,0,1.523,1.748,9.19,9.19,0,0,0,2.168.8v-5.621c-.772-.187-1.534-.337-2.275-.559-1.574-.471-2.743-1.354-2.9-3.137a3.567,3.567,0,0,1,2.229-3.662,28.251,28.251,0,0,1,3.007-1.113,4.679,4.679,0,0,1,.033-1.316c.086-.315.481-.545.739-.813.225.263.572.5.646.8a5.365,5.365,0,0,1,.029,1.322,31.99,31.99,0,0,1,3.094,1.142,3.65,3.65,0,0,1,2.154,2.805c.079.52.04,1.01-.6,1.1-.58.079-.748-.323-.819-.831a2.558,2.558,0,0,0-1.765-1.983c-.617-.264-1.283-.416-2.013-.645V201.8c.759.188,1.54.357,2.306.576a3.471,3.471,0,0,1,2.906,3.218,3.579,3.579,0,0,1-2.23,3.579,27.022,27.022,0,0,1-3.043,1.121m.034-1.714a5.266,5.266,0,0,0,3.117-1.221,1.863,1.863,0,0,0-.131-3.007,18.918,18.918,0,0,0-2.986-1.187Zm-1.521-12.565a20.192,20.192,0,0,0-3.022,1.535,1.817,1.817,0,0,0,.16,3.1,18.518,18.518,0,0,0,2.862,1.087Z" transform="translate(-86.465 -146.313)" fill="#f6c092" stroke="#f6c092" stroke-width="1"/>
    <path id="Path_7866" data-name="Path 7866" d="M59.311,80.169a1.469,1.469,0,0,0-.31.118A35.845,35.845,0,0,1,43.368,86.9a51.5,51.5,0,0,1-26.652-1.723A27.806,27.806,0,0,1,5.07,77.985C.282,72.839-.929,66.779.658,60.061A38.842,38.842,0,0,1,8.5,44.668c3.557-4.429,7.452-8.587,11.2-12.861.847-.966,1.706-1.922,2.563-2.887-3.022-2.113-3.4-5.5-.891-8.253-.256-.333-.521-.683-.791-1.03q-3.014-3.857-6.029-7.712c-1.73-2.215-1.406-4.4.934-5.992a17.984,17.984,0,0,1,6.958-2.494A4.252,4.252,0,0,0,24.99,2.207,7.592,7.592,0,0,1,29.449.291a15.28,15.28,0,0,1,8.807.815A6.4,6.4,0,0,1,40.119,2.32a3.1,3.1,0,0,0,1.632.775c2.474.544,4.941,1.134,7.38,1.818a7.509,7.509,0,0,1,2.193,1.2,3.632,3.632,0,0,1,.842,5.669c-2.112,2.719-4.25,5.417-6.376,8.125-.182.232-.352.472-.5.674.376.564.688,1.109,1.081,1.586a1.064,1.064,0,0,0,.739.3A5.678,5.678,0,0,0,52.5,18.339c.183-.539.16-1.46,1.113-1.125.909.319.411,1.074.227,1.609a7.066,7.066,0,0,1-6.41,5.078c-.149.015-.3.019-.446.044-.05.009-.092.068-.291.223a2.154,2.154,0,0,0,.654.262,12.812,12.812,0,0,1,9,3.862c.154.142.382.277.421.451.064.281.114.695-.039.861a.917.917,0,0,1-.851.144,4.629,4.629,0,0,1-.96-.8,11.119,11.119,0,0,0-7.547-3.08.985.985,0,0,0-1,.624,26.957,26.957,0,0,1-1.9,2.634c4.73,5.529,10.319,10.7,14.847,16.9,0-1.03.06-2.064-.013-3.089a3.483,3.483,0,0,1,2.279-3.686,4.708,4.708,0,0,1,1.326-.529c1.177-.134,1.306-.8,1.3-1.835-.044-8.235.007-16.471-.05-24.707a3.6,3.6,0,0,1,2.207-3.556A14.4,14.4,0,0,1,72.461,7.29a16.338,16.338,0,0,1,7.2,1.17A3.728,3.728,0,0,1,82.2,12.339c-.117,4.789-.038,9.583-.038,14.374v1.036a24.764,24.764,0,0,1,3.407.321,24.47,24.47,0,0,1,4.321,1.386,3.013,3.013,0,0,1,1.776,3.049q-.047,23.4,0,46.809a3.376,3.376,0,0,1-2,3.3,15.639,15.639,0,0,1-8.391,1.4c-1.274-.088-2.535-.347-3.948-.549,0,.668-.047,1.372.01,2.067a3.114,3.114,0,0,1-1.812,3.136,12.772,12.772,0,0,1-5.231,1.452,17.569,17.569,0,0,1-7.615-.788,9.7,9.7,0,0,1-1.99-1.008,2.819,2.819,0,0,1-1.335-2.585c.029-1.557.009-3.115,0-4.672,0-.285-.03-.569-.048-.9m.05-16.72c0-4.582.009-9.164-.014-13.747a2.371,2.371,0,0,0-.334-1.25,40.954,40.954,0,0,0-2.978-4.157c-4.347-4.986-8.764-9.912-13.166-14.85a1.362,1.362,0,0,0-.671-.384,39.142,39.142,0,0,0-14.7-.655c-2.362.342-4.357,1.058-5.654,3.178a5.441,5.441,0,0,1-.659.734C17.067,36.869,12.7,41.2,9.1,46.2a41.437,41.437,0,0,0-6.83,13.345c-1.7,6.269-.9,12.048,3.5,17.066a23.074,23.074,0,0,0,8.18,5.876c10.276,4.525,20.9,4.983,31.714,2.441A31.617,31.617,0,0,0,58.6,78.775a1.912,1.912,0,0,0,.783-1.669c-.033-4.552-.017-9.1-.017-13.657M60.85,44.333c-.022.371-.05.631-.05.892q0,20.158-.018,40.317a1.777,1.777,0,0,0,1.174,1.906A25.225,25.225,0,0,0,66.6,88.673,14.336,14.336,0,0,0,74.5,87.6a2.1,2.1,0,0,0,1.382-2.148c-.04-13.379-.026-26.758-.028-40.138,0-.309-.025-.618-.041-.969a17.8,17.8,0,0,1-14.962-.015m14.263-10.05c0,1.331.029,2.639-.012,3.945a1.519,1.519,0,0,0,.724,1.461,5.415,5.415,0,0,1,1.408,1.77,2.963,2.963,0,0,1,.093,1.327q.005,19-.021,38c0,.875.271,1.254,1.091,1.366.977.134,1.942.378,2.922.447a15.015,15.015,0,0,0,7.542-1.159,2.124,2.124,0,0,0,1.36-2.171Q90.167,57.257,90.2,35.25v-.969a17.975,17.975,0,0,1-15.083,0m-9.405,3.532,7.968.547c0-1.859.053-3.864-.018-5.864A2.893,2.893,0,0,1,75.363,29.5a25.6,25.6,0,0,1,4.394-1.426c.7-.168.994-.3.986-1.094-.044-4.128-.019-8.258-.023-12.387,0-.28-.033-.559-.049-.818a18.114,18.114,0,0,1-14.964-.006ZM35.125,21.473,39.765,5.567A2.046,2.046,0,0,0,39,3.248a7.266,7.266,0,0,0-1.941-1.076,13.806,13.806,0,0,0-6.279-.63,9.468,9.468,0,0,0-4.326,1.326A2.324,2.324,0,0,0,25.3,5.692q2.274,7.454,4.594,14.894a.967.967,0,0,0,.622.593c1.512.138,3.031.2,4.614.294m1.576-.241,2.564-.5c1.344-.264,2.691-.51,4.028-.806a1.867,1.867,0,0,0,1.015-.49c2.155-2.684,4.273-5.4,6.4-8.107,1.525-1.945,1.339-3.414-.888-4.463A42.653,42.653,0,0,0,43.9,4.868a16.894,16.894,0,0,0-2.342-.395L36.7,21.232m-8.262-.346L23.5,4.7a19.405,19.405,0,0,0-7.153,2.367c-1.708,1.1-1.891,2.391-.643,3.989,2.045,2.617,4.127,5.205,6.135,7.85a2.082,2.082,0,0,0,2.119,1.081,4.942,4.942,0,0,1,1.578.27c.926.194,1.849.4,2.906.628M21.19,24.458c-.007,2.348,1.32,3.448,3.617,3.065,2.031-.339,4.062-.721,6.11-.9a35.107,35.107,0,0,1,11.031.928,2.469,2.469,0,0,0,3.278-1.925,5.7,5.7,0,0,0-.021-2.379,2.282,2.282,0,0,0-3-1.789c-.291.063-.572.183-.865.23-2.411.39-4.811.926-7.238,1.114-3.156.244-6.231-.523-9.291-1.239-2.234-.523-3.615.6-3.622,2.893m61.485,4.824a13.116,13.116,0,0,0-6.263,1.264c-.521.278-1.149.871-1.194,1.368-.036.4.728.877,1.145,1.313a.654.654,0,0,0,.24.118,16.165,16.165,0,0,0,12.068,0c.68-.265,1.618-.659,1.439-1.48-.126-.579-.882-1.166-1.495-1.465a13.39,13.39,0,0,0-5.942-1.121M68.117,44.556a15.319,15.319,0,0,0,6.208-1.11c.66-.321,1.5-.6,1.5-1.49s-.812-1.221-1.492-1.486a16.047,16.047,0,0,0-11.9-.03c-.71.27-1.683.636-1.5,1.525.121.578.876,1.168,1.487,1.469a13.729,13.729,0,0,0,5.692,1.122m5.1-30.651a14.226,14.226,0,0,0,5.949-1.094c.664-.318,1.492-.587,1.5-1.479s-.8-1.221-1.485-1.485a16.169,16.169,0,0,0-11.982-.017c-.689.263-1.5.61-1.514,1.478s.819,1.185,1.49,1.5a14.242,14.242,0,0,0,6.037,1.1" transform="translate(0 0)" fill="#cf8e56" stroke="#cf8e56" stroke-width="1"/>
  </g>
</svg>
