<svg xmlns="http://www.w3.org/2000/svg" width="17.895" height="21.449" viewBox="0 0 17.895 21.449">
  <path id="hover_register" d="M9.083,10.332A5,5,0,0,1,5.43,8.818,5,5,0,0,1,3.916,5.166,5,5,0,0,1,5.43,1.513,5,5,0,0,1,9.083,0a5,5,0,0,1,3.653,1.513,5,5,0,0,1,1.514,3.652,5,5,0,0,1-1.514,3.653A5,5,0,0,1,9.083,10.332ZM.043,16.493a12.762,12.762,0,0,1,.174-1.355A10.67,10.67,0,0,1,.55,13.775,6.731,6.731,0,0,1,1.11,12.5a4.8,4.8,0,0,1,.845-1.1,3.725,3.725,0,0,1,1.213-.762,4.2,4.2,0,0,1,1.549-.28,1.572,1.572,0,0,1,.84.356q.436.284.875.564a5.011,5.011,0,0,0,1.132.5,4.395,4.395,0,0,0,2.768,0,5,5,0,0,0,1.131-.5c.325-.208.62-.4.875-.564a1.57,1.57,0,0,1,.839-.356,4.188,4.188,0,0,1,1.549.281,3.721,3.721,0,0,1,1.214.762,4.8,4.8,0,0,1,.844,1.1,6.746,6.746,0,0,1,.56,1.271,10.7,10.7,0,0,1,.333,1.362,12.717,12.717,0,0,1,.174,1.356q.043.632.043,1.267a3.562,3.562,0,0,1-1.058,2.694,3.808,3.808,0,0,1-2.726.994H3.783a3.807,3.807,0,0,1-2.726-.994A3.56,3.56,0,0,1,0,17.76c0-.432.015-.858.043-1.267Zm0,0" transform="translate(0)" fill="#f38020"/>
</svg>
