<svg xmlns="http://www.w3.org/2000/svg" xmlns:xlink="http://www.w3.org/1999/xlink" width="110.798" height="112.5" viewBox="0 0 110.798 112.5">
  <defs>
    <clipPath id="clip-path">
      <rect id="Rectangle_22611" data-name="Rectangle 22611" width="110.798" height="112.5" fill="none"/>
    </clipPath>
  </defs>
  <g id="ICON-Cash-Statistics_hover" clip-path="url(#clip-path)">
    <path id="Path_7803" data-name="Path 7803" d="M34.553,0c.023.4.065.792.065,1.189q.006,10.416,0,20.833V23.2h6.586V60.916H79.03A39.416,39.416,0,0,1,72.257,84.7c1.786,1.779,3.563,3.52,5.305,5.293a5.177,5.177,0,0,1,1.26,5.933,5.052,5.052,0,0,1-7.86,1.878c-1.669-1.411-3.149-3.048-4.7-4.594a9.453,9.453,0,0,1-.69-.865c-11.2,9.006-23.578,12.015-37.285,8.021a37.881,37.881,0,0,1-23.162-18.6A38,38,0,0,1,2.239,49.846C6,38.862,13.407,31.12,24.055,26.2,23.028,25.213,22.1,24.26,21.1,23.4a1.941,1.941,0,0,0-1.182-.316q-9.269-.029-18.538-.013H.067V0Zm.058,36.573-.24.1C32.01,34.3,29.63,31.939,27.3,29.535a1.284,1.284,0,0,0-1.7-.363A35.966,35.966,0,0,0,7.14,46.541a36.06,36.06,0,0,0,5.941,40.637A35.26,35.26,0,0,0,32.365,98.032a35.252,35.252,0,0,0,25.259-4.15c1.9-1.1,3.659-2.463,5.6-3.785-1.061-1.028-1.918-1.911-2.841-2.718a1.469,1.469,0,0,0-1.043-.261,9.868,9.868,0,1,1,8.051-7.963,1.024,1.024,0,0,0,.1.723c.75.831,1.547,1.618,2.383,2.476a35.793,35.793,0,0,0,5.859-18.179H37.906V26.384l-3.295.347ZM3.448,3.364V19.748H4.609c5.512,0,11.024.015,16.536-.018a2.186,2.186,0,0,1,1.728.733c2.536,2.583,5.107,5.13,7.669,7.687.216.215.454.409.751.675V3.364ZM57.707,83.943a6.574,6.574,0,1,0-6.6-6.566,6.594,6.594,0,0,0,6.6,6.566m5.8,1.842c2.965,2.974,6.1,6.119,9.239,9.255a2.361,2.361,0,0,0,.742.484,1.777,1.777,0,0,0,2.45-1.817,3.108,3.108,0,0,0-.857-1.51c-2.9-2.956-5.844-5.874-8.776-8.8-.133-.133-.29-.243-.214-.179l-2.585,2.569" transform="translate(5.2 5.2)" fill="#0715d4"/>
    <path id="Path_7804" data-name="Path 7804" d="M358.211,74.5H345.116V38.411a6.507,6.507,0,0,1,.66-.066q5.874-.006,11.747,0a6.329,6.329,0,0,1,.687.074Zm-9.818-3.289h6.455V41.685h-6.455Z" transform="translate(-250.879 -23.25)" fill="#0715d4"/>
    <path id="Path_7805" data-name="Path 7805" d="M213.784,93.609l-.917.075,1.227,11.43H172.765V64.16c1.6,0,3.187-.115,4.753.02a39.724,39.724,0,0,1,17.945,6,9.285,9.285,0,0,0,1.815.654c.481,1.51,2.213,1.892,3.371,2.993V64.142h13.135Zm-3.087,8.254c-.48-2.844-.933-5.528-1.4-8.276h-8.625V92.395q0-6.377-.007-12.754c0-.354.035-.83-.165-1.041-.918-.965-1.914-1.856-3.1-2.982V93.589H184.3V70.616h4.748c-3.209-1.767-10.416-3.442-12.977-3.091v34.338Zm-.2-34.482h-6.436V90.348H210.5Zm-16.482,6.577H187.6v16.4h6.418Z" transform="translate(-122.993 -42.373)" fill="#0816d4"/>
    <path id="Path_7806" data-name="Path 7806" d="M246.164,325.072l2.585-2.569c-.077-.063.08.046.214.179,2.932,2.928,5.873,5.846,8.776,8.8a3.107,3.107,0,0,1,.856,1.51,1.777,1.777,0,0,1-2.45,1.817,2.365,2.365,0,0,1-.743-.484c-3.142-3.136-6.274-6.281-9.239-9.255" transform="translate(-177.456 -234.087)" fill="#fff"/>
    <path id="Path_7807" data-name="Path 7807" d="M220.212,111.536H185.589V77.2c2.56-.351,9.767,1.325,12.977,3.092h-4.748v22.973h13.1V85.291c1.187,1.126,2.183,2.016,3.1,2.982.2.211.164.687.165,1.041q.015,6.377.007,12.754v1.192h8.625l1.4,8.276" transform="translate(-132.509 -52.046)" fill="#fff"/>
    <path id="Path_7808" data-name="Path 7808" d="M48.5,183.592a4.913,4.913,0,1,1-4.965-4.922,4.972,4.972,0,0,1,4.965,4.922m-4.908,1.631A1.612,1.612,0,0,0,43.61,182a1.612,1.612,0,1,0-.018,3.223" transform="translate(-23.496 -127.374)" fill="#023074"/>
    <path id="Path_7809" data-name="Path 7809" d="M99.544,234.69a4.91,4.91,0,1,1-4.91-4.973,4.962,4.962,0,0,1,4.91,4.973m-4.952,1.577a1.612,1.612,0,0,0,1.66-1.593,1.633,1.633,0,0,0-1.637-1.628,1.668,1.668,0,0,0-1.621,1.555,1.628,1.628,0,0,0,1.6,1.667" transform="translate(-61.376 -165.252)" fill="#023074"/>
    <path id="Path_7810" data-name="Path 7810" d="M67.023,196.278,53.214,210.086l-1.993-2.121,13.752-13.754,2.05,2.067" transform="translate(-32.806 -138.906)" fill="#023074"/>
    <rect id="Rectangle_22605" data-name="Rectangle 22605" width="3.201" height="3.091" transform="translate(33.316 81.029)" fill="#023074"/>
    <rect id="Rectangle_22606" data-name="Rectangle 22606" width="3.206" height="3.145" transform="translate(39.881 80.998)" fill="#023074"/>
    <rect id="Rectangle_22607" data-name="Rectangle 22607" width="3.169" height="3.146" transform="translate(46.467 81.003)" fill="#023074"/>
    <rect id="Rectangle_22608" data-name="Rectangle 22608" width="21.265" height="3.193" transform="translate(11.895 11.836)" fill="#023074"/>
    <rect id="Rectangle_22609" data-name="Rectangle 22609" width="21.266" height="3.198" transform="translate(11.895 18.42)" fill="#023074"/>
    <rect id="Rectangle_22610" data-name="Rectangle 22610" width="3.142" height="3.13" transform="translate(61.304 81)" fill="#023074"/>
    <path id="Path_7811" data-name="Path 7811" d="M53,194.8a1.612,1.612,0,1,1,.018-3.223A1.612,1.612,0,0,1,53,194.8" transform="translate(-32.906 -136.953)" fill="#fff"/>
    <path id="Path_7812" data-name="Path 7812" d="M103.991,245.839a1.628,1.628,0,0,1-1.6-1.667,1.668,1.668,0,0,1,1.621-1.555,1.633,1.633,0,0,1,1.637,1.628,1.612,1.612,0,0,1-1.66,1.593" transform="translate(-70.776 -174.824)" fill="#fff"/>
  </g>
</svg>
