<svg xmlns="http://www.w3.org/2000/svg" width="29" height="29" viewBox="0 0 29 29">
  <path id="Icon-metro-earth" d="M27.376,7.814l-.094.042a31.036,31.036,0,0,1-6.559,2.074,22.147,22.147,0,0,1,0,9.151,30.961,30.961,0,0,1,6.561,2.063l.092.042a14.558,14.558,0,0,0,0-13.371ZM10.541,20.57a20.148,20.148,0,0,0,3.957,7.1,20.119,20.119,0,0,0,3.957-7.1A30.2,30.2,0,0,0,10.541,20.57Zm8.385-10.358a31.732,31.732,0,0,1-4.426.344,32.015,32.015,0,0,1-4.428-.344,20.31,20.31,0,0,0,0,8.591,32.139,32.139,0,0,1,8.847,0,20.281,20.281,0,0,0,0-8.591ZM14.5,1.329a20.14,20.14,0,0,0-3.957,7.1,30.278,30.278,0,0,0,7.913,0A20.155,20.155,0,0,0,14.5,1.329ZM15.749,0a21.983,21.983,0,0,1,4.524,8.149,29.049,29.049,0,0,0,6.159-1.914A14.468,14.468,0,0,0,15.749,0ZM2.566,6.235A29.219,29.219,0,0,0,8.725,8.149,21.983,21.983,0,0,1,13.249,0,14.471,14.471,0,0,0,2.566,6.235Zm5.711,3.7A31.076,31.076,0,0,1,1.722,7.857l-.094-.042a14.544,14.544,0,0,0,0,13.371l.094-.042a30.706,30.706,0,0,1,6.559-2.063A22.117,22.117,0,0,1,8.278,9.931Zm.448,10.922a29.044,29.044,0,0,0-6.159,1.912A14.471,14.471,0,0,0,13.249,29,21.99,21.99,0,0,1,8.725,20.853Zm11.547,0A21.957,21.957,0,0,1,15.749,29a14.468,14.468,0,0,0,10.683-6.235A29.049,29.049,0,0,0,20.273,20.851Z" fill="#bb9978"/>
</svg>
