<svg xmlns="http://www.w3.org/2000/svg" width="23.072" height="23.574" viewBox="0 0 23.072 23.574">
  <path id="Icon-feather-search" d="M23,22.321a.924.924,0,0,1,0,.694.908.908,0,0,1-.192.294.886.886,0,0,1-.288.2.869.869,0,0,1-.679,0,.886.886,0,0,1-.288-.2L16.011,17.64A9.615,9.615,0,0,1,2.553,16.7a10.133,10.133,0,0,1,.306-13.78,9.613,9.613,0,0,1,13.486-.313,10.131,10.131,0,0,1,.919,13.751l5.548,5.668A.908.908,0,0,1,23,22.321ZM4.137,15.749a7.842,7.842,0,0,0,10.071,1.016,8.116,8.116,0,0,0,2.938-3.658A8.317,8.317,0,0,0,17.6,8.4a8.208,8.208,0,0,0-2.183-4.174,7.927,7.927,0,0,0-4.085-2.231,7.82,7.82,0,0,0-4.609.464,8.017,8.017,0,0,0-3.58,3,8.279,8.279,0,0,0,.995,10.29Z" transform="translate(0 0)" fill="#070606"/>
</svg>
