<svg xmlns="http://www.w3.org/2000/svg" xmlns:xlink="http://www.w3.org/1999/xlink" width="112.813" height="101.946" viewBox="0 0 112.813 101.946">
  <defs>
    <clipPath id="clip-path">
      <rect id="Rectangle_22602" data-name="Rectangle 22602" width="112.813" height="101.946" fill="none"/>
    </clipPath>
  </defs>
  <g id="ICON-consumer-spending_hover" clip-path="url(#clip-path)">
    <path id="Path_7759" data-name="Path 7759" d="M89.7,81.914V80.169c0-1.568,0-3.137,0-4.705,0-.232.057-.329.3-.393a30.1,30.1,0,0,0,9.563-4.431,30.721,30.721,0,0,0,7.049-43.6A30.685,30.685,0,0,0,79.058,14.928a31.214,31.214,0,0,0-6.971,1.5A30.693,30.693,0,0,0,51.422,43.546c-.02.313-.12.389-.431.387q-2.9-.022-5.8,0c-.3,0-.369-.1-.342-.377.091-.9.175-1.809.241-2.715a1.462,1.462,0,0,0-1.083-1.7c-.582-.223-1.179-.408-1.771-.6-.431-.142-.865-.272-1.3-.409a1.42,1.42,0,0,1-1.05-1.948c.663-2.111,1.354-4.213,2.034-6.318.174-.54.358-1.078.519-1.622a1.478,1.478,0,0,1,1.95-1.019c1.005.357,2.038.637,3.04,1a1.561,1.561,0,0,0,2.048-.811,36.749,36.749,0,0,1,5.445-7.471,1.394,1.394,0,0,0,.164-1.811c-.64-.925-1.313-1.826-1.972-2.738A1.426,1.426,0,0,1,53,13.576a1.893,1.893,0,0,1,.412-.4q3.111-2.268,6.231-4.525c.2-.147.4-.3.608-.439a1.387,1.387,0,0,1,2.028.364c.646.879,1.273,1.771,1.929,2.642a1.45,1.45,0,0,0,2.079.521,36.691,36.691,0,0,1,6.432-2.312c.78-.2,1.57-.359,2.355-.538a1.37,1.37,0,0,0,1.2-1.366c.039-1.055.006-2.113.019-3.17a3.471,3.471,0,0,1,.1-.84,1.266,1.266,0,0,1,1.114-.965,7.033,7.033,0,0,1,1.02-.033q3.7-.009,7.4-.012a4.189,4.189,0,0,1,.51.031,1.356,1.356,0,0,1,1.273,1.388c.017,1.1.007,2.2.01,3.307a1.531,1.531,0,0,0,1.43,1.717,36.167,36.167,0,0,1,8.467,2.728,2.891,2.891,0,0,0,.8.278,1.347,1.347,0,0,0,1.3-.581c.654-.886,1.309-1.773,1.945-2.672a1.42,1.42,0,0,1,2.193-.437c1.932,1.379,3.843,2.788,5.762,4.186.34.247.682.492,1.014.749a1.413,1.413,0,0,1,.326,2.165c-.561.786-1.141,1.558-1.711,2.337a4.488,4.488,0,0,0-.361.536,1.4,1.4,0,0,0,.229,1.727,36.035,36.035,0,0,1,3.808,4.8c.572.86,1.091,1.754,1.615,2.645a1.523,1.523,0,0,0,2.078.8c.971-.318,1.956-.6,2.914-.949a1.515,1.515,0,0,1,2.051,1.007c.408,1.276.825,2.548,1.24,3.822q.6,1.845,1.206,3.689c.049.151.1.3.141.455a1.427,1.427,0,0,1-1.027,1.889c-.925.309-1.857.6-2.784.9a4.291,4.291,0,0,0-.665.257,1.252,1.252,0,0,0-.751,1.234c.055.872.2,1.742.209,2.614.018,1.759-.019,3.518-.057,5.277-.012.566-.1,1.131-.147,1.7a1.474,1.474,0,0,0,1.132,1.732c.991.325,1.984.645,2.975.972a1.439,1.439,0,0,1,1.068,2.075q-1.237,3.859-2.5,7.709a1.529,1.529,0,0,1-1.249,1.2,1.939,1.939,0,0,1-.8-.108c-1.02-.312-2.03-.656-3.049-.971a1.522,1.522,0,0,0-1.983.826c-.906,1.467-1.829,2.929-2.836,4.327-.775,1.075-1.68,2.057-2.546,3.063a1.467,1.467,0,0,0-.1,2.062c.643.881,1.3,1.751,1.913,2.653a1.4,1.4,0,0,1-.4,2.168l-6.563,4.766a1.454,1.454,0,0,1-2.317-.329c-.618-.815-1.2-1.658-1.821-2.468a2.677,2.677,0,0,0-.738-.664,1.463,1.463,0,0,0-1.432.094,33.5,33.5,0,0,1-5.022,1.911C91.711,81.4,90.731,81.641,89.7,81.914Z" transform="translate(-21.345 -1.875)" fill="none" stroke="#0715d4" stroke-miterlimit="10" stroke-width="2"/>
    <path id="Path_7760" data-name="Path 7760" d="M18.771,186.782c.818,0,1.636.007,2.454.007,2.557,0,5.113-.007,7.67,0,1.178,0,1.621.383,1.881,1.536q.859,3.8,1.728,7.6c.214.941.429,1.882.633,2.825.045.208.124.312.358.312q11.216-.011,22.431-.013c3.614,0,7.227.005,10.841-.01a3.293,3.293,0,0,1,2.324.8,3.1,3.1,0,0,1,.828,3.429q-1.524,5.336-3.056,10.67-1.2,4.19-2.4,8.381a1.7,1.7,0,0,1-1.738,1.269c-3.636-.037-7.272-.015-10.909-.014-4.875,0-9.75-.008-14.625.011a1.644,1.644,0,0,1-1.871-1.431c-.32-1.5-.673-2.991-1.013-4.485q-.9-3.968-1.805-7.936c-.529-2.335-1.046-4.673-1.578-7.007-.646-2.833-1.3-5.664-1.954-8.5-.315-1.372-.632-2.743-.924-4.12-.057-.269-.169-.309-.407-.308q-4.534.021-9.067.025A18.433,18.433,0,0,1,18.771,186.782Z" transform="translate(-5.348 -140.106)" fill="none" stroke="#0715d4" stroke-miterlimit="10" stroke-width="2"/>
    <path id="Path_7761" data-name="Path 7761" d="M201.088,94.733c0,.805,0,1.587,0,2.369q0,9.835-.008,19.671c0,.2-.006.41.01.613.02.275-.106.345-.365.344q-3.528-.012-7.056,0c-.248,0-.272-.113-.271-.313q.026-7.039.043-14.079c.006-2.659,0-5.318,0-7.977v-.628Z" transform="translate(-136.565 -71.06)" fill="#023074" stroke="#023074" stroke-miterlimit="10" stroke-width="2"/>
    <path id="Path_7762" data-name="Path 7762" d="M168.825,199.014v3.033H130.81c-.523,0-1.045.007-1.568.023-.208.007-.282-.073-.281-.277.006-.83.012-1.66,0-2.489,0-.3.167-.287.375-.287q5.932,0,11.865,0h27.624Z" transform="translate(-88.229 -149.282)" fill="#023074" stroke="#023074" stroke-miterlimit="10" stroke-width="2"/>
    <path id="Path_7763" data-name="Path 7763" d="M242.57,125.491h7.637c.007.118.019.237.019.356q-.008,7.073-.02,14.147c0,.787-.007.788-.788.79-2.181.005-4.363,0-6.544.02-.273,0-.318-.106-.318-.343q.017-6.238.021-12.476c0-.716-.018-1.431-.025-2.147C242.55,125.727,242.563,125.618,242.57,125.491Z" transform="translate(-173.435 -94.132)" fill="#023074" stroke="#023074" stroke-miterlimit="10" stroke-width="2"/>
    <path id="Path_7764" data-name="Path 7764" d="M144.332,143.8h7.637c.007.1.018.2.018.3q0,4.328,0,8.657c0,.488-.012.976,0,1.464,0,.225-.059.322-.308.321q-3.544-.016-7.088-.009c-.275,0-.282-.141-.281-.344q.017-4.276.027-8.553C144.333,145.034,144.332,144.435,144.332,143.8Z" transform="translate(-99.739 -107.867)" fill="#023074" stroke="#023074" stroke-miterlimit="10" stroke-width="2"/>
    <path id="Path_7765" data-name="Path 7765" d="M102.858,346.4a4.587,4.587,0,0,1,4.619,4.612,4.541,4.541,0,0,1-4.51,4.571,4.592,4.592,0,1,1-.109-9.182" transform="translate(-65.221 -259.838)" fill="#023074"/>
    <path id="Path_7766" data-name="Path 7766" d="M158.127,355.6a4.6,4.6,0,1,1,4.628-4.506,4.606,4.606,0,0,1-4.628,4.506" transform="translate(-106.694 -259.837)" fill="#023074"/>
    <path id="Path_7767" data-name="Path 7767" d="M35.31,315.68c1.42,0,2.841.009,4.261-.007.283,0,.345.087.34.349q-.024,1.176,0,2.352c.005.292-.1.36-.381.359q-4.21-.014-8.42,0c-.322,0-.4-.089-.4-.4.018-.772.006-1.545-.008-2.318,0-.256.061-.349.347-.345,1.42.018,2.841.008,4.261.008" transform="translate(-14.524 -236.789)" fill="#023074"/>
    <path id="Path_7768" data-name="Path 7768" d="M.016,281.9c0-.246,0-.459,0-.671,0-.681.012-1.363-.014-2.043-.011-.282.078-.351.342-.35,2.486.007,4.973,0,7.459,0,.386,0,.772.007,1.158,0,.193,0,.26.079.257.266-.012.84-.023,1.679-.019,2.519,0,.226-.07.288-.3.287q-4.257-.015-8.514-.012H.016" transform="translate(8.506 -209.155)" fill="#023074"/>
    <path id="Path_7769" data-name="Path 7769" d="M21.422,242.1c0,.963,0,1.9-.01,2.842,0,.069-.147.194-.226.194q-4.325.012-8.651,0c-.159,0-.325.023-.318-.231.022-.862.031-1.724.047-2.586,0-.066.012-.133.02-.22Z" transform="translate(-0.657 -181.6)" fill="#023074"/>
  </g>
</svg>
