<svg xmlns="http://www.w3.org/2000/svg" xmlns:xlink="http://www.w3.org/1999/xlink" width="79.197" height="79.115" viewBox="0 0 79.197 79.115">
  <defs>
    <clipPath id="clip-path">
      <rect id="Rectangle_10498" data-name="Rectangle 10498" width="79.197" height="79.115" fill="none"/>
    </clipPath>
  </defs>
  <g id="ICON-FuelPrices_hover" clip-path="url(#clip-path)">
    <path id="Path_7551" data-name="Path 7551" d="M0,48.35c.335-1.71.565-3.449,1.024-5.125a41.723,41.723,0,0,1,7.1-13.788A88.727,88.727,0,0,1,24.431,13.075c1.814,1.562,3.669,3.071,5.426,4.688A73.677,73.677,0,0,1,44.266,35.116a31.514,31.514,0,0,1,4.166,11.141,23.039,23.039,0,0,1-4.681,18.03c-5.526,7.144-12.938,10.347-21.933,9.541A24.308,24.308,0,0,1,.136,52.113,6.5,6.5,0,0,0,0,51.443V48.35M24.448,19.034c-.35.3-.589.489-.82.693a88.661,88.661,0,0,0-9.959,10.246,47.526,47.526,0,0,0-7.053,11.12A20.5,20.5,0,0,0,4.832,52.384a19.723,19.723,0,0,0,39.241-2.251,22.4,22.4,0,0,0-2.555-10.319A57.178,57.178,0,0,0,30.763,25.179c-2.04-2.1-4.2-4.093-6.315-6.144" transform="translate(0 -10.374)" fill="#0715d4"/>
    <path id="Path_7552" data-name="Path 7552" d="M245.291,232.624c-.977-.2-1.969-.348-2.929-.61a15.693,15.693,0,0,1-11.566-14.5,18.665,18.665,0,0,1,2.522-9.442A42.939,42.939,0,0,1,243.43,196c.988-.864,2.015-1.684,3.012-2.514.112.026.2.02.256.062a49.359,49.359,0,0,1,12.808,14.092,18.337,18.337,0,0,1,2.8,9.664,15.811,15.811,0,0,1-13.947,15.184,4.529,4.529,0,0,0-.588.141Zm1.348-33.167a1.339,1.339,0,0,0-.263.105,40.334,40.334,0,0,0-9.5,11.769,11.016,11.016,0,0,0-1.28,7.46,10.736,10.736,0,0,0,7.929,8.706A11.065,11.065,0,0,0,256.8,212.7c-2.2-5.305-5.982-9.433-10.16-13.243" transform="translate(-183.107 -153.509)" fill="#0715d4"/>
    <path id="Path_7553" data-name="Path 7553" d="M245.863,0c3.321,2.59,6.455,5.369,8.433,9.2,1.542,2.985,2.1,6.064.728,9.29a9.978,9.978,0,0,1-19.168-4.243,12.846,12.846,0,0,1,1.825-5.683A29.272,29.272,0,0,1,245.863,0m-.023,6c-.584.584-1.136,1.087-1.631,1.641a15.025,15.025,0,0,0-3.472,5.411,4.993,4.993,0,0,0,1.222,5.21,5.062,5.062,0,0,0,5.221,1.477,5.28,5.28,0,0,0,3.44-7.465A20.513,20.513,0,0,0,245.84,6" transform="translate(-187.119)" fill="#0715d4"/>
    <path id="Path_7554" data-name="Path 7554" d="M84.017,109.44h4.645c0,.656.03,1.29-.01,1.92-.03.479.174.62.606.784,1.622.616,3.213,1.311,4.9,2.01l-2.268,4.205c-.924-.474-1.779-.947-2.662-1.356a4.793,4.793,0,0,0-3.3-.419,2.011,2.011,0,0,0-1.464,1.35c-.227.629-.169,1.2.5,1.5,1.5.676,3,1.337,4.517,1.972a6.437,6.437,0,0,1,4.014,4.481,7.3,7.3,0,0,1-4.14,8.488.944.944,0,0,0-.7,1.075c.056.715.013,1.439.013,2.227H84.016c0-.752.036-1.493-.022-2.228a.808.808,0,0,0-.471-.584c-1.993-.451-3.56-1.67-5.275-2.789l2.531-3.867c.831.533,1.609,1.025,2.379,1.529a5.234,5.234,0,0,0,3.809.572,2.793,2.793,0,0,0,2.149-2.536,2.069,2.069,0,0,0-1.432-2.069c-1.535-.659-3.1-1.252-4.6-1.994a5.366,5.366,0,0,1-3.364-5.415,6.5,6.5,0,0,1,3.72-5.732.855.855,0,0,0,.582-.93c-.038-.714-.01-1.431-.01-2.193" transform="translate(-62.082 -86.83)" fill="#023074"/>
  </g>
</svg>
