<svg xmlns="http://www.w3.org/2000/svg" width="36.64" height="36.64" viewBox="0 0 36.64 36.64"><g transform="translate(-0.001 0.015)"><rect width="36.64" height="36.64" rx="6" transform="translate(0.001 -0.015)" fill="#f2f3f9"/><g transform="translate(7.817 7.225)"><path d="M39.6,36.1A3.1,3.1,0,1,1,36.5,33,3.1,3.1,0,0,1,39.6,36.1Zm-.7,5.168v13.7a.767.767,0,0,1-.767.771H34.863a.767.767,0,0,1-.769-.769v-13.7a.769.769,0,0,1,.769-.769h3.268A.769.769,0,0,1,38.9,41.268ZM55.98,48.4v6.631a.7.7,0,0,1-.707.707H51.759a.7.7,0,0,1-.707-.707V48.6c0-.959.281-4.2-2.507-4.2-2.16,0-2.6,2.218-2.687,3.214v7.413a.707.707,0,0,1-.7.707H41.767a.7.7,0,0,1-.7-.707V41.208a.7.7,0,0,1,.7-.707h3.394a.707.707,0,0,1,.707.707V42.4c.8-1.2,1.991-2.131,4.527-2.131C56.013,40.272,55.98,45.518,55.98,48.4Z" transform="translate(-33.4 -33)" fill="#263a52"/></g></g></svg>