<svg xmlns="http://www.w3.org/2000/svg" xmlns:xlink="http://www.w3.org/1999/xlink" width="92.164" height="80.809" viewBox="0 0 92.164 80.809">
  <defs>
    <clipPath id="clip-path">
      <rect id="Rectangle_9281" data-name="Rectangle 9281" width="92.164" height="80.809" transform="translate(0)" fill="none"/>
    </clipPath>
  </defs>
  <g id="ICON-inflation" transform="translate(0)" clip-path="url(#clip-path)">
    <path id="Path_6744" data-name="Path 6744" d="M0,24.554c.239-1.385.422-2.783.726-4.154A26.458,26.458,0,1,1,40.139,49.164c-.173-.163-.367-.336-.55-.519q-3.225-3.231-6.449-6.463A4.677,4.677,0,0,0,26,42.2q-4.286,4.288-8.555,8.592a.811.811,0,0,1-1.066.222C7.7,47.145,2.333,40.593.435,31.235.252,30.333.143,29.415,0,28.5V24.554m28.012-8.861c0-.628.034-1.212-.008-1.789a1.537,1.537,0,0,0-3.07.034,8.5,8.5,0,0,0-.009,1.169c.03.439-.105.62-.573.723a7.8,7.8,0,0,0-4.145,2.292,5.124,5.124,0,0,0,.935,8.058A17.516,17.516,0,0,0,24.4,27.6c.388.147.535.3.531.708-.019,1.779-.007,3.558-.011,5.337a3.576,3.576,0,0,1-.068.461c-1.45-.479-2.7-1.064-3.057-2.671-.249-1.107-.926-1.64-1.875-1.461a1.631,1.631,0,0,0-1.167,2.1,5.975,5.975,0,0,0,3.393,4.311,27.79,27.79,0,0,0,2.778,1.063c0,.386-.006.846,0,1.306.018,1.136.6,1.794,1.573,1.779a1.569,1.569,0,0,0,1.527-1.764c.006-.482,0-.965,0-1.45a8.7,8.7,0,0,0,4.124-1.877c3.174-2.746,2.724-7.038-.981-9-.978-.517-2.049-.855-3.091-1.281V18.906c1.539.5,2.8,1.145,3.109,2.886a1.5,1.5,0,0,0,1.748,1.274,1.578,1.578,0,0,0,1.287-1.826,5.484,5.484,0,0,0-1.554-3.23,8.255,8.255,0,0,0-4.65-2.316" transform="translate(7.458 7.819)" fill="#cf8e56"/>
    <path id="Path_6745" data-name="Path 6745" d="M116.927,141.8a8.645,8.645,0,0,1-.663.873Q103.2,155.79,90.12,168.895c-1.49,1.494-2.28,1.493-3.773,0q-6.363-6.378-12.725-12.756c-.23-.231-.471-.451-.9-.864a6.749,6.749,0,0,1-.648.923Q61.9,166.409,51.716,176.61c-1.251,1.254-2.356,1.414-3.256.476-.872-.91-.7-1.963.532-3.2Q60,162.853,71,151.819c1.452-1.455,2.284-1.461,3.716-.025q6.361,6.379,12.718,12.764a7.809,7.809,0,0,1,.55.665l26.127-26.193c-.054-.059-.24-.279-.442-.482q-3.655-3.671-7.319-7.333a1.978,1.978,0,0,1,1.478-3.562c6.118.014,12.236,0,18.355.009,1.723,0,2.362.665,2.362,2.425,0,6.074-.007,12.148.009,18.222a2.122,2.122,0,0,1-1.145,2.246,2.077,2.077,0,0,1-2.483-.713c-2.592-2.629-5.207-5.236-8-8.041" transform="translate(-36.394 -96.878)" fill="#383330"/>
    <path id="Path_6746" data-name="Path 6746" d="M114.846,97.19v5.4c-1.587-.113-3.041-1.313-3.082-2.509-.044-1.282,1.351-2.621,3.082-2.886" transform="translate(-82.515 -70.374)" fill="#cf8e56"/>
    <path id="Path_6747" data-name="Path 6747" d="M143.883,145.965c2.125.556,3.127,1.488,3.058,2.789-.067,1.242-1.431,2.458-3.058,2.7Z" transform="translate(-108.373 -109.615)" fill="#cf8e56"/>
  </g>
</svg>
