<svg xmlns="http://www.w3.org/2000/svg" xmlns:xlink="http://www.w3.org/1999/xlink" width="63.738" height="78.61" viewBox="0 0 63.738 78.61">
  <defs>
    <clipPath id="clip-path">
      <rect id="Rectangle_10465" data-name="Rectangle 10465" width="63.738" height="78.61" fill="#383330"/>
    </clipPath>
  </defs>
  <g id="ICON-unemployment" clip-path="url(#clip-path)">
    <path id="Path_7461" data-name="Path 7461" d="M57.686,189.443c-5.469-2.353-10.5-1.885-14.776,2.192-4.333,4.134-5,9.2-2.939,14.773H0v-.7c0-4.772-.011-9.544,0-14.317a19.1,19.1,0,0,1,14.039-18.554,26.752,26.752,0,0,1,3.946-.647c1.165-.148,1.939.8,2.917,1.181.137.054.178.38.242.586q2.246,7.2,4.488,14.4a2.45,2.45,0,0,0,.181.326c.562-1.811,1.107-3.524,1.6-5.249.041-.143-.2-.435-.375-.561a3.331,3.331,0,0,1-1.518-3.154,3.235,3.235,0,0,1,2.029-2.843,3.391,3.391,0,0,1,3.306,5.874.828.828,0,0,0-.371,1.161c.527,1.565.991,3.152,1.526,4.88.6-1.91,1.157-3.676,1.709-5.444q1.475-4.725,2.94-9.452a1.639,1.639,0,0,1,.721-.842c1.749-1.31,3.645-.915,5.477-.441,7.865,2.033,12.676,7.078,14.535,14.951.139.589.184,1.2.285,1.883" transform="translate(0 -134.481)" fill="#383330"/>
    <path id="Path_7462" data-name="Path 7462" d="M81.275,19.857A19.7,19.7,0,1,1,61.658,0,19.749,19.749,0,0,1,81.275,19.857" transform="translate(-32.686 0)" fill="#383330"/>
    <path id="Path_7463" data-name="Path 7463" d="M193.025,272.744a12.108,12.108,0,1,1,12.047-12.037,12.061,12.061,0,0,1-12.047,12.037m.362-3.033a9.075,9.075,0,1,0-9.32-8.453,9.019,9.019,0,0,0,9.32,8.453" transform="translate(-141.335 -194.134)" fill="#383330"/>
    <path id="Path_7464" data-name="Path 7464" d="M204.132,280.539a9.076,9.076,0,1,1,8.65-9.33,9.046,9.046,0,0,1-8.65,9.33m5.646-10.926H197.856v3.659h11.921Z" transform="translate(-152.08 -204.962)" fill="#fff"/>
    <path id="Path_7465" data-name="Path 7465" d="M0,0H11.921V3.659H0Z" transform="translate(45.777 64.651)" fill="#cf8e56"/>
  </g>
</svg>
