<svg id="Icon_source_hover" xmlns="http://www.w3.org/2000/svg" width="27.205" height="25.963" viewBox="0 0 27.205 25.963">
  <path id="Path_91724" data-name="Path 91724" d="M35.339,46.39l-.459-.459a7.36,7.36,0,0,0,1.2-1.2l.459.458Zm-12.307-5.4a.927.927,0,0,1-.366.053,5.11,5.11,0,0,1-1.9-.456,2.134,2.134,0,0,1-1.046-.9c-.433-.941-1.955-.218-1.226,1.362.2.43.109.51.022.587-.123.109-.047.065-.2.118a.718.718,0,0,1-.43.043C16.5,41.49,16.8,42.91,16.269,43.991a11.721,11.721,0,0,1-3.248-7.42c.217.067.9.313.818.612a1.7,1.7,0,0,0,.878,2.041c.613.214,1.13-.209,1.292-1.006A6.085,6.085,0,0,1,17.478,36.1a3.073,3.073,0,0,0,.646-3.158A6.372,6.372,0,0,0,16.9,30.934c-.067-.156.343-.713.651-.846a1.83,1.83,0,0,0,.749-.44c.208-.272.192-.566-.257-.909-.26-.2-.858-.049-.885-.072s.139-.022.359-.284c.467-.555,1.327-.833,1.6-1.287.532-.879.429-1.261-.033-1.547a11.685,11.685,0,0,1,3.924-1.329,2.52,2.52,0,0,0,.235.326c.061.076.235-.012.175.065-.019.025-.057.017-.156.073-.4.221-1.036.574-1.036,1.008,0,.4.514.72,2.18.72a2.244,2.244,0,0,1,1.384.262c.153.161.059.516-.433,1.184-.674.914-.468,1.528.142,1.978a6.461,6.461,0,0,0,2.121.786c.715.179,1.347.338,1.358.453.131,1.384.445,1.634.751,1.783a7.339,7.339,0,0,0-6.7,8.134ZM16.767,44.48a11.766,11.766,0,0,0,11.276,2.672,7.343,7.343,0,0,1-4.9-5.487,1.543,1.543,0,0,1-.509.05,5.787,5.787,0,0,1-2.152-.521,2.786,2.786,0,0,1-1.366-1.22c-.009-.02,0-.029-.008-.029-.046,0-.272.242,0,.829.407.881.128,1.129-.143,1.369-.125.11-.166.217-.347.223h0a1.392,1.392,0,0,1-.871.09c-.317-.072-.4.261-.5.712a4.527,4.527,0,0,1-.47,1.312ZM13,35.87a3.317,3.317,0,0,1,.964.394,1.007,1.007,0,0,1,.549.965.923.923,0,0,1-.024.125,1.156,1.156,0,0,0,.248,1.1c.309.314.519.117.618-.368a6.229,6.229,0,0,1,1.618-2.425c1.358-1.568.365-3.192-.578-4.283-.54-.624.314-1.657.89-1.905a2.512,2.512,0,0,0,.481-.23c.038-.05-.08.069-.131.03s-.055.036-.157.042a1.042,1.042,0,0,1-.752-.134c-.256-.216-.27-.575.278-1.226.514-.611,1.408-.983,1.542-1.2.263-.434.277-.578.177-.639a2.026,2.026,0,0,0-.34-.141A11.756,11.756,0,0,0,13,35.853ZM23.77,24.131c.236.293.442.552.178.892-.131.168-1.05.59-1.05.669a7.979,7.979,0,0,0,1.509.049,2.651,2.651,0,0,1,1.87.472c.392.413.354,1.048-.378,2.042-.375.509-.294.826,0,1.042,1.021.753,3.653.694,3.75,1.716.106,1.121.282,1.2.444,1.275a.841.841,0,0,1,.532.553,7.356,7.356,0,0,1,2.09.391,1.435,1.435,0,0,1-.163-1.153c.22-.431.708-.307,1.131-.025a1.751,1.751,0,0,0,.984.385c.745-.042.667-1.742.557-1.976a11.776,11.776,0,0,0-11.45-6.33Zm10.036,9.578a3.6,3.6,0,0,1-.645-1.19c.04.022.089.052.146.09.817.546,1.692.759,2.24.043a1.9,1.9,0,0,0,.316-.7,11.763,11.763,0,0,1,.657,4.282A7.374,7.374,0,0,0,33.806,33.709Zm6.279,15.02a.413.413,0,0,0,0-.582L37.6,45.662a.413.413,0,0,0-.582,0l-1.2,1.2a.413.413,0,0,0,0,.582L38.3,49.933a.413.413,0,0,0,.582,0Zm-13.5-12.3a5.294,5.294,0,1,0,7.486,0A5.294,5.294,0,0,0,26.583,36.431Zm-.973-.973a6.669,6.669,0,1,0,9.431,0A6.669,6.669,0,0,0,25.61,35.459Zm.5.5a5.965,5.965,0,1,0,8.436,0A5.966,5.966,0,0,0,26.108,35.956Z" transform="translate(-13 -24.09)" fill="#fff" fill-rule="evenodd"/>
</svg>
