<svg id="industrials-hover" xmlns="http://www.w3.org/2000/svg" width="85.633" height="89.279" viewBox="0 0 85.633 89.279">
  <g id="Group_1365" data-name="Group 1365">
    <g id="Group_1366" data-name="Group 1366">
      <path id="Path_5526" data-name="Path 5526" d="M0,137.991V116.44c.588,0,1.127,0,1.667,0,1.532-.012,2.032-.474,2.106-2,.132-2.727.246-5.455.369-8.182Q4.906,89.374,5.67,72.487q.173-3.83.348-7.66c.009-.2.046-.4.076-.644h6.181c.11,2.221.226,4.39.323,6.561q.558,12.491,1.108,24.983.422,9.445.859,18.889c.057,1.254.589,1.8,1.828,1.817,1.79.023,3.581.02,5.371,0,1.278-.013,1.786-.488,1.85-1.775q.341-6.831.642-13.665.585-12.8,1.161-25.591c.154-3.424.313-6.848.424-10.273.025-.769.232-1.058,1.043-1.02,1.5.069,3,.038,4.5.01.559-.01.815.109.841.753q.5,12.1,1.059,24.2c.046,1.043.106,2.086.159,3.117-.086.036-.149.088-.182.073-1.807-.843-2.7-.247-2.7,1.811q0,21.4,0,42.791c0,.375-.037.751-.056,1.126H27.555q-.014-4.968-.028-9.935c0-1.943-.43-2.383-2.331-2.383q-6.672,0-13.343,0c-2.282,0-4.563-.011-6.845,0-1.381.009-1.924.534-1.95,1.863-.02,1.046-.012,2.092,0,3.138q.027,3.657.066,7.314Z" transform="translate(0 -48.712)" fill="#f6c092"/>
      <path id="Path_5527" data-name="Path 5527" d="M295.318,239.9q-.008-18.689-.016-37.378c0-1.389,0-2.779,0-4.3.331.2.572.33.8.482q6.916,4.633,13.833,9.264a1.169,1.169,0,0,1,.657,1.087q-.034,15.422-.023,30.844Zm7.625-20.016c.924,0,1.847.012,2.77,0,1.216-.02,1.773-.532,1.792-1.73q.044-2.873,0-5.748a1.528,1.528,0,0,0-1.629-1.734q-2.941-.073-5.886,0a1.476,1.476,0,0,0-1.608,1.569q-.07,3.046,0,6.1A1.459,1.459,0,0,0,300,219.874c.98.027,1.962.006,2.944.008" transform="translate(-224.959 -150.618)" fill="#cf8e56"/>
      <path id="Path_5528" data-name="Path 5528" d="M218.253,239.9V198.223c.323.193.563.323.79.475q6.917,4.634,13.819,9.289a1.466,1.466,0,0,1,.634.978q.04,15.467.008,30.935Zm7.619-20.019v0h2.684c.058,0,.116,0,.173,0,1.111-.039,1.707-.527,1.736-1.62.052-1.973.048-3.949,0-5.922a1.515,1.515,0,0,0-1.615-1.668c-1.99-.049-3.983-.051-5.973.006a1.471,1.471,0,0,0-1.552,1.622c-.031,2-.034,4.007,0,6.009a1.463,1.463,0,0,0,1.594,1.564c.981.03,1.963.007,2.944.007" transform="translate(-166.263 -150.62)" fill="#cf8e56"/>
      <path id="Path_5529" data-name="Path 5529" d="M141.137,239.867V198.181c.337.2.578.329.8.481q6.917,4.635,13.835,9.267a1.179,1.179,0,0,1,.662,1.09q-.028,15.208-.016,30.416c0,.144-.024.288-.037.433Zm7.643-20.017c.953,0,1.905.016,2.857,0,1.105-.023,1.708-.534,1.737-1.623.051-1.973.047-3.949,0-5.923a1.525,1.525,0,0,0-1.626-1.662q-2.942-.076-5.887,0a1.526,1.526,0,0,0-1.638,1.726q-.035,2.874,0,5.749c.014,1.189.574,1.716,1.785,1.737.923.016,1.847,0,2.771,0" transform="translate(-107.517 -150.588)" fill="#cf8e56"/>
      <path id="Path_7816" data-name="Path 7816" d="M0,0H18.37V9.182H0Z" transform="translate(6.066 80.098)" fill="#cf8e56"/>
      <path id="Path_5530" data-name="Path 5530" d="M94.29,10.756a10,10,0,0,1-7.3-1.988c-1.475-1.114-2.83-2.387-4.251-3.574C79.663,2.624,75.62,2.366,72.7,4.676a24.871,24.871,0,0,0-2.664,2.84,35.941,35.941,0,0,1-3.949,4.241,10.578,10.578,0,0,1-12.893,0,35.057,35.057,0,0,1-2.984-2.519c-2.009-1.868-4.182-3.311-7.16-3.02-.089-1.036-.172-2-.26-3.019A9.991,9.991,0,0,1,50.1,5.212c1.383,1.043,2.675,2.212,3.977,3.359a7.958,7.958,0,0,0,8.359,1.761,8.644,8.644,0,0,0,3.843-3c.983-1.217,1.9-2.5,2.964-3.636A10.84,10.84,0,0,1,84.777,2.9c1.2,1.041,2.388,2.108,3.626,3.107a7.074,7.074,0,0,0,4.961,1.709c.516-.03.73.134.748.665.026.775.113,1.548.179,2.372" transform="translate(-32.599 0)" fill="#cf8e56"/>
      <path id="Path_5531" data-name="Path 5531" d="M190.315,46.13c.095,1.081.178,2.029.269,3.068a9.047,9.047,0,0,1-6.176-1.3,52.149,52.149,0,0,1-5.083-4.037,8.151,8.151,0,0,0-8.276-1.872,8,8,0,0,0-3.781,2.8c-.857,1.058-1.692,2.133-2.548,3.193a10.93,10.93,0,0,1-16.237,1.456c-.7-.607-1.388-1.227-2.087-1.834-2.805-2.439-3.336-2.67-7.056-3.038-.083-.935-.169-1.9-.259-2.908a9.863,9.863,0,0,1,7.217,1.939c1.411,1.052,2.719,2.248,4.052,3.4,3.954,3.428,8.807,3.01,12.091-1.06.819-1.014,1.619-2.044,2.435-3.06a10.9,10.9,0,0,1,16.1-1.6c.709.595,1.419,1.193,2.1,1.824,2.02,1.887,4.194,3.4,7.249,3.038" transform="translate(-105.95 -29.212)" fill="#f6c092"/>
      <rect id="Rectangle_5704" data-name="Rectangle 5704" width="2.985" height="2.962" transform="translate(76.489 63.199)" fill="#443f3d"/>
      <rect id="Rectangle_5705" data-name="Rectangle 5705" width="2.971" height="2.953" transform="translate(58.159 63.191)" fill="#443f3d"/>
      <rect id="Rectangle_5706" data-name="Rectangle 5706" width="2.949" height="2.991" transform="translate(39.784 63.166)" fill="#443f3d"/>
      <rect id="Rectangle_5707" data-name="Rectangle 5707" width="85.633" height="89.279" fill="none"/>
    </g>
  </g>
</svg>
