<svg id="insurance-hover" xmlns="http://www.w3.org/2000/svg" xmlns:xlink="http://www.w3.org/1999/xlink" width="84.884" height="84.825" viewBox="0 0 84.884 84.825">
  <defs>
    <clipPath id="clip-path">
      <rect id="Rectangle_10438" data-name="Rectangle 10438" width="84.884" height="84.825" fill="#0715d4"/>
    </clipPath>
  </defs>
  <g id="Group_4248" data-name="Group 4248" clip-path="url(#clip-path)">
    <path id="Path_7136" data-name="Path 7136" d="M212.97,214.9a3.229,3.229,0,0,1-2.232-3.532c.074-3.37.019-6.742.023-10.114,0-1.971.561-2.7,2.426-3.32.195-.065.384-.479.388-.733a21.323,21.323,0,0,1,.547-6.082c1.225-4,3.425-7.109,7.506-8.672a24.457,24.457,0,0,0,6.894-4.223c3.214-2.691,4.9-2.96,8.75-1.352q1.461-3.411,2.924-6.824a4.508,4.508,0,1,1,8.319,3.454c-1.381,3.16-2.939,6.245-4.239,9.437a25.561,25.561,0,0,1-6.507,9.364c-2.238,2.052-4.316,4.278-6.528,6.489.933,1.121.74,2.466.743,3.773.006,2.846-.057,5.695.023,8.539.049,1.748-.449,3.069-2.122,3.8Zm3.529-17.029a3.164,3.164,0,0,0,.413.055c3.564,0,7.128.016,10.691-.018a1.6,1.6,0,0,0,.976-.48c3.121-3.091,6.253-6.172,9.3-9.332a12.615,12.615,0,0,0,2.3-3.206c1.982-4.126,3.84-8.312,5.717-12.488a2.084,2.084,0,0,0,.135-1.195,1.5,1.5,0,0,0-1.45-1.259,1.636,1.636,0,0,0-1.752,1.109c-.995,2.3-2,4.6-2.965,6.921a17.808,17.808,0,0,1-3.957,5.862c-1.806,1.789-3.6,3.593-5.394,5.389-.313.312-.585.747-.964.889a2.06,2.06,0,0,1-1.516.086,1.866,1.866,0,0,1-.679-1.347c-.026-.35.343-.792.638-1.093,1.974-2.011,3.987-3.983,5.961-5.994.689-.7,1.3-1.475,1.957-2.219a3.51,3.51,0,0,0-4.772.154,34.04,34.04,0,0,1-9.157,5.72,8.208,8.208,0,0,0-2.829,2.079c-2.586,2.972-3.026,6.564-2.663,10.367m-2.869,14.173h15.446V200.83H213.63Z" transform="translate(-164.049 -130.075)" fill="#f6c092"/>
    <path id="Path_7137" data-name="Path 7137" d="M19.071,215.056c-1.673-.727-2.166-2.047-2.123-3.8.079-3.2-.012-6.409.044-9.613a17.556,17.556,0,0,1,.455-2.69h.243c-.187-.2-.369-.4-.561-.593q-3.924-3.929-7.854-7.852a16.52,16.52,0,0,1-3.47-5.006c-1.719-3.824-3.466-7.635-5.191-11.456C.378,173.527.2,172.975,0,172.437V171.11c.058-.149.128-.3.172-.449a4.548,4.548,0,0,1,3.984-3.353,4.435,4.435,0,0,1,4.476,2.646c.955,2.109,1.838,4.25,2.753,6.378.1.226.2.452.233.536a30.54,30.54,0,0,1,3.627-.773,5.543,5.543,0,0,1,4.261,1.5,32.235,32.235,0,0,0,8.738,5.444c3.843,1.666,5.787,4.937,6.693,8.823a30.475,30.475,0,0,1,.413,5.343c.028.55.051.873.744.993a2.551,2.551,0,0,1,2.07,2.478q.057,5.881,0,11.763c-.014,1.4-.978,2.14-2.18,2.618Zm-6.047-35.342c.7.792,1.329,1.563,2.023,2.268,2.015,2.048,4.065,4.061,6.083,6.107.9.916.655,2.258-.5,2.454a2.046,2.046,0,0,1-1.521-.524c-2.21-2.125-4.36-4.313-6.518-6.491A16.6,16.6,0,0,1,9.148,178.3q-1.465-3.423-2.933-6.844c-.525-1.219-1.421-1.67-2.392-1.225s-1.207,1.4-.659,2.609c1.745,3.842,3.427,7.716,5.277,11.507a16.235,16.235,0,0,0,2.739,4c2.98,3.149,6.1,6.171,9.188,9.213a1.926,1.926,0,0,0,1.211.5c3.37.04,6.741.023,10.111.021.264,0,.527-.024,1-.047a44.444,44.444,0,0,0-.571-5.755c-.637-2.8-1.995-5.307-4.757-6.528a37.07,37.07,0,0,1-9.8-6.086,3.486,3.486,0,0,0-4.54.044m22.3,21.274H19.877v11.181H35.325Z" transform="translate(0 -130.231)" fill="#f6c092"/>
    <path id="Path_7138" data-name="Path 7138" d="M89.363,22.6c0-3.813.018-7.626-.012-11.439a1.927,1.927,0,0,1,1.31-2.034Q100.8,4.737,110.9.262A2.508,2.508,0,0,1,113.1.249q10.069,4.442,20.167,8.82a2.051,2.051,0,0,1,1.4,2.153c-.032,7.046-.015,14.091-.017,21.137a15.619,15.619,0,0,1-6.841,13.369q-6.96,5.009-13.909,10.033a2.723,2.723,0,0,1-3.776.006q-6.989-5.039-13.975-10.083a15.542,15.542,0,0,1-6.79-13.225c-.012-3.288,0-6.576,0-9.864m42.453.509c0-3.591-.012-7.182.012-10.773a1.022,1.022,0,0,0-.711-1.115c-6.174-2.676-12.333-5.385-18.508-8.058a1.6,1.6,0,0,0-1.141-.02c-6.2,2.682-12.385,5.4-18.581,8.1a.97.97,0,0,0-.7,1.037c.023,6.8,0,13.591.02,20.386a12.579,12.579,0,0,0,5.513,10.667c4.564,3.3,9.143,6.58,13.695,9.9a.847.847,0,0,0,1.207-.01q6.732-4.9,13.5-9.745a12.847,12.847,0,0,0,5.7-11.081c-.013-3.094,0-6.188,0-9.282" transform="translate(-69.556 0)" fill="#f6c092"/>
    <path id="Path_7139" data-name="Path 7139" d="M238.507,340.933c-1.436.012-2.071-.425-2.061-1.406s.656-1.413,2.094-1.408a4.916,4.916,0,0,1,.986.056,1.337,1.337,0,0,1,1.105,1.507,1.3,1.3,0,0,1-1.3,1.247c-.273.024-.55,0-.825,0" transform="translate(-184.063 -263.211)" fill="#cf8e56"/>
    <path id="Path_7140" data-name="Path 7140" d="M129.946,340.894c-.193,0-.386.007-.578,0a1.375,1.375,0,0,1-1.5-1.4,1.4,1.4,0,0,1,1.5-1.421,9.616,9.616,0,0,1,1.321.007,1.388,1.388,0,0,1,1.377,1.452,1.362,1.362,0,0,1-1.456,1.358c-.22.012-.44,0-.661,0" transform="translate(-99.54 -263.161)" fill="#cf8e56"/>
    <path id="Path_7141" data-name="Path 7141" d="M114.983,45.759c0-3.123.022-6.246-.013-9.368a1.816,1.816,0,0,1,1.239-1.907q7.408-3.2,14.785-6.468a2.167,2.167,0,0,1,1.9-.014q7.42,3.275,14.861,6.5a1.739,1.739,0,0,1,1.18,1.782c-.019,6.052,0,12.1-.017,18.157a9.608,9.608,0,0,1-4.142,8.083c-3.9,2.854-7.841,5.656-11.753,8.494a1.6,1.6,0,0,1-2.114.011c-3.934-2.856-7.9-5.668-11.819-8.545a9.621,9.621,0,0,1-4.1-8.1c-.012-2.874,0-5.748,0-8.622m31.107.539c0-2.874-.022-5.748.017-8.621a1.059,1.059,0,0,0-.771-1.152c-4.256-1.833-8.494-3.709-12.752-5.535a1.709,1.709,0,0,0-1.214-.012c-4.284,1.838-8.544,3.73-12.828,5.569a1.055,1.055,0,0,0-.742,1.164q.036,8.206.006,16.413a7.247,7.247,0,0,0,3.21,6.283q5.185,3.716,10.343,7.47a.851.851,0,0,0,1.214-.016q5.152-3.762,10.342-7.473a7.176,7.176,0,0,0,3.179-6.215c-.019-2.625,0-5.25,0-7.875" transform="translate(-89.499 -21.634)" fill="#cf8e56"/>
    <path id="Path_7142" data-name="Path 7142" d="M153.628,92.643c.273-.411.5-.753.728-1.1q4.729-7.094,9.46-14.187a3.546,3.546,0,0,1,.5-.658,1.313,1.313,0,0,1,1.741-.172,1.3,1.3,0,0,1,.538,1.66,3.589,3.589,0,0,1-.408.715q-5.368,8.061-10.741,16.119c-.853,1.279-1.5,1.392-2.715.481-1.7-1.273-3.406-2.542-5.1-3.829a1.42,1.42,0,1,1,1.67-2.269c1.424,1.044,2.83,2.114,4.326,3.235" transform="translate(-114.351 -59.379)" fill="#cf8e56"/>
  </g>
</svg>
