<svg id="insurance-sector-aggregated-data-hover" xmlns="http://www.w3.org/2000/svg" xmlns:xlink="http://www.w3.org/1999/xlink" width="57.14" height="57.13" viewBox="0 0 57.14 57.13">
  <defs>
    <clipPath id="clip-path">
      <rect id="Rectangle_22919" data-name="Rectangle 22919" width="57.14" height="57.13" fill="none"/>
    </clipPath>
  </defs>
  <g id="Group_7993" data-name="Group 7993">
    <g id="Group_7992" data-name="Group 7992" clip-path="url(#clip-path)">
      <path id="Path_8203" data-name="Path 8203" d="M38.711,23.964V0h-.4q-14.06,0-28.12.015a1.243,1.243,0,0,0-.775.359C6.4,3.363,3.4,6.372.39,9.363a1.216,1.216,0,0,0-.39.954Q.014,33.422.008,56.528v.6H38.742V33.245a.915.915,0,0,1,.169-.048q3-.005,5.993-.007A2.876,2.876,0,0,1,47.867,36.9H40.606v5.52h1.768v1.853H40.616v5.54h1.771v1.833H40.6v5.477H57.128V51.611H55.365V49.758H57.14v-5.52H55.374V42.385h1.757v-5.52H49.8c0-.229,0-.415,0-.6a4.627,4.627,0,0,0-4.956-4.916q-2.737,0-5.474,0H38.76V25.814h.646c1.9,0,3.8.009,5.7,0a4.591,4.591,0,0,0,4.641-4.037,11.285,11.285,0,0,0,.01-1.509h7.372V14.725H55.359V12.892h1.766V7.351H55.368V5.519h1.768V.043H40.606v5.5h1.77V7.4H40.615v5.54h1.772v1.833H40.6v5.52h7.335c0,.443.031.827-.006,1.2a2.706,2.706,0,0,1-2.555,2.459c-2.187.046-4.376.012-6.668.012" transform="translate(0 0)" fill="#fff"/>
      <path id="Path_8204" data-name="Path 8204" d="M38.711,23.964c2.292,0,4.481.033,6.668-.012a2.706,2.706,0,0,0,2.555-2.459c.037-.377.006-.76.006-1.2H40.6v-5.52h1.783V12.936H40.615V7.4h1.761V5.543h-1.77V.043h16.53V5.519H55.368V7.352h1.757v5.54H55.359v1.833h1.775v5.541H49.762a11.285,11.285,0,0,1-.01,1.509,4.591,4.591,0,0,1-4.641,4.037c-1.9.012-3.8,0-5.7,0H38.76v5.532h.605q2.737,0,5.474,0A4.627,4.627,0,0,1,49.8,36.263c0,.187,0,.373,0,.6h7.335v5.52H55.374v1.853H57.14v5.52H55.365v1.853h1.763v5.513H40.6V51.648h1.782V49.815H40.616v-5.54h1.759V42.421H40.606V36.9h7.261A2.876,2.876,0,0,0,44.9,33.19q-3,0-5.993.007a.929.929,0,0,0-.169.048V57.13H.008v-.6Q.008,33.423,0,10.317a1.216,1.216,0,0,1,.39-.954C3.4,6.372,6.4,3.363,9.411.375a1.243,1.243,0,0,1,.775-.359Q24.246-.012,38.306,0h.4ZM1.893,11.05V55.288h34.96V1.885h-25.8V11.05Zm40.574-.025H55.283V9.23H42.468ZM42.445,18.4H55.28V16.625H42.445Zm0-14.751H55.3V1.875H42.445Zm0,36.878H55.3V38.752H42.445ZM55.3,46.137H42.467v1.773H55.3Zm0,7.374H42.466v1.775H55.3ZM9.2,3.484l-5.711,5.7H9.2ZM44.312,7.337h9.127V5.543H44.312Zm9.14,5.606H44.306v1.783h9.146Zm.007,29.507H44.311v1.773h9.148Zm-9.164,9.145h9.149V49.808H44.294Z" transform="translate(0 0)" fill="#cf8e56"/>
      <rect id="Rectangle_22905" data-name="Rectangle 22905" width="12.815" height="1.795" transform="translate(42.468 9.23)" fill="#cf8e56"/>
      <rect id="Rectangle_22906" data-name="Rectangle 22906" width="12.835" height="1.773" transform="translate(42.445 16.625)" fill="#cf8e56"/>
      <rect id="Rectangle_22907" data-name="Rectangle 22907" width="12.856" height="1.772" transform="translate(42.445 1.875)" fill="#cf8e56"/>
      <rect id="Rectangle_22908" data-name="Rectangle 22908" width="12.856" height="1.773" transform="translate(42.445 38.752)" fill="#cf8e56"/>
      <rect id="Rectangle_22909" data-name="Rectangle 22909" width="12.835" height="1.773" transform="translate(42.467 46.137)" fill="#cf8e56"/>
      <rect id="Rectangle_22910" data-name="Rectangle 22910" width="12.835" height="1.775" transform="translate(42.466 53.511)" fill="#cf8e56"/>
      <path id="Path_8205" data-name="Path 8205" d="M28.4,22.632v5.7H22.694l5.711-5.7" transform="translate(-19.201 -19.148)" fill="#cf8e56" stroke="#cf8e56" stroke-width="1"/>
      <rect id="Rectangle_22911" data-name="Rectangle 22911" width="9.127" height="1.795" transform="translate(44.312 5.542)" fill="#cf8e56"/>
      <rect id="Rectangle_22912" data-name="Rectangle 22912" width="9.146" height="1.783" transform="translate(44.306 12.942)" fill="#cf8e56"/>
      <rect id="Rectangle_22913" data-name="Rectangle 22913" width="9.148" height="1.773" transform="translate(44.311 42.449)" fill="#cf8e56"/>
      <rect id="Rectangle_22914" data-name="Rectangle 22914" width="9.149" height="1.786" transform="translate(44.294 49.808)" fill="#cf8e56"/>
      <path id="Path_8206" data-name="Path 8206" d="M63.581,91.932c0,1.993.029,3.834-.008,5.675a48.983,48.983,0,0,1-.259,6.55c-1.271,8.13-5.766,13.88-13.251,17.288a.876.876,0,0,1-.646-.011,21.827,21.827,0,0,1-13.14-16.617,25.044,25.044,0,0,1-.341-4.18c-.052-2.65-.015-5.3-.015-7.951v-.678c.718,0,1.386-.023,2.051,0a16.455,16.455,0,0,0,11.789-3.968c3.945,3.487,8.672,4.346,13.819,3.888m-25.816,2.12c0,2.123-.022,4.384.01,6.645a22.238,22.238,0,0,0,.218,3.211,20.018,20.018,0,0,0,11.379,15.477.94.94,0,0,0,.735.017c6.4-3.207,10.356-8.322,11.342-15.414a85.663,85.663,0,0,0,.275-10c0-.031-.035-.063-.054-.095a.423.423,0,0,0-.1-.033c-.134-.006-.269-.012-.4-.008A17.953,17.953,0,0,1,50.043,90.6c-.274-.192-.433-.1-.652.055A15.49,15.49,0,0,1,43.5,93.3c-1.854.358-3.749.5-5.736.756" transform="translate(-30.382 -74.491)" fill="#f6c091"/>
      <path id="Path_8209" data-name="Path 8209" d="M47.927,107.495c1.988-.253,3.883-.4,5.736-.756a15.49,15.49,0,0,0,5.89-2.644c.219-.152.377-.247.652-.055a17.953,17.953,0,0,0,11.118,3.255c.134,0,.269,0,.4.008a.426.426,0,0,1,.1.033c.019.032.054.064.054.095a85.666,85.666,0,0,1-.275,10c-.986,7.092-4.941,12.207-11.342,15.414a.939.939,0,0,1-.735-.017,20.018,20.018,0,0,1-11.379-15.477,22.244,22.244,0,0,1-.218-3.211c-.032-2.26-.01-4.522-.01-6.645m1.865,1.81c0,.056-.019.224-.019.391,0,1.632-.047,3.266.007,4.9A18.328,18.328,0,0,0,59.5,130.77a.754.754,0,0,0,.845-.009,18.427,18.427,0,0,0,9.138-11.745c.856-3.209.512-6.487.555-9.742,0-.031-.037-.063-.058-.095a.459.459,0,0,0-.107-.032,20.472,20.472,0,0,1-9.666-2.866.951.951,0,0,0-.708.066c-1.587.664-3.122,1.49-4.757,1.994a44.663,44.663,0,0,1-4.95.963" transform="translate(-40.543 -87.934)" fill="#fff"/>
      <path id="Path_8210" data-name="Path 8210" d="M59.872,121.961a44.669,44.669,0,0,0,4.95-.963c1.635-.5,3.17-1.33,4.757-1.994a.95.95,0,0,1,.708-.066,20.474,20.474,0,0,0,9.666,2.865.458.458,0,0,1,.107.032c.02.032.058.063.057.094-.043,3.255.3,6.533-.555,9.742a18.427,18.427,0,0,1-9.138,11.745.754.754,0,0,1-.845.009A18.328,18.328,0,0,1,59.86,127.25c-.054-1.631-.009-3.265-.007-4.9,0-.168.016-.336.019-.391m1.926,1.555a51.285,51.285,0,0,0,.029,5.371,16.266,16.266,0,0,0,7.779,12.422.567.567,0,0,0,.769,0,38.238,38.238,0,0,0,3.517-2.947c3.934-4.183,4.821-9.31,4.317-14.825a.214.214,0,0,0-.073-.027,22.3,22.3,0,0,1-7.907-2.492.766.766,0,0,0-.569.052c-.685.3-1.345.653-2.033.944a21.538,21.538,0,0,1-5.83,1.5" transform="translate(-50.623 -100.59)" fill="#cf8e56"/>
    </g>
  </g>
  <path id="Path_7142" data-name="Path 7142" d="M150.395,84.783l.379-.569q2.458-3.687,4.917-7.374a1.843,1.843,0,0,1,.259-.342.682.682,0,0,1,.9-.089.675.675,0,0,1,.28.863,1.866,1.866,0,0,1-.212.371q-2.79,4.19-5.583,8.378c-.443.665-.778.724-1.411.25-.884-.662-1.77-1.321-2.649-1.99a.738.738,0,1,1,.868-1.179c.74.543,1.471,1.1,2.248,1.681" transform="translate(-132.138 -51.728)" fill="#383330" stroke="#f6c092" stroke-width="0.5"/>
</svg>
