<svg xmlns="http://www.w3.org/2000/svg" width="54" height="54" viewBox="0 0 54 54">
  <g id="loader" transform="translate(-23 -23)">
    <g id="Group_3" data-name="Group 3" transform="translate(73 50)">
      <g id="Group_2" data-name="Group 2">
        <circle id="Ellipse_1" data-name="Ellipse 1" cx="4" cy="4" r="4" transform="translate(-4 -4)" fill="#8ec4ec"/>
      </g>
    </g>
    <g id="Group_5" data-name="Group 5" transform="translate(66.263 66.263)">
      <g id="Group_4" data-name="Group 4" transform="rotate(45)">
        <circle id="Ellipse_2" data-name="Ellipse 2" cx="4" cy="4" r="4" transform="translate(-4 -4)" fill="rgba(142,196,236,0.87)"/>
      </g>
    </g>
    <g id="Group_7" data-name="Group 7" transform="translate(50 73)">
      <g id="Group_6" data-name="Group 6" transform="rotate(90)">
        <circle id="Ellipse_3" data-name="Ellipse 3" cx="4" cy="4" r="4" transform="translate(-4 -4)" fill="rgba(142,196,236,0.75)"/>
      </g>
    </g>
    <g id="Group_9" data-name="Group 9" transform="translate(33.737 66.263)">
      <g id="Group_8" data-name="Group 8" transform="rotate(135)">
        <circle id="Ellipse_4" data-name="Ellipse 4" cx="4" cy="4" r="4" transform="translate(-4 -4)" fill="rgba(142,196,236,0.62)"/>
      </g>
    </g>
    <g id="Group_11" data-name="Group 11" transform="translate(27 50)">
      <g id="Group_10" data-name="Group 10" transform="rotate(180)">
        <circle id="Ellipse_5" data-name="Ellipse 5" cx="4" cy="4" r="4" transform="translate(-4 -4)" fill="rgba(142,196,236,0.5)"/>
      </g>
    </g>
    <g id="Group_13" data-name="Group 13" transform="translate(33.737 33.737)">
      <g id="Group_12" data-name="Group 12" transform="rotate(-135)">
        <circle id="Ellipse_6" data-name="Ellipse 6" cx="4" cy="4" r="4" transform="translate(-4 -4)" fill="rgba(142,196,236,0.38)"/>
      </g>
    </g>
    <g id="Group_15" data-name="Group 15" transform="translate(50 27)">
      <g id="Group_14" data-name="Group 14" transform="rotate(-90)">
        <circle id="Ellipse_7" data-name="Ellipse 7" cx="4" cy="4" r="4" transform="translate(-4 -4)" fill="rgba(142,196,236,0.25)"/>
      </g>
    </g>
    <g id="Group_17" data-name="Group 17" transform="translate(66.263 33.737)">
      <g id="Group_16" data-name="Group 16" transform="rotate(-45)">
        <circle id="Ellipse_8" data-name="Ellipse 8" cx="4" cy="4" r="4" transform="translate(-4 -4)" fill="rgba(142,196,236,0.13)"/>
      </g>
    </g>
  </g>
</svg>
