<svg xmlns="http://www.w3.org/2000/svg" xmlns:xlink="http://www.w3.org/1999/xlink" width="66" height="57.909" viewBox="0 0 66 57.909">
  <defs>
    <clipPath id="clip-path">
      <rect id="Rectangle_22937" data-name="Rectangle 22937" width="66" height="57.909" fill="none"/>
    </clipPath>
  </defs>
  <g id="market-and-trading-data-hover" clip-path="url(#clip-path)">
    <path id="Path_8244" data-name="Path 8244" d="M22.706,48.3V42.127h-.784q-5.764,0-11.528,0a1.791,1.791,0,1,1-.131-3.571c1.312-.018,2.625-.006,3.938-.006h.75V34.858h-.79c-3.031,0-6.062,0-9.093,0C1.862,34.85.005,32.995,0,29.788Q0,19.762,0,9.736c0-3.229,1.88-5.085,5.132-5.086q7.769,0,15.537,0h.981c0-.994-.022-1.937.006-2.878A1.728,1.728,0,0,1,23.562,0a1.79,1.79,0,0,1,1.661,1.9c.019.453,0,.907,0,1.361,0,.426,0,.852,0,1.39H26.1q5.084,0,10.167,0c3.149,0,5.045,1.888,5.047,5.023q.005,7.806,0,15.611v.971h.866q7.84,0,15.68,0a4.787,4.787,0,0,1,5.178,5.176q0,7.985,0,15.97v.909c.428.019.8.023,1.172.054a1.718,1.718,0,0,1,1.756,1.788c.033,1.144.048,2.294-.022,3.435A4.629,4.629,0,0,1,61.492,57.9c-.191.008-.382.01-.573.011q-18.043,0-36.086,0c-2.576,0-4.562-1.429-4.922-3.777a23.486,23.486,0,0,1-.064-4.356A1.58,1.58,0,0,1,21.3,48.4c.444-.061.9-.064,1.409-.1m-.041-17.027c.036-.167.057-.236.066-.306q.564-4.717,5.28-4.716h9.732V25.5q0-7.877,0-15.754c0-1.223-.289-1.51-1.525-1.511q-5.119,0-10.239,0h-.693V18.685h1.866c0-2.123-.008-4.2,0-6.271a1.847,1.847,0,0,1,1.8-2.067c1.064,0,1.771.814,1.776,2.07.007,1.838,0,3.676,0,5.514,0,.25.023.5.039.826.508,0,.937-.031,1.36.006a1.714,1.714,0,0,1,1.607,1.907c-.073,1.037-.841,1.642-2.122,1.643q-10.954.005-21.909,0a3.834,3.834,0,0,1-.571-.033A1.778,1.778,0,0,1,7.57,20.45a1.753,1.753,0,0,1,1.7-1.7c.417-.028.837,0,1.319,0v-.905c0-1.79-.007-3.58,0-5.371.007-1.312.715-2.137,1.8-2.126s1.769.833,1.776,2.156c.009,1.576,0,3.151,0,4.726,0,.472,0,.944,0,1.448h1.935c0-1.439-.011-2.822,0-4.2a1.783,1.783,0,0,1,1.5-1.888,1.747,1.747,0,0,1,2.065,1.807c.021,1.423,0,2.846,0,4.285h1.9V8.23h-.767q-7.84,0-15.68,0c-1.279,0-1.559.278-1.559,1.555q0,9.99,0,19.979c0,1.245.269,1.512,1.514,1.513q8.448,0,16.9,0h.672M59.468,48.3V47.49q0-7.984,0-15.969c0-1.35-.34-1.686-1.7-1.686H27.984c-1.323,0-1.671.339-1.671,1.641q0,8.056,0,16.112V48.3Zm-36.03,3.665c-.221,1.835-.011,2.386,1.97,2.379,11.734-.038,23.469-.019,35.2-.02a6.994,6.994,0,0,0,.786-.017.994.994,0,0,0,.963-.9,12.13,12.13,0,0,0,.012-1.445ZM22.683,34.9H18.639v3.629h4.044Z" transform="translate(0 0.001)" fill="#cf8e56"/>
    <rect id="Rectangle_22936" data-name="Rectangle 22936" width="4.044" height="3.629" transform="translate(18.639 34.899)" fill="#fff"/>
    <path id="Path_8245" data-name="Path 8245" d="M181.372,176.354c-1.754,1.754-3.421,3.423-5.089,5.09-1.257,1.257-2.066,1.253-3.335-.016-1.194-1.195-2.386-2.392-3.63-3.639-1.12,1.123-2.194,2.2-3.269,3.279-.725.726-1.441,1.461-2.179,2.173a1.787,1.787,0,1,1-2.514-2.529q3.274-3.3,6.578-6.58a1.78,1.78,0,0,1,2.77-.013c1.31,1.285,2.592,2.6,3.865,3.879l4.167-4.175c-.172-.026-.337-.058-.5-.074a1.777,1.777,0,0,1-.014-3.545c.711-.058,1.43-.022,2.146-.024.883,0,1.765-.011,2.648,0a1.835,1.835,0,0,1,2,2.006q.021,2.219,0,4.438a1.8,1.8,0,0,1-1.766,2.007c-1.073.014-1.732-.695-1.813-1.949,0-.067-.025-.133-.064-.33" transform="translate(-129.982 -137.621)" fill="#383330"/>
  </g>
</svg>
