<svg xmlns="http://www.w3.org/2000/svg" width="79.819" height="79.83" viewBox="0 0 79.819 79.83">
  <g id="mining-hover" transform="translate(8.605 0.453)">
    <path id="Path_6984" data-name="Path 6984" d="M79.819,48.488a7.346,7.346,0,0,1-2.354,4.106c-.2.168-.221.611-.221.926Q77.227,66.11,77.235,78.7v1.065H69.517V78.9q0-12.706.009-25.413a1.464,1.464,0,0,0-.515-1.2,6.332,6.332,0,0,1,.043-9.408,1.539,1.539,0,0,0,.443-.972c.047-1.479.02-2.96.02-4.2a10.13,10.13,0,0,1-1.23-1.191q-3.114-4.383-6.171-8.807a.869.869,0,0,0-1.124-.447c-5.155,1.408-10.322,2.772-15.621,4.185L62.285,79.76c-.24.025-.405.058-.571.058-2.652,0-5.3-.008-7.956.013a.709.709,0,0,1-.829-.582c-.28-.944-.6-1.878-.971-2.792a.886.886,0,0,0-.62-.493q-11.388-.032-22.776-.008a1.12,1.12,0,0,0-.229.073v3.729H0V59.24H10.2V42.227c-.422.067-.821.149-1.225.19a3.322,3.322,0,0,1-3.812-3.046c-.11-3.97-.139-7.952.045-11.918.12-2.582,1.8-4.169,4.256-4.871q20.1-5.744,40.206-11.471c.246-.07.489-.149.782-.239a3.93,3.93,0,0,1,.877-4.206,5.1,5.1,0,0,1,1.376-.992q4.966-2.52,9.96-4.983C63.214.419,63.8.229,64.374,0H66.09a7.236,7.236,0,0,1,3.3,1.922c5.886,6.117,8.507,13.6,9,21.887.25,4.242.119,8.507.156,12.761,0,.226-.024.452-.039.7l-1.265.12c0,1.646,0,3.248.007,4.85a.587.587,0,0,0,.17.41,7.358,7.358,0,0,1,2.4,3.97ZM17.991,36.95a1.161,1.161,0,0,0,.3.012c3.251-.991,6.5-1.978,9.745-3a1.041,1.041,0,0,0,.515-.594c.422-1.115.828-2.239,1.18-3.377a2.538,2.538,0,0,0,.057-1.2,7.424,7.424,0,0,1,3.059-8.012,7.181,7.181,0,0,1,8.418-.327,7.485,7.485,0,0,1,3.731,7.287c-.019.353-.093.7-.16,1.185l15.229-4.059c-.178-.283-.291-.481-.421-.667-2.426-3.469-4.863-6.93-7.271-10.411a.911.911,0,0,0-1.2-.428q-12.492,3.594-25,7.131-8.048,2.291-16.092,4.594a2.861,2.861,0,0,0-2.355,2.825c-.051,3.636-.03,7.273-.028,10.909a.93.93,0,0,0,.987,1.055c.977.013,1.566-.423,1.567-1.121,0-2.182-.037-4.365.013-6.546a3.854,3.854,0,0,1,5.156-3.657,3.966,3.966,0,0,1,2.576,3.964c.018,1.474,0,2.949,0,4.433M75.94,34.76c0-1.261,0-2.425,0-3.589a65.617,65.617,0,0,0-.629-11.644A29.728,29.728,0,0,0,67.473,3.655a2.8,2.8,0,0,0-3.594-.688q-5.061,2.5-10.1,5.042a1.5,1.5,0,0,0-.618,2.446c.595.883,1.22,1.745,1.83,2.616q7.395,10.557,14.8,21.108c.172.245.482.549.735.556,1.763.048,3.527.026,5.413.026m-35.686-.475c.053.167.118.386.191.6q4.98,14.528,9.962,29.054c1.438,4.193,2.87,8.387,4.326,12.574.094.271.358.672.564.685,1.082.069,2.171.032,3.377.032l-15.694-44.8-2.727,1.856M20.51,68.254H2.572v2.494H25.656V68.24H23.2v-2.6h2.455V61.817c-.3-.013-.549-.035-.8-.035q-10.721,0-21.441,0a1.244,1.244,0,0,0-.463.015c-.157.069-.392.22-.4.341-.03,1.154-.018,2.309-.018,3.529H20.51Zm6.816-31.361c-2.989.92-5.784,1.8-8.595,2.628a.876.876,0,0,0-.754,1.019c.023,5.949.014,11.9.016,17.847,0,.271.031.543.046.8,1.445.1,1.444.1,1.884-1.157q2.689-7.672,5.378-15.344c.657-1.876,1.311-3.753,2.024-5.793M25.824,59.2l8.544-24.9-2.741-1.869L22.247,59.2Zm-.162,14.262H2.581v3.714H25.662Zm-10.3-14.282c.013-.23.029-.384.029-.539q0-13.05,0-26.1A2.8,2.8,0,0,0,15.366,32a1.255,1.255,0,0,0-1.237-1.092,1.236,1.236,0,0,0-1.258,1.137,6.7,6.7,0,0,0-.033.855q0,12.661,0,25.321v.961ZM42.032,47.589c-.076-.27-.126-.492-.2-.706-1.312-3.825-2.62-7.651-3.954-11.467-.089-.255-.383-.439-.581-.656-.2.222-.483.412-.573.671-1.334,3.817-2.643,7.642-3.955,11.467-.072.21-.116.43-.186.692Zm32.587,6.425H72.142V77.193h2.476ZM28.366,70.794v2.527H50.885c-.224-.675-.459-1.251-.6-1.848-.134-.571-.445-.692-.994-.69q-10.089.027-20.179.012Zm17.9-2.6.06-.132L37.3,62.051l-8.972,5.985.08.162Zm27.154-16.73a3.84,3.84,0,1,0-3.895-3.818,3.811,3.811,0,0,0,3.895,3.818M37.335,32.158a5.139,5.139,0,0,0-.024-10.277,5.139,5.139,0,1,0,.024,10.277m7.887,24.615L39.628,60.5l8.912,5.938-3.318-9.669m-14.378-4.04H43.831c-.239-.7-.483-1.324-.655-1.964-.124-.462-.367-.579-.825-.575-2.8.02-5.6,0-8.4.014-.769,0-1.762-.228-2.246.157-.531.423-.592,1.435-.856,2.19a.987.987,0,0,0,0,.178M28.309,64.949l6.67-4.447L29.5,56.85c-1.568,2.55-1.164,5.258-1.187,8.1m3.9-9.6-.072.163L37.3,58.959,42.481,55.5,42.4,55.35H32.21ZM74.626,37.33c-.745,0-1.465-.015-2.184.014-.122.005-.337.2-.339.307-.025,1.2-.016,2.41-.016,3.592h2.539Z" transform="translate(-8.605 -0.454)" fill="#f6c092"/>
    <rect id="Rectangle_9773" data-name="Rectangle 9773" width="2.331" height="2.367" transform="translate(56.295 11.299)" fill="#b38e69"/>
    <rect id="Rectangle_9774" data-name="Rectangle 9774" width="2.306" height="2.354" transform="translate(60.908 20.95)" fill="#b38e69"/>
    <rect id="Rectangle_9775" data-name="Rectangle 9775" width="2.327" height="2.369" transform="translate(63.463 46.198)" fill="#b38e69"/>
    <path id="Path_7003" data-name="Path 7003" d="M180.808,128.812a1.205,1.205,0,0,1-2.41.013,1.205,1.205,0,1,1,2.41-.013" transform="translate(-150.499 -102.544)" fill="#b38e69"/>
  </g>
</svg>
