<svg id="money-statistics-hover" xmlns="http://www.w3.org/2000/svg" xmlns:xlink="http://www.w3.org/1999/xlink" width="78.083" height="92.2" viewBox="0 0 78.083 92.2">
  <defs>
    <clipPath id="clip-path">
      <rect id="Rectangle_22616" data-name="Rectangle 22616" width="78.083" height="92.2" fill="none"/>
    </clipPath>
  </defs>
  <g id="Group_7900" data-name="Group 7900" clip-path="url(#clip-path)">
    <path id="Path_7867" data-name="Path 7867" d="M82.13,66.706l3.652-.336V64.92q0-14.64,0-29.279c0-1.458.129-1.591,1.6-1.593q5.331-.006,10.662,0c1.547,0,1.678.135,1.679,1.638q0,16.909-.007,33.818a1.762,1.762,0,0,0,.774,1.6,23.317,23.317,0,0,1,7.422,28.342c-3.533,7.9-9.771,12.677-18.419,13.819-13.2,1.743-24.7-7.243-26.508-20.5a3.383,3.383,0,0,1-.045-.75c.06-.681-.258-.836-.895-.831-3.339.023-6.678-.023-10.016.013-.991.011-1.417-.266-1.414-1.339q.04-15.293-.005-30.586c0-1.032.453-1.3,1.369-1.291,3.695.02,7.389,0,11.085.01,1.256,0,1.432.181,1.433,1.433q0,10.069,0,20.138v1.054c1.21-1.867,2.4-3.67,3.54-5.5a2.13,2.13,0,0,0,.12-1.045q.011-12.008.01-24.017c0-1.751.08-1.827,1.815-1.827,3.59,0,7.18.023,10.77-.014,1.035-.011,1.39.4,1.386,1.405-.024,5.31-.008,10.62-.005,15.93v1.167m26.112,23.449a21.869,21.869,0,1,0-21.708,21.686,21.806,21.806,0,0,0,21.708-21.686M87.525,35.779V66.442a23.656,23.656,0,0,1,10.466,2.977V35.779ZM52.332,89.467H62.718V59.722H52.332Zm28-22.306V49.986H69.956V73.038A24.58,24.58,0,0,1,80.331,67.16" transform="translate(-32.437 -21.82)" stroke="#707070" stroke-width="1"/>
    <path id="Path_7868" data-name="Path 7868" d="M82.13,66.706l3.652-.336V64.92q0-14.64,0-29.279c0-1.458.129-1.591,1.6-1.593q5.331-.006,10.662,0c1.547,0,1.678.135,1.679,1.638q0,16.909-.007,33.818a1.762,1.762,0,0,0,.774,1.6,23.317,23.317,0,0,1,7.422,28.342c-3.533,7.9-9.771,12.677-18.419,13.819-13.2,1.743-24.7-7.243-26.508-20.5a3.383,3.383,0,0,1-.045-.75c.06-.681-.258-.836-.895-.831-3.339.023-6.678-.023-10.016.013-.991.011-1.417-.266-1.414-1.339q.04-15.293-.005-30.586c0-1.032.453-1.3,1.369-1.291,3.695.02,7.389,0,11.085.01,1.256,0,1.432.181,1.433,1.433q0,10.069,0,20.138v1.054c1.21-1.867,2.4-3.67,3.54-5.5a2.13,2.13,0,0,0,.12-1.045q.011-12.008.01-24.017c0-1.751.08-1.827,1.815-1.827,3.59,0,7.18.023,10.77-.014,1.035-.011,1.39.4,1.386,1.405-.024,5.31-.008,10.62-.005,15.93Zm26.112,23.449a21.869,21.869,0,1,0-21.708,21.686A21.806,21.806,0,0,0,108.242,90.155ZM87.525,35.779V66.442a23.656,23.656,0,0,1,10.466,2.977V35.779ZM52.332,89.467H62.718V59.722H52.332Zm28-22.306V49.986H69.956V73.038A24.58,24.58,0,0,1,80.331,67.16Z" transform="translate(-32.437 -21.82)" fill="#cf8e56" stroke="#cf8e56" stroke-miterlimit="10" stroke-width="1"/>
    <path id="Path_7869" data-name="Path 7869" d="M58.27,4.694c-1.931,1.273-3.593,2.367-5.253,3.463Q37.667,18.3,22.318,28.44q-4.578,3.025-9.142,6.07a2.794,2.794,0,0,1-.911.553,4.4,4.4,0,0,1-1.231-.131c.107-.431.071-1.051.347-1.26,1.169-.887,2.433-1.649,3.659-2.46l39.4-26.05c.857-.567,1.72-1.127,2.756-1.806-2.351,0-4.475-.007-6.6,0-1.435.006-2.87.034-4.306.056-.581.009-1.138-.069-1.163-.8-.027-.787.544-.892,1.175-.9,4.484-.068,8.968-.151,13.452-.215,1.374-.02,1.657.425,1.079,1.731C59.041,7.291,57.222,11.34,55.426,15.4c-.265.6-.633,1.028-1.308.739-.735-.315-.512-.911-.266-1.461Q55.776,10.36,57.7,6.044c.153-.345.294-.694.571-1.35" transform="translate(-7.072 -0.962)" fill="#cf8e56" stroke="#cf8e56" stroke-width="1"/>
    <path id="Path_7870" data-name="Path 7870" d="M58.27,4.694c-1.931,1.273-3.593,2.367-5.253,3.463Q37.667,18.3,22.318,28.44q-4.578,3.025-9.142,6.07a2.794,2.794,0,0,1-.911.553,4.4,4.4,0,0,1-1.231-.131c.107-.431.071-1.051.347-1.26,1.169-.887,2.433-1.649,3.659-2.46l39.4-26.05c.857-.567,1.72-1.127,2.756-1.806-2.351,0-4.475-.007-6.6,0-1.435.006-2.87.034-4.306.056-.581.009-1.138-.069-1.163-.8-.027-.787.544-.892,1.175-.9,4.484-.068,8.968-.151,13.452-.215,1.374-.02,1.657.425,1.079,1.731C59.041,7.291,57.222,11.34,55.426,15.4c-.265.6-.633,1.028-1.308.739-.735-.315-.512-.911-.266-1.461Q55.776,10.36,57.7,6.044C57.852,5.7,57.993,5.35,58.27,4.694Z" transform="translate(-7.072 -0.962)" fill="none" stroke="#cf8e56" stroke-miterlimit="10" stroke-width="1"/>
    <path id="Path_7871" data-name="Path 7871" d="M1.516,133.827c0-3.841.024-7.682-.016-11.522-.011-1.026.337-1.409,1.331-1.4q5.414.053,10.829,0c1.011-.011,1.333.409,1.33,1.409-.02,7.61-.005,15.22-.01,22.829,0,1.634-.084,1.708-1.645,1.709q-5.206,0-10.412-.006c-1.292,0-1.408-.13-1.409-1.5q0-5.76,0-11.519M13.3,122.695H3.187v22.46H13.3Z" transform="translate(-1.5 -77.492)" fill="#cf8e56"/>
    <path id="Path_7872" data-name="Path 7872" d="M1.517,133.827c0-3.841.025-7.682-.016-11.522-.011-1.026.349-1.409,1.377-1.4q5.6.053,11.2,0c1.046-.011,1.378.409,1.376,1.409-.021,7.61-.005,15.22-.01,22.829,0,1.634-.087,1.708-1.7,1.709q-5.384,0-10.768-.006c-1.336,0-1.456-.13-1.457-1.5Q1.512,139.586,1.517,133.827ZM13.7,122.695H3.245v22.46H13.7Z" transform="translate(-1.5 -77.492)" fill="none" stroke="#cf8e56" stroke-miterlimit="10" stroke-width="1"/>
    <path id="Path_7873" data-name="Path 7873" d="M116.292,136.917c11.085.222,19.335,8.674,19.025,19.735a18.963,18.963,0,1,1-19.025-19.735m.125,1.742a17.25,17.25,0,1,0,17.24,17.251,17.246,17.246,0,0,0-17.24-17.251" transform="translate(-62.431 -87.755)" stroke="#707070" stroke-width="1"/>
    <path id="Path_7874" data-name="Path 7874" d="M116.292,136.917c11.085.222,19.335,8.674,19.025,19.735a18.963,18.963,0,1,1-19.025-19.735Zm.125,1.742a17.25,17.25,0,1,0,17.24,17.251A17.246,17.246,0,0,0,116.416,138.659Z" transform="translate(-62.431 -87.755)" fill="#cf8e56" stroke="#cf8e56" stroke-miterlimit="10" stroke-width="1"/>
    <path id="Path_7875" data-name="Path 7875" d="M60.391,118.852c0-.595-.028-1.183.006-1.768.059-1.007.644-1.642,1.483-1.592a1.472,1.472,0,0,1,1.446,1.531c.081.784-.093,1.856.346,2.273.483.458,1.558.242,2.337.457a3.131,3.131,0,0,1,1.562.855,1.437,1.437,0,0,1-.044,1.4,2.047,2.047,0,0,1-1.5.643c-1.621-.13-3.23-.423-4.841-.667a2.515,2.515,0,0,0-2.692.863,2.226,2.226,0,0,0,1.442,3.521c1.306.264,2.63.435,3.946.651a5.179,5.179,0,0,1-.052,10.313c-.107.015-.212.049-.5.117,0,.542.021,1.119,0,1.693-.048,1.082-.628,1.755-1.5,1.7-1-.065-1.383-.711-1.441-1.645-.142-2.283-.149-2.282-2.475-2.57-.221-.028-.442-.051-.66-.1a1.449,1.449,0,0,1-1.335-1.622,1.428,1.428,0,0,1,1.77-1.251c1.507.184,3.008.42,4.512.631a8.979,8.979,0,0,0,1.1.12,2.237,2.237,0,0,0,.465-4.443c-1.309-.25-2.631-.431-3.947-.648a5.151,5.151,0,0,1-4.667-5.3c.05-2.662,1.945-4.629,4.839-5.027a3.541,3.541,0,0,0,.4-.137" transform="translate(-8.264 -59.872)" fill="#f6c194"/>
  </g>
</svg>
