<svg id="monetary-and-economic-statistics-hover" xmlns="http://www.w3.org/2000/svg" xmlns:xlink="http://www.w3.org/1999/xlink" width="68.179" height="86.51" viewBox="0 0 68.179 86.51">
  <defs>
    <clipPath id="clip-path">
      <rect id="Rectangle_22884" data-name="Rectangle 22884" width="68.179" height="86.51"/>
    </clipPath>
  </defs>
  <g id="Group_7956" data-name="Group 7956" clip-path="url(#clip-path)">
    <path id="Path_8146" data-name="Path 8146" d="M39.755,376.188h8.083v-.7q0-10.288,0-20.576a2.243,2.243,0,0,1,2.49-2.494q5.866-.009,11.732,0c1.86,0,2.708.852,2.711,2.733q.007,4.482,0,8.964v.778h.712q4.663,0,9.325,0a2.2,2.2,0,0,1,2.437,2.412q.006,13.386,0,26.772a2.186,2.186,0,0,1-2.145,2.4,8.2,8.2,0,0,1-.9.039q-30.532,0-61.064-.01a4.256,4.256,0,0,1-1.628-.3,1.929,1.929,0,0,1-1.188-1.87q-.02-5.114,0-10.228a2.183,2.183,0,0,1,2.355-2.194q4.662-.008,9.325,0h.814v-.729q0-10.529,0-21.057a2.27,2.27,0,0,1,2.593-2.571q5.9,0,11.792,0a2.277,2.277,0,0,1,2.554,2.561q0,7.671,0,15.342v.73m12.522,15.841h8V356.873h-8Zm-17-29.993H27.313v30.011h7.959Zm37.5,7.337H64.828v22.669h7.941ZM47.81,380.7H39.79v11.339h8.02ZM14.775,392.033h8V386.35h-8Z" transform="translate(-9.07 -310.004)" fill="#f6c092"/>
    <path id="Path_8147" data-name="Path 8147" d="M18.585,101.983c-1.23,2.716-2.428,5.359-3.623,8Q9.654,121.729,4.348,133.472a2.177,2.177,0,0,1-3.567.958,2.019,2.019,0,0,1-.532-2.6q1.453-3.265,2.933-6.52Q9.319,111.735,15.459,98.16c.1-.219.2-.437.31-.651a2.168,2.168,0,0,1,3.468-.761c1.835,1.523,3.641,3.081,5.458,4.626l8.2,6.972c.09.076.187.142.327.248L51.5,88.9l-3.222-3.2c-.313-.311-.633-.615-.932-.939a2.169,2.169,0,0,1,1.021-3.7c2.4-.646,4.815-1.216,7.224-1.818,2.564-.641,5.127-1.29,7.694-1.919a2.187,2.187,0,0,1,2.812,2.721q-1.828,7.5-3.735,14.981a2.19,2.19,0,0,1-3.793.958c-1.223-1.187-2.414-2.406-3.62-3.611-.1-.1-.2-.191-.348-.326-1.054,1.135-2.1,2.258-3.142,3.383q-8.2,8.834-16.4,17.667a2.2,2.2,0,0,1-3.22.14q-6.368-5.411-12.733-10.826c-.152-.129-.307-.253-.521-.428M60.952,82.456l-7.525,1.868,5.648,5.657,1.877-7.526" transform="translate(0 -67.941)" fill="#cf8e56"/>
    <path id="Path_8148" data-name="Path 8148" d="M192.22,1.881a7.341,7.341,0,0,1,3.47,1.552,1.136,1.136,0,0,1,.416,1.387,1.08,1.08,0,0,1-1.468.618,3.521,3.521,0,0,1-.612-.375,4.7,4.7,0,0,0-4.34-.706,2.682,2.682,0,0,0-.816.452.986.986,0,0,0,.172,1.74,9.23,9.23,0,0,0,1.673.494c1,.244,2.037.385,3.014.707a3.331,3.331,0,0,1,.885,5.812,5.685,5.685,0,0,1-2.067,1.011c-.1.026-.2.05-.326.081,0,.34,0,.674,0,1.007a1.148,1.148,0,0,1-2.3.031c-.011-.322,0-.644,0-.97-.362-.087-.7-.155-1.028-.249a7.781,7.781,0,0,1-2.554-1.37,1.147,1.147,0,0,1,1.359-1.848,5.755,5.755,0,0,0,2.2,1.093,4.405,4.405,0,0,0,2.79-.276,1.459,1.459,0,0,0,.9-.9.98.98,0,0,0-.656-1.206,14.182,14.182,0,0,0-1.716-.467c-.982-.238-2-.383-2.947-.707a3.322,3.322,0,0,1-.921-5.706,5.4,5.4,0,0,1,2.287-1.113c.234-.051.308-.148.292-.376a3.279,3.279,0,0,1,.014-.657A1.083,1.083,0,0,1,191.178,0a1.069,1.069,0,0,1,1.04,1.049c.009.269,0,.54,0,.831" transform="translate(-157.752 9.008)" fill="#f6c092"/>
    <g id="Ellipse_6" data-name="Ellipse 6" transform="translate(21.073 5.6)" fill="none" stroke="#cf8e56" stroke-width="3">
      <circle cx="12" cy="12" r="12" stroke="none"/>
      <circle cx="12" cy="12" r="10.5" fill="none"/>
    </g>
  </g>
</svg>
