<svg id="national-accounts-hover" xmlns="http://www.w3.org/2000/svg" xmlns:xlink="http://www.w3.org/1999/xlink" width="92.9" height="91.547" viewBox="0 0 92.9 91.547">
  <defs>
    <clipPath id="clip-path">
      <rect x="15" y="13" width="92.9" height="91.547" fill="none"/>
    </clipPath>
    <clipPath id="clip-path-2">
      <rect id="Rectangle_9697" data-name="Rectangle 9697" width="106.9" height="114.547" fill="none"/>
    </clipPath>
  </defs>
  <g id="Scroll_Group_4" data-name="Scroll Group 4" transform="translate(-15 -13)" clip-path="url(#clip-path)" style="isolation: isolate">
    <g id="Group_3580" data-name="Group 3580" clip-path="url(#clip-path-2)">
      <path id="Path_6839" data-name="Path 6839" d="M91.587,118.326c-.082.3-.175.606-.243.914a11.81,11.81,0,0,1-16.85,8.042c-.16-.077-.323-.15-.581-.27l-8.572,14.552a11.74,11.74,0,0,1,1.4,16.375,11.939,11.939,0,0,1-14.8,2.8,11.771,11.771,0,0,1-4.848-15.6l-8.659-7.356A12.127,12.127,0,0,1,31.8,141.5a11.883,11.883,0,0,1-7.505-1.039l-5.605,7.777a11.72,11.72,0,0,1,4.969,9.5,11.212,11.212,0,0,1-2.75,7.574,11.842,11.842,0,0,1-14.963,2.6,11.627,11.627,0,0,1-5.012-14.5,11.952,11.952,0,0,1,15.144-6.588l5.7-7.9c-.793-.991-1.505-1.93-2.283-2.812a1.289,1.289,0,0,0-.867-.233q-8.758-.019-17.516-.01h-1V132.99H2.939V111.023H.116v-8.751H14.757V111H11.915v21.9h5.991c0-1.516-.095-2.983.022-4.433a10.75,10.75,0,0,1,2.36-5.643,1.889,1.889,0,0,0,.436-1.008c.031-3.423.019-6.847.015-10.27a4.109,4.109,0,0,0-.071-.5h-2.83v-8.76H32.494V111H29.643v7.3a12.3,12.3,0,0,1,8.764,3.946V111.028H35.524v-8.735H50.2v8.723H47.334v21.857h8.8V111.055H53.253v-8.78H67.9v8.715H65.06v21.83c1.592.385,1.841.287,2.6-1.006,1.155-1.961,2.293-3.931,3.478-5.874a.887.887,0,0,0-.106-1.284,11.492,11.492,0,0,1-1.614-13.4A11.838,11.838,0,0,1,81.6,105.318a11.691,11.691,0,0,1,9.828,9.775,2.036,2.036,0,0,0,.156.4v2.834M57.539,159.252a8.768,8.768,0,1,0-8.744-8.809,8.891,8.891,0,0,0,8.744,8.809m31.078-42.385a8.852,8.852,0,1,0-8.807,8.745,8.9,8.9,0,0,0,8.807-8.745M20.751,130a8.852,8.852,0,1,0,8.817-8.744A8.872,8.872,0,0,0,20.751,130m-8.978,36.568a8.768,8.768,0,1,0-8.741-8.81,8.9,8.9,0,0,0,8.741,8.81m53.464-30.635H40.784l7.99,6.791c4.086-4.043,8.788-4.924,14.094-2.761l2.368-4.03M6.031,132.9H8.872V111.065H6.031Zm53.131-.015h2.852V111.065H59.162ZM44.29,111.075H41.431v21.819H44.29ZM23.7,119.82c.8-.318,1.493-.648,2.222-.868a.853.853,0,0,0,.739-.986c-.046-1.205-.014-2.414-.014-3.621v-3.252H23.7Zm41.248-14.576h-8.72v2.779h8.72Zm-17.7-.008H38.512V108h8.734Zm-17.706,0H20.794V108H29.54Zm-17.71.021H3.095V108h8.736Z" transform="translate(15.313 -65.191)" fill="#cf8e56"/>
      <path id="Path_6840" data-name="Path 6840" d="M38.975,0a8.7,8.7,0,0,0,.789.523Q53.425,7.652,67.1,14.758a1.26,1.26,0,0,1,.845,1.343c-.068,1.412-.02,2.829-.02,4.316H.007c0-1.631-.028-3.245.03-4.857.009-.243.378-.552.652-.7q8.082-4.246,16.183-8.456Q22.559,3.443,28.246.481A7.671,7.671,0,0,0,28.965,0ZM31.993,3.046a5.173,5.173,0,0,0-3.176.414c-4.365,2.35-8.782,4.606-13.179,6.9q-6,3.129-12,6.272a3.635,3.635,0,0,0-.723.689l.174.174H27.306a8.622,8.622,0,0,1-1.717-8.526,9.056,9.056,0,0,1,6.4-5.921M64.838,17.5l.179-.21c-.192-.2-.349-.47-.583-.593-8.656-4.523-17.31-9.05-26-13.509A7.448,7.448,0,0,0,35.98,2.88l-.052.266A8.8,8.8,0,0,1,40.613,17.5Zm-30.879.031a5.909,5.909,0,0,0,5.9-5.859,5.9,5.9,0,0,0-11.791,0,5.888,5.888,0,0,0,5.891,5.857" transform="translate(15.369 13.643)" fill="#cf8e56"/>
      <path id="Path_6841" data-name="Path 6841" d="M219.467,291.921a8.768,8.768,0,1,1,.191-17.535,8.769,8.769,0,1,1-.191,17.535m-1.393-7.216H215.14a3.876,3.876,0,0,0,2.928,4.284c.029.528.053.986.078,1.439h2.838c.027-.518.051-.984.075-1.448l.361-.146a3.651,3.651,0,0,0-1.128-7.134,9.27,9.27,0,0,1-1.51-.066,1,1,0,0,1-.621-.676c-.029-.2.293-.588.537-.672a1.644,1.644,0,0,1,2.438,1.338h2.787a3.6,3.6,0,0,0-2.265-4.024c-.517-.2-.7-.449-.643-.959a4.712,4.712,0,0,0-.038-.733h-2.928c.325,1.087-.185,1.536-1.083,1.962a3.222,3.222,0,0,0-1.817,3.13,3.53,3.53,0,0,0,2.011,3.218c.3.16.594.341.89.513Z" transform="translate(-146.615 -197.86)" fill="#fff"/>
      <path id="Path_6842" data-name="Path 6842" d="M324.058,136.386a8.852,8.852,0,0,1-17.7-.024,8.852,8.852,0,0,1,17.7.024m-7.317-7.262h-3.029c.327,1.093-.207,1.533-1.093,1.96a3.231,3.231,0,0,0-1.817,3.126,3.5,3.5,0,0,0,1.933,3.17c.222.122.451.232.676.347l-.018.152h-2.6c-.092,1.634.331,2.988,1.724,3.73.888.474,1.53.9,1.212,2.021H316.7v-1.445c.168-.062.28-.1.39-.143a3.643,3.643,0,0,0-1.064-7.112,13.436,13.436,0,0,1-1.6-.078.906.906,0,0,1-.605-.6.916.916,0,0,1,.457-.725,1.681,1.681,0,0,1,2.509,1.308h2.782a3.435,3.435,0,0,0-1.789-3.772c-.9-.406-1.326-.864-1.043-1.941" transform="translate(-220.128 -84.71)" fill="#fff"/>
      <path id="Path_6843" data-name="Path 6843" d="M89.475,193.836a8.852,8.852,0,0,1,17.7.05,8.852,8.852,0,0,1-17.7-.05m10.538-1.482h2.636a3.54,3.54,0,0,0-2.182-4.023c-.526-.213-.779-.452-.7-1.018a3.493,3.493,0,0,0-.049-.7h-2.9c.327,1.144-.34,1.549-1.215,2.027a3.274,3.274,0,0,0-1.663,3.451,4.22,4.22,0,0,0,2.47,3.253h-2.5a3.639,3.639,0,0,0,1.582,3.682c.826.516,1.779.825,1.347,2.078h3.015c-.4-1.1.2-1.511,1.061-1.943a3.268,3.268,0,0,0,1.814-3.128,3.559,3.559,0,0,0-1.924-3.178c-.267-.154-.516-.338-.774-.507Z" transform="translate(-53.411 -129.03)" fill="#fff"/>
      <path id="Path_6844" data-name="Path 6844" d="M21.606,323.823a8.768,8.768,0,1,1,.2-17.535,8.768,8.768,0,1,1-.2,17.535m-1.424-16.005c.286,1.066-.147,1.528-1.042,1.936a3.4,3.4,0,0,0-1.789,3.724,4.324,4.324,0,0,0,2.479,3.079H17.317a3.674,3.674,0,0,0,2.384,4.109.721.721,0,0,1,.546.846,6.816,6.816,0,0,0,.033.778h2.836c.092-1.263.092-1.263,1.163-1.875a3.619,3.619,0,0,0,.1-6.244c-.238-.147-.489-.276-.733-.413l.028-.163h2.41a3.672,3.672,0,0,0-2.362-4.125.724.724,0,0,1-.561-.84,6.877,6.877,0,0,0-.041-.813Z" transform="translate(5.48 -222.45)" fill="#fff"/>
      <rect id="Rectangle_9690" data-name="Rectangle 9690" width="2.841" height="21.832" transform="translate(21.344 45.874)" fill="#fff"/>
      <rect id="Rectangle_9691" data-name="Rectangle 9691" width="2.852" height="21.816" transform="translate(74.475 45.874)" fill="#fff"/>
      <rect id="Rectangle_9692" data-name="Rectangle 9692" width="2.859" height="21.819" transform="translate(56.744 45.884)" fill="#fff"/>
      <path id="Path_6846" data-name="Path 6846" d="M102.239,149.489v-8.727h2.947v3.252c0,1.207-.032,2.416.014,3.621a.853.853,0,0,1-.739.986c-.728.22-1.423.55-2.222.868" transform="translate(-63.223 -94.86)" fill="#fff"/>
      <rect id="Rectangle_9693" data-name="Rectangle 9693" width="8.72" height="2.779" transform="translate(71.543 40.053)" fill="#fff"/>
      <rect id="Rectangle_9694" data-name="Rectangle 9694" width="8.734" height="2.764" transform="translate(53.825 40.045)" fill="#fff"/>
      <rect id="Rectangle_9695" data-name="Rectangle 9695" width="8.746" height="2.772" transform="translate(36.107 40.041)" fill="#fff"/>
      <rect id="Rectangle_9696" data-name="Rectangle 9696" width="8.736" height="2.745" transform="translate(18.408 40.062)" fill="#fff"/>
      <path id="Path_6847" data-name="Path 6847" d="M41.685,13.064a9.056,9.056,0,0,0-6.4,5.921A8.622,8.622,0,0,0,37,27.512H12.782l-.174-.175a3.648,3.648,0,0,1,.723-.689q5.99-3.155,12-6.272c4.4-2.292,8.814-4.548,13.179-6.9a5.172,5.172,0,0,1,3.176-.414" transform="translate(5.677 3.625)" fill="#fff"/>
      <path id="Path_6848" data-name="Path 6848" d="M184.244,27.19H160.019a8.8,8.8,0,0,0-4.685-14.358c.018-.089.035-.177.052-.266a7.451,7.451,0,0,1,2.455.311c8.689,4.459,17.343,8.986,26,13.509.235.122.391.392.583.593l-.179.21" transform="translate(-104.038 3.957)" fill="#fff"/>
      <path id="Path_6849" data-name="Path 6849" d="M127.244,37.224a5.841,5.841,0,1,1,5.9-5.859,5.888,5.888,0,0,1-5.9,5.859" transform="translate(-77.916 -6.046)" fill="#fff"/>
      <path id="Path_6850" data-name="Path 6850" d="M232.7,289.851c-.3-.171-.588-.352-.891-.513a3.53,3.53,0,0,1-2.011-3.218,3.222,3.222,0,0,1,1.817-3.13c.9-.426,1.409-.875,1.083-1.962h2.928a4.729,4.729,0,0,1,.037.734c-.053.509.127.757.643.959a3.6,3.6,0,0,1,2.265,4.024h-2.787a1.644,1.644,0,0,0-2.438-1.337c-.244.085-.567.47-.537.672a1,1,0,0,0,.621.676,9.276,9.276,0,0,0,1.51.066,3.651,3.651,0,0,1,1.128,7.134l-.361.146c-.024.464-.048.93-.075,1.448H232.8c-.024-.454-.049-.911-.078-1.44a3.876,3.876,0,0,1-2.928-4.284c1,0,1.968,0,2.936,0,.075.516-.147,1.214.646,1.337a5.259,5.259,0,0,0,1.671-.012c.231-.04.58-.424.561-.623-.025-.266-.339-.7-.558-.717a20.329,20.329,0,0,0-2.347.042" transform="translate(-161.267 -202.98)" fill="#f6c092"/>
      <path id="Path_6851" data-name="Path 6851" d="M331.474,134.27c-.283,1.077.146,1.536,1.044,1.941a3.436,3.436,0,0,1,1.788,3.772h-2.782a1.681,1.681,0,0,0-2.509-1.308.916.916,0,0,0-.457.726.906.906,0,0,0,.605.6,13.475,13.475,0,0,0,1.6.079,3.643,3.643,0,0,1,1.064,7.112c-.11.043-.222.082-.39.143v1.446h-2.968c.318-1.122-.324-1.548-1.212-2.021-1.393-.743-1.816-2.1-1.723-3.73h2.6c.006-.05.012-.1.018-.152-.226-.115-.454-.225-.676-.347a3.5,3.5,0,0,1-1.933-3.169,3.232,3.232,0,0,1,1.817-3.126c.886-.427,1.42-.866,1.093-1.959ZM328.584,143c-.169,1.232-.011,1.425,1.135,1.434a2.7,2.7,0,0,0,.97-.035c.278-.112.693-.462.659-.633a1.067,1.067,0,0,0-.66-.732,14.318,14.318,0,0,0-2.1-.035" transform="translate(-234.861 -89.856)" fill="#f6c092"/>
      <path id="Path_6852" data-name="Path 6852" d="M114.69,197.447c.257.17.507.353.774.507a3.559,3.559,0,0,1,1.924,3.178,3.268,3.268,0,0,1-1.814,3.128c-.856.431-1.465.838-1.061,1.942H111.5c.432-1.253-.521-1.562-1.347-2.077a3.639,3.639,0,0,1-1.582-3.682h2.5a4.219,4.219,0,0,1-2.47-3.253,3.273,3.273,0,0,1,1.662-3.451c.875-.479,1.542-.883,1.215-2.027h2.9a3.493,3.493,0,0,1,.049.7c-.075.566.178.806.7,1.018a3.54,3.54,0,0,1,2.182,4.023q-1.312,0-2.641,0c-.081-.1-.228-.217-.222-.32.065-.962-.508-1.147-1.3-1.1-.267.017-.582-.079-.792.032a4.658,4.658,0,0,0-.835.716c.257.238.5.655.773.681a19.972,19.972,0,0,0,2.4-.026m-3.155,2.964c-.055,1.331.091,1.484,1.366,1.49.178,0,.356.005.534,0,.509-.024,1.06-.143.931-.758a1.289,1.289,0,0,0-.9-.7,10.719,10.719,0,0,0-1.929-.032" transform="translate(-68.075 -134.133)" fill="#f6c092"/>
      <path id="Path_6853" data-name="Path 6853" d="M34.913,312.969h2.933a6.832,6.832,0,0,1,.041.814.724.724,0,0,0,.562.839,3.672,3.672,0,0,1,2.362,4.125H38.4l-.028.163c.245.137.495.266.733.413a3.619,3.619,0,0,1-.1,6.244c-1.071.612-1.071.612-1.163,1.874H35.01a6.871,6.871,0,0,1-.033-.778.721.721,0,0,0-.546-.846,3.674,3.674,0,0,1-2.385-4.108H34.56a4.324,4.324,0,0,1-2.479-3.079,3.4,3.4,0,0,1,1.789-3.724c.9-.409,1.329-.871,1.042-1.937m2.953,5.8c.046-1.345-.079-1.481-1.349-1.486-.238,0-.526-.077-.7.028a5.447,5.447,0,0,0-.829.734c.283.242.54.637.856.692a12.264,12.264,0,0,0,2.023.033M35,321.673c-.044,1.338.066,1.452,1.323,1.458.236,0,.515.075.7-.023a5.549,5.549,0,0,0,.85-.68c-.267-.251-.506-.669-.807-.72A12.718,12.718,0,0,0,35,321.673" transform="translate(-9.25 -227.601)" fill="#f6c092"/>
      <path id="Path_6854" data-name="Path 6854" d="M242.4,319.3a20.416,20.416,0,0,1,2.347-.042c.219.018.533.451.558.717.019.2-.33.583-.561.623a5.264,5.264,0,0,1-1.671.012c-.794-.124-.572-.822-.647-1.337l-.027.027" transform="translate(-170.966 -232.432)" fill="#fff"/>
      <path id="Path_6855" data-name="Path 6855" d="M338.576,172.279a14.325,14.325,0,0,1,2.1.035,1.067,1.067,0,0,1,.66.732c.033.171-.381.521-.659.633a2.7,2.7,0,0,1-.97.035c-1.146-.009-1.3-.2-1.135-1.434" transform="translate(-244.854 -119.137)" fill="#fff"/>
      <path id="Path_6856" data-name="Path 6856" d="M121.421,229.57a10.734,10.734,0,0,1,1.929.032,1.289,1.289,0,0,1,.9.7c.13.616-.422.734-.931.758-.178.008-.356,0-.534,0-1.275-.006-1.42-.159-1.366-1.49" transform="translate(-77.961 -163.293)" fill="#fff"/>
      <path id="Path_6857" data-name="Path 6857" d="M124.558,211.941a19.855,19.855,0,0,1-2.4.026c-.278-.027-.517-.443-.773-.681a4.645,4.645,0,0,1,.835-.716c.21-.111.525-.014.792-.031.795-.051,1.368.134,1.3,1.1-.007.1.14.215.221.32l.018-.013" transform="translate(-77.944 -148.628)" fill="#fff"/>
      <path id="Path_6858" data-name="Path 6858" d="M47.7,333.173a12.278,12.278,0,0,1-2.023-.032c-.316-.055-.572-.45-.856-.692a5.472,5.472,0,0,1,.829-.734c.176-.1.464-.029.7-.028,1.27.006,1.4.141,1.349,1.486" transform="translate(-19.086 -242.008)" fill="#fff"/>
      <path id="Path_6859" data-name="Path 6859" d="M44.859,350.862a12.717,12.717,0,0,1,2.064.034c.3.051.54.469.807.721a5.557,5.557,0,0,1-.85.68c-.183.1-.462.024-.7.023-1.257-.006-1.367-.12-1.323-1.458" transform="translate(-19.108 -256.79)" fill="#fff"/>
    </g>
  </g>
</svg>
