<svg id="Non-Food-Prices-hover" xmlns="http://www.w3.org/2000/svg" xmlns:xlink="http://www.w3.org/1999/xlink" width="76.324" height="76.296" viewBox="0 0 76.324 76.296">
  <defs>
    <clipPath id="clip-path">
      <rect id="Rectangle_22876" data-name="Rectangle 22876" width="76.324" height="76.296" fill="none"/>
    </clipPath>
  </defs>
  <g id="Group_7956" data-name="Group 7956">
    <g id="Path_8132" data-name="Path 8132" transform="translate(30.701 18.9)" fill="#ffdfc3">
      <path d="M 12.82495021820068 20.5 L 0.5 20.5 L 0.5 3 C 0.5 1.621500015258789 1.621500015258789 0.5 3 0.5 L 15 0.5 C 16.37849998474121 0.5 17.5 1.621500015258789 17.5 3 L 17.5 7.277047634124756 L 12.99079990386963 11.32806015014648 L 12.82495021820068 11.47706031799316 L 12.82495021820068 11.70001029968262 L 12.82495021820068 20.5 Z" stroke="none"/>
      <path d="M 3 1 C 1.897199630737305 1 1 1.897199630737305 1 3 L 1 20 L 12.32495021820068 20 L 12.32495021820068 11.25411033630371 L 17 7.054105758666992 L 17 3 C 17 1.897199630737305 16.1028003692627 1 15 1 L 3 1 M 3 0 L 15 0 C 16.65685081481934 0 18 1.343149185180664 18 3 L 18 7.5 L 13.32495021820068 11.70001029968262 L 13.32495021820068 21 L 0 21 L 0 3 C 0 1.343149185180664 1.343149185180664 0 3 0 Z" stroke="none" fill="#443f3d"/>
    </g>
    <g id="Rectangle_22874" data-name="Rectangle 22874" transform="translate(47.701 33.9)" fill="#ffdfc3" stroke="#443f3d" stroke-width="1">
      <rect width="18" height="21" rx="1" stroke="none"/>
      <rect x="0.5" y="0.5" width="17" height="20" rx="0.5" fill="none"/>
    </g>
    <g id="Rectangle_22875" data-name="Rectangle 22875" transform="translate(9.701 33.9)" fill="#ffdfc3" stroke="#443f3d" stroke-width="1">
      <rect width="14" height="18" rx="2" stroke="none"/>
      <rect x="0.5" y="0.5" width="13" height="17" rx="1.5" fill="none"/>
    </g>
  </g>
  <g id="Group_7957" data-name="Group 7957" clip-path="url(#clip-path)">
    <path id="Path_8114" data-name="Path 8114" d="M66.331,76.3H9.987a4.1,4.1,0,0,1-3.112-4.037c-2.742.64-4.6.133-5.885-1.665A13.066,13.066,0,0,1,0,68.545V66.906a6.1,6.1,0,0,1,3.113-3.97,11.321,11.321,0,0,0,1.462-1.022.842.842,0,0,0,.268-.66Q3.8,55.4,2.708,49.552a.849.849,0,0,0-.335-.575A4.143,4.143,0,0,1,0,46.191V42.316a4.086,4.086,0,0,1,4.642-2.958c.483.035.971.005,1.5.005,0-2.074-.018-4.034,0-5.992a3.719,3.719,0,0,1,3.86-3.851c.337,0,.674,0,1.058,0V28.6c0-1.689-.017-3.378.005-5.066a3.708,3.708,0,0,1,3.853-3.854c1.589-.014,3.18-.026,4.769,0a3.684,3.684,0,0,1,3.693,3.7c.027,1.763.007,3.526.007,5.29v.79l2.448.166c0-.319,0-.611,0-.9.017-2.806-.067-5.617.081-8.415A5.9,5.9,0,0,1,31,14.869c.722-.117,1.464-.117,2.277-.177V9.8h2.36V4.9a11.182,11.182,0,0,1-6.721-2.628A1.206,1.206,0,0,1,28.548.519a1.2,1.2,0,0,1,1.713-.29,11.564,11.564,0,0,1,.992.659,8.136,8.136,0,0,0,5.166,1.58c2.26-.039,4.52-.006,6.781-.01a9.478,9.478,0,0,1,6.42,2.365c.918.795,1.087,1.531.515,2.15-.542.588-1.215.493-2.133-.293a7.06,7.06,0,0,0-4.878-1.755v4.9h2.421v4.93h.82a6.172,6.172,0,0,1,6.56,6.583c0,1.061,0,2.122,0,3.26H53.8q6.11,0,12.221,0a3.773,3.773,0,0,1,4.154,4.155q.006,4.88,0,9.76v.848c.868,0,1.634-.017,2.4,0a3.708,3.708,0,0,1,3.741,3.811c.009.77.014,1.54,0,2.31a3.584,3.584,0,0,1-2.1,3.337.977.977,0,0,0-.639.787c-.688,3.883-1.413,7.759-2.1,11.643a.9.9,0,0,0,.327.7c.851.643,1.766,1.2,2.611,1.852a4.93,4.93,0,0,1-4.89,8.446,2.361,2.361,0,0,0-.136.43A4,4,0,0,1,66.331,76.3M50.477,24.554c0-1.123.007-2.21,0-3.3a3.709,3.709,0,0,0-4.044-4.025q-7.042-.016-14.085,0a3.682,3.682,0,0,0-4.029,4.026q0,8.643,0,17.287v.768c1.131,0,2.15.037,3.163-.019A2.083,2.083,0,0,0,32.6,38.88a8.436,8.436,0,0,1,7.328-1.8,24.913,24.913,0,0,1,3.118,1.1c0-3.143,0-6.322,0-9.5,0-2.642,1.507-4.131,4.171-4.13h3.262m-20.9,23.085c-.087.057-.274.176-.457.3L9.111,61.788c-1.856,1.284-3.72,2.559-5.564,3.859a2.444,2.444,0,0,0-.956,2.825,2.3,2.3,0,0,0,2.343,1.605A3.8,3.8,0,0,0,6.7,69.424Q19.173,60.839,31.612,52.2c.194-.134.376-.284.414-.312l-2.449-4.25M44.284,51.9c.035.026.173.131.316.229L64.607,65.977c1.774,1.229,3.542,2.466,5.326,3.681a2.53,2.53,0,0,0,2.932-.026,2.2,2.2,0,0,0,.866-2.564,3.861,3.861,0,0,0-1.294-1.634Q60.967,57.425,49.445,49.491c-.948-.656-1.9-1.308-2.7-1.858L44.284,51.9M67.662,32.069H45.612V39.3h22.05Zm-37.4,9.78h-19.9c-2.161,0-4.322-.006-6.483,0a1.218,1.218,0,0,0-1.4,1.35c-.022.57-.007,1.142-.006,1.713,0,1.514.336,1.852,1.827,1.852,6.384,0,12.77-.089,19.151.049a7.63,7.63,0,0,0,5.7-1.883c.072-.066.179-.1.237-.178a1.322,1.322,0,0,0,.258-.428c.211-.785.4-1.576.625-2.479m15.767,0a9.312,9.312,0,0,0,.852,2.775,8.861,8.861,0,0,0,2.26,1.664.5.5,0,0,0,.125.079,4.792,4.792,0,0,0,1.3.383c6.061.025,12.121.017,18.182.017,1.242,0,2.484.014,3.726-.006a1.234,1.234,0,0,0,1.37-1.327c.027-.62.011-1.241.009-1.862-.006-1.376-.349-1.723-1.711-1.723H46.028ZM25.5,66.411H50.819l.89-4.827H24.6l.9,4.827m.331-27.086c0-2.1.02-4.105-.01-6.114a1.144,1.144,0,0,0-1.31-1.2Q17.255,32,10,32.01c-.929,0-1.358.442-1.364,1.379-.012,1.836,0,3.673,0,5.509a3.082,3.082,0,0,0,.061.428Zm6.188,6.2a6.138,6.138,0,1,0,6.155-6.162,6.163,6.163,0,0,0-6.155,6.162M26.865,73.779H49.452l.888-4.806H25.977l.887,4.806M7.156,60.15,22.869,49.271H5.178L7.156,60.15M71.143,49.264h-17.7L69.161,60.142l1.981-10.878M49.974,59.021l.055-.145c-2.6-1.8-5.2-3.611-7.825-5.387a1.038,1.038,0,0,0-.807.019,8.443,8.443,0,0,1-6.451-.018.989.989,0,0,0-1.079.135c-2.353,1.653-4.725,3.281-7.088,4.92-.168.117-.319.258-.587.475ZM51.96,73.827h3.49q4.918,0,9.836,0c.7,0,1.274-.133,1.533-.891.609-1.784.521-2.08-1-3.133-.327-.226-.641-.473-.985-.669a1.479,1.479,0,0,0-.686-.219q-5.4-.02-10.8.006c-.184,0-.5.193-.531.342-.3,1.475-.56,2.961-.85,4.561m-27.592,0c-.278-1.485-.57-2.84-.77-4.208-.084-.573-.294-.727-.851-.723-3.08.025-6.161.062-9.239-.013a5.216,5.216,0,0,0-3.158.975A1.883,1.883,0,0,0,9.34,72.3c.374,1.261.53,1.524,1.851,1.524q6.147,0,12.295,0h.883M20.9,29.482c0-2.1.017-4.132-.01-6.161a1.07,1.07,0,0,0-1.125-1.142c-1.685-.031-3.371-.026-5.056,0a1.05,1.05,0,0,0-1.136,1.051c-.043,2.073-.016,4.147-.016,6.256Zm24.647-.012H67.628c.236-1.829-.073-2.43-2.049-2.412-6.006.054-12.013.019-18.02.02-.223,0-.447-.006-.67,0a1.223,1.223,0,0,0-1.335,1.347c-.014.321,0,.642,0,1.043M60.675,66.424l.068-.13-6.557-4.536-.858,4.665Zm-45.269-.009h7.586l-.862-4.652-6.724,4.652M35.74,14.706h7.3V12.347h-7.3Zm4.822-9.754H38.2V9.8h2.363Z" transform="translate(0 0)" fill="#cf8e56"/>
    <path id="Path_8115" data-name="Path 8115" d="M0,232.025a4.143,4.143,0,0,0,2.373,2.787.849.849,0,0,1,.335.575q1.09,5.847,2.135,11.7a.842.842,0,0,1-.268.66,11.319,11.319,0,0,1-1.462,1.022A6.1,6.1,0,0,0,0,252.74Z" transform="translate(0 -185.834)" fill="#fff"/>
    <path id="Path_8116" data-name="Path 8116" d="M0,344.317a13.065,13.065,0,0,0,.99,2.048c1.28,1.8,3.143,2.305,5.885,1.665a4.1,4.1,0,0,0,3.112,4.036H0v-7.75" transform="translate(0 -275.771)" fill="#fff"/>
    <path id="Path_8117" data-name="Path 8117" d="M39.465,239.3l2.449,4.25c-.038.029-.221.179-.414.313q-12.451,8.62-24.915,17.222a3.8,3.8,0,0,1-1.764.654,2.3,2.3,0,0,1-2.343-1.605,2.444,2.444,0,0,1,.956-2.825c1.845-1.3,3.708-2.575,5.564-3.859L39.009,239.6c.182-.126.37-.245.456-.3" transform="translate(-9.888 -191.659)" fill="#fff"/>
    <path id="Path_8118" data-name="Path 8118" d="M222.448,243.531l2.462-4.262c.8.55,1.75,1.2,2.7,1.858q11.5,7.96,22.993,15.942A3.862,3.862,0,0,1,251.9,258.7a2.2,2.2,0,0,1-.866,2.564,2.53,2.53,0,0,1-2.932.027c-1.784-1.215-3.552-2.452-5.326-3.681l-20.007-13.853c-.142-.1-.28-.2-.316-.229" transform="translate(-178.164 -191.636)" fill="#fff"/>
    <path id="Path_8119" data-name="Path 8119" d="M40.153,210.213c-.225.9-.414,1.693-.625,2.479a1.323,1.323,0,0,1-.258.428c-.058.075-.164.111-.237.178a7.629,7.629,0,0,1-5.7,1.883c-6.381-.138-12.767-.048-19.151-.049-1.491,0-1.824-.338-1.827-1.852,0-.571-.016-1.143.006-1.713a1.219,1.219,0,0,1,1.4-1.35c2.161-.009,4.322,0,6.483,0h19.9Z" transform="translate(-9.892 -168.363)" fill="#fff"/>
    <path id="Path_8120" data-name="Path 8120" d="M231.206,210.22h26.115c1.362,0,1.705.347,1.711,1.723,0,.621.019,1.243-.009,1.862a1.233,1.233,0,0,1-1.37,1.327c-1.242.021-2.484.006-3.726.006-6.061,0-12.121.008-18.182-.017a4.8,4.8,0,0,1-1.3-.383.5.5,0,0,1-.126-.079,8.864,8.864,0,0,1-2.26-1.664,9.317,9.317,0,0,1-.852-2.775" transform="translate(-185.178 -168.369)" fill="#fff"/>
    <path id="Path_8121" data-name="Path 8121" d="M124.486,314.178l-.9-4.827h27.106l-.891,4.827Z" transform="translate(-98.984 -247.766)" fill="#fff"/>
    <path id="Path_8122" data-name="Path 8122" d="M160.848,203.905A6.137,6.137,0,1,1,167,210.064a6.164,6.164,0,0,1-6.157-6.159" transform="translate(-128.827 -158.377)" fill="#fff"/>
    <path id="Path_8123" data-name="Path 8123" d="M131.375,351.273l-.888-4.806H154.85l-.888,4.806Z" transform="translate(-104.51 -277.493)" fill="#fff"/>
    <path id="Path_8124" data-name="Path 8124" d="M27.989,258.38,26.011,247.5H43.7L27.989,258.38" transform="translate(-20.833 -198.229)" fill="#fff"/>
    <path id="Path_8125" data-name="Path 8125" d="M286.155,247.462l-1.981,10.878-15.718-10.878Z" transform="translate(-215.012 -198.198)" fill="#fff"/>
    <path id="Path_8126" data-name="Path 8126" d="M155.35,273.816H131.568c.267-.218.418-.359.587-.475,2.363-1.639,4.735-3.267,7.088-4.92a.989.989,0,0,1,1.079-.135,8.444,8.444,0,0,0,6.451.018,1.038,1.038,0,0,1,.807-.019c2.622,1.776,5.221,3.585,7.825,5.387l-.055.145" transform="translate(-105.376 -214.795)" fill="#fff"/>
    <path id="Path_8127" data-name="Path 8127" d="M261.006,351.059c.291-1.6.547-3.086.85-4.561.031-.149.346-.341.531-.342q5.4-.03,10.8-.006a1.481,1.481,0,0,1,.686.219c.344.2.658.443.985.669,1.523,1.052,1.611,1.349,1,3.133-.259.758-.837.893-1.533.891q-4.918-.011-9.836,0h-3.49" transform="translate(-209.046 -277.232)" fill="#fff"/>
    <path id="Path_8128" data-name="Path 8128" d="M61.422,350.949h-.883q-6.147,0-12.295,0c-1.32,0-1.476-.263-1.85-1.524a1.883,1.883,0,0,1,1.01-2.444,5.217,5.217,0,0,1,3.158-.975c3.078.075,6.159.038,9.239.013.557,0,.768.15.851.723.2,1.368.492,2.723.77,4.208" transform="translate(-37.054 -277.122)" fill="#fff"/>
    <path id="Path_8129" data-name="Path 8129" d="M228.8,138.327c0-.4-.012-.722,0-1.043a1.224,1.224,0,0,1,1.335-1.347c.223-.01.447,0,.67,0,6.007,0,12.014.034,18.02-.02,1.976-.018,2.285.583,2.049,2.412Z" transform="translate(-183.244 -108.857)" fill="#fff"/>
    <path id="Path_8130" data-name="Path 8130" d="M275.225,314.892h-7.347l.858-4.665,6.557,4.536-.068.129" transform="translate(-214.549 -248.468)" fill="#fff"/>
    <path id="Path_8131" data-name="Path 8131" d="M77.39,314.9l6.724-4.652.863,4.652Z" transform="translate(-61.983 -248.484)" fill="#fff"/>
  </g>
  <g id="Path_8133" data-name="Path 8133" transform="translate(33.701 40.9)" fill="#cf8e56">
    <path d="M 4.5 8.5 C 2.294389963150024 8.5 0.5 6.705609798431396 0.5 4.5 C 0.5 2.294389963150024 2.294389963150024 0.5 4.5 0.5 C 6.705609798431396 0.5 8.5 2.294389963150024 8.5 4.5 C 8.5 6.705609798431396 6.705609798431396 8.5 4.5 8.5 Z" stroke="none"/>
    <path d="M 4.5 1 C 2.570089817047119 1 1 2.570089817047119 1 4.5 C 1 6.429909706115723 2.570089817047119 8 4.5 8 C 6.429909706115723 8 8 6.429909706115723 8 4.5 C 8 2.570089817047119 6.429909706115723 1 4.5 1 M 4.5 0 C 6.98528003692627 0 9 2.01471996307373 9 4.5 C 9 6.98528003692627 6.98528003692627 9 4.5 9 C 2.01471996307373 9 0 6.98528003692627 0 4.5 C 0 2.01471996307373 2.01471996307373 0 4.5 0 Z" stroke="none" fill="#443f3d"/>
  </g>
</svg>
