<svg id="population-hover" xmlns="http://www.w3.org/2000/svg" width="82.753" height="78.98" viewBox="0 0 82.753 78.98">
  <path id="Path_5073" data-name="Path 5073" d="M122.549,137.57c-1.773-.881-2.166-1.648-1.864-3.638.867-5.721,4.84-9.5,10.89-10.346.131-.019.263-.033.505-.062-4.466-.6-6.831-4.065-6.577-7.362a7.269,7.269,0,0,1,14.485.129c.232,3.526-2.577,6.649-6.672,7.232a13.293,13.293,0,0,1,6.721,2.356,11.466,11.466,0,0,1,4.83,7.619,1.475,1.475,0,0,0,.149.341V135.7a3.078,3.078,0,0,1-1.94,1.866Z" transform="translate(-62.262 -58.589)" fill="#f6c092"/>
  <path id="Path_5074" data-name="Path 5074" d="M0,134.62a27.987,27.987,0,0,1,1.393-4.266,12.048,12.048,0,0,1,10.047-6.809,15.119,15.119,0,0,1-2.158-.665,8.057,8.057,0,0,1-1.989-1.3,6.759,6.759,0,0,1-1.386-1.79,7.139,7.139,0,0,1-.745-2.188,7.855,7.855,0,0,1,.007-2.311c.46-3.276,3.81-5.847,7.371-5.709a7.064,7.064,0,0,1,6.98,6.66c.2,3.295-2.157,6.68-6.652,7.293a12.633,12.633,0,0,1,7.348,2.88A11.347,11.347,0,0,1,24.4,135.1a2.57,2.57,0,0,1-1.933,2.476H1.454L0,136.33v-1.71" transform="translate(0 -58.594)" fill="#f6c092"/>
  <path id="Path_5075" data-name="Path 5075" d="M62.4,137.574c-1.773-.881-2.166-1.647-1.866-3.635.865-5.715,4.838-9.5,10.877-10.348.132-.019.264-.032.6-.071a7.461,7.461,0,0,1-5-2.525,6.391,6.391,0,0,1-1.645-4.964,7.27,7.27,0,0,1,14.48.385,7.033,7.033,0,0,1-6.132,7.026,30.094,30.094,0,0,1,4.326,1.412,11.41,11.41,0,0,1,6.64,9.47,2.754,2.754,0,0,1-1.915,3.251Z" transform="translate(-31.208 -58.594)" fill="#f6c092"/>
  <path id="Path_5076" data-name="Path 5076" d="M28.288,0c1.076.918,2.17,1.817,3.222,2.76.846.758,1.647,1.564,2.458,2.358,1.165,1.14,1.255,2.52.238,3.509s-2.421.915-3.648-.191c-.115-.1-.234-.2-.437-.378-.023.3-.054.517-.054.732,0,2.408,0,4.815,0,7.223a2.431,2.431,0,1,1-4.845,0c-.011-2.588-.012-5.177-.019-7.766,0-.021-.021-.041-.072-.138-.261.218-.5.434-.759.634a2.459,2.459,0,0,1-3.291-.119A2.172,2.172,0,0,1,21,5.469C22.625,3.818,24.32,2.226,26.008.629A6.053,6.053,0,0,1,26.995,0Z" transform="translate(-10.509)" fill="#383330"/>
  <path id="Path_5077" data-name="Path 5077" d="M78.41,0c.677.533,1.392,1.029,2.022,1.608,1.245,1.145,2.449,2.331,3.659,3.51,1.167,1.137,1.254,2.52.238,3.508s-2.421.914-3.649-.192c-.115-.1-.234-.2-.436-.377-.023.3-.054.517-.054.733,0,2.407,0,4.815,0,7.223a2.431,2.431,0,1,1-4.845,0c-.011-2.588-.013-5.177-.019-7.766,0-.021-.021-.041-.073-.137-.26.218-.5.434-.759.634A2.458,2.458,0,0,1,71.2,8.626a2.172,2.172,0,0,1-.081-3.157c1.629-1.652,3.324-3.244,5.013-4.841A6.026,6.026,0,0,1,77.117,0Z" transform="translate(-36.387)" fill="#383330"/>
  <path id="Path_5078" data-name="Path 5078" d="M128.533,0c.677.533,1.392,1.029,2.022,1.608C131.8,2.753,133,3.94,134.214,5.118c1.167,1.137,1.254,2.52.237,3.508s-2.421.914-3.649-.192c-.115-.1-.234-.2-.436-.377-.023.3-.054.517-.054.733,0,2.407,0,4.815,0,7.223a2.431,2.431,0,1,1-4.844,0c-.007-2.609,0-5.219,0-7.979-.351.294-.594.51-.85.71a2.458,2.458,0,0,1-3.291-.119,2.172,2.172,0,0,1-.081-3.157c1.629-1.652,3.324-3.244,5.013-4.841A6.03,6.03,0,0,1,127.24,0Z" transform="translate(-62.266)" fill="#383330"/>
  <path id="Path_5080" data-name="Path 5080" d="M48.532,63.357C54.753,64.49,58.921,68,59.569,72.714c-4.479.314-8.026,2.206-10.246,6.018A10.85,10.85,0,0,0,49.37,90.1L45.3,94.529a20.438,20.438,0,0,0-2.516-2.84c-1.25-1-1.373-1.783-.745-3.3,2.276-5.487-.15-11.432-5.564-14.229a.886.886,0,0,1-.593-1.13A11.964,11.964,0,0,1,46.39,63.468c.2-.025.4-.059.712-.1-4.019-.576-6.823-3.691-6.594-7.217A7.269,7.269,0,0,1,54.992,56a7.036,7.036,0,0,1-6.46,7.353" transform="translate(-18.509 -26.428)" fill="#cf8e56"/>
  <path id="Path_5081" data-name="Path 5081" d="M98.529,63.383a12.622,12.622,0,0,1,7.1,2.7,11.674,11.674,0,0,1,4.193,6.9.914.914,0,0,1-.593,1.2,11.243,11.243,0,0,0-6.254,11.787,25.511,25.511,0,0,0,1.236,3.745.949.949,0,0,1-.035.784c-.648.69-1.407,1.284-2.047,1.979-.621.673-1.145,1.429-1.678,2.105L96.354,90.1a10.847,10.847,0,0,0,.027-11.381c-2.22-3.793-5.742-5.682-10.284-6a11.416,11.416,0,0,1,3.933-6.463,12.8,12.8,0,0,1,7.35-2.876c-4.111-.585-6.921-3.714-6.685-7.237a7.269,7.269,0,0,1,14.485-.128c.255,3.327-2.148,6.775-6.651,7.371" transform="translate(-44.452 -26.428)" fill="#cf8e56"/>
</svg>
