<svg xmlns="http://www.w3.org/2000/svg" xmlns:xlink="http://www.w3.org/1999/xlink" width="78.283" height="61.673" viewBox="0 0 78.283 61.673">
  <defs>
    <clipPath id="clip-path">
      <rect id="Rectangle_22629" data-name="Rectangle 22629" width="78.283" height="61.673" fill="none"/>
    </clipPath>
  </defs>
  <g id="iron-prices-hover" transform="translate(-1.3)">
    <g id="Group_7934" data-name="Group 7934" transform="translate(1.3)" clip-path="url(#clip-path)">
      <path id="Path_8059" data-name="Path 8059" d="M76.487,61.023c-.193-.255-.393-.505-.579-.765q-8.761-12.234-17.52-24.47c-.659-.92-1.172-.912-1.762.034-.824,1.323-1.637,2.654-2.545,4.127-.78-1.269-1.49-2.418-2.194-3.571-1.573-2.575-3.161-5.141-4.7-7.735a1.44,1.44,0,0,0-1.415-.791c-5.4.019-10.795,0-16.192.023a1.928,1.928,0,0,1-1.472-.6c-3.164-3.04-6.355-6.052-9.536-9.073a1.569,1.569,0,0,1-.467-.681c.832.219,1.664.432,2.494.658q.97.264,1.932.554a.776.776,0,0,0,1.088-.478c.191-.569-.136-.9-.665-1.051-2.446-.682-4.892-1.368-7.344-2.029-.909-.245-1.378.228-1.147,1.126q.887,3.447,1.8,6.887c.14.531.415.974,1.058.787s.629-.683.482-1.226a25.7,25.7,0,0,1-.81-3.857q2.089,1.978,4.177,3.956c2.067,1.964,4.139,3.922,6.19,5.9A2.164,2.164,0,0,0,29,29.4c5.313-.023,10.627,0,15.94-.026a1.265,1.265,0,0,1,1.262.7c2.276,3.782,4.592,7.54,6.891,11.309.749,1.228,1.242,1.221,2-.032.781-1.285,1.571-2.566,2.456-4.009L75.9,62.965c-.438.022-.7.048-.972.048q-36.495,0-72.989,0a3.029,3.029,0,0,0-1.08.032,3.517,3.517,0,0,0-.86.742,7.429,7.429,0,0,0,.825.783c.13.093.381.02.576.02H76.824c1.3,0,1.449-.152,1.449-1.44q0-28.856,0-57.712c0-.168.021-.337,0-.5-.05-.5-.3-.947-.821-.831-.306.067-.551.5-.773.806-.08.11-.013.326-.013.494q0,27.3,0,54.608v.958l-.185.054" transform="translate(0 -2.942)" fill="#f6c092" stroke="#f6c092" stroke-width="1.5"/>
      <path id="Path_8060" data-name="Path 8060" d="M111.94,122.66c-.4-.906-.661-1.636-1.023-2.314-1.315-2.464-2.664-4.91-4-7.363a2.7,2.7,0,0,0-2.5-1.538c-3.635,0-7.271-.014-10.906,0a2.541,2.541,0,0,0-2.325,1.4q-2.277,4.151-4.514,8.323a10.21,10.21,0,0,0-.513,1.492c-1.885,0-3.839.059-5.788-.018a3.318,3.318,0,0,0-3.431,1.988c-1.322,2.586-2.765,5.109-4.146,7.664-.9,1.669-.032,3.127,1.873,3.129q10.4.01,20.805,0c2.015,0,2.855-1.437,1.893-3.211q-1.938-3.572-3.88-7.142c-.127-.234-.231-.481-.39-.816h9.86c-.185.368-.333.68-.5.983-1.28,2.356-2.569,4.708-3.845,7.067-.9,1.67-.039,3.114,1.878,3.116q10.445.012,20.889,0c1.9,0,2.746-1.456,1.837-3.14-1.407-2.606-2.844-5.2-4.225-7.815a3.077,3.077,0,0,0-3.109-1.819c-1.361.057-2.727.012-3.941.012m-26.825,11.2v-.033c-3.411,0-6.822.006-10.232,0-.956,0-1.019-.12-.577-.94,1.417-2.631,2.845-5.256,4.255-7.89a1.452,1.452,0,0,1,1.437-.8c3.383.013,6.766.019,10.149,0a1.612,1.612,0,0,1,1.593.968c1.362,2.564,2.767,5.106,4.153,7.658.494.909.416,1.041-.63,1.043q-5.074.006-10.148,0m13.879-11.2v-.022q-5.033,0-10.065,0c-1.1,0-1.177-.133-.667-1.074,1.383-2.554,2.777-5.1,4.138-7.669a1.583,1.583,0,0,1,1.543-.927q5.074.01,10.149,0a1.586,1.586,0,0,1,1.538.937c1.365,2.563,2.761,5.11,4.144,7.663.514.949.436,1.092-.632,1.093q-5.074.007-10.148,0m.855,11.053a3.465,3.465,0,0,1,.156-.547q2.187-4.1,4.383-8.19a1.4,1.4,0,0,1,1.363-.782q5.113.021,10.226,0a1.567,1.567,0,0,1,1.542.914c1.4,2.607,2.827,5.2,4.24,7.795.406.747.3.953-.545.952-1.452,0-2.9-.052-4.356-.054q-7.879-.011-15.758-.007c-.38,0-.76-.046-1.252-.078" transform="translate(-65.551 -80.28)" fill="#cf8e56"/>
      <path id="Path_8061" data-name="Path 8061" d="M187.859,180.423c-1.115,0-2.231,0-3.346,0-.559,0-1.047.139-1.069.782-.024.712.5.844,1.088.843l6.775-.012c.566,0,1.123-.074,1.112-.809s-.562-.789-1.132-.786c-1.143.006-2.286,0-3.429,0v-.018" transform="translate(-165.427 -129.976)" fill="#443f3d"/>
      <path id="Path_8062" data-name="Path 8062" d="M224.288,181.977a5.386,5.386,0,0,0,1.411-.032c.3-.083.729-.5.7-.711-.04-.309-.419-.788-.693-.816a14.77,14.77,0,0,0-2.916,0,1.029,1.029,0,0,0-.663.766,1.068,1.068,0,0,0,.666.763,5.662,5.662,0,0,0,1.493.032" transform="translate(-210.224 -129.921)" fill="#443f3d"/>
      <path id="Path_8063" data-name="Path 8063" d="M140.506,142.563q1.673,0,3.346,0c.6,0,1.188-.08,1.2-.833.008-.731-.572-.781-1.135-.782-2.231,0-4.461-.008-6.692-.021-.577,0-1.141.082-1.151.78-.01.728.551.869,1.172.862,1.087-.011,2.175,0,3.262,0Z" transform="translate(-104.81 -101.525)" fill="#443f3d"/>
      <path id="Path_8064" data-name="Path 8064" d="M176.762,140.932c-.447,0-.893-.01-1.339,0-.521.014-.936.279-.822.806a1.175,1.175,0,0,0,.762.776,12.647,12.647,0,0,0,2.754,0,1.185,1.185,0,0,0,.8-.754c.11-.5-.3-.8-.818-.827-.445-.021-.892,0-1.339,0" transform="translate(-149.465 -101.524)" fill="#443f3d"/>
      <path id="Path_8065" data-name="Path 8065" d="M95.525,181.967q1.8,0,3.6,0c.54,0,.961-.192.952-.8s-.422-.783-.967-.785q-3.474-.014-6.948-.042c-.6,0-1.117.184-1.1.852.013.649.5.849,1.12.837,1.116-.021,2.233-.006,3.349-.006v-.053" transform="translate(-47.25 -129.915)" fill="#443f3d"/>
      <path id="Path_8066" data-name="Path 8066" d="M131.52,180.332c-.444,0-.891-.032-1.331.008-.513.048-.891.373-.742.882a1.2,1.2,0,0,0,.783.742,21.135,21.135,0,0,0,2.745.026c.5-.013.87-.242.871-.8,0-.587-.365-.841-.909-.862-.471-.018-.944,0-1.416,0Z" transform="translate(-91.745 -129.902)" fill="#443f3d"/>
      <path id="Path_8067" data-name="Path 8067" d="M240.31,12.04c-.107,1.54-.313,1.939-1,1.968s-.894-.334-1.1-1.97a3.032,3.032,0,0,1-2.892-2.491,1.41,1.41,0,0,1,.1-1.013,1.221,1.221,0,0,1,.959-.484,1.319,1.319,0,0,1,.835.772c.334,1.051.421,1.176,1.5,1.177.5,0,1,.013,1.5,0a1,1,0,1,0-.008-2c-.606-.017-1.212,0-1.818-.006a3.014,3.014,0,0,1-.486-6c.1-.017.2-.025.33-.041.119-.787-.25-1.964,1.057-1.946,1.246.017.922,1.143,1,1.909,1.8.362,2.748,1.212,2.967,2.637a1.108,1.108,0,0,1-.558,1.331.989.989,0,0,1-1.41-.778c-.186-.927-.412-1.119-1.332-1.123-.544,0-1.087-.013-1.63,0a1,1,0,1,0,.006,2c.585.018,1.17,0,1.755.006A3.016,3.016,0,0,1,240.517,12c-.06.009-.12.023-.207.04" transform="translate(-230.782 0)" fill="#cf8e56"/>
    </g>
  </g>
</svg>
