<svg id="stock-market-hover" xmlns="http://www.w3.org/2000/svg" xmlns:xlink="http://www.w3.org/1999/xlink" width="69.398" height="91.267" viewBox="0 0 69.398 91.267">
  <defs>
    <clipPath id="clip-path">
      <rect id="Rectangle_22630" data-name="Rectangle 22630" width="69.398" height="91.267" fill="none"/>
    </clipPath>
  </defs>
  <g id="Group_7937" data-name="Group 7937" clip-path="url(#clip-path)">
    <path id="Path_8069" data-name="Path 8069" d="M40.884,57.363a12.632,12.632,0,0,0-17.842,0A12.524,12.524,0,0,0,31.963,78.75a12.944,12.944,0,0,0,8.921-3.66,12.494,12.494,0,0,0,0-17.727M34.708,71.545a7,7,0,0,1-1.372.572V72.8a1.391,1.391,0,0,1-1.372,1.372A1.476,1.476,0,0,1,30.591,72.8V72a5.022,5.022,0,0,1-2.859-2.859,1.412,1.412,0,1,1,2.63-1.029,2.322,2.322,0,0,0,1.372,1.372,1.632,1.632,0,0,0,1.487-.229.629.629,0,0,0,.343-.572.457.457,0,0,0-.229-.457,4.952,4.952,0,0,0-1.258-.457,6.313,6.313,0,0,1-3.2-1.487,3.747,3.747,0,0,1-.915-3.317,3.188,3.188,0,0,1,2.4-2.516h.114v-.8a1.391,1.391,0,0,1,1.372-1.372,1.476,1.476,0,0,1,1.372,1.372v.8a7.88,7.88,0,0,1,.915.343,3.846,3.846,0,0,1,1.83,2.4,1.415,1.415,0,0,1-2.745.686c0-.114-.114-.343-.457-.572a2.877,2.877,0,0,0-1.716-.114c-.229.114-.457.229-.457.572a.857.857,0,0,0,.114.572,3.384,3.384,0,0,0,1.716.686,5.981,5.981,0,0,1,2.63,1.144,3.231,3.231,0,0,1,1.029,2.745,2.622,2.622,0,0,1-1.372,2.63" transform="translate(2.781 7.713)" fill="#f6c092"/>
    <path id="Path_8070" data-name="Path 8070" d="M68.026,6.519h-6.29a1.372,1.372,0,1,0,0,2.745h3.2L51.328,26.076,35.888,7.091,30.4.343,30.284.229C30.169.114,30.055,0,29.941,0H28.683c-.114.114-.343.229-.457.343l-.114.114-5.49,6.633-.114.114L10.155,22.188.319,34.2a1.469,1.469,0,0,0,.229,2.059,1.3,1.3,0,0,0,.915.343,1.588,1.588,0,0,0,1.144-.572L13.243,22.988,29.14,3.545,45.952,24.018l4.232,5.147.114.114h1.372l.114-.114,14.067-17.27v2.287a1.372,1.372,0,1,0,2.745,0V7.891c.8-.686.229-1.372-.572-1.372" fill="#443f3d"/>
    <path id="Path_8071" data-name="Path 8071" d="M66.513,39.832h-8.12a2.831,2.831,0,0,0-2.859,2.859v.114H47.3V31.826a2.831,2.831,0,0,0-2.859-2.859H36.205V18.559A2.831,2.831,0,0,0,33.346,15.7h-8.12a2.831,2.831,0,0,0-2.859,2.859V28.967H14.132a2.831,2.831,0,0,0-2.859,2.859V42.805H3.038A2.831,2.831,0,0,0,.179,45.665V68.653a1.391,1.391,0,0,0,1.372,1.372H17.563c0,.457-.114.915-.114,1.487A17.206,17.206,0,0,0,22.481,83.75a16.518,16.518,0,0,0,12.237,5.261,17.206,17.206,0,0,0,12.238-5.032,17.516,17.516,0,0,0,5.032-13.724H68a1.391,1.391,0,0,0,1.372-1.372V42.805a2.93,2.93,0,0,0-2.859-2.974M36.091,31.94h8.235V57.216a16.976,16.976,0,0,0-8.235-2.859ZM14.018,67.395V32.055h8.12V59.732a16.947,16.947,0,0,0-4.232,7.663ZM45.012,81.92A14.525,14.525,0,0,1,20.194,71.627a17.131,17.131,0,0,1,.229-2.516V69a13.932,13.932,0,0,1,4-7.548A14.311,14.311,0,0,1,34.49,57.216h.457a14.311,14.311,0,0,1,10.064,4.232,14.844,14.844,0,0,1,4,7.434v.343a14.734,14.734,0,0,1-4,12.695m21.5-14.525H58.279V42.805H66.4V67.395Z" transform="translate(0.026 2.256)" fill="#cf8e56"/>
  </g>
</svg>
