<svg xmlns="http://www.w3.org/2000/svg" width="103" height="103" viewBox="0 0 103 103">
  <g id="Group_47764" data-name="Group 47764" transform="translate(-10688 -20083)">
    <rect id="Rectangle_27553" data-name="Rectangle 27553" width="103" height="103" rx="27" transform="translate(10688 20083)" fill="#02af2e"/>
    <circle id="Ellipse_2095" data-name="Ellipse 2095" cx="32.5" cy="32.5" r="32.5" transform="translate(10707 20102)" fill="#fff"/>
    <g id="svgexport-10_5_" data-name="svgexport-10 (5)" transform="translate(10722.001 20116.717)">
      <path id="Path_65042" data-name="Path 65042" d="M35.531,9.689l-20.6,20.593a1.414,1.414,0,0,1-2,0L.412,17.676a1.416,1.416,0,0,1,0-2L3.4,12.687a1.411,1.411,0,0,1,2,0l8.546,8.6L30.539,4.7a1.416,1.416,0,0,1,2,0l2.993,3a1.407,1.407,0,0,1,0,2Z" transform="translate(0)" fill="#02af2e"/>
    </g>
  </g>
</svg>
