<svg id="svgexport-10_6_" data-name="svgexport-10 (6)" xmlns="http://www.w3.org/2000/svg" width="15.06" height="20.654" viewBox="0 0 15.06 20.654">
  <path id="Path_95225" data-name="Path 95225" d="M5.291,6.74V4.733a2.582,2.582,0,1,1,5.164,0V6.454c.09,0,.174.021.262.029a3.873,3.873,0,1,0-5.425.256Z" transform="translate(-3.139)" fill="#f5f6f9"/>
  <path id="Path_95226" data-name="Path 95226" d="M16.769,10.024a1.291,1.291,0,0,0-1.291,1.291v.215a.215.215,0,1,1-.43,0V10.454a1.291,1.291,0,1,0-2.582,0V11.53a.215.215,0,1,1-.43,0V9.594a1.291,1.291,0,1,0-2.582,0V11.53a.215.215,0,1,1-.43,0V5.291a1.291,1.291,0,0,0-2.582,0v7.745a.43.43,0,0,1-.43-.43V10.885H5.587A2.579,2.579,0,0,0,3,13.443c0,4.545,3.312,7.769,5.347,7.769h5.411a4.3,4.3,0,0,0,4.3-4.3V11.315a1.291,1.291,0,0,0-1.291-1.291Z" transform="translate(-3 -0.558)" fill="#f5f6f9"/>
</svg>
