<svg id="non-food-prices-hover" xmlns="http://www.w3.org/2000/svg" xmlns:xlink="http://www.w3.org/1999/xlink" width="90.619" height="111.708" viewBox="0 0 90.619 111.708">
  <defs>
    <clipPath id="clip-path">
      <rect id="Rectangle_36" data-name="Rectangle 36" width="90.619" height="111.708" fill="#b38e69"/>
    </clipPath>
    <clipPath id="clip-path-2">
      <path id="Path_46" data-name="Path 46" d="M82.1,80.222H98.159s-2.262-40.547-8.032-57.7c-5.77,17.155-8.032,57.7-8.032,57.7" transform="translate(-82.095 -22.519)" fill="none"/>
    </clipPath>
    <clipPath id="clip-path-3">
      <rect id="Rectangle_64" data-name="Rectangle 64" width="90.619" height="111.708" fill="none"/>
    </clipPath>
  </defs>
  <path id="Path_1" data-name="Path 1" d="M0,124.729H0Z" transform="translate(0 -53.2)" fill="#348411"/>
  <g id="Group_2" data-name="Group 2">
    <g id="Group_1" data-name="Group 1" clip-path="url(#clip-path)">
      <line id="Line_1" data-name="Line 1" x1="88.347" transform="translate(0 71.529)" fill="none" stroke="#191a1b" stroke-linejoin="round" stroke-width="1.6"/>
      <path id="Path_2" data-name="Path 2" d="M94.2,133.615c-.174,1.248-.315,2.5-.526,3.743a34.735,34.735,0,0,1-50.522,24.589c-.769-.4-1.081-.912-.976-1.535a1.38,1.38,0,0,1,2.089-.943,51.278,51.278,0,0,0,4.967,2.129,31.6,31.6,0,0,0,27.251-3.188c.188-.113.359-.25.571-.4a5.021,5.021,0,0,0-3.294-1.48c-1.122-.123-2.25-.212-3.361-.4a6.384,6.384,0,0,1-5.445-7.327,7.821,7.821,0,0,1,2.516-5.1c.564-.52,1.1-1.067,1.637-1.62a1.161,1.161,0,0,0,.253-1.43c-1.837-3.524-.628-6.505,1.671-9.27a16.561,16.561,0,0,1,4.655-3.785,1.362,1.362,0,1,1,1.35,2.343A14.55,14.55,0,0,0,72.28,134.2a4.781,4.781,0,0,0-.5,5.277,3.668,3.668,0,0,1-.648,4.393c-.631.706-1.349,1.333-2.011,2.012a4.956,4.956,0,0,0-1.243,5.126,3.108,3.108,0,0,0,2.52,2.367,13.941,13.941,0,0,0,1.94.293c2.629.149,5.133.592,6.978,2.748a31.923,31.923,0,0,0,9.851-13.127,31.06,31.06,0,0,0,2.22-14.19c-.08-1.044.387-1.7,1.235-1.763a1.332,1.332,0,0,1,1.439,1.146c.042.264.09.528.135.791Z" transform="translate(-17.979 -54.311)" fill="#cf8e56"/>
      <path id="Path_3" data-name="Path 3" d="M15.777,139.943a32.007,32.007,0,0,0,6.18,11.8c.791.955.858,1.733.186,2.307-.689.59-1.474.39-2.282-.6a33.97,33.97,0,0,1-7.846-19.591c-.116-1.683-.038-3.382,0-5.074a1.327,1.327,0,0,1,1.416-1.455,1.37,1.37,0,0,1,1.271,1.663,31.079,31.079,0,0,0,.312,7.426c.034.22.084.439.131.686a15.7,15.7,0,0,1,5.993,2.038,10.988,10.988,0,0,1,4.521,4.723,4.441,4.441,0,0,0,.85,1.209,1.928,1.928,0,0,0,3.393-.841c.161-.492.26-1.005.428-1.494.785-2.288,2.33-3.166,4.68-2.64.636.142,1.251.376,1.876.567a1.824,1.824,0,0,0,2.226-.663,6.365,6.365,0,0,0,1.383-3.882,13.525,13.525,0,0,0-1.373-6.489,2.4,2.4,0,0,1-.31-1.081,1.2,1.2,0,0,1,1.024-1.185,1.306,1.306,0,0,1,1.524.728,14.623,14.623,0,0,1,1.658,4.981c.375,2.686.339,5.317-1.162,7.73A4.744,4.744,0,0,1,38.41,143.4a10.2,10.2,0,0,1-2.653-.263c-.574-.092-1.126-.317-1.7-.444a.814.814,0,0,0-1.046.61c-.143.451-.279.9-.411,1.357a4.759,4.759,0,0,1-3.953,3.79,4.516,4.516,0,0,1-4-1.387,5.665,5.665,0,0,1-1.216-1.61c-1.3-2.846-3.687-4.283-6.505-5.2-.336-.11-.684-.184-1.149-.307" transform="translate(-5.098 -54.31)" fill="#cf8e56"/>
      <path id="Path_4" data-name="Path 4" d="M56.549,161.33a7.776,7.776,0,0,1,7.306,4.737,5.915,5.915,0,0,1,.193,3.592c-.622,2.48-2.744,3.66-5.422,2.923A11.6,11.6,0,0,1,56,171.372a3.861,3.861,0,0,0-2.639-.537,3.669,3.669,0,0,1-4.126-4.788,5.916,5.916,0,0,1,4.395-4.186,25.574,25.574,0,0,1,2.918-.531m-.01,2.8a6.6,6.6,0,0,0-3.353.857,2.683,2.683,0,0,0-1.361,1.924c-.116.892.315,1.333,1.207,1.247.291-.028.58-.086.872-.11a6.824,6.824,0,0,1,3.873,1.209,8.855,8.855,0,0,0,2.261.8,1.088,1.088,0,0,0,1.321-.885,3.3,3.3,0,0,0-.578-3.13,5.178,5.178,0,0,0-4.242-1.911" transform="translate(-20.933 -68.811)" fill="#cf8e56"/>
      <path id="Path_5" data-name="Path 5" d="M33.512,178.569a1.342,1.342,0,1,1,2.683.023,1.341,1.341,0,0,1-2.683-.023" transform="translate(-14.294 -75.591)"/>
      <path id="Path_6" data-name="Path 6" d="M58.568,166.215a5.178,5.178,0,0,1,4.242,1.911,3.3,3.3,0,0,1,.578,3.13,1.088,1.088,0,0,1-1.321.885,8.852,8.852,0,0,1-2.261-.8,6.824,6.824,0,0,0-3.873-1.209c-.292.024-.581.081-.872.11-.891.086-1.322-.355-1.207-1.247a2.683,2.683,0,0,1,1.361-1.924,6.6,6.6,0,0,1,3.353-.857" transform="translate(-22.962 -70.895)" fill="#fff"/>
      <path id="Path_7" data-name="Path 7" d="M153.9,94.4c.518.525,1,1,1.467,1.492a.546.546,0,0,1,.164.325c.01,1.465.007,2.93.007,4.425h-3.306c0-1.142.056-2.271-.018-3.392a2.136,2.136,0,0,1,.85-2.046,8.957,8.957,0,0,0,.836-.8" transform="translate(-64.919 -40.264)" fill="#fff"/>
      <path id="Path_8" data-name="Path 8" d="M121.186,39.265c.927.617,1.822,1.219,2.728,1.8a.4.4,0,0,0,.337-.041c.42-.262.825-.548,1.24-.818a.638.638,0,0,1,.943.088q.563.545,1.107,1.107a.633.633,0,0,1,.015,1.023c-.787.8-1.576,1.6-2.381,2.379a1.806,1.806,0,0,1-2.3.264q-5.178-3.149-10.343-6.319a.637.637,0,0,1-.13-1.1c.126-.133.256-.26.388-.388a3.12,3.12,0,0,1,3.88-.494c.392.224.784.6,1.187.609s.793-.345,1.189-.543c.688-.342,1.382-.674,2.061-1.034a.744.744,0,0,1,.984.143c.907.892.914.893.146,1.921-.342.457-.684.913-1.05,1.4m-7.361-1.212a.382.382,0,0,0,.057.053l9.6,5.872a.648.648,0,0,0,.881-.122q.9-.9,1.794-1.8a.79.79,0,0,0,.1-.148c-.391-.436-.391-.436-.846-.136-.282.187-.575.36-.844.565a.782.782,0,0,1-1.032,0c-1.129-.773-2.274-1.521-3.411-2.281-.549-.367-.6-.654-.2-1.189s.784-1.052,1.176-1.579c-.976.409-1.908.862-2.826,1.341a.9.9,0,0,1-1.019-.048c-.421-.282-.862-.538-1.306-.783a1.753,1.753,0,0,0-2.118.252" transform="translate(-47.832 -15.217)" fill="#cf8e56"/>
      <path id="Path_9" data-name="Path 9" d="M78.458,147.873H77.65c-.126-1.1.276-1.664,1.223-1.746a1.348,1.348,0,0,1,1.669,1.439c.03,1.245.007,2.491.007,3.907-.391-.115-.709-.214-1.03-.3-.08-.022-.2-.046-.249-.005-.513.417-1.2.491-1.449-.053a3.643,3.643,0,0,1-.068-1.941c.037-.256.472-.463.739-.676.144-.115.364-.158.466-.3a3.834,3.834,0,0,0,.444-.837c.014-.034-.317-.259-.329-.245-.2.213-.377.451-.615.755m.988,1.139-.186-.087a4.521,4.521,0,0,0-.628.907c-.058.146.181.409.284.619.177-.15.455-.273.507-.458a3.77,3.77,0,0,0,.023-.981" transform="translate(-33.11 -62.323)" fill="#fff"/>
      <path id="Path_10" data-name="Path 10" d="M70.219,147.867h-.95c-.107-1.125.292-1.672,1.238-1.742,1.063-.079,1.607.38,1.633,1.455.03,1.242.007,2.484.007,3.844l-1.3-.217c-.573.38-1.106.388-1.5-.127a1.768,1.768,0,0,1,.285-2.253c.256-.225.582-.37.859-.575.186-.138.422-.292.486-.487.056-.172-.1-.412-.158-.621a3.03,3.03,0,0,0-.489.345c-.079.081-.077.239-.116.378m.843,1.161-.169-.1a5.9,5.9,0,0,0-.672.943c-.057.122.167.376.262.569.193-.132.5-.23.553-.4a3.714,3.714,0,0,0,.026-1.006" transform="translate(-29.459 -62.323)" fill="#fff"/>
      <rect id="Rectangle_1" data-name="Rectangle 1" width="0.979" height="6.322" transform="translate(43.086 82.698)" fill="#fff"/>
      <path id="Path_11" data-name="Path 11" d="M110.944,52.738s.525-2.009,3.409-2.485a4.864,4.864,0,0,0-.824-.178,7.918,7.918,0,0,1,2.766-.594,3.818,3.818,0,0,0-4.009-.055,3.145,3.145,0,0,0-1.344,3.312" transform="translate(-47.29 -20.839)" fill="#f8caa5"/>
      <path id="Path_12" data-name="Path 12" d="M111,53.97s1.45-1.486,4.192-.473a4.83,4.83,0,0,0-.627-.563,7.917,7.917,0,0,1,2.7.853,3.816,3.816,0,0,0-3.456-2.031A3.145,3.145,0,0,0,111,53.97" transform="translate(-47.343 -22.071)" fill="#f8caa5"/>
      <path id="Path_13" data-name="Path 13" d="M111,55.014s2-.544,3.852,1.721a4.852,4.852,0,0,0-.255-.8,7.908,7.908,0,0,1,1.891,2.1,3.816,3.816,0,0,0-1.946-3.5,3.145,3.145,0,0,0-3.541.482" transform="translate(-47.343 -23.115)" fill="#f8caa5"/>
      <path id="Path_14" data-name="Path 14" d="M111,55.578s2,.548,2.445,3.439a4.862,4.862,0,0,0,.188-.822,7.923,7.923,0,0,1,.561,2.773,3.817,3.817,0,0,0,.1-4.007,3.145,3.145,0,0,0-3.3-1.383" transform="translate(-47.343 -23.679)" fill="#f8caa5"/>
      <path id="Path_15" data-name="Path 15" d="M111,55.625a3.279,3.279,0,0,1,.579,3.488,4.123,4.123,0,0,0,.443-.55,6.639,6.639,0,0,1-.6,2.3,3.2,3.2,0,0,0,1.548-2.981A2.635,2.635,0,0,0,111,55.625" transform="translate(-47.343 -23.726)" fill="#f8caa5"/>
      <path id="Path_16" data-name="Path 16" d="M106.7,53.1s-.818-1.908-3.742-1.949a4.865,4.865,0,0,1,.788-.3,7.909,7.909,0,0,0-2.824-.174,3.817,3.817,0,0,1,3.955-.653A3.144,3.144,0,0,1,106.7,53.1" transform="translate(-43.045 -21.197)" fill="#f8caa5"/>
      <path id="Path_17" data-name="Path 17" d="M106.379,54.335s-1.674-1.228-4.213.221a4.9,4.9,0,0,1,.527-.658,7.918,7.918,0,0,0-2.522,1.285,3.817,3.817,0,0,1,3.077-2.57,3.145,3.145,0,0,1,3.131,1.723" transform="translate(-42.726 -22.435)" fill="#f8caa5"/>
      <path id="Path_18" data-name="Path 18" d="M107.283,55.249s-2.066-.209-3.518,2.329a4.9,4.9,0,0,1,.12-.834,7.919,7.919,0,0,0-1.52,2.386,3.816,3.816,0,0,1,1.346-3.776,3.145,3.145,0,0,1,3.572-.106" transform="translate(-43.629 -23.35)" fill="#f8caa5"/>
      <path id="Path_19" data-name="Path 19" d="M108.772,55.613a3.278,3.278,0,0,0-1.794,3.046,4.091,4.091,0,0,1-.216-.672,6.624,6.624,0,0,0-.269,2.356A3.2,3.2,0,0,1,106.119,57a2.636,2.636,0,0,1,2.652-1.391" transform="translate(-45.118 -23.714)" fill="#f8caa5"/>
      <path id="Path_20" data-name="Path 20" d="M107.86,54.326a257.718,257.718,0,0,0-3.6,35.2l1.965-.18c.2-17.06,2.244-34.9,2.244-34.9Z" transform="translate(-44.47 -23.171)" fill="#f8caa5"/>
      <path id="Path_21" data-name="Path 21" d="M117.988,69.381a3.048,3.048,0,0,1,2.9-1.55,3.768,3.768,0,0,0-.616-.226,6.164,6.164,0,0,1,2.2-.159,2.973,2.973,0,0,0-3.086-.474,2.449,2.449,0,0,0-1.393,2.41" transform="translate(-50.322 -28.451)" fill="#f6c092"/>
      <path id="Path_22" data-name="Path 22" d="M117.992,70.323a3.046,3.046,0,0,1,3.284.087,3.8,3.8,0,0,0-.423-.5,6.16,6.16,0,0,1,1.989.949,2.972,2.972,0,0,0-2.447-1.938,2.448,2.448,0,0,0-2.4,1.4" transform="translate(-50.327 -29.394)" fill="#f6c092"/>
      <path id="Path_23" data-name="Path 23" d="M117.992,71.052a3.047,3.047,0,0,1,2.786,1.742,3.779,3.779,0,0,0-.111-.647,6.165,6.165,0,0,1,1.232,1.827,2.972,2.972,0,0,0-1.125-2.913,2.448,2.448,0,0,0-2.783-.01" transform="translate(-50.327 -30.122)" fill="#f6c092"/>
      <path id="Path_24" data-name="Path 24" d="M117.992,71.368a3.047,3.047,0,0,1,1.516,2.915,3.8,3.8,0,0,0,.233-.613,6.156,6.156,0,0,1,.134,2.2,2.972,2.972,0,0,0,.51-3.08,2.45,2.45,0,0,0-2.393-1.421" transform="translate(-50.327 -30.439)" fill="#f6c092"/>
      <path id="Path_25" data-name="Path 25" d="M117.818,71.371a2.554,2.554,0,0,1,.071,2.753,3.173,3.173,0,0,0,.4-.377,5.17,5.17,0,0,1-.707,1.706A2.491,2.491,0,0,0,119.1,73.32a2.053,2.053,0,0,0-1.281-1.949" transform="translate(-50.152 -30.442)" fill="#f6c092"/>
      <path id="Path_26" data-name="Path 26" d="M114.871,69.144a3.047,3.047,0,0,0-2.676-1.906,3.79,3.79,0,0,1,.64-.146,6.163,6.163,0,0,0-2.16-.438,2.972,2.972,0,0,1,3.121-.078,2.45,2.45,0,0,1,1.075,2.567" transform="translate(-47.206 -28.214)" fill="#f6c092"/>
      <path id="Path_27" data-name="Path 27" d="M114.363,70.129a3.047,3.047,0,0,0-3.273-.283,3.783,3.783,0,0,1,.477-.45,6.172,6.172,0,0,0-2.083.719,2.973,2.973,0,0,1,2.649-1.651,2.45,2.45,0,0,1,2.23,1.666" transform="translate(-46.698 -29.199)" fill="#f6c092"/>
      <path id="Path_28" data-name="Path 28" d="M114.857,70.927a3.047,3.047,0,0,0-2.964,1.418,3.775,3.775,0,0,1,.182-.631,6.167,6.167,0,0,0-1.43,1.677,2.972,2.972,0,0,1,1.445-2.768,2.449,2.449,0,0,1,2.766.3" transform="translate(-47.191 -29.997)" fill="#f6c092"/>
      <path id="Path_29" data-name="Path 29" d="M116.045,71.322a2.553,2.553,0,0,0-1.712,2.156,3.168,3.168,0,0,1-.094-.541,5.161,5.161,0,0,0-.461,1.788,2.491,2.491,0,0,1,.072-2.616,2.053,2.053,0,0,1,2.2-.787" transform="translate(-48.38 -30.392)" fill="#f6c092"/>
      <path id="Path_30" data-name="Path 30" d="M112.895,70.319A200.663,200.663,0,0,0,106.33,97.08l1.535.072c1.987-13.138,5.488-26.679,5.488-26.679Z" transform="translate(-45.353 -29.993)" fill="#f6c092"/>
      <rect id="Rectangle_2" data-name="Rectangle 2" width="13.855" height="6.058" transform="translate(35.607 64.559)" fill="#b38e69"/>
      <rect id="Rectangle_3" data-name="Rectangle 3" width="13.855" height="6.058" transform="translate(35.607 64.559)" fill="none" stroke="#191a1b" stroke-linejoin="round" stroke-width="1.6"/>
      <path id="Path_8109" data-name="Path 8109" d="M0,0H13.855V19.913H0Z" transform="translate(44.555 50.704)" fill="#b38e69"/>
      <rect id="Rectangle_5" data-name="Rectangle 5" width="13.855" height="19.913" transform="translate(44.555 50.704)" fill="none" stroke="#191a1b" stroke-linejoin="round" stroke-width="1.6"/>
      <rect id="Rectangle_6" data-name="Rectangle 6" width="13.855" height="6.058" transform="translate(22.699 64.559)" fill="#b38e69"/>
      <rect id="Rectangle_7" data-name="Rectangle 7" width="13.855" height="6.058" transform="translate(22.699 64.559)" fill="none" stroke="#191a1b" stroke-linejoin="round" stroke-width="1.6"/>
      <path id="Path_8110" data-name="Path 8110" d="M0,0H9.439V16.181H0Z" transform="translate(16.027 54.436)" fill="#b38e69"/>
      <rect id="Rectangle_9" data-name="Rectangle 9" width="9.439" height="16.181" transform="translate(16.027 54.436)" fill="none" stroke="#191a1b" stroke-linejoin="round" stroke-width="1.6"/>
      <path id="Path_31" data-name="Path 31" d="M62.043,25.59h-7.9l2.674-4.428h2.555Z" transform="translate(-23.091 -9.026)" fill="#cf8e56"/>
      <path id="Path_32" data-name="Path 32" d="M62.043,25.59h-7.9l2.674-4.428h2.555Z" transform="translate(-23.091 -9.026)" fill="none" stroke="#191a1b" stroke-linejoin="round" stroke-width="1.6"/>
      <rect id="Rectangle_10" data-name="Rectangle 10" width="8.756" height="7.977" transform="translate(30.621 16.564)" fill="#348411"/>
      <rect id="Rectangle_11" data-name="Rectangle 11" width="8.756" height="7.977" transform="translate(30.621 16.564)" fill="#f9e2cd" stroke="#191a1b" stroke-linejoin="round" stroke-width="1.6"/>
      <path id="Path_8112" data-name="Path 8112" d="M0,0H11.359V36.543H0Z" transform="translate(29.319 24.877)" fill="#cf8e56"/>
      <rect id="Rectangle_13" data-name="Rectangle 13" width="11.359" height="36.543" transform="translate(29.319 24.877)" fill="none" stroke="#191a1b" stroke-linejoin="round" stroke-width="1.6"/>
      <path id="Path_8113" data-name="Path 8113" d="M0,0H11.359V3.615H0Z" transform="translate(29.319 24.877)" fill="#f9e2cd"/>
      <rect id="Rectangle_15" data-name="Rectangle 15" width="11.359" height="3.615" transform="translate(29.319 24.877)" fill="none" stroke="#191a1b" stroke-linejoin="round" stroke-width="1.6"/>
      <rect id="Rectangle_16" data-name="Rectangle 16" width="12.667" height="1.127" transform="translate(28.666 24.178)" fill="#22600c"/>
      <rect id="Rectangle_17" data-name="Rectangle 17" width="12.667" height="1.127" transform="translate(28.666 24.178)" fill="none" stroke="#191a1b" stroke-linejoin="round" stroke-width="1.6"/>
      <rect id="Rectangle_18" data-name="Rectangle 18" width="0.85" height="1.389" transform="translate(39.378 14.741)" fill="#22600c"/>
      <rect id="Rectangle_19" data-name="Rectangle 19" width="0.85" height="1.389" transform="translate(39.378 14.741)" fill="none" stroke="#191a1b" stroke-linejoin="round" stroke-width="1.6"/>
      <rect id="Rectangle_20" data-name="Rectangle 20" width="1.704" height="8.21" transform="translate(38.951 15.968)" fill="#22600c"/>
      <rect id="Rectangle_21" data-name="Rectangle 21" width="1.704" height="8.21" transform="translate(38.951 15.968)" fill="#4f4641" stroke="#191a1b" stroke-linejoin="round" stroke-width="1.6"/>
      <rect id="Rectangle_22" data-name="Rectangle 22" width="0.85" height="1.389" transform="translate(29.77 14.741)" fill="#22600c"/>
      <rect id="Rectangle_23" data-name="Rectangle 23" width="0.85" height="1.389" transform="translate(29.77 14.741)" fill="none" stroke="#191a1b" stroke-linejoin="round" stroke-width="1.6"/>
      <rect id="Rectangle_24" data-name="Rectangle 24" width="1.704" height="8.21" transform="translate(29.343 15.968)" fill="#22600c"/>
      <rect id="Rectangle_25" data-name="Rectangle 25" width="1.704" height="8.21" transform="translate(29.343 15.968)" fill="#b38e69" stroke="#191a1b" stroke-linejoin="round" stroke-width="1.6"/>
      <path id="Path_33" data-name="Path 33" d="M61.766,33.335a2.873,2.873,0,1,1-2.873-2.873,2.872,2.872,0,0,1,2.873,2.873" transform="translate(-23.894 -12.993)" fill="#191a1b"/>
      <path id="Path_34" data-name="Path 34" d="M61.3,13.6l-1.042-.018-1.044.018.257-1.049a5.9,5.9,0,0,1-.177-.914,3.338,3.338,0,0,1,.515-1.243l.128-2.5a7.385,7.385,0,0,1,.161-1.2l.146-.664.144.6a7.349,7.349,0,0,1,.192,1.334l.126,2.43a3.168,3.168,0,0,1,.514,1.243,6.414,6.414,0,0,1-.178.914Z" transform="translate(-25.255 -2.571)" fill="#22600c"/>
      <path id="Path_35" data-name="Path 35" d="M61.3,13.6l-1.042-.018-1.044.018.257-1.049a5.9,5.9,0,0,1-.177-.914,3.338,3.338,0,0,1,.515-1.243l.128-2.5a7.385,7.385,0,0,1,.161-1.2l.146-.664.144.6a7.349,7.349,0,0,1,.192,1.334l.126,2.43a3.168,3.168,0,0,1,.514,1.243,6.414,6.414,0,0,1-.178.914Z" transform="translate(-25.255 -2.571)" fill="none" stroke="#191a1b" stroke-linejoin="round" stroke-width="1.6"/>
      <path id="Path_36" data-name="Path 36" d="M61.37,14.219a1.329,1.329,0,1,1-1.329-1.329,1.328,1.328,0,0,1,1.329,1.329" transform="translate(-25.043 -5.498)" fill="#f6c091"/>
      <circle id="Ellipse_1" data-name="Ellipse 1" cx="1.329" cy="1.329" r="1.329" transform="translate(33.67 7.392)" fill="none" stroke="#191a1b" stroke-linejoin="round" stroke-width="1.6"/>
      <path id="Path_37" data-name="Path 37" d="M52.871,23.906a.852.852,0,1,1-.852-.852.852.852,0,0,1,.852.852" transform="translate(-21.824 -9.833)" fill="#348411"/>
      <path id="Path_38" data-name="Path 38" d="M52.871,23.906a.852.852,0,1,1-.852-.852A.852.852,0,0,1,52.871,23.906Z" transform="translate(-21.824 -9.833)" fill="none" stroke="#191a1b" stroke-linejoin="round" stroke-width="1.6"/>
      <path id="Path_39" data-name="Path 39" d="M69.625,23.906a.852.852,0,1,1-.852-.852.852.852,0,0,1,.852.852" transform="translate(-28.97 -9.833)" fill="#348411"/>
      <path id="Path_40" data-name="Path 40" d="M69.625,23.906a.852.852,0,1,1-.852-.852A.852.852,0,0,1,69.625,23.906Z" transform="translate(-28.97 -9.833)" fill="none" stroke="#191a1b" stroke-linejoin="round" stroke-width="1.6"/>
      <rect id="Rectangle_26" data-name="Rectangle 26" width="2.555" height="1.127" transform="translate(33.721 11.008)" fill="#22600c"/>
      <rect id="Rectangle_27" data-name="Rectangle 27" width="2.555" height="1.127" transform="translate(33.721 11.008)" fill="none" stroke="#191a1b" stroke-linejoin="round" stroke-width="1.6"/>
      <path id="Path_41" data-name="Path 41" d="M61.1,4.122A1.946,1.946,0,1,1,60.288.883a1.414,1.414,0,1,0,1.3,1.3A1.946,1.946,0,0,1,61.1,4.122" transform="translate(-24.644 -0.341)" fill="#348411"/>
      <path id="Path_42" data-name="Path 42" d="M61.1,4.122A1.946,1.946,0,1,1,60.288.883a1.414,1.414,0,1,0,1.3,1.3A1.946,1.946,0,0,1,61.1,4.122Z" transform="translate(-24.644 -0.341)" fill="none" stroke="#191a1b" stroke-linejoin="round" stroke-width="1.6"/>
      <rect id="Rectangle_28" data-name="Rectangle 28" width="1.064" height="30.172" transform="translate(31.047 31.352)" fill="#443f3d"/>
      <rect id="Rectangle_29" data-name="Rectangle 29" width="1.064" height="30.172" transform="translate(33.327 31.352)" fill="#443f3d"/>
      <rect id="Rectangle_30" data-name="Rectangle 30" width="1.064" height="30.172" transform="translate(35.607 31.352)" fill="#443f3d"/>
      <rect id="Rectangle_31" data-name="Rectangle 31" width="1.064" height="30.172" transform="translate(37.887 31.352)" fill="#443f3d"/>
      <path id="Path_8111" data-name="Path 8111" d="M0,0H13.855V9.258H0Z" transform="translate(28.072 61.359)" fill="#f9e2cd"/>
      <rect id="Rectangle_33" data-name="Rectangle 33" width="13.855" height="9.258" transform="translate(28.072 61.359)" fill="none" stroke="#191a1b" stroke-linejoin="round" stroke-width="1.6"/>
      <rect id="Rectangle_34" data-name="Rectangle 34" width="13.855" height="1.366" transform="translate(28.072 61.36)" fill="#22600c"/>
      <rect id="Rectangle_35" data-name="Rectangle 35" width="13.855" height="1.366" transform="translate(28.072 61.36)" fill="none" stroke="#191a1b" stroke-linejoin="round" stroke-width="1.6"/>
      <path id="Path_43" data-name="Path 43" d="M90.127,22.52c-5.77,17.155-8.032,57.7-8.032,57.7H98.159S95.9,39.675,90.127,22.52" transform="translate(-35.016 -9.605)" fill="#f9e2cd"/>
      <path id="Path_44" data-name="Path 44" d="M90.127,22.52c-5.77,17.155-8.032,57.7-8.032,57.7H98.159S95.9,39.675,90.127,22.52Z" transform="translate(-35.016 -9.605)" fill="none" stroke="#191a1b" stroke-linejoin="round" stroke-width="1.6"/>
      <path id="Path_45" data-name="Path 45" d="M96.08,22.583V80.249h8.044s-2.259-40.491-8.02-57.666H96.08" transform="translate(-40.981 -9.632)" fill="#cf8e56"/>
    </g>
  </g>
  <g id="Group_4" data-name="Group 4" transform="translate(47.079 12.914)">
    <g id="Group_3" data-name="Group 3" clip-path="url(#clip-path-2)">
      <rect id="Rectangle_37" data-name="Rectangle 37" width="10.722" height="3.236" transform="translate(2.672 20.743)" fill="#443f3d"/>
      <rect id="Rectangle_38" data-name="Rectangle 38" width="10.722" height="3.236" transform="translate(2.672 20.743)" fill="#b38e69" stroke="#191a1b" stroke-linejoin="round" stroke-width="1.6"/>
      <rect id="Rectangle_39" data-name="Rectangle 39" width="5.361" height="3.236" transform="translate(8.033 20.743)" fill="#443f3d"/>
      <rect id="Rectangle_40" data-name="Rectangle 40" width="5.361" height="3.236" transform="translate(8.033 20.743)" fill="#b38e69" stroke="#191a1b" stroke-linejoin="round" stroke-width="1.6"/>
      <rect id="Rectangle_41" data-name="Rectangle 41" width="17.886" height="1.217" transform="translate(-0.911 26.597)" fill="#443f3d"/>
      <rect id="Rectangle_42" data-name="Rectangle 42" width="17.886" height="1.217" transform="translate(-0.911 30.953)" fill="#443f3d"/>
      <rect id="Rectangle_43" data-name="Rectangle 43" width="17.886" height="1.217" transform="translate(-0.911 35.309)" fill="#443f3d"/>
      <rect id="Rectangle_44" data-name="Rectangle 44" width="17.886" height="1.217" transform="translate(-0.911 39.665)" fill="#443f3d"/>
      <rect id="Rectangle_45" data-name="Rectangle 45" width="17.886" height="1.217" transform="translate(-0.911 44.022)" fill="#443f3d"/>
      <rect id="Rectangle_46" data-name="Rectangle 46" width="17.886" height="1.217" transform="translate(-0.911 48.378)" fill="#443f3d"/>
      <rect id="Rectangle_47" data-name="Rectangle 47" width="17.886" height="1.217" transform="translate(-0.911 52.734)" fill="#443f3d"/>
    </g>
  </g>
  <g id="Group_6" data-name="Group 6">
    <g id="Group_5" data-name="Group 5" clip-path="url(#clip-path-3)">
      <path id="Path_47" data-name="Path 47" d="M90.127,22.52c-1.829,5.438-3.306,13.227-4.514,21.641C83.15,61.308,82.1,80.223,82.1,80.223H98.159S95.9,39.675,90.127,22.52Z" transform="translate(-35.016 -9.605)" fill="none" stroke="#191a1b" stroke-linejoin="round" stroke-width="1.6"/>
      <line id="Line_2" data-name="Line 2" y2="47.138" transform="translate(55.112 23.48)" fill="#22600c"/>
      <line id="Line_3" data-name="Line 3" y2="47.138" transform="translate(55.112 23.48)" fill="none" stroke="#443f3d" stroke-linejoin="round" stroke-width="1.6"/>
      <path id="Path_48" data-name="Path 48" d="M96.779,50.038a2.644,2.644,0,1,1-2.644-2.644,2.644,2.644,0,0,1,2.644,2.644" transform="translate(-39.023 -20.215)" fill="#191a1b"/>
      <path id="Path_49" data-name="Path 49" d="M92.232,30.918l2.219,2.167,2.219-2.167a78.811,78.811,0,0,0-2.219-8.4,78.8,78.8,0,0,0-2.219,8.4" transform="translate(-39.339 -9.605)" fill="#f0d8c4"/>
      <path id="Path_50" data-name="Path 50" d="M92.232,30.918l2.219,2.167,2.219-2.167a78.811,78.811,0,0,0-2.219-8.4A78.8,78.8,0,0,0,92.232,30.918Z" transform="translate(-39.339 -9.605)" fill="none" stroke="#191a1b" stroke-linejoin="round" stroke-width="1.6"/>
      <path id="Path_51" data-name="Path 51" d="M96.093,33.112l2.218-2.166A78.931,78.931,0,0,0,96.1,22.583h-.024V33.1Z" transform="translate(-40.981 -9.632)" fill="#b38e69"/>
      <path id="Path_52" data-name="Path 52" d="M96.093,33.112l2.218-2.166A78.931,78.931,0,0,0,96.1,22.583h-.024V33.1Z" transform="translate(-40.981 -9.632)" fill="none" stroke="#191a1b" stroke-linejoin="round" stroke-width="1.6"/>
      <path id="Path_53" data-name="Path 53" d="M24.368,36.488a33.76,33.76,0,0,0-6.024-.5,33.76,33.76,0,0,0-6.024.5l-.367,49.48H24.735Zm-6.024,15.5L13.874,38.526a27.846,27.846,0,0,1,4.469-.409,27.846,27.846,0,0,1,4.469.409Z" transform="translate(-5.098 -15.352)" fill="#b38e69"/>
      <path id="Path_54" data-name="Path 54" d="M24.368,36.488a33.76,33.76,0,0,0-6.024-.5,33.76,33.76,0,0,0-6.024.5l-.367,49.48H24.735Zm-6.024,15.5L13.874,38.526a27.846,27.846,0,0,1,4.469-.409,27.846,27.846,0,0,1,4.469.409Z" transform="translate(-5.098 -15.352)" fill="#cf8e56" stroke="#191a1b" stroke-linejoin="round" stroke-width="1.6"/>
      <rect id="Rectangle_48" data-name="Rectangle 48" width="8.483" height="1.003" transform="translate(9.004 66.981)" fill="#443f3d"/>
      <rect id="Rectangle_49" data-name="Rectangle 49" width="8.483" height="1.003" transform="translate(9.004 64.622)" fill="#443f3d"/>
      <rect id="Rectangle_50" data-name="Rectangle 50" width="8.483" height="1.003" transform="translate(9.004 62.264)" fill="#443f3d"/>
      <rect id="Rectangle_51" data-name="Rectangle 51" width="8.483" height="1.003" transform="translate(9.004 59.906)" fill="#443f3d"/>
      <rect id="Rectangle_52" data-name="Rectangle 52" width="8.483" height="1.003" transform="translate(9.004 57.548)" fill="#443f3d"/>
      <rect id="Rectangle_53" data-name="Rectangle 53" width="8.483" height="1.003" transform="translate(9.004 55.19)" fill="#443f3d"/>
      <rect id="Rectangle_54" data-name="Rectangle 54" width="8.483" height="1.003" transform="translate(9.004 52.832)" fill="#443f3d"/>
      <rect id="Rectangle_55" data-name="Rectangle 55" width="8.483" height="1.003" transform="translate(9.004 50.474)" fill="#443f3d"/>
      <rect id="Rectangle_56" data-name="Rectangle 56" width="8.483" height="1.003" transform="translate(9.004 48.116)" fill="#443f3d"/>
      <rect id="Rectangle_57" data-name="Rectangle 57" width="8.483" height="1.003" transform="translate(9.004 45.757)" fill="#443f3d"/>
      <rect id="Rectangle_58" data-name="Rectangle 58" width="8.483" height="1.003" transform="translate(9.004 43.399)" fill="#443f3d"/>
      <rect id="Rectangle_59" data-name="Rectangle 59" width="8.483" height="1.003" transform="translate(9.004 41.041)" fill="#443f3d"/>
      <rect id="Rectangle_60" data-name="Rectangle 60" width="8.483" height="1.003" transform="translate(9.004 38.683)" fill="#443f3d"/>
      <path id="Path_55" data-name="Path 55" d="M19.773,41.5a27.43,27.43,0,0,1,3.9.317l.568-1.71a27.846,27.846,0,0,0-4.469-.409,27.846,27.846,0,0,0-4.469.409l.568,1.71a27.43,27.43,0,0,1,3.9-.317" transform="translate(-6.528 -16.932)" fill="#22600c"/>
      <path id="Path_56" data-name="Path 56" d="M19.773,41.5a27.43,27.43,0,0,1,3.9.317l.568-1.71a27.846,27.846,0,0,0-4.469-.409,27.846,27.846,0,0,0-4.469.409l.568,1.71A27.43,27.43,0,0,1,19.773,41.5Z" transform="translate(-6.528 -16.932)" fill="#f6c091" stroke="#191a1b" stroke-linejoin="round" stroke-width="1.6"/>
      <path id="Path_57" data-name="Path 57" d="M125.327,99.746a2.4,2.4,0,0,1-1.456,1.649,1.386,1.386,0,0,1-.455,1.715,1.326,1.326,0,0,1-1.517.063,1.393,1.393,0,0,1-.613-1.62h-3.8a1.383,1.383,0,0,1-.673,1.648,1.27,1.27,0,0,1-1.486-.114,1.368,1.368,0,0,1-.432-1.686c-.093-.048-.179-.088-.262-.134a2.207,2.207,0,0,1-1.235-2.006q-.021-6.024,0-12.048a2.287,2.287,0,0,1,2.274-2.282c.613-.01,1.226,0,1.872,0v-.358c0-2.335,0-4.67,0-7a1.843,1.843,0,1,1,3.685.021c.005,2.325,0,4.65,0,6.975v.365h1.662a2.316,2.316,0,0,1,2.487,2.479c0,1.421,0,2.843.048,4.288.044-.085.091-.168.132-.254q1.123-2.334,2.246-4.668a1.392,1.392,0,0,1,2.049-.72q3.994,1.917,7.987,3.838c.481.231.547.411.319.884q-2.818,5.861-5.638,11.721c-.213.444-.4.509-.846.3q-3.021-1.452-6.041-2.907c-.094-.045-.19-.088-.305-.141m-7.792-13.895c-.627,0-1.212,0-1.8,0a1.377,1.377,0,0,0-1.426,1.442q0,5.935,0,11.871a1.38,1.38,0,0,0,1.455,1.443c.672,0,1.344,0,2.016,0q2.621,0,5.242,0a1.359,1.359,0,0,0,1.388-1.1.314.314,0,0,0-.121-.259,6.573,6.573,0,0,0-.618-.306,1.391,1.391,0,0,1-.729-2.065c.473-.985.947-1.97,1.417-2.957a.8.8,0,0,0,.088-.326q.008-3.184,0-6.367a1.3,1.3,0,0,0-1.119-1.336c-.689-.069-1.391-.015-2.118-.015v2.264H120.3V85.875h-1.848v2.264h-.916Zm10.575,2.429c-.011.021-.042.068-.067.118q-2.145,4.458-4.287,8.92c-.188.391-.112.59.288.782l4.717,2.27c1.009.486,2.02.97,3.053,1.465,1.535-3.19,3.061-6.366,4.6-9.556l-8.3-4m-7.8-3.362V82.325q0-2.348,0-4.7a.924.924,0,1,0-1.844-.026q-.006,3.574,0,7.146a1.6,1.6,0,0,0,.017.17Zm16.9,5.708c-.1-.053-.181-.1-.266-.141L131.5,87.868c-.7-.337-1.4-.674-2.1-1.008-.314-.149-.564-.082-.69.17s-.019.506.306.666l.026.01,7.383,3.556c.126.06.255.114.392.173l.388-.81m-21.057,11.824a.459.459,0,1,0-.45-.46.463.463,0,0,0,.45.46m6.463,0a.459.459,0,1,0-.458-.452.464.464,0,0,0,.458.452" transform="translate(-48.362 -32.291)"/>
      <path id="Path_58" data-name="Path 58" d="M125.327,99.746a2.4,2.4,0,0,1-1.456,1.649,1.386,1.386,0,0,1-.455,1.715,1.326,1.326,0,0,1-1.517.063,1.393,1.393,0,0,1-.613-1.62h-3.8a1.383,1.383,0,0,1-.673,1.648,1.27,1.27,0,0,1-1.486-.114,1.368,1.368,0,0,1-.432-1.686c-.093-.048-.179-.088-.262-.134a2.207,2.207,0,0,1-1.235-2.006q-.021-6.024,0-12.048a2.287,2.287,0,0,1,2.274-2.282c.613-.01,1.226,0,1.872,0v-.358c0-2.335,0-4.67,0-7a1.843,1.843,0,1,1,3.685.021c.005,2.325,0,4.65,0,6.975v.365h1.662a2.316,2.316,0,0,1,2.487,2.479c0,1.421,0,2.843.048,4.288.044-.085.091-.168.132-.254q1.123-2.334,2.246-4.668a1.392,1.392,0,0,1,2.049-.72q3.994,1.917,7.987,3.838c.481.231.547.411.319.884q-2.818,5.861-5.638,11.721c-.213.444-.4.509-.846.3q-3.021-1.452-6.041-2.907C125.538,99.842,125.442,99.8,125.327,99.746Zm-7.792-13.895c-.627,0-1.212,0-1.8,0a1.377,1.377,0,0,0-1.426,1.442q0,5.935,0,11.871a1.38,1.38,0,0,0,1.455,1.443c.672,0,1.344,0,2.016,0q2.621,0,5.242,0a1.359,1.359,0,0,0,1.388-1.1.314.314,0,0,0-.121-.259,6.573,6.573,0,0,0-.618-.306,1.391,1.391,0,0,1-.729-2.065c.473-.985.947-1.97,1.417-2.957a.8.8,0,0,0,.088-.326q.008-3.184,0-6.367a1.3,1.3,0,0,0-1.119-1.336c-.689-.069-1.391-.015-2.118-.015v2.264H120.3V85.875h-1.848v2.264h-.916Zm10.575,2.429c-.011.021-.042.068-.067.118q-2.145,4.458-4.287,8.92c-.188.391-.112.59.288.782l4.717,2.27c1.009.486,2.02.97,3.053,1.465,1.535-3.19,3.061-6.366,4.6-9.556Zm-7.8-3.362V82.325q0-2.348,0-4.7a.924.924,0,1,0-1.844-.026q-.006,3.574,0,7.146a1.6,1.6,0,0,0,.017.17Zm16.9,5.708c-.1-.053-.181-.1-.266-.141l-2.4-1.153L131.5,87.868c-.7-.337-1.4-.674-2.1-1.008-.314-.149-.564-.082-.69.17s-.019.506.306.666l.026.01,7.383,3.556c.126.06.255.114.392.173Zm-21.057,11.824a.459.459,0,1,0-.45-.46A.463.463,0,0,0,116.146,102.452Zm6.463,0a.459.459,0,1,0-.458-.452A.464.464,0,0,0,122.609,102.452Z" transform="translate(-48.362 -32.291)" fill="#191a1b" stroke="#191a1b" stroke-miterlimit="10" stroke-width="0.5"/>
      <rect id="Rectangle_61" data-name="Rectangle 61" width="0.887" height="10.58" transform="translate(73.347 56.802)" fill="#cf8e56"/>
      <rect id="Rectangle_62" data-name="Rectangle 62" width="0.887" height="10.57" transform="translate(70.575 56.813)" fill="#cf8e56"/>
      <rect id="Rectangle_63" data-name="Rectangle 63" width="0.887" height="10.57" transform="translate(67.999 56.813)" fill="#cf8e56"/>
      <path id="Path_59" data-name="Path 59" d="M140.772,102.025a3.226,3.226,0,1,1-3.25,3.2,3.212,3.212,0,0,1,3.25-3.2m1.039,4.244-1.169,1.283a2.382,2.382,0,0,0,1.947-.908l-.778-.375m-3.283-1.578a2.134,2.134,0,0,0,.5,2.036l.264-1.671-.762-.365m3.948-.938c-.088.563-.175,1.115-.265,1.684l.752.36a2.126,2.126,0,0,0-.487-2.043m-2.785.47,1.146-1.255a2.052,2.052,0,0,0-1.88.9l.734.353m1.27,1.637-.818-.392c-.063.451-.12.859-.177,1.266l.108.053.887-.927m.4-.83.159-1.276-.111-.044-.865.927.817.393" transform="translate(-58.657 -43.516)" fill="#cf8e56"/>
      <path id="Path_60" data-name="Path 60" d="M144.131,109.426l.778.375a2.38,2.38,0,0,1-1.947.908l1.169-1.283" transform="translate(-60.977 -46.673)" fill="#fff"/>
      <path id="Path_61" data-name="Path 61" d="M139.216,106.675l.762.365-.264,1.672a2.134,2.134,0,0,1-.5-2.036" transform="translate(-59.345 -45.5)" fill="#fff"/>
      <path id="Path_62" data-name="Path 62" d="M145.964,105.038a2.124,2.124,0,0,1,.487,2.043l-.752-.359c.089-.569.177-1.121.265-1.684" transform="translate(-62.144 -44.801)" fill="#fff"/>
      <path id="Path_63" data-name="Path 63" d="M140.759,104.919l-.734-.353a2.052,2.052,0,0,1,1.88-.9l-1.146,1.255" transform="translate(-59.724 -44.211)" fill="#fff"/>
      <path id="Path_64" data-name="Path 64" d="M142.78,108.421l-.887.927-.108-.053c.057-.407.114-.815.177-1.266l.818.392" transform="translate(-60.475 -46.077)" fill="#fff"/>
      <path id="Path_65" data-name="Path 65" d="M143.618,106.283l-.817-.393.865-.927.111.044-.159,1.276" transform="translate(-60.908 -44.769)" fill="#fff"/>
    </g>
  </g>
</svg>
