<svg xmlns="http://www.w3.org/2000/svg" xmlns:xlink="http://www.w3.org/1999/xlink" width="83.5" height="85.222" viewBox="0 0 83.5 85.222">
  <defs>
    <clipPath id="clip-path">
      <rect id="Rectangle_22627" data-name="Rectangle 22627" width="83.5" height="85.222" transform="translate(1503 1069)" fill="#fff" stroke="#707070" stroke-width="1"/>
    </clipPath>
    <clipPath id="clip-path-2">
      <rect id="Rectangle_22626" data-name="Rectangle 22626" width="134.273" height="137.649" fill="none"/>
    </clipPath>
    <clipPath id="clip-path-3">
      <path id="Path_8041" data-name="Path 8041" d="M146.272,90.367l-7.032,7.46,1.981,7.15-13.457,34.776-20.182,6.155-17.619-5.474L76.676,154.388,110.4,170.345c8.379-2.777,17.128-5.771,25.252-8.6L162.524,125,151.978,88.385ZM111.6,55.036,76.184,61.575S59.025,80.306,58.236,82.382l7.62,57.738,13.815-11.067-2.995-3.569,2.951-34.86L107.415,75.9l12.923,2.192,4.129-7.643,7.5-14.182-6.106-4.181Z" transform="translate(-58.236 -52.085)" fill="none"/>
    </clipPath>
  </defs>
  <g id="travel-and-tourism" transform="translate(-1503 -1069)" clip-path="url(#clip-path)">
    <g id="Group_7926" data-name="Group 7926" transform="translate(1485.783 1046.091)">
      <g id="Group_7923" data-name="Group 7923">
        <g id="Group_7922" data-name="Group 7922" clip-path="url(#clip-path-2)">
          <path id="Path_8053" data-name="Path 8053" d="M6.772.283C9.641-1.382,10.33,2.294,10.33,5.146a5.165,5.165,0,0,1-5.165,5.165C2.312,10.311,0,9.792,0,6.94S3.9,1.947,6.772.283Z" transform="translate(41.435 44.449)" fill="#f6c092"/>
          <path id="Path_8043" data-name="Path 8043" d="M233.327,289.785c-1.172-.12-2.346-.22-3.515-.365a22.218,22.218,0,0,1-6.445-1.572,8.311,8.311,0,0,1-2.115-1.333,2.386,2.386,0,0,1,.017-3.776,7.588,7.588,0,0,1,3.269-1.708c1.444-.392,2.92-.665,4.383-.987.21-.046.423-.084.709-.14-1.029-1.4-2.015-2.756-3.024-4.1a1.428,1.428,0,0,0-.556-.329c-8.252-3.775-13.21-10.136-14.658-19.082a24.6,24.6,0,1,1,34.2,19.014,2.938,2.938,0,0,0-1.08.876c-.908,1.165-1.76,2.373-2.638,3.571,1.449.312,2.86.572,4.248.925a9.208,9.208,0,0,1,4.026,1.915,2.424,2.424,0,0,1,.031,3.867,4.518,4.518,0,0,1-1.378.94A27.45,27.45,0,0,1,244.6,288.9c-1.874.387-3.8.527-5.7.775-.256.033-.51.073-.766.109Zm8.237-13c-.661.118-1.167.241-1.681.292a.976.976,0,0,1-1.081-.827,1,1,0,0,1,.733-1.149,2.821,2.821,0,0,1,.349-.088,22.558,22.558,0,1,0-26.494-19.34c1.06,8.07,5.419,13.913,12.7,17.554a20.746,20.746,0,0,0,5.339,1.754c.078.015.159.024.237.041.753.171,1.115.629.985,1.248s-.615.894-1.394.766c-.413-.068-.823-.156-1.371-.262,1.536,2.094,2.973,4.064,4.424,6.024a1.661,1.661,0,0,0,2.862-.021c1.276-1.72,2.539-3.449,3.807-5.175.175-.238.344-.48.586-.817m-5.857,10.827c1.16,0,2.324.064,3.479-.013a25.746,25.746,0,0,0,7.855-1.537,8.16,8.16,0,0,0,1.672-.917c.481-.338.47-.651-.013-1a7.092,7.092,0,0,0-1.452-.825,23.107,23.107,0,0,0-6.473-1.442.782.782,0,0,0-.581.274c-.523.657-.991,1.356-1.5,2.022a3.655,3.655,0,0,1-5.927-.01c-.488-.634-.965-1.278-1.416-1.938a.71.71,0,0,0-.8-.355c-1.376.249-2.782.384-4.125.751a18.832,18.832,0,0,0-3.482,1.4c-.748.378-.724.848,0,1.286a10.764,10.764,0,0,0,2.106.988,31.247,31.247,0,0,0,10.654,1.32" transform="translate(-177.207 -191.611)" fill="#443f3d"/>
          <path id="Path_8044" data-name="Path 8044" d="M294.78,567.906a31.252,31.252,0,0,1-10.654-1.32,10.772,10.772,0,0,1-2.106-.988c-.728-.439-.753-.908,0-1.286a18.831,18.831,0,0,1,3.482-1.4c1.343-.367,2.749-.5,4.125-.751a.711.711,0,0,1,.8.355c.451.66.928,1.3,1.416,1.938a3.655,3.655,0,0,0,5.926.01c.513-.665.981-1.365,1.5-2.022a.783.783,0,0,1,.581-.274,23.109,23.109,0,0,1,6.473,1.443,7.093,7.093,0,0,1,1.452.825c.483.352.494.665.013,1a8.155,8.155,0,0,1-1.672.917,25.746,25.746,0,0,1-7.855,1.537c-1.155.077-2.319.013-3.479.013" transform="translate(-236.279 -471.901)" fill="#fff"/>
          <path id="Path_8045" data-name="Path 8045" d="M236.766,274.285a20.515,20.515,0,1,1,20.486,20.544,20.54,20.54,0,0,1-20.486-20.544m37,8.158a18.32,18.32,0,0,0-24.348-24.71,6.184,6.184,0,0,1,.3,8.23,5.947,5.947,0,0,1-3.543,2.1,6.227,6.227,0,0,1-5.55-1.671,18.387,18.387,0,0,0,.1,16.042,1.38,1.38,0,0,0,.207-.074,28.238,28.238,0,0,1,17.719-4.913.809.809,0,0,0,.6-.33c1.157-1.8,2.288-3.62,3.422-5.435a4.6,4.6,0,0,0,.208-.427,2.6,2.6,0,0,0-.407-.072,2.333,2.333,0,0,1-2.151-1.366,2.992,2.992,0,0,0-1.928-1.429,1.718,1.718,0,0,1-1.36-1.365,1.769,1.769,0,0,1,.717-1.847,8.563,8.563,0,0,1,6.989-2c4.639.708,9.122,5.114,7.7,11.129a1.813,1.813,0,0,1-1.313,1.489,1.934,1.934,0,0,1-1.939-.645,3.388,3.388,0,0,0-1.491-.933c-1.243-.251-2.474-.4-2.958-1.973l-3.4,5.441a27.559,27.559,0,0,1,12.437,4.762m-.971,1.862c-8.976-6.561-22.34-6.408-31.015,0l1.108,1.55c.112-.069.182-.106.247-.152a5.158,5.158,0,0,1,6.634.153,3.732,3.732,0,0,0,1.148.622,3.223,3.223,0,0,0,3.119-.736,5.106,5.106,0,0,1,6.437-.058c1.655,1.279,2.887,1.276,4.548.005a4.742,4.742,0,0,1,4.113-1,20.686,20.686,0,0,1,2.648,1.03l1.013-1.419m-28.45,3.088c6.988,7.341,19.352,7.008,25.865-.014a2.963,2.963,0,0,0-3.908-.079,5.348,5.348,0,0,1-7.07.037,3.023,3.023,0,0,0-3.975.033,7.294,7.294,0,0,1-.931.653,5.17,5.17,0,0,1-5.93-.629,3.05,3.05,0,0,0-4.051,0m26.1-13.93a6.12,6.12,0,0,0-.031-3.054,6.864,6.864,0,0,0-3.376-4.288c-2.469-1.421-5.728-1.331-7.615.426a5.862,5.862,0,0,1,2.794,2.37c.082.13.336.188.52.213a5.784,5.784,0,0,1,2.692,1.1,5.437,5.437,0,0,1,1.288,1.414.832.832,0,0,0,.5.331,5.854,5.854,0,0,1,3.223,1.492m-25.549-7.343a4.1,4.1,0,0,0,2.921-7.06c-.226-.215-.394-.318-.71-.1a19.158,19.158,0,0,0-5.187,5.181.476.476,0,0,0,.086.716,4.112,4.112,0,0,0,2.89,1.267" transform="translate(-198.757 -213.069)" fill="#b28e68"/>
          <path id="Path_8046" data-name="Path 8046" d="M299,418.314l-1.013,1.419a20.664,20.664,0,0,0-2.648-1.03,4.742,4.742,0,0,0-4.113,1c-1.662,1.27-2.893,1.274-4.548-.005a5.106,5.106,0,0,0-6.437.058,3.223,3.223,0,0,1-3.119.736,3.74,3.74,0,0,1-1.148-.622,5.157,5.157,0,0,0-6.634-.153c-.064.046-.135.083-.247.152l-1.108-1.55c8.675-6.408,22.039-6.561,31.015,0" transform="translate(-224.966 -347.078)" fill="#fff"/>
          <path id="Path_8047" data-name="Path 8047" d="M283.964,458.845a3.05,3.05,0,0,1,4.052,0,5.171,5.171,0,0,0,5.929.629,7.285,7.285,0,0,0,.931-.653,3.023,3.023,0,0,1,3.975-.032,5.348,5.348,0,0,0,7.07-.037,2.963,2.963,0,0,1,3.908.079c-6.513,7.021-18.877,7.354-25.865.013" transform="translate(-238.379 -384.522)" fill="#f6c092"/>
          <path id="Path_8048" data-name="Path 8048" d="M388.911,332.65a5.854,5.854,0,0,0-3.223-1.492.834.834,0,0,1-.5-.331,5.447,5.447,0,0,0-3.98-2.51c-.183-.025-.437-.083-.519-.213a5.863,5.863,0,0,0-2.794-2.37c1.888-1.757,5.146-1.847,7.615-.426a6.679,6.679,0,0,1,3.406,7.342" transform="translate(-317.226 -272.257)" fill="#fff"/>
          <path id="Path_8049" data-name="Path 8049" d="M272.867,357.524a4.1,4.1,0,0,1,2.952-1.355,1,1,0,0,1,1.127.906,1.022,1.022,0,0,1-.984,1.13c-1.383.2-1.861.679-2.064,2.047a1.018,1.018,0,0,1-1.054,1c-.562-.011-.894-.345-.99-.994a2.043,2.043,0,0,0-2.07-2.057,1.054,1.054,0,0,1-1.01-1.117,1.024,1.024,0,0,1,1.183-.919,4.119,4.119,0,0,1,2.912,1.354" transform="translate(-225.623 -298.992)" fill="#b28e68"/>
          <path id="Path_8050" data-name="Path 8050" d="M485.183,187.395c.7.692,1.362,1.373,2.053,2.028a.768.768,0,0,0,.485.131c1.262.01,2.525-.016,3.786.022a1.4,1.4,0,0,1,.852.347c1,.946,1.952,1.938,2.93,2.905a.844.844,0,0,1,.268.961.819.819,0,0,1-.87.486c-1.295,0-2.589-.013-3.883.014a1.528,1.528,0,0,0-.672.276,1.664,1.664,0,0,0-.38.371,1.738,1.738,0,0,1-1.944.787c0,.242,0,.412,0,.583,0,1.311-.005,2.622,0,3.933a.814.814,0,0,1-1.481.6c-.935-.942-1.891-1.863-2.8-2.829a1.258,1.258,0,0,1-.359-.887,3.183,3.183,0,0,0-1.321-3.131c-.9-.751-1.682-1.653-2.542-2.515l-3.365,3.925c-.242.283-.475.574-.73.845a.756.756,0,0,1-1.192.042c-.755-.732-1.49-1.485-2.235-2.227a.926.926,0,0,1-.21-1.024c.678-2.225,1.333-4.457,2.017-6.681a.66.66,0,0,0-.192-.8c-.549-.5-1.064-1.041-1.585-1.572a2.624,2.624,0,0,1,1.9-4.53c.793,0,1.586,0,2.379,0a2.654,2.654,0,0,1,1.965.8c.643.639,1.294,1.27,1.918,1.927a.669.669,0,0,0,.8.212c1.4-.447,2.816-.842,4.218-1.283a1.069,1.069,0,0,1,1.223.3c.647.68,1.325,1.33,1.986,2,.545.55.524.952-.071,1.464-.968.832-1.938,1.661-2.944,2.522m-11.691-6.366a1.058,1.058,0,0,0-.519,1.914q4.939,4.949,9.887,9.89a2.945,2.945,0,0,0,.286.217c0-.344.008-.618,0-.892-.016-.412.044-.782.473-.972.461-.2.763.056,1.061.357.809.816,1.617,1.633,2.443,2.432a1.182,1.182,0,0,0,.538.242c.671.16.956-.36,1.339-.754-.075-.087-.124-.149-.18-.205q-5.9-5.915-11.79-11.832a1.627,1.627,0,0,0-1.542-.375l.762,1.054-1.218.925-1.538-2m1.443,6.223c-.574,1.922-1.149,3.834-1.71,5.751a.463.463,0,0,0,.087.373c.385.433.792.845,1.216,1.29l3.613-4.217-3.206-3.2m6.742-3.509,2.486,2.48,2.512-2.157c-.44-.433-.837-.834-1.25-1.221a.424.424,0,0,0-.323-.122c-1.156.333-2.307.684-3.425,1.02m3.15,10.086-.126.079c0,.969,0,1.937.005,2.906a.484.484,0,0,0,.111.3c.436.467.884.921,1.328,1.38a27.411,27.411,0,0,0,.1-3.053.423.423,0,0,0-.124-.247c-.428-.459-.863-.912-1.3-1.367m4.215-2.715-.058.116c.405.391.809.784,1.217,1.172.115.109.241.287.368.292.756.027,1.513.014,2.4.014-.564-.56-1.016-1.016-1.478-1.461a.475.475,0,0,0-.293-.127c-.72-.011-1.44-.006-2.16-.006" transform="translate(-395.372 -150.647)" fill="#b28e68"/>
          <path id="Path_8051" data-name="Path 8051" d="M165.425,559.576a2.256,2.256,0,1,1-2.256-2.256,2.256,2.256,0,0,1,2.256,2.256" transform="translate(-133.36 -466.992)" fill="#b28e68"/>
          <path id="Path_8052" data-name="Path 8052" d="M194.339,593.582a1.128,1.128,0,1,1-1.128-1.128,1.128,1.128,0,0,1,1.128,1.128" transform="translate(-159.526 -496.486)" fill="#f6c092"/>
        </g>
      </g>
      <g id="Group_7925" data-name="Group 7925" transform="translate(9.349 8.361)">
        <g id="Group_7924" data-name="Group 7924" clip-path="url(#clip-path-3)">
          <path id="Path_8042" data-name="Path 8042" d="M40.086,0A40.086,40.086,0,1,1,0,40.086,40.086,40.086,0,0,1,40.086,0Z" transform="translate(9.261 17.429)" fill="none" stroke="#443f3d" stroke-width="2"/>
        </g>
      </g>
    </g>
  </g>
</svg>
