<svg xmlns="http://www.w3.org/2000/svg" xmlns:xlink="http://www.w3.org/1999/xlink" width="218.691" height="44" viewBox="0 0 218.691 44">
  <defs>
    <clipPath id="clip-path">
      <rect id="Rectangle_43620" data-name="Rectangle 43620" width="218.691" height="44" fill="#152e65"/>
    </clipPath>
    <clipPath id="clip-path-2">
      <rect id="Rectangle_28551" data-name="Rectangle 28551" width="21.561" height="25.611" fill="none" stroke="#152e66" stroke-width="0.5"/>
    </clipPath>
  </defs>
  <g id="Logo_AR" clip-path="url(#clip-path)">
    <path id="Path_184057" data-name="Path 184057" d="M280.4,1.531l0,5.406,5.4,0,0-5.406Zm19.736,2.211h-.928l0,1.676,5.489,0V3.742h-2.034c-.747,0-1.1-.323-1.1-.962,0-.784.358-1.175,1.034-1.175h1.422V0h-1.244a2.726,2.726,0,0,0-2.855,2.816,2.154,2.154,0,0,0,.219.926M225.366,27.43l.005-11.146c0-4.08,4.853-3.745,4.853-3.745l-.006,10.7c0,.11,0,.219,0,.327-.205,4.914-4.848,3.862-4.848,3.862m-12.027,5.175,14.119.006a7.778,7.778,0,0,0,7.722-6.846c0-1.407.177-18.684.177-18.684l-7.446.053c-5.739.215-7.613,5.711-7.614,7.386s-.006,12.794-.006,12.794l-8.054,0c-7.169,0-6.95,7.278-6.95,7.278l0,7.5,5.182,1.764,0-7.39c0-4.235,2.87-3.86,2.87-3.86M273.122,1.528l0,5.405,5.406,0,0-5.405Zm26.364,30.235,5.407,0L304.9,7.277,299.5,9.6ZM275.321,18.847s-.44-2.979,3.09-2.977l2.539.11,0,9.6s-5.628-1.324-5.625-6.729m-36.06,12.994,46.643.021.008-21.173-9.594,0c-6.286.766-7.181,7.3-6.183,11.247a14.24,14.24,0,0,0,1.988,4.08L244.668,26s.009-18.415.009-18.748l-5.406,2.317Zm51.082-18.063-.011,22.282c0,2.759-4.633,2.757-4.633,2.757l0,5.183s10.039-.44,10.04-8.269c0,0,.012-23.935.012-24.269Z" transform="translate(-86.209 0)" fill="#f38020"/>
    <path id="Path_184058" data-name="Path 184058" d="M223.126,70.032v-.155c0-.524.188-.7,1.292-.7h2.7v1.564h-2.742c-1.128,0-1.252-.229-1.252-.711m4.935.782,0-2.676c0-1.6-1.292-1.737-2.616-1.738l-2.642,0-.007.789h2.574c1.31,0,1.748.139,1.748.933v.27l-2.662,0c-1.332,0-2.183.094-2.184,1.3v.325c0,1.078.38,1.518,1.534,1.518l3.31.005c.473,0,.943-.085.943-.722" transform="translate(-93.344 -27.884)" fill="#656565"/>
    <path id="Path_184059" data-name="Path 184059" d="M278.945,70.057V69.9c0-.524.186-.7,1.292-.7h2.7v1.563l-2.741,0c-1.129,0-1.252-.229-1.252-.71m4.936.781V68.162c0-1.6-1.29-1.738-2.613-1.738h-2.645l-.008.788h2.576c1.311,0,1.749.137,1.749.93v.272h-2.664c-1.33,0-2.182.092-2.183,1.3v.323c0,1.081.379,1.52,1.534,1.521l3.31,0c.472,0,.941-.086.943-.723" transform="translate(-116.786 -27.895)" fill="#656565"/>
    <path id="Path_184060" data-name="Path 184060" d="M298.869,70.065v-.155c0-.523.188-.7,1.292-.7h2.7v1.562h-2.742c-1.129,0-1.252-.228-1.252-.71m4.937.781V68.171c0-1.6-1.29-1.738-2.614-1.738h-2.645l-.008.788h2.575c1.312,0,1.748.138,1.748.932v.27H300.2c-1.331,0-2.18.094-2.18,1.3v.324c0,1.078.377,1.519,1.531,1.52l3.311,0c.471,0,.944-.084.944-.723" transform="translate(-125.153 -27.898)" fill="#656565"/>
    <path id="Path_184061" data-name="Path 184061" d="M260.478,67.209l2.738,0v1.561l-2.7,0c-1.1,0-1.291-.176-1.291-.7l0-.152c0-.481.123-.707,1.251-.707m3.68,3.711,0-3.689c0-.889-.945-.814-.945-.814h-3.31c-1.154,0-1.531.439-1.535,1.52v.323c0,1.206.851,1.3,2.181,1.3h2.664v1.175l0,0-4.474,0,0,.791,4.549,0s.867.052.867-.61" transform="translate(-108.503 -27.891)" fill="#656565"/>
    <path id="Path_184062" data-name="Path 184062" d="M242.214,71.532s0-3.519,0-3.768a1.375,1.375,0,0,1,1.367-1.367h2.039v.786h-1.661a.781.781,0,0,0-.8.842l0,3.512Z" transform="translate(-101.718 -27.884)" fill="#656565"/>
    <path id="Path_184063" data-name="Path 184063" d="M327.363,71.517v-3.9c0-1.366-1.162-1.3-1.777-1.3l-6.385,0c-1.846,0-1.642,1.229-1.67,1.707l0,3.492.933,0,.009-3.711c0-.5.145-.543.552-.543h2.4c.408,0,.547.039.547.545v3.709h.936l.006-3.709c0-.505.142-.544.548-.544h2.405c.406,0,.551.039.551.545l0,3.708Z" transform="translate(-133.347 -27.848)" fill="#656565"/>
    <g id="Group_140194" data-name="Group 140194" transform="translate(3.661 8.678)">
      <path id="Path_97217" data-name="Path 97217" d="M20.392.663A1.778,1.778,0,0,1,20.91,2V19.03a1.655,1.655,0,0,1-.487,1.266,1.791,1.791,0,0,1-1.28.461,1.683,1.683,0,0,1-1.25-.461,1.717,1.717,0,0,1-.457-1.266V7.179l-5.182,9.263a2.9,2.9,0,0,1-.793.935,1.7,1.7,0,0,1-1.006.3,1.755,1.755,0,0,1-1.006-.288,2.668,2.668,0,0,1-.793-.949L3.444,7.322V19.03a1.7,1.7,0,0,1-.472,1.251,1.708,1.708,0,0,1-1.265.475A1.684,1.684,0,0,1,.457,20.3,1.717,1.717,0,0,1,0,19.03V2A1.806,1.806,0,0,1,.5.663,1.832,1.832,0,0,1,1.859.16,2.053,2.053,0,0,1,3.719,1.4l6.767,12.168L17.222,1.4A2.014,2.014,0,0,1,19.02.16a1.886,1.886,0,0,1,1.372.5" transform="translate(0 1.397)" fill="#112a63" stroke="#152e66" stroke-width="0.5"/>
      <path id="Path_97218" data-name="Path 97218" d="M66.25,19.532a8.628,8.628,0,0,1-3.581-3.625,11.622,11.622,0,0,1-1.25-5.523,11.536,11.536,0,0,1,1.25-5.508A8.653,8.653,0,0,1,66.25,1.266,11.234,11.234,0,0,1,71.691,0,12.434,12.434,0,0,1,75.47.561a10.029,10.029,0,0,1,3.14,1.625,1.682,1.682,0,0,1,.548.6,1.775,1.775,0,0,1,.153.777,1.593,1.593,0,0,1-.365,1.065,1.122,1.122,0,0,1-.885.431,2.339,2.339,0,0,1-1.249-.4,9.216,9.216,0,0,0-2.439-1.28,8.172,8.172,0,0,0-2.5-.36,6.028,6.028,0,0,0-4.8,1.87,8.136,8.136,0,0,0-1.631,5.495,8.182,8.182,0,0,0,1.631,5.523,6.025,6.025,0,0,0,4.8,1.87A7.553,7.553,0,0,0,74.3,17.4a11.882,11.882,0,0,0,2.515-1.266,4.39,4.39,0,0,1,.609-.287,1.8,1.8,0,0,1,.639-.114,1.121,1.121,0,0,1,.885.43,1.6,1.6,0,0,1,.365,1.065,1.793,1.793,0,0,1-.153.762,1.631,1.631,0,0,1-.548.618,10.014,10.014,0,0,1-3.14,1.625,12.434,12.434,0,0,1-3.779.561,11.226,11.226,0,0,1-5.441-1.266" transform="translate(-13.988 1.442)" fill="#112a63" stroke="#112a63" stroke-width="0.5"/>
      <path id="Path_97219" data-name="Path 97219" d="M106.947,19.316a1.322,1.322,0,0,1-.564,1.093,2.122,2.122,0,0,1-1.326.431,2.1,2.1,0,0,1-.93-.215,1.956,1.956,0,0,1-.747-.648l-4.054-5.811a3.849,3.849,0,0,0-1.3-1.294,3.721,3.721,0,0,0-1.783-.374H93.261v6.444a1.817,1.817,0,0,1-.519,1.366,1.927,1.927,0,0,1-1.4.5,1.981,1.981,0,0,1-1.417-.5,1.784,1.784,0,0,1-.533-1.366V2.114a1.665,1.665,0,0,1,.5-1.294A1.977,1.977,0,0,1,91.279.359H98.9A8.683,8.683,0,0,1,104.462,1.9a5.382,5.382,0,0,1,1.905,4.444,5.43,5.43,0,0,1-1.417,3.869,6.85,6.85,0,0,1-4.009,1.941,3.947,3.947,0,0,1,1.555.719,6.458,6.458,0,0,1,1.311,1.438l2.774,4a1.752,1.752,0,0,1,.365,1.006M101.612,8.86a2.864,2.864,0,0,0,1.037-2.431A2.819,2.819,0,0,0,101.612,4a5.554,5.554,0,0,0-3.261-.762H93.231V9.651h5.121a5.394,5.394,0,0,0,3.261-.791" transform="translate(-20.361 1.341)" fill="#112a63" stroke="#152e66" stroke-width="0.5"/>
      <path id="Path_97220" data-name="Path 97220" d="M120.884,19.532a8.682,8.682,0,0,1-3.551-3.625,11.621,11.621,0,0,1-1.249-5.523,11.66,11.66,0,0,1,1.234-5.508,8.587,8.587,0,0,1,3.551-3.611,12.359,12.359,0,0,1,10.9,0A8.6,8.6,0,0,1,135.3,4.876a11.65,11.65,0,0,1,1.234,5.508,11.622,11.622,0,0,1-1.249,5.523,8.677,8.677,0,0,1-3.551,3.625,12.264,12.264,0,0,1-10.852,0m10.06-3.625a8.223,8.223,0,0,0,1.661-5.523,8.165,8.165,0,0,0-1.661-5.508,6.568,6.568,0,0,0-9.267,0,8.154,8.154,0,0,0-1.661,5.508,8.211,8.211,0,0,0,1.661,5.523,6.532,6.532,0,0,0,9.267,0" transform="translate(-26.404 1.442)" fill="#112a63" stroke="#152e66" stroke-width="0.5"/>
      <g id="Group_120872" data-name="Group 120872" transform="translate(23.332)" opacity="0.98">
        <g id="Group_120871" data-name="Group 120871">
          <g id="Group_120870" data-name="Group 120870" clip-path="url(#clip-path-2)">
            <path id="Path_97221" data-name="Path 97221" d="M53.867,22.162l-1.325-3.083L49.321,22.11l.588,1.45c.133.312.3.669.485,1.076a4.177,4.177,0,0,0,.531.9,1.781,1.781,0,0,0,.61.465,2.064,2.064,0,0,0,.874.17,2.1,2.1,0,0,0,1.491-.581,1.735,1.735,0,0,0,.616-1.278,6.229,6.229,0,0,0-.653-2.15" transform="translate(-34.734 -3.903)" fill="#152e66" stroke="#152e66" stroke-width="0.5"/>
            <path id="Path_97222" data-name="Path 97222" d="M46.316,9.847,43.222,12.76l-.033-.081L39.976,4.4l-3.159,8.277-.243.655-.3.811-.588,1.585L34.669,18.3a13.162,13.162,0,0,1-.693,1.52l-2.228.975a.641.641,0,0,1-.064-.017,2.181,2.181,0,0,1-.856-.482,1.736,1.736,0,0,1-.614-1.093,1.646,1.646,0,0,1-.011-.184v-.009a2.436,2.436,0,0,1,.081-.629c.018-.067.036-.136.062-.207q.145-.437.48-1.216L36.281,3.934c.155-.374.343-.822.559-1.348a6.708,6.708,0,0,1,.7-1.3,2.759,2.759,0,0,1,.973-.842A3.148,3.148,0,0,1,40.005.118a3.192,3.192,0,0,1,1.507.323,2.824,2.824,0,0,1,.974.828,5.6,5.6,0,0,1,.625,1.086c.169.387.386.907.646,1.552l1.668,3.871.763,1.772Z" transform="translate(-30.199 1.409)" fill="#152e66" stroke="#152e66" stroke-width="0.5"/>
            <path id="Path_97223" data-name="Path 97223" d="M51.756,11.507v3.325a.831.831,0,0,1-1.66.006V13.693L35.9,27.047V20.862l-1.648,1.551-.63.591-.3.279a2.007,2.007,0,0,1-2.7-.283,1.739,1.739,0,0,1-.421-1.13,1.7,1.7,0,0,1,.1-.577.5.5,0,0,0,.463.54.544.544,0,0,0,.42-.137l1.617-1.52,3.113-2.928a1.651,1.651,0,0,1,2.233,0,1.443,1.443,0,0,1,.462,1.05v2.6l5.618-5.282.662-.623,3.3-3.1H46.908a.807.807,0,0,1-.831-.781v-.06a.808.808,0,0,1,.831-.78h3.536a1.277,1.277,0,0,1,1.314,1.236" transform="translate(-30.198 -1.436)" fill="#f38020" stroke="#f38020" stroke-width="0.5"/>
          </g>
        </g>
      </g>
    </g>
  </g>
</svg>
