<svg id="signout_icon_ar" xmlns="http://www.w3.org/2000/svg" width="15.25" height="17.079" viewBox="0 0 15.25 17.079">
  <path id="Path_95803" data-name="Path 95803" d="M.594,9.254a.661.661,0,0,1,.594.712v2.847a.661.661,0,0,0,.594.712H3.562V2.85A1.44,1.44,0,0,1,4.371,1.5l.176-.07H1.781a.662.662,0,0,0-.594.712V4.273a.661.661,0,0,1-.594.712A.661.661,0,0,1,0,4.273V2.138A1.985,1.985,0,0,1,1.781,0H8.164a.4.4,0,0,1,.063.016A.859.859,0,0,1,8.312,0,1.323,1.323,0,0,1,9.5,1.426v12.81a1.44,1.44,0,0,1-.809,1.353L5.118,17.016a1.043,1.043,0,0,1-.368.066,1.323,1.323,0,0,1-1.187-1.423v-.712H1.781A1.985,1.985,0,0,1,0,12.813V9.966a.661.661,0,0,1,.594-.712Zm0,0" transform="translate(5.75 -0.003)" fill="#f38020"/>
  <path id="Path_95804" data-name="Path 95804" d="M277.506,109.549l2.375-2.686a.545.545,0,0,1,.647-.146.679.679,0,0,1,.366.621v2.015h2.375a.677.677,0,0,1,0,1.343h-2.375v2.015a.679.679,0,0,1-.366.621.545.545,0,0,1-.647-.146l-2.375-2.686A.734.734,0,0,1,277.506,109.549Zm0,0" transform="translate(-277.332 -102.965)" fill="#f38020"/>
</svg>
