<svg xmlns="http://www.w3.org/2000/svg" xmlns:xlink="http://www.w3.org/1999/xlink" width="70.17" height="62.97" viewBox="0 0 70.17 62.97">
  <defs>
    <clipPath id="clip-path">
      <rect id="Rectangle_10506" data-name="Rectangle 10506" width="70.17" height="62.97" fill="#023074"/>
    </clipPath>
  </defs>
  <g id="ICON-MarketData" clip-path="url(#clip-path)">
    <path id="Path_7585" data-name="Path 7585" d="M47.145,20.911H37.572v-.784q0-4.634,0-9.268c0-1.727-.768-2.488-2.5-2.488q-6.434,0-12.867,0c-1.727,0-2.507.772-2.507,2.48q0,10.911,0,21.821V33.6h-.865q-5.191,0-10.382,0c-1.718,0-2.486.775-2.486,2.5q0,10.874,0,21.748v.96c-1.265,0-2.478,0-3.691,0A2.122,2.122,0,0,0,.3,59.835,2.065,2.065,0,0,0,1.873,62.95a8.079,8.079,0,0,0,.877.017h64.7c.268,0,.537.01.8-.012a2.055,2.055,0,0,0,1.913-2.025,1.963,1.963,0,0,0-1.838-2.07c-1.064-.068-2.135-.015-3.3-.015V57.831q0-27.477,0-54.954c0-.243.006-.487,0-.73A2.04,2.04,0,0,0,62.914.016q-6.836-.032-13.671,0c-1.359.007-2.091.865-2.094,2.356q-.013,6.6,0,13.209v5.328M60.809,58.746H51.342V4.177h9.466ZM23.9,12.58h9.468v46.2H23.9ZM47.08,58.755H37.619v-33.6H47.08ZM10.194,37.782h9.465V58.767H10.194Z" transform="translate(0 0)" fill="#023074"/>
  </g>
</svg>
