<svg xmlns="http://www.w3.org/2000/svg" xmlns:xlink="http://www.w3.org/1999/xlink" width="214.551" height="49.188" viewBox="0 0 214.551 49.188">
  <defs>
    <clipPath id="clip-path">
      <path id="Path_91754" data-name="Path 91754" d="M14.71,38.891,21.9,34.662V23.554H14.71Z" transform="translate(-14.71 -23.554)" fill="#f4f4f7"/>
    </clipPath>
    <clipPath id="clip-path-2">
      <path id="Path_91755" data-name="Path 91755" d="M25.106,32.906l4.876-2.885,2.32,2.885V17.737h-7.2Z" transform="translate(-25.106 -17.737)" fill="#f4f4f7"/>
    </clipPath>
    <clipPath id="clip-path-3">
      <path id="Path_91756" data-name="Path 91756" d="M35.861,35.252l1.206,1.486,5.99-3.767V13.436h-7.2Z" transform="translate(-35.861 -13.436)" fill="#f4f4f7"/>
    </clipPath>
    <clipPath id="clip-path-4">
      <path id="Path_91757" data-name="Path 91757" d="M7.738,16.08C7.738,9.8,12.59,4.688,18.555,4.688H42.789a2.544,2.544,0,0,1,2.473,2.6V26.4l-2.292.265L45,29.387,32.224,37.525,26.712,30.35,7.738,41.494ZM18.555,0C10.135,0,3.286,7.213,3.286,16.08V44.108L0,46.039v3.148L25.016,37.331l6.447,8.674L48.614,34.64l1.749,2.491,6.559-12.077-7.207.833V7.293A7.124,7.124,0,0,0,42.789,0Z" fill="#f38020"/>
    </clipPath>
  </defs>
  <g id="Group_117149" data-name="Group 117149" transform="translate(-1640.449 -11)">
    <path id="Ornamentz" d="M-133.826-13.6a4.484,4.484,0,0,1-.671.814,7.384,7.384,0,0,1-.671.594l-.264.2a7.3,7.3,0,0,1-1.364-1.32,5.282,5.282,0,0,1-.616.682,5.607,5.607,0,0,1-.572.484l-.22.154a6.256,6.256,0,0,1-.836-.7,5.885,5.885,0,0,1-.572-.638l-.176-.264A12.668,12.668,0,0,1-138.2-15.2a7.773,7.773,0,0,1,1.408,1.364,14.934,14.934,0,0,1,1.364-1.364A9.075,9.075,0,0,1-133.826-13.6Zm2.442,13.53-.352.066h-.77q-2.42,0-3.014-3.1l-1.21,2a4.631,4.631,0,0,1-1.452.2,3.721,3.721,0,0,1-1.925-.451A2.708,2.708,0,0,1-141.174-2.4a3.079,3.079,0,0,1,0-1.419,3.9,3.9,0,0,1,.352-1.375,10.291,10.291,0,0,1,1.716-1.617A17.764,17.764,0,0,1-136.18-8.69l-.088-1.034,1.914-1.386h.594v6.446a3.536,3.536,0,0,0,.2,1.6q.2.253,1.3.253h.528l.352.066ZM-137.5-3.7a14.44,14.44,0,0,0,1.716-.132q-.044-.506-.242-2.948a18.333,18.333,0,0,0-2.233,1.133A9.694,9.694,0,0,0-140.008-4.4,3.928,3.928,0,0,0-137.5-3.7Zm6.2,3.7-.352-.066V-2.75l.352-.066a21.781,21.781,0,0,0,3.036-.132q-.154-.924-.451-2.112T-129.228-7l-.2-.726,1.782-1.782h.572l.99,2.816-.022.4-.594.616a10.114,10.114,0,0,1,.154,1.958,4.994,4.994,0,0,1-.891,1.826,5.335,5.335,0,0,1-1.309,1.584A7.292,7.292,0,0,1-131.3,0Zm5.412,2.9a5.263,5.263,0,0,1-.638.737,6.117,6.117,0,0,1-.616.539l-.242.2a6.352,6.352,0,0,1-1.276-1.232,6.742,6.742,0,0,1-.583.638,4.055,4.055,0,0,1-.517.44l-.2.154a6.245,6.245,0,0,1-.759-.649,5.461,5.461,0,0,1-.539-.605l-.154-.22a13.188,13.188,0,0,1,1.452-1.518,7.871,7.871,0,0,1,1.32,1.276,11.515,11.515,0,0,1,1.254-1.276A7.478,7.478,0,0,1-125.884,2.9ZM-121.2,0q-2.882,0-2.882-2.4a5.829,5.829,0,0,1,.286-1.716,6.777,6.777,0,0,1,.506-1.3l.814.22a5.732,5.732,0,0,0-.176,1.166,1.341,1.341,0,0,0,.11.594,1.142,1.142,0,0,0,.627.418,4.333,4.333,0,0,0,1.485.2q1.8,0,3.542-.154a30.162,30.162,0,0,0-3.674-5.742l1.386-2.266h.572a28.706,28.706,0,0,1,2.09,3.8,9.135,9.135,0,0,1,1.056,3.553,5.231,5.231,0,0,1-.726,1.727A4.529,4.529,0,0,1-117.326-.33a5.235,5.235,0,0,1-1.32.22Q-119.768,0-121.2,0Zm12.738,0a3.552,3.552,0,0,1-3.388-1.727q-.968-1.727-1.034-5.841l-.154-6.534,1.87-1.628h.572V-3.7q0,.594.429.737a6.487,6.487,0,0,0,1.7.143l.352.066V-.066ZM-99-2.816h.462a14.25,14.25,0,0,0,5.544-.946,6.154,6.154,0,0,0-1.518-1.98,3,3,0,0,0-1.98-.814,4.569,4.569,0,0,0-2.563.957A12.688,12.688,0,0,0-101.772-2.9q.9.088,2.178.088Zm8.976,2.75L-90.376,0H-91.5a2.653,2.653,0,0,1-1.958-1.166,7.908,7.908,0,0,1-2.255.792,15.8,15.8,0,0,1-3.6.374h-.572q-3.982,0-5.5-1.76A5.232,5.232,0,0,1-106.568-.4a2.687,2.687,0,0,1-1.584.4l-.352-.066V-2.75l.352-.066a17.515,17.515,0,0,0,1.826-.088l.814-2.332,1.342-.9.462.22q-.2,1.606-.308,2.376a3.078,3.078,0,0,0,1.144.462A17.646,17.646,0,0,1-99.583-7.6,5.524,5.524,0,0,1-95.788-9.46a3.6,3.6,0,0,1,2.86,1.694,5.285,5.285,0,0,1,1.276,3.058,4.785,4.785,0,0,1-.66,1.892h1.936l.352.066Zm6.864-10.912a5.333,5.333,0,0,1-.671.8,6.744,6.744,0,0,1-.671.605l-.264.2a7.839,7.839,0,0,1-1.364-1.342,5.283,5.283,0,0,1-.616.682,5.608,5.608,0,0,1-.572.484l-.22.176a6.61,6.61,0,0,1-.814-.715,6.533,6.533,0,0,1-.572-.649l-.176-.242a12.818,12.818,0,0,1,1.562-1.628,7.773,7.773,0,0,1,1.408,1.364,14.962,14.962,0,0,1,1.364-1.364A7.79,7.79,0,0,1-83.16-10.978ZM-83.2,0h-.2a4.259,4.259,0,0,1-3.542-1.694A7.543,7.543,0,0,1-88.33-.22,4.007,4.007,0,0,1-89.936,0l-.352-.066V-2.75l.352-.066A10.855,10.855,0,0,0-87.89-2.97l.858-3.41,1.65-1.056.462.132a27.4,27.4,0,0,1-.506,4.136,5.152,5.152,0,0,0,2.222.352l.352.066V-.066Zm7.81-15.114a4.8,4.8,0,0,1-.671.825,6.744,6.744,0,0,1-.671.6l-.264.2a8.8,8.8,0,0,1-1.364-1.342,5.282,5.282,0,0,1-.616.682q-.352.33-.572.506l-.22.154a6.61,6.61,0,0,1-.814-.715,5.11,5.11,0,0,1-.572-.671l-.176-.242a11.669,11.669,0,0,1,1.562-1.606,7.773,7.773,0,0,1,1.408,1.364A14.962,14.962,0,0,1-77-16.72,8.159,8.159,0,0,1-75.394-15.114ZM-76.23-.528A8.45,8.45,0,0,1-79.882,0h-2.64l-.352-.066V-2.75l.352-.066h3.476a22.8,22.8,0,0,0,3.19-.176q.044-.44.044-.726a8.5,8.5,0,0,0-.2-1.782L-76.6-4.29a3.163,3.163,0,0,1-.792.253,5.527,5.527,0,0,1-1.254.143,3.744,3.744,0,0,1-.506-.033q-.242-.033-.418-.066a1.818,1.818,0,0,1-.341-.1q-.165-.066-.275-.121a1.746,1.746,0,0,1-.22-.132q-.11-.077-.165-.121a1.5,1.5,0,0,1-.121-.11l-.066-.066a4.948,4.948,0,0,1-.495-1.221,4.676,4.676,0,0,1-.3-1.287,6.292,6.292,0,0,1,.484-1.859,5.677,5.677,0,0,1,1.3-1.892,2.685,2.685,0,0,1,1.914-.869q1.518,0,2.519,2.178a11.507,11.507,0,0,1,1,4.862,5.553,5.553,0,0,1-.132,1.32,7.065,7.065,0,0,1-.88,1.738Q-76.054-.572-76.23-.528Zm-4.356-6.2a5.08,5.08,0,0,0,2.134.462A8.051,8.051,0,0,0-76.3-6.556a5.484,5.484,0,0,0-.924-1.8,1.622,1.622,0,0,0-1.254-.7,1.659,1.659,0,0,0-1.232.693A4.472,4.472,0,0,0-80.586-6.732ZM-67.078,0A22.455,22.455,0,0,1-70.84-.176l-.11-.154L-70.4-3.1A22.877,22.877,0,0,0-66.55-5.94L-70.312-8.8l-.924.352-1.54-1.232.7-3.322.462-.154a75.079,75.079,0,0,1,6.424,5.61,4.3,4.3,0,0,0,.33-1.672v-2.376l-.7-1.826,2.376-2.31.66.4V-14.1l1.078,2.134L-62.59-10.8v.132a6.869,6.869,0,0,1-1.5,4.334q1.65,1.958,1.65,3.014a4.228,4.228,0,0,1-.682,1.672,4.048,4.048,0,0,1-.99,1.342A8.983,8.983,0,0,1-67.078,0Zm-1.958-2.64h2.486a10.316,10.316,0,0,0,2.838-.22,8.115,8.115,0,0,0-1.716-2.156A24.038,24.038,0,0,1-69.036-2.64Zm11.594-13.09V-3.74q0,.044-.253.9t-.55,1.8q-.3.946-.319,1.034h-.924q-.352-13.112-.4-14.124l1.848-1.606ZM-43.164-13.6a4.485,4.485,0,0,1-.671.814,7.384,7.384,0,0,1-.671.594l-.264.2a7.3,7.3,0,0,1-1.364-1.32,5.282,5.282,0,0,1-.616.682,5.608,5.608,0,0,1-.572.484l-.22.154a6.255,6.255,0,0,1-.836-.7,5.885,5.885,0,0,1-.572-.638l-.176-.264A12.668,12.668,0,0,1-47.542-15.2a7.774,7.774,0,0,1,1.408,1.364A14.931,14.931,0,0,1-44.77-15.2,9.075,9.075,0,0,1-43.164-13.6Zm2.442,13.53L-41.074,0h-.77q-2.42,0-3.014-3.1l-1.21,2a4.631,4.631,0,0,1-1.452.2,3.721,3.721,0,0,1-1.925-.451A2.708,2.708,0,0,1-50.512-2.4a3.079,3.079,0,0,1,0-1.419,3.9,3.9,0,0,1,.352-1.375,10.291,10.291,0,0,1,1.716-1.617A17.763,17.763,0,0,1-45.518-8.69l-.088-1.034,1.914-1.386h.594v6.446a3.536,3.536,0,0,0,.2,1.6q.2.253,1.3.253h.528l.352.066ZM-46.838-3.7a14.44,14.44,0,0,0,1.716-.132q-.044-.506-.242-2.948A18.332,18.332,0,0,0-47.6-5.643,9.694,9.694,0,0,0-49.346-4.4,3.928,3.928,0,0,0-46.838-3.7Zm6.2,3.7-.352-.066V-2.75l.352-.066A21.781,21.781,0,0,0-37.6-2.948q-.154-.924-.451-2.112T-38.566-7l-.2-.726L-36.982-9.5h.572l.99,2.816-.022.4-.594.616a10.114,10.114,0,0,1,.154,1.958,4.994,4.994,0,0,1-.891,1.826A5.335,5.335,0,0,1-38.082-.308,7.292,7.292,0,0,1-40.634,0Zm2.6,4.4a5.839,5.839,0,0,1-.836-.715,6.533,6.533,0,0,1-.572-.649l-.176-.242a12.009,12.009,0,0,1,1.584-1.628,8.611,8.611,0,0,1,1.606,1.628,5.333,5.333,0,0,1-.671.8,6.744,6.744,0,0,1-.671.605Zm7.612-20.13V-3.74q0,.044-.253.9t-.55,1.8q-.3.946-.319,1.034h-.924q-.352-13.112-.4-14.124l1.848-1.606Zm9.042,12.914-.022-.044A6.507,6.507,0,0,0-22.44-4.928a2.022,2.022,0,0,0-1.54-1.034,1.856,1.856,0,0,0-1.408.792,5.063,5.063,0,0,0-.968,1.848,5.685,5.685,0,0,0,2.794.506Zm-2.882,7.282a5.907,5.907,0,0,1-1.969-.957,13.778,13.778,0,0,1-1.881-1.287l.352-.792a13.852,13.852,0,0,0,2.4.33,6.575,6.575,0,0,0,2.475-.473A4.258,4.258,0,0,0-21.076,0H-23.43a6.6,6.6,0,0,1-1.7-.2,4.081,4.081,0,0,1-.979-.352,1.408,1.408,0,0,1-.33-.264A6.391,6.391,0,0,1-26.972-2.2a5.689,5.689,0,0,1-.33-1.43,6.646,6.646,0,0,1,.528-2.1,6.079,6.079,0,0,1,1.364-2,2.769,2.769,0,0,1,1.98-.891q1.342,0,2.332,1.793a9.8,9.8,0,0,1,1.166,4.015h1.188l.352.066V-.066L-18.744,0H-20.13a6.986,6.986,0,0,1-1.463,3.113A3.354,3.354,0,0,1-24.266,4.466ZM-12.122,0h-.2a4.259,4.259,0,0,1-3.542-1.694A7.543,7.543,0,0,1-17.248-.22,4.007,4.007,0,0,1-18.854,0l-.352-.066V-2.75l.352-.066a10.855,10.855,0,0,0,2.046-.154l.858-3.41,1.65-1.056.462.132a27.4,27.4,0,0,1-.506,4.136,5.152,5.152,0,0,0,2.222.352l.352.066V-.066Zm-3.366,4.4a5.839,5.839,0,0,1-.836-.715,6.534,6.534,0,0,1-.572-.649l-.176-.242a12.009,12.009,0,0,1,1.584-1.628,8.611,8.611,0,0,1,1.606,1.628,5.333,5.333,0,0,1-.671.8,6.744,6.744,0,0,1-.671.605ZM-11.682,0l-.352-.066V-2.75l.352-.066a16.653,16.653,0,0,0,2.618-.132l-.242-8.712-.638-1.8,2.4-2.266.594.33v1.166l1.144,2.2-1.122,1.21v6.336A4.906,4.906,0,0,1-8.184-2.2a10.866,10.866,0,0,1-1.8,1.98A4.036,4.036,0,0,1-11.682,0ZM-1.034-15.73V-3.74q0,.044-.253.9t-.55,1.8q-.3.946-.319,1.034H-3.08q-.352-13.112-.4-14.124l1.848-1.606Z" transform="translate(1781.7 41)" fill="#fff"/>
    <g id="Group_113620" data-name="Group 113620" transform="translate(1798.078 11)">
      <g id="Group_113613" data-name="Group 113613" transform="translate(12.876 21.712)">
        <g id="Group_113612" data-name="Group 113612" clip-path="url(#clip-path)">
          <path id="Path_91759" data-name="Path 91759" d="M.312.237,12.756,0l-.312,16.947L0,17.184Z" transform="matrix(0.919, -0.393, 0.393, 0.919, -5.646, 2.277)" fill="#f4f4f7"/>
        </g>
      </g>
      <g id="Group_113615" data-name="Group 113615" transform="translate(21.975 16.35)">
        <g id="Group_113614" data-name="Group 113614" transform="translate(0)" clip-path="url(#clip-path-2)">
          <path id="Path_91760" data-name="Path 91760" d="M.309.236,12.691,0l-.309,16.795L0,17.031Z" transform="matrix(0.919, -0.393, 0.393, 0.919, -5.586, 2.252)" fill="#f4f4f7"/>
        </g>
      </g>
      <g id="Group_113617" data-name="Group 113617" transform="translate(31.389 12.385)">
        <g id="Group_113616" data-name="Group 113616" transform="translate(0)" clip-path="url(#clip-path-3)">
          <path id="Path_91761" data-name="Path 91761" d="M.445.294,15.89,0l-.445,24.214L0,24.508Z" transform="matrix(0.919, -0.393, 0.393, 0.919, -8.527, 3.51)" fill="#f4f4f7"/>
        </g>
      </g>
      <g id="Group_113619" data-name="Group 113619">
        <g id="Group_113618" data-name="Group 113618" clip-path="url(#clip-path-4)">
          <path id="Path_91758" data-name="Path 91758" d="M1.255,1.358,72.541,0,71.286,68.264,0,69.622Z" transform="matrix(0.919, -0.393, 0.393, 0.919, -18.579, 6.855)" fill="#f38020"/>
        </g>
      </g>
    </g>
  </g>
</svg>
